<svg xmlns="http://www.w3.org/2000/svg" xmlns:xlink="http://www.w3.org/1999/xlink" width="192" zoomAndPan="magnify" viewBox="0 0 144 165.749995" height="221" preserveAspectRatio="xMidYMid meet" version="1.0"><defs><clipPath id="b5a7324332"><path d="M 0.109375 0 L 143.890625 0 L 143.890625 165.5 L 0.109375 165.5 Z M 0.109375 0 " clip-rule="nonzero"/></clipPath><clipPath id="af80a37d53"><path d="M 60.597656 7.601562 L 94.324219 7.601562 L 94.324219 155.332031 L 60.597656 155.332031 Z M 60.597656 7.601562 " clip-rule="nonzero"/></clipPath><clipPath id="1743d25478"><path d="M 94.082031 71.351562 C 94.296875 50.769531 93.578125 30.078125 89.742188 9.839844 L 92.5 7.832031 L 89.449219 8.273438 L 89.367188 8.421875 L 89.203125 8.566406 C 79.785156 9.1875 70.191406 11.503906 63.648438 18.621094 L 64.542969 18.472656 C 59.011719 57.640625 59.257812 98.441406 65.832031 137.542969 C 71.496094 101.117188 71.839844 63.304688 66.683594 26.746094 C 68.691406 26.632812 74.027344 25.574219 83.050781 23.304688 L 84.632812 37.765625 L 88.875 20.351562 C 74.238281 22.996094 68.574219 24.953125 66.566406 25.964844 L 65.394531 18.292969 C 72.261719 17.085938 79.183594 15.652344 85.351562 12.289062 C 86.167969 11.847656 87.71875 11.046875 89.023438 10.28125 C 84.371094 36.246094 85.402344 62.714844 85.5625 88.976562 C 85.484375 111.070312 85.808594 133.460938 90.214844 155.167969 C 95.503906 127.570312 94.050781 99.289062 94.082031 71.332031 " clip-rule="nonzero"/></clipPath><clipPath id="54f1556fbe"><path d="M 49.675781 142.503906 L 86.726562 142.503906 L 86.726562 151.53125 L 49.675781 151.53125 Z M 49.675781 142.503906 " clip-rule="nonzero"/></clipPath><clipPath id="22dfa1c1c1"><path d="M 50.640625 151.382812 C 51.195312 143.1875 61.246094 149.261719 66.484375 148.753906 C 72.3125 149.503906 78.171875 149.375 83.964844 148.347656 C 96.023438 147.21875 62.570312 140.871094 57.886719 143.058594 C 52.207031 143.089844 47.816406 145 50.640625 151.398438 " clip-rule="nonzero"/></clipPath><clipPath id="4a7cc7ec94"><path d="M 53.472656 151.054688 L 87.675781 151.054688 L 87.675781 157.707031 L 53.472656 157.707031 Z M 53.472656 151.054688 " clip-rule="nonzero"/></clipPath><clipPath id="7e30782234"><path d="M 75.835938 157.519531 C 106.273438 158.675781 69.195312 149.832031 58.996094 151.285156 C 42.203125 152.179688 69.390625 158.105469 75.835938 157.519531 " clip-rule="nonzero"/></clipPath></defs><g clip-path="url(#b5a7324332)"><path fill="#ffffff" d="M 0.109375 0 L 143.890625 0 L 143.890625 165.5 L 0.109375 165.5 Z M 0.109375 0 " fill-opacity="1" fill-rule="nonzero"/></g><g clip-path="url(#af80a37d53)"><g clip-path="url(#1743d25478)"><path fill="#2c2c2c" d="M 41.597656 0 L 102.402344 0 L 102.402344 165.78125 L 41.597656 165.78125 Z M 41.597656 0 " fill-opacity="1" fill-rule="nonzero"/></g></g><g clip-path="url(#54f1556fbe)"><g clip-path="url(#22dfa1c1c1)"><path fill="#2c2c2c" d="M 41.597656 0 L 102.402344 0 L 102.402344 165.78125 L 41.597656 165.78125 Z M 41.597656 0 " fill-opacity="1" fill-rule="nonzero"/></g></g><g clip-path="url(#4a7cc7ec94)"><g clip-path="url(#7e30782234)"><path fill="#2c2c2c" d="M 41.597656 0 L 102.402344 0 L 102.402344 165.78125 L 41.597656 165.78125 Z M 41.597656 0 " fill-opacity="1" fill-rule="nonzero"/></g></g></svg>