<svg xmlns="http://www.w3.org/2000/svg" xmlns:xlink="http://www.w3.org/1999/xlink" width="192" zoomAndPan="magnify" viewBox="0 0 144 165.749995" height="221" preserveAspectRatio="xMidYMid meet" version="1.0"><defs><clipPath id="abb3142849"><path d="M 0.109375 0 L 143.890625 0 L 143.890625 165.5 L 0.109375 165.5 Z M 0.109375 0 " clip-rule="nonzero"/></clipPath><clipPath id="47f8f3cf8e"><path d="M 61.929688 34.488281 L 82.5625 34.488281 L 82.5625 124.875 L 61.929688 124.875 Z M 61.929688 34.488281 " clip-rule="nonzero"/></clipPath><clipPath id="f81feb3730"><path d="M 82.414062 73.492188 C 82.546875 60.902344 82.105469 48.242188 79.757812 35.859375 L 81.445312 34.632812 L 79.578125 34.902344 L 79.53125 34.992188 L 79.429688 35.082031 C 73.667969 35.460938 67.796875 36.878906 63.792969 41.230469 L 64.34375 41.140625 C 60.957031 65.105469 61.105469 90.066406 65.132812 113.992188 C 68.597656 91.707031 68.804688 68.570312 65.652344 46.203125 C 66.878906 46.132812 70.144531 45.484375 75.664062 44.097656 L 76.632812 52.945312 L 79.230469 42.289062 C 70.273438 43.90625 66.808594 45.105469 65.582031 45.726562 L 64.863281 41.03125 C 69.066406 40.292969 73.300781 39.414062 77.074219 37.355469 C 77.574219 37.085938 78.519531 36.597656 79.320312 36.128906 C 76.472656 52.015625 77.101562 68.210938 77.203125 84.277344 C 77.152344 97.796875 77.351562 111.496094 80.046875 124.773438 C 83.285156 107.890625 82.394531 90.585938 82.414062 73.484375 " clip-rule="nonzero"/></clipPath><clipPath id="e277bd4178"><path d="M 55.246094 117.027344 L 77.914062 117.027344 L 77.914062 122.550781 L 55.246094 122.550781 Z M 55.246094 117.027344 " clip-rule="nonzero"/></clipPath><clipPath id="b3b3f64184"><path d="M 55.835938 122.457031 C 56.175781 117.445312 62.324219 121.160156 65.53125 120.851562 C 69.09375 121.308594 72.679688 121.230469 76.222656 120.601562 C 83.601562 119.914062 63.132812 116.027344 60.269531 117.367188 C 56.792969 117.386719 54.109375 118.554688 55.835938 122.46875 " clip-rule="nonzero"/></clipPath><clipPath id="ec21ccd28c"><path d="M 57.570312 122.257812 L 78.496094 122.257812 L 78.496094 126.328125 L 57.570312 126.328125 Z M 57.570312 122.257812 " clip-rule="nonzero"/></clipPath><clipPath id="3489b4a6a8"><path d="M 71.253906 126.214844 C 89.875 126.921875 67.1875 121.511719 60.949219 122.398438 C 50.671875 122.949219 67.308594 126.574219 71.253906 126.214844 " clip-rule="nonzero"/></clipPath></defs><g clip-path="url(#abb3142849)"><path fill="#ffffff" d="M 0.109375 0 L 143.890625 0 L 143.890625 165.5 L 0.109375 165.5 Z M 0.109375 0 " fill-opacity="1" fill-rule="nonzero"/></g><g clip-path="url(#47f8f3cf8e)"><g clip-path="url(#f81feb3730)"><path fill="#2c2c2c" d="M 50.304688 29.839844 L 87.503906 29.839844 L 87.503906 131.269531 L 50.304688 131.269531 Z M 50.304688 29.839844 " fill-opacity="1" fill-rule="nonzero"/></g></g><g clip-path="url(#e277bd4178)"><g clip-path="url(#b3b3f64184)"><path fill="#2c2c2c" d="M 50.304688 29.839844 L 87.503906 29.839844 L 87.503906 131.269531 L 50.304688 131.269531 Z M 50.304688 29.839844 " fill-opacity="1" fill-rule="nonzero"/></g></g><g clip-path="url(#ec21ccd28c)"><g clip-path="url(#3489b4a6a8)"><path fill="#2c2c2c" d="M 50.304688 29.839844 L 87.503906 29.839844 L 87.503906 131.269531 L 50.304688 131.269531 Z M 50.304688 29.839844 " fill-opacity="1" fill-rule="nonzero"/></g></g></svg>