<?xml version="1.0" standalone="no"?>
<!DOCTYPE svg PUBLIC "-//W3C//DTD SVG 1.0//EN" "http://www.w3.org/TR/2001/REC-SVG-20010904/DTD/svg10.dtd">
<svg xmlns="http://www.w3.org/2000/svg" xmlns:xlink="http://www.w3.org/1999/xlink" id="body_1" width="800" height="599">

<defs>
    <clipPath  id="1">

    <path id=""  clip-rule="evenodd" transform="matrix(1 0 0 1 0 0)"  d="M0 449L0 -1L0 -1L600 -1L600 -1L600 449L600 449L0 449z" />    </clipPath>
    <clipPath  id="2">

    <path id=""  clip-rule="evenodd" transform="matrix(1 0 0 1 0 0)"  d="M0 -1L600 -1L600 -1L600 449L600 449L0 449z" />    </clipPath>
    <clipPath  id="3">

    <path id=""  clip-rule="evenodd" transform="matrix(1 0 0 1 0 0)"  d="M0 -1L600 -1L600 -1L600 449L600 449L0 449z" />    </clipPath>
    <clipPath  id="4">

    <path id=""  clip-rule="evenodd" transform="matrix(1 0 0 1 0 0)"  d="M241.3127 71.15729L392.0627 71.15729L392.0627 71.15729L392.0627 359.1573L392.0627 359.1573L241.3127 359.1573z" />    </clipPath>
</defs>

<g transform="matrix(1.3333 0 0 1.3333 0 0)">
	<g clip-path="url(#1)" >
		<g clip-path="url(#2)" >
    <path id=""  transform="matrix(1 0 0 -1 0 449)"  d="M0 450L600 450L600 450L600 0L600 0L0 0z" stroke="none" fill="#FFFFFF" fill-rule="nonzero" />
		</g>
		<g clip-path="url(#3)" >
    <path id=""  transform="matrix(1 0 0 -1 0 449)"  d="M0 450L600 450L600 450L600 0L600 0L0 0z" stroke="none" fill="#FFFFFF" fill-rule="nonzero" />
		</g>
		<g clip-path="url(#4)" >
    <path id=""  transform="matrix(1 0 0 -1 0 449)"  d="M384.5579 186.3533C 385.0921 189.9404 384.4816 193.6802 383.642 197.2673C 383.3367 198.9463 382.8788 200.5491 382.3446 202.1518C 381.2761 205.9678 380.1313 209.7839 377.9943 213.142C 377.8416 213.371 377.689 213.5999 377.5363 213.8289C 373.9493 220.6215 369.4463 226.8798 364.8671 232.2223C 362.5011 235.0461 359.9825 237.4884 357.4639 239.6254C 367.0804 234.4356 375.6283 227.414 381.963 217.416C 389.2898 205.9678 389.0608 195.3592 384.5579 186.3533zM273.3582 164.6782C 274.8846 163.5334 276.3347 162.3885 277.7085 161.2437C 278.3954 160.7095 279.1586 160.1752 279.8455 159.641C 279.8455 159.5647 279.8455 159.5647 279.8455 159.4883C 277.5558 161.0911 275.4189 162.8465 273.3582 164.6782zM332.8886 244.052C 332.8886 244.3573 332.9649 244.5863 332.9649 244.8916C 335.4072 244.2047 337.8494 243.4415 340.2154 242.4493C 345.3289 240.007 350.2134 236.8015 354.7164 232.9855C 347.7712 237.2594 340.2154 240.4649 332.8886 244.052zM377.8416 183.6821C 377.6127 182.5373 377.3837 181.4688 377.0021 180.4003C 376.1626 178.7976 375.2467 177.2711 374.4835 175.6684C 373.7966 174.4473 373.0334 173.3024 372.1939 172.1576C 372.1176 172.0813 372.0412 172.005 372.0412 171.9287C 363.0353 165.0598 351.4346 160.4042 340.5207 158.8015C 334.644 157.9619 328.8435 157.8093 323.0432 158.1909C 323.5774 162.5412 324.188 166.8152 324.6459 171.1655C 324.6459 171.4707 324.7222 171.776 324.7222 172.005C 325.4854 176.5079 326.1723 181.0109 326.8592 185.5138C 329.1488 201.5412 330.7516 217.7213 332.1254 233.9013C 337.0099 232.0696 341.8944 230.2379 346.7027 228.3299C 353.8768 225.3534 360.2115 220.6978 366.4698 216.0422C 367.7672 214.9737 369.141 213.9052 370.3622 212.7604C 370.9727 212.2262 371.507 211.6919 371.9649 211.0813C 376.1626 202.6097 378.3759 193.2222 377.8416 183.6821zM322.3563 153.5353C 328.233 153.2301 334.1097 153.3827 340.0627 154.2985C 341.4365 154.5275 342.8103 154.8328 344.1841 155.0618C 337.0862 153.2301 329.6831 152.7721 322.3563 153.2301C 322.3563 153.3827 322.3563 153.459 322.3563 153.5353zM307.8553 155.367C 307.8553 155.2907 307.8553 155.2144 307.8553 155.1381C 306.7868 155.367 305.7183 155.596 304.6498 155.825C 303.5813 156.0539 302.5891 156.4355 301.597 156.7408C 303.6576 156.2066 305.7183 155.7486 307.8553 155.367zM300.9864 193.5275C 303.0471 210.4708 305.5656 227.3377 308.1606 244.2047C 309.3817 243.5941 310.5265 242.9835 311.7477 242.373C 314.4189 241.0755 317.1664 239.9307 319.8377 238.7859C 319.0745 232.2986 318.2349 225.735 317.3954 219.0951C 314.4189 199.4806 311.2897 179.9424 308.5422 160.2516C 304.0392 161.1674 299.5363 162.3885 295.1097 163.7623C 297.0177 173.7604 299.1547 183.6058 300.9864 193.5275zM323.3484 267.1773C 322.9669 264.3534 322.5852 261.4532 322.28 258.6293C 319.5324 259.3925 316.8611 260.1558 314.1899 260.919C 313.1214 261.2242 312.1293 261.5295 311.0608 261.8348C 313.4267 276.5648 315.869 291.2947 318.0823 306.101C 318.8455 312.9699 319.5324 319.9151 320.2193 326.784C 321.5931 327.0129 323.0432 327.0893 324.4933 327.0893C 326.1723 327.0893 327.8514 327.0129 329.5305 326.9366C 328.8436 322.0521 328.1567 317.0912 327.5461 312.2067C 325.4091 297.4767 324.9512 282.1362 323.3484 267.1773zM283.1273 285.418C 282.7457 286.9444 282.4404 288.4708 282.2878 289.9973C 282.593 299.5374 286.2564 306.7115 293.8122 312.8936C 298.2388 317.0912 303.4287 320.9073 309.0001 323.5022C 306.4052 312.054 303.8866 300.6822 301.9786 289.1577C 300.5285 281.4493 299.5363 273.6646 298.6205 265.9561C 298.4678 266.0325 298.3152 266.1088 298.0862 266.1851C 291.3699 271.5276 285.9512 276.6411 283.1273 285.418zM391.6557 199.6332C 391.6557 216.8054 378.2232 232.6802 364.1802 241.7624C 354.7927 247.9444 344.4131 251.9131 333.7281 255.2712C 333.8044 256.2634 333.8807 257.2556 333.9571 258.324C 334.415 263.0559 334.9492 267.7878 335.4072 272.4434C 337.1625 289.9209 338.9179 307.4748 340.2917 325.0286C 352.4268 320.2204 363.5696 312.3593 372.5755 303.3534C 375.9336 298.5452 379.9023 293.737 381.963 288.2419C 382.0393 287.0208 383.1078 285.9522 384.4816 286.1049C 386.008 286.6391 386.5422 287.555 386.5422 288.6998C 386.5422 291.371 383.642 295.1108 382.8788 297.1714C 382.8025 297.4004 382.6498 297.6293 382.5735 297.8583C 383.642 297.7057 384.7869 297.8583 385.8553 298.4689C 387.7634 299.4611 388.9082 301.5217 388.9082 303.5824C 388.9082 304.4219 388.6792 305.3378 388.2213 306.101C 386.4659 309.1538 384.4816 312.054 382.4972 314.9542C 375.9336 324.9523 367.9199 330.5237 357.006 335.103C 351.9688 337.3926 346.7027 338.9953 341.3602 339.9875C 341.5128 342.4298 341.7418 344.7957 341.8945 347.238C 342.3524 350.9777 342.0471 354.9464 343.1919 358.5335C 343.1919 358.6098 343.1919 358.7625 343.1919 358.8388C 343.1919 359.2204 343.0393 359.5257 342.8866 359.7546C 343.1919 360.8995 343.4972 362.0443 343.8025 363.1128C 343.8025 363.1128 343.8025 363.0364 343.8025 363.0364C 343.8025 363.0364 343.8025 362.9601 343.8025 362.9601C 344.1078 363.9523 344.4894 365.0208 344.7946 366.013C 344.7946 366.0893 344.871 366.1656 344.871 366.3182C 345.0236 366.5472 345.0999 366.8525 345.0999 367.0815C 345.0999 368.3026 343.4209 368.9132 342.5814 367.7683C 341.6655 365.8603 341.1313 363.7233 340.5207 361.739C 338.6127 354.8701 337.0099 347.9249 335.7888 340.9034C 335.5598 340.9034 335.3309 340.9797 335.1019 340.9797C 335.5598 345.7879 335.9414 350.6725 336.3994 355.4807C 336.552 357.6176 336.7047 359.6783 336.7047 361.8153C 336.7047 362.6548 336.7047 363.4944 336.6283 364.3339C 336.8573 365.3261 335.9414 366.3182 334.8729 365.9366C 334.0334 365.6313 333.8044 364.7155 334.186 364.0286C 334.186 358.6098 333.1176 353.2674 332.3543 347.7722C 332.049 345.6353 331.7438 343.4983 331.4385 341.3613C 328.3093 341.5139 325.1802 341.4376 322.051 341.2086C 323.3484 349.8329 324.7222 358.5335 327.3935 366.8525C 327.3935 366.8525 327.3935 366.8525 327.3935 366.9288C 327.3935 367.3867 327.0119 367.921 326.4776 367.921C 325.7907 367.921 325.4091 367.3104 325.2565 366.7762C 324.5696 364.8682 324.1117 362.8838 323.5774 360.8994C 323.3484 360.1363 323.1958 359.2967 322.9669 358.5335C 323.4248 363.9523 323.959 369.2948 324.4933 374.7136C 324.4933 374.7899 324.4933 374.9425 324.4933 375.0188C 324.4933 376.24 323.6537 377.3085 322.3563 377.3848C 321.8984 377.4611 321.5168 377.3848 321.2115 377.0795C 321.0588 377.3085 320.7535 377.5374 320.4482 377.6138C 319.6851 377.8427 318.8455 377.4611 318.6165 376.6979C 317.0138 367.7683 316.1743 358.6862 314.4189 349.8329C 313.8083 346.5511 313.1978 343.2693 312.5109 339.9875C 307.7026 338.6901 302.9707 337.24 298.3915 335.4083C 292.8964 333.0423 287.4012 328.921 282.7457 324.1891C 271.0686 314.8016 263.1312 301.7507 265.5735 286.0286C 267.0236 277.328 269.4658 267.7878 277.2506 262.6743C 281.8298 258.9346 286.7907 256.3397 291.9805 254.3553C 293.6596 253.2105 295.3387 252.0657 297.0177 250.9209C 296.9414 250.0814 296.8651 249.3182 296.7887 248.4786C 294.6517 228.6352 289.3093 209.326 285.0353 189.7878C 283.5852 182.8426 282.3641 175.8211 281.2956 168.7232C 280.9903 168.8759 280.6087 168.9522 280.3034 169.1048C 279.7692 169.4864 279.3112 169.868 278.777 170.1733C 270.7633 177.7291 257.6361 183.5295 256.7202 195.7408C 256.5676 196.8857 255.728 197.8015 254.5832 197.8015C 252.9805 197.8778 252.3699 196.6567 251.9883 195.3592C 251.9883 195.6645 251.9883 195.8935 251.9883 196.2751C 252.141 196.733 252.3699 197.1909 252.0646 197.7252C 251.1488 199.1753 249.3934 198.2594 249.3171 196.733C 249.0118 191.6958 251.683 187.1165 254.2779 182.9189C 254.5832 182.3846 254.8885 181.9267 255.1938 181.4688C 255.2701 181.3161 255.3464 181.1635 255.4228 181.0872C 256.0333 180.2477 256.6439 179.3318 257.2545 178.4923C 256.7202 178.7212 256.1096 178.9502 255.5754 179.1792C 252.5989 180.4003 249.4697 181.6978 246.3406 182.9189C 245.501 183.3005 244.5089 183.3005 243.6693 182.8426C 241.3797 181.6978 241.685 178.1107 244.1273 177.3474C 250.6909 174.8289 257.2545 172.1576 263.8181 169.5627C 268.2447 164.0676 273.2056 158.9541 279.1586 154.9854C 278.8533 153.1537 278.6243 151.2457 278.3191 149.414C 277.2505 142.3161 276.2584 135.1419 275.7242 127.9678C 275.1136 121.0225 275.0373 114.0773 274.8846 107.1321C 274.8846 106.3689 275.0373 105.7584 275.2662 105.2241C 275.1899 104.3082 275.1136 103.3161 275.0373 102.4002C 274.8846 98.12625 280.9903 97.59201 281.7535 101.637C 282.0588 103.3924 282.2878 105.0714 282.5167 106.8268C 283.051 108.7349 283.4326 110.7192 283.8142 112.6272C 285.2643 112.6272 286.7907 113.3141 287.6302 114.6879C 289.9199 118.4276 290.3015 122.8543 290.6068 127.0519C 290.8357 134.0735 291.5989 141.095 292.5911 148.0402C 297.0177 146.3611 301.597 145.2163 306.2525 144.4531C 304.4208 132.4707 302.8181 120.5646 301.9023 108.2769C 301.4443 103.2397 300.9101 98.20258 301.4443 93.16541C 301.597 91.48633 303.0471 90.11255 304.7261 90.03622C 306.3289 89.9599 308.0843 91.18106 308.3132 92.86011C 308.3895 93.24173 308.4659 93.62332 308.4659 94.00494C 309.6107 94.00494 310.6792 94.61548 311.2897 95.53134C 311.6713 95.60767 312.0529 95.83664 312.4345 96.06561C 316.4032 99.04211 315.64 104.7662 316.5559 109.1928C 317.8533 120.4883 319.5324 131.7838 321.0588 143.003C 324.8749 142.9267 328.6909 143.1557 332.507 143.6899C 340.0627 144.7584 347.0843 147.8876 353.7242 151.3983C 364.9434 156.0539 374.7888 163.6097 381.6577 174.142C 382.0393 174.9815 382.3446 175.821 382.6498 176.6606C 385.6264 180.2477 388.0687 184.2163 389.824 188.643C 391.0452 192.3827 391.6557 196.0461 391.6557 199.6332z" stroke="none" fill="#00BF63" fill-rule="nonzero" />
		</g>
	</g>
</g>
</svg>