<svg version="1.1" id="Layer_1" xmlns="http://www.w3.org/2000/svg" xmlns:xlink="http://www.w3.org/1999/xlink" x="0px" y="0px"
	 width="100%" viewBox="0 0 254 428" enable-background="new 0 0 254 428" xml:space="preserve">
<path fill="#FDFFFE" opacity="1.000000" stroke="none" 
	d="
M255.000000,165.000000 
	C255.000000,253.333328 255.000000,341.166656 255.000000,429.000000 
	C170.333328,429.000000 85.666664,429.000000 1.000000,429.000000 
	C1.000000,286.333344 1.000000,143.666672 1.000000,1.000000 
	C85.666664,1.000000 170.333328,1.000000 255.000000,1.000000 
	C255.000000,55.500000 255.000000,110.000000 255.000000,165.000000 
M204.919205,126.082672 
	C204.919205,126.082672 204.830048,126.103638 204.997238,126.628922 
	C205.310562,126.794792 205.623886,126.960663 205.953568,127.042641 
	C205.953568,127.042641 205.872070,127.068428 206.042664,127.588982 
	C206.347992,127.767998 206.653320,127.947006 207.104965,128.578323 
	C207.311600,128.844589 207.582550,128.995026 208.062561,129.635498 
	C208.714767,130.412308 209.366989,131.189117 209.995880,131.995956 
	C209.995880,131.995956 210.031494,131.984222 210.146500,132.632217 
	C211.349945,134.168900 212.553391,135.705566 213.825806,137.121201 
	C213.825806,137.121201 213.698807,137.178497 213.796844,137.767197 
	C214.190964,138.188309 214.585068,138.609436 215.003372,139.003662 
	C215.003372,139.003662 214.969101,139.013000 215.019241,139.646851 
	C215.651581,140.467621 216.283905,141.288391 216.968781,142.035004 
	C216.968781,142.035004 216.878983,142.049179 216.918716,142.645355 
	C217.278748,143.097672 217.638794,143.549973 218.000000,144.000000 
	C218.000000,144.000000 217.998093,144.000702 218.002838,144.547592 
	C218.246521,144.794632 218.490204,145.041687 218.775742,145.164597 
	C218.775742,145.164597 218.652176,145.208054 218.697693,145.803741 
	C218.994339,146.301163 219.290985,146.798569 219.535461,147.186478 
	C219.535461,147.186478 219.556900,147.307343 219.682541,148.031616 
	C221.208405,149.299744 222.734253,150.567871 224.260117,151.835983 
	C224.674927,149.695496 225.254868,147.567505 225.418076,145.408005 
	C225.477966,144.615402 224.551498,143.748260 224.001663,142.991608 
	C224.001663,142.991608 224.091248,142.935242 224.048157,142.212158 
	C223.290161,140.686020 222.532150,139.159882 221.863251,137.813110 
	C223.835068,136.403107 225.465134,135.237473 227.016296,134.016403 
	C227.016296,134.016403 227.056503,134.104080 227.580093,133.953369 
	C227.724106,133.637192 227.868134,133.320999 227.999390,133.000000 
	C227.999390,133.000000 228.007629,133.012100 228.593338,132.636261 
	C230.149567,129.370667 229.890717,126.388832 227.155777,123.885674 
	C227.155777,123.885674 227.266663,123.861237 227.214218,123.251686 
	C226.834732,122.801926 226.455246,122.352173 226.014038,121.973969 
	C226.014038,121.973969 226.104874,121.947945 226.051926,121.396095 
	C225.786484,121.163094 225.521057,120.930092 225.212540,120.891846 
	C225.212540,120.891846 225.319321,120.723366 225.216110,120.068672 
	C224.178925,118.669449 223.141724,117.270226 222.025772,115.971848 
	C222.025772,115.971848 222.136703,115.908081 222.044662,115.280991 
	C221.390747,114.485138 220.736832,113.689278 220.012756,112.983551 
	C220.012756,112.983551 220.110245,112.924034 219.961624,112.255692 
	C218.103027,110.051094 216.244446,107.846489 214.096405,105.821114 
	C214.096405,105.821114 214.409790,105.688118 214.268463,105.126991 
	C213.837280,104.769188 213.406113,104.411385 212.818298,103.563225 
	C212.539276,103.377968 212.260254,103.192711 211.861160,102.503693 
	C211.574387,102.332420 211.287598,102.161140 210.856201,101.509155 
	C210.584320,101.334595 210.312439,101.160034 209.823563,100.433151 
	C209.322281,100.144020 208.820984,99.854889 208.228836,99.908142 
	C208.228836,99.908142 208.367233,99.582062 208.081207,99.032150 
	C207.048340,98.365532 206.015457,97.698914 204.995499,96.995934 
	C204.995499,96.995934 204.965240,97.020927 204.678909,96.467506 
	C203.787918,95.978409 202.896942,95.489304 202.000610,94.999390 
	C202.000610,94.999390 201.997421,94.995041 201.708725,94.445557 
	C200.800842,93.992531 199.892975,93.539505 198.809006,92.830605 
	C198.809006,92.830605 198.498672,92.817833 198.163940,92.303764 
	C197.782089,92.187485 197.400253,92.071205 197.008041,92.004585 
	C197.008041,92.004585 197.044266,91.968864 196.670975,91.397270 
	C190.780624,88.909180 184.890259,86.421097 178.823380,83.720352 
	C178.823380,83.720352 178.554459,83.784195 178.013397,83.226196 
	C174.371277,82.408798 170.729141,81.591408 167.107529,80.892960 
	C167.107529,80.892960 167.211151,80.831047 166.810608,80.024170 
	C166.716370,77.671753 166.622131,75.319336 166.763672,72.323326 
	C166.743225,71.870056 166.722778,71.416779 166.953293,70.141037 
	C167.152481,66.765053 167.351654,63.389065 167.864838,59.311531 
	C167.912949,58.549770 167.961060,57.788013 168.372986,56.398556 
	C168.452194,54.933895 168.531403,53.469234 168.951157,51.332081 
	C169.041901,50.586491 169.132645,49.840900 169.159302,49.112823 
	C169.159302,49.112823 169.223694,49.139038 169.766647,48.687424 
	C170.099075,47.774723 170.652939,46.874165 170.703842,45.946026 
	C170.758575,44.947933 170.341370,43.923962 170.130096,42.911270 
	C169.158249,43.608803 168.186417,44.306339 166.942612,45.432919 
	C166.902847,45.763809 166.863083,46.094704 166.309937,46.921368 
	C166.193710,47.608566 166.077484,48.295761 165.579788,49.395977 
	C165.455261,49.930130 165.330734,50.464287 164.958939,51.451435 
	C164.966797,51.623238 164.974670,51.795044 164.595978,52.587051 
	C163.625458,56.747749 162.654938,60.908451 161.318619,65.643883 
	C161.285141,66.093750 161.251663,66.543625 160.807846,67.587296 
	C160.156769,68.746407 159.505692,69.905518 158.837448,70.250732 
	C158.829849,69.166580 158.822250,68.082436 159.052353,66.187752 
	C159.379639,60.425018 159.802444,54.664593 159.941864,48.897324 
	C159.965607,47.915428 158.774796,46.904171 158.145081,45.906475 
	C157.501022,46.846554 156.657486,47.715027 156.285034,48.752609 
	C156.048141,49.412617 156.510559,50.323650 156.406097,51.814198 
	C156.392639,52.547218 156.379181,53.280235 156.046829,54.747902 
	C155.876678,56.854397 155.706528,58.960896 155.265991,61.674107 
	C155.250198,62.113949 155.234390,62.553787 154.947418,63.751682 
	C154.467697,67.523232 153.987961,71.294785 153.231812,75.666336 
	C153.208557,76.103851 153.185303,76.541367 152.929276,77.450104 
	C152.937943,77.625084 152.946609,77.800056 153.006653,77.983101 
	C153.006653,77.983101 152.964752,77.951225 152.056702,78.150581 
	C148.247818,78.158867 144.438934,78.167152 140.735748,77.450104 
	C140.735443,76.963959 140.735153,76.477821 141.030426,75.238922 
	C142.115082,68.803894 143.199753,62.368866 144.651871,55.353489 
	C144.712830,54.903431 144.773804,54.453373 145.140533,53.416126 
	C144.756363,51.642311 144.372192,49.868500 143.356369,47.711445 
	C143.299103,44.374531 142.999222,41.020367 143.235046,37.704296 
	C143.726715,30.791180 143.581467,30.519279 136.158920,30.603054 
	C135.783676,32.441170 135.322983,34.353832 135.009232,36.290310 
	C132.908096,49.259644 130.957306,62.255409 128.636627,75.184959 
	C128.266418,77.247604 126.593140,80.348824 124.996590,80.722252 
	C108.861809,84.496071 95.836037,93.266945 84.190918,104.645645 
	C73.137764,115.445923 64.701515,127.536934 64.661621,143.682663 
	C64.610046,164.557312 71.884880,181.415466 91.823509,190.872116 
	C94.075096,191.940002 96.370979,192.916443 98.661430,193.900101 
	C106.499435,197.266220 107.109581,198.229462 106.109299,206.426529 
	C105.625610,210.390244 105.215897,214.382721 104.392784,218.281982 
	C99.791382,240.079681 95.008080,261.839020 90.430283,283.641602 
	C88.736565,291.708252 87.432701,299.856750 85.754684,309.042786 
	C78.633125,303.428528 72.184975,298.539459 65.958557,293.382660 
	C59.551903,288.076630 54.423729,281.897034 53.157951,273.195343 
	C52.989559,272.037720 51.244656,270.734680 49.943493,270.212524 
	C48.362946,269.578278 46.478542,269.701233 44.009613,269.412994 
	C41.820507,279.443756 48.694763,286.519592 53.059349,295.196838 
	C48.413212,293.318329 44.697109,291.389099 40.745689,290.400482 
	C38.805645,289.915039 35.337551,290.463654 34.475494,291.789276 
	C32.628235,294.629913 34.981739,296.707245 37.701622,297.794708 
	C43.876644,300.263580 50.245014,302.307312 56.240398,305.145691 
	C59.997154,306.924255 63.423634,309.589417 66.632355,312.291321 
	C71.203796,316.140717 75.246735,320.628021 79.894028,324.373016 
	C82.495064,326.469086 83.099373,328.453857 82.580215,331.610413 
	C79.117561,352.663849 76.909485,373.815216 77.831650,395.215668 
	C77.978378,398.620758 78.415314,401.367310 82.288841,401.573883 
	C86.120392,401.778229 86.494621,398.701019 87.071388,395.811584 
	C88.153328,390.391449 87.280411,384.000977 94.007378,381.178955 
	C94.606003,380.927795 94.994606,379.832611 95.203865,379.054932 
	C96.234161,375.225861 97.615433,371.421570 98.054382,367.516541 
	C99.197540,357.346619 99.912933,347.128540 100.834961,336.515442 
	C107.512451,338.292114 113.225571,339.812164 119.005905,341.350128 
	C117.479439,353.732880 115.724396,365.743500 114.595795,377.812683 
	C113.651764,387.907990 113.285637,398.068451 113.063080,408.208801 
	C113.027718,409.820007 114.836700,412.465118 116.265961,412.842896 
	C117.773369,413.241364 119.983459,411.704193 121.632675,410.624756 
	C123.063927,409.688049 123.963676,407.926941 125.407104,407.023438 
	C129.574951,404.414551 131.483276,400.663483 132.056900,395.910980 
	C133.312973,385.504272 134.576660,375.094849 136.102203,364.725525 
	C137.178909,357.406982 138.690964,350.152527 140.920914,343.040192 
	C149.799911,341.430878 158.678909,339.821564 167.822006,338.276337 
	C167.822006,338.276337 167.994003,338.065887 168.762482,338.074677 
	C176.928314,334.142883 185.094162,330.211090 193.115051,326.197021 
	C193.115051,326.197021 193.205093,326.337311 193.796860,326.238190 
	C194.235428,325.855042 194.673996,325.471863 195.024475,325.016876 
	C195.024475,325.016876 195.075424,325.118469 195.710846,325.056274 
	C196.519730,324.408386 197.328598,323.760529 198.030060,323.032471 
	C198.030060,323.032471 198.100052,323.146790 198.724014,323.053986 
	C199.491104,322.374725 200.258179,321.695465 201.000977,320.998474 
	C201.000977,320.998474 201.014175,321.024628 201.639648,320.899872 
	C202.716522,319.915680 203.793396,318.931488 205.377029,317.825043 
	C205.586365,317.557617 205.795700,317.290192 206.547958,316.949188 
	C206.743271,316.657990 206.938568,316.366760 207.048264,316.049042 
	C207.048264,316.049042 207.073837,316.134918 207.605057,315.996582 
	C207.791519,315.695984 207.977982,315.395386 208.076248,315.074280 
	C208.076248,315.074280 208.095169,315.162842 208.630722,315.018890 
	C208.807892,314.708984 208.985077,314.399078 209.074341,314.075317 
	C209.074341,314.075317 209.094589,314.161987 209.616974,313.998596 
	C209.796005,313.693604 209.975037,313.388580 210.052948,313.046539 
	C210.052948,313.046539 210.108795,313.138611 210.708252,312.940002 
	C211.479431,311.964264 212.250595,310.988556 212.997849,310.000702 
	C212.997849,310.000702 213.011169,310.024780 213.497086,309.859619 
	C213.637436,309.562531 213.777802,309.265472 213.991531,308.983887 
	C213.991531,308.983887 213.954361,308.918762 214.530472,308.645569 
	C215.350449,307.428864 216.170425,306.212128 217.000610,305.000000 
	C217.000610,305.000000 216.994370,304.989471 217.562912,304.725769 
	C218.083633,303.844177 218.604355,302.962616 219.018158,302.026978 
	C219.018158,302.026978 219.095734,302.118256 219.673325,301.772766 
	C220.117645,300.515533 220.561966,299.258270 220.999390,298.000000 
	C220.999390,298.000000 221.003540,298.007355 221.520065,297.666748 
	C222.060806,296.810089 222.601547,295.953461 223.048630,295.053986 
	C223.048630,295.053986 223.088715,295.148834 223.594574,294.956207 
	C223.746643,294.644806 223.898712,294.333405 223.997696,294.004517 
	C223.997696,294.004517 224.031570,294.049042 224.621490,293.740082 
	C225.452499,292.183960 226.283508,290.627838 227.013367,289.024780 
	C227.013367,289.024780 227.086777,289.108704 227.670807,288.748047 
	C228.487534,286.830902 229.304245,284.913788 230.292877,282.842834 
	C230.292877,282.842834 230.245987,282.616974 230.805023,282.045135 
	C234.267700,271.023956 234.170731,260.183014 229.207596,249.258499 
	C229.207596,249.258499 228.988586,249.004303 229.020065,248.272400 
	C227.694458,245.827713 226.368835,243.383041 224.998322,240.987946 
	C224.998322,240.987946 225.063736,240.973969 224.996338,240.354935 
	C224.730713,240.053070 224.465073,239.751190 224.205093,239.164520 
	C224.205093,239.164520 223.964783,239.011551 223.909164,238.389221 
	C223.267426,237.601318 222.625671,236.813431 222.002441,236.002457 
	C222.002441,236.002457 221.976257,236.013199 221.908951,235.404861 
	C221.255661,234.648270 220.602371,233.891693 219.830368,232.628723 
	C219.565399,232.415756 219.300446,232.202805 218.939758,231.454391 
	C218.648865,231.263153 218.357986,231.071915 218.033798,230.975555 
	C218.033798,230.975555 218.115707,230.917206 217.969666,230.334412 
	C217.410294,229.788757 216.850937,229.243118 216.190750,228.826782 
	C216.190750,228.826782 216.342545,228.764755 216.225159,228.195801 
	C215.802124,227.832977 215.379074,227.470169 214.743500,226.490646 
	C213.460922,225.341034 212.178329,224.191437 210.714951,222.501282 
	C210.113327,222.068573 209.511719,221.635864 208.919159,221.072784 
	C208.919159,221.072784 208.790573,221.096146 208.558426,220.511230 
	C207.396408,219.638168 206.234406,218.765091 205.022873,217.972443 
	C205.022873,217.972443 205.111404,217.939575 204.956284,217.416245 
	C204.639069,217.274658 204.321854,217.133087 204.000000,217.000000 
	C204.000000,217.000000 204.008179,216.993591 203.762497,216.464676 
	C203.268967,216.179230 202.775436,215.893768 202.188293,215.833344 
	C202.188293,215.833344 202.341385,215.643692 202.100418,215.093033 
	C201.430344,214.683853 200.760269,214.274673 200.025665,213.973022 
	C200.025665,213.973022 200.126740,213.898758 199.840378,213.330276 
	C198.920166,212.845856 197.999969,212.361420 197.024368,211.979828 
	C197.024368,211.979828 197.116684,211.908279 196.827637,211.340942 
	C195.895554,210.875702 194.963455,210.410477 194.010681,210.004684 
	C194.010681,210.004684 194.057053,209.961960 193.708496,209.381821 
	C190.822571,207.882996 187.936661,206.384171 185.030899,204.977539 
	C185.030899,204.977539 185.103424,204.917267 184.770782,204.401611 
	C184.196991,204.227203 183.623215,204.052795 183.033829,203.970734 
	C183.033829,203.970734 183.106979,203.912262 182.752243,203.392487 
	C182.161545,203.219254 181.570847,203.046021 180.835495,202.712738 
	C180.835495,202.712738 180.623276,202.751511 180.139572,202.180084 
	C176.424286,200.777039 172.709000,199.373993 168.806427,197.748413 
	C168.806427,197.748413 168.520782,197.803268 167.983719,197.265518 
	C165.329437,196.491501 162.675156,195.717484 160.016815,195.004272 
	C160.016815,195.004272 160.054108,194.956024 159.624191,194.471222 
	C158.431274,193.954773 157.238373,193.438339 155.998459,192.979828 
	C155.998459,192.979828 156.070892,192.961975 156.123108,192.132660 
	C157.601944,176.412827 159.080780,160.692978 160.805679,144.333359 
	C160.786194,143.879944 160.766693,143.426514 160.986298,142.157776 
	C162.272659,128.497528 163.559021,114.837296 164.880630,100.802711 
	C167.677399,101.712906 169.844238,102.418091 172.147202,103.294022 
	C172.147202,103.294022 172.364838,103.276260 172.789291,103.831688 
	C173.843994,104.258575 174.898697,104.685463 175.964508,105.021957 
	C175.964508,105.021957 175.896317,105.082329 176.273270,105.626785 
	C177.847015,106.421265 179.420746,107.215744 180.999390,107.999390 
	C180.999390,107.999390 180.988586,108.007210 181.312973,108.509399 
	C181.860489,108.711601 182.407990,108.913803 182.960861,109.033539 
	C182.960861,109.033539 182.885864,109.068237 183.103027,109.544327 
	C183.413864,109.662193 183.724701,109.780060 184.046997,109.975533 
	C184.046997,109.975533 184.116364,109.938911 184.415009,110.433685 
	C184.932465,110.649750 185.449905,110.865807 185.984329,111.005486 
	C185.984329,111.005486 185.924347,111.055740 186.235413,111.599785 
	C187.140533,112.093430 188.045670,112.587074 188.990051,113.004280 
	C188.990051,113.004280 188.921158,113.055641 189.160049,113.598587 
	C189.670776,113.873383 190.181503,114.148178 190.844131,114.133110 
	C190.844131,114.133110 190.644745,114.392609 190.929077,114.912956 
	C191.600998,115.304764 192.272934,115.696571 192.987183,116.005516 
	C192.987183,116.005516 192.914215,116.063263 193.195297,116.646919 
	C194.434448,117.474197 195.673599,118.301476 196.973877,119.022484 
	C196.973877,119.022484 196.876343,119.096756 197.097778,119.629349 
	C197.580536,119.922073 198.063309,120.214798 198.635086,120.043144 
	C198.635086,120.043144 198.577301,120.512070 198.784378,120.963013 
	C199.010986,121.235634 199.301468,121.377892 199.757751,121.160156 
	C199.757751,121.160156 199.595947,121.352341 199.737381,121.857552 
	C200.168640,122.132179 200.599884,122.406807 201.241058,123.036797 
	C201.241058,123.036797 201.636353,123.155510 201.876434,123.736885 
	C202.545700,124.211395 203.214966,124.685898 203.934036,125.068092 
	C203.934036,125.068092 203.833496,125.097961 203.987854,125.624443 
	C204.292038,125.807060 204.596207,125.989685 204.919205,126.082672 
z"/>
<path fill="#07BD65" opacity="1.000000" stroke="none" 
	d="
M155.218597,62.993629 
	C155.234390,62.553787 155.250198,62.113949 155.717041,61.234791 
	C156.233978,58.534737 156.299850,56.273994 156.365723,54.013256 
	C156.379181,53.280235 156.392639,52.547218 156.892181,51.461628 
	C157.808563,53.242714 158.451492,55.359859 158.618744,57.513943 
	C158.863159,60.661484 158.766144,63.835533 158.814667,66.998283 
	C158.822250,68.082436 158.829849,69.166580 158.570511,70.904480 
	C158.303574,73.229492 158.303574,74.900757 158.303574,76.572014 
	C159.025040,76.632240 159.746490,76.692467 160.467957,76.752693 
	C160.718048,73.499626 160.968124,70.246559 161.218201,66.993492 
	C161.251663,66.543625 161.285141,66.093750 161.799896,65.207718 
	C163.220612,61.207428 164.160065,57.643307 165.320038,54.038261 
	C165.540543,53.997345 165.986481,53.937336 166.213440,54.060471 
	C166.636612,54.461670 166.832840,54.739727 167.019196,55.425724 
	C166.955917,57.189068 166.902496,58.544476 166.604584,60.226158 
	C166.474197,64.022789 166.588272,67.493149 166.702347,70.963509 
	C166.722778,71.416779 166.743225,71.870056 166.306335,72.779526 
	C165.165131,75.971573 163.099854,78.955177 167.211151,80.831047 
	C167.211151,80.831047 167.107529,80.892960 167.270416,81.159843 
	C171.140350,82.212547 174.847412,82.998375 178.554459,83.784195 
	C178.554459,83.784195 178.823380,83.720352 179.061371,84.148239 
	C185.214325,87.040367 191.129303,89.504616 197.044266,91.968864 
	C197.044266,91.968864 197.008041,92.004585 197.176910,92.240967 
	C197.730087,92.590843 198.114380,92.704338 198.498672,92.817833 
	C198.498672,92.817833 198.809006,92.830605 198.955048,93.296478 
	C200.066544,94.173248 201.031982,94.584145 201.997421,94.995041 
	C201.997421,94.995041 202.000610,94.999390 202.046967,95.343582 
	C203.050629,96.132164 204.007935,96.576546 204.965240,97.020927 
	C204.965240,97.020927 204.995499,96.995934 205.028198,97.372261 
	C206.162994,98.359749 207.265121,98.970901 208.367233,99.582062 
	C208.367233,99.582062 208.228836,99.908142 208.295532,100.065239 
	C208.921661,100.476715 209.481110,100.731094 210.040558,100.985474 
	C210.312439,101.160034 210.584320,101.334595 211.015930,101.982880 
	C211.368668,102.750656 211.637177,102.934273 211.981232,103.007454 
	C212.260254,103.192711 212.539276,103.377968 212.926239,104.124985 
	C213.492722,105.020546 213.951248,105.354332 214.409790,105.688118 
	C214.409790,105.688118 214.096405,105.821114 214.142273,106.098114 
	C216.162170,108.558090 218.136200,110.741066 220.110245,112.924034 
	C220.110245,112.924034 220.012756,112.983551 220.021698,113.308334 
	C220.732651,114.391441 221.434677,115.149765 222.136703,115.908081 
	C222.136703,115.908081 222.025772,115.971848 222.028961,116.306442 
	C223.127869,118.001816 224.223602,119.362595 225.319321,120.723366 
	C225.319321,120.723366 225.212540,120.891846 225.243179,121.075729 
	C225.550842,121.489052 225.827850,121.718498 226.104874,121.947945 
	C226.104874,121.947945 226.014038,121.973969 226.036835,122.262535 
	C226.461975,122.987816 226.864319,123.424530 227.266663,123.861237 
	C227.266663,123.861237 227.155777,123.885674 227.116272,124.257019 
	C227.387070,127.422943 227.697357,130.217514 228.007629,133.012100 
	C228.007629,133.012100 227.999390,133.000000 227.770447,133.109558 
	C227.379822,133.514099 227.218170,133.809097 227.056503,134.104080 
	C227.056503,134.104080 227.016296,134.016403 226.673615,134.019363 
	C224.303574,135.590561 222.276245,137.158783 220.248901,138.727005 
	C221.529694,140.129745 222.810471,141.532486 224.091248,142.935242 
	C224.091248,142.935242 224.001663,142.991608 224.003387,143.343506 
	C223.990692,145.574020 223.976257,147.452652 223.961823,149.331268 
	C222.493515,148.656616 221.025208,147.981979 219.556900,147.307343 
	C219.556900,147.307343 219.535461,147.186478 219.675201,146.907333 
	C219.427368,146.154816 219.039764,145.681427 218.652176,145.208054 
	C218.652176,145.208054 218.775742,145.164597 218.761871,144.953003 
	C218.498016,144.494507 218.248062,144.247604 217.998093,144.000702 
	C217.998093,144.000702 218.000000,144.000000 217.993713,143.692505 
	C217.617950,142.939743 217.248474,142.494461 216.878983,142.049179 
	C216.878983,142.049179 216.968781,142.035004 216.957520,141.738434 
	C216.287216,140.632233 215.628159,139.822617 214.969101,139.013000 
	C214.969101,139.013000 215.003372,139.003662 214.985229,138.695999 
	C214.544327,137.985046 214.121567,137.581772 213.698807,137.178497 
	C213.698807,137.178497 213.825806,137.121201 213.863190,136.808853 
	C212.610870,134.992401 211.321182,133.488312 210.031494,131.984222 
	C210.031494,131.984222 209.995880,131.995956 210.009338,131.623566 
	C209.321136,130.510651 208.619476,129.770142 207.917816,129.029633 
	C207.582550,128.995026 207.311600,128.844589 206.944565,128.093704 
	C206.480133,127.428864 206.176102,127.248650 205.872070,127.068428 
	C205.872070,127.068428 205.953568,127.042641 205.854858,126.827484 
	C205.447433,126.442757 205.138748,126.273201 204.830048,126.103638 
	C204.830048,126.103638 204.919205,126.082672 204.834442,125.862190 
	C204.444275,125.460457 204.138885,125.279213 203.833496,125.097961 
	C203.833496,125.097961 203.934036,125.068092 203.898224,124.750671 
	C203.120392,124.007332 202.378372,123.581421 201.636353,123.155510 
	C201.636353,123.155510 201.241058,123.036797 201.091934,122.574165 
	C200.493851,121.858467 200.044907,121.605408 199.595947,121.352341 
	C199.595947,121.352341 199.757751,121.160156 199.693741,120.973175 
	C199.278915,120.694817 198.928116,120.603439 198.577301,120.512070 
	C198.577301,120.512070 198.635086,120.043144 198.615387,119.936203 
	C198.022583,119.585098 197.449463,119.340927 196.876343,119.096756 
	C196.876343,119.096756 196.973877,119.022484 196.936600,118.704956 
	C195.570953,117.612709 194.242584,116.837990 192.914215,116.063263 
	C192.914215,116.063263 192.987183,116.005516 192.935059,115.692001 
	C192.136856,115.049866 191.390808,114.721237 190.644745,114.392609 
	C190.644745,114.392609 190.844131,114.133110 190.740479,113.947800 
	C190.064941,113.526871 189.493042,113.291252 188.921158,113.055641 
	C188.921158,113.055641 188.990051,113.004280 188.937286,112.685410 
	C187.897781,111.929611 186.911072,111.492676 185.924347,111.055740 
	C185.924347,111.055740 185.984329,111.005486 185.845520,110.780716 
	C185.176590,110.350273 184.646484,110.144592 184.116364,109.938911 
	C184.116364,109.938911 184.046997,109.975533 183.913910,109.720795 
	C183.482498,109.333450 183.184174,109.200844 182.885864,109.068237 
	C182.885864,109.068237 182.960861,109.033539 182.818253,108.800964 
	C182.113297,108.381325 181.550934,108.194267 180.988586,108.007210 
	C180.988586,108.007210 180.999390,107.999390 180.945923,107.651215 
	C179.227081,106.562798 177.561707,105.822563 175.896317,105.082329 
	C175.896317,105.082329 175.964508,105.021957 175.812759,104.723694 
	C174.562286,104.042374 173.463562,103.659317 172.364838,103.276260 
	C172.364838,103.276260 172.147202,103.294022 171.937515,102.882553 
	C169.594330,101.476944 167.460846,100.482796 165.327347,99.488640 
	C164.550873,101.520760 163.375046,103.495781 163.074753,105.595993 
	C162.257507,111.311638 161.604324,117.068291 161.270813,122.830956 
	C160.882980,129.532654 160.903763,136.258011 160.747208,142.973099 
	C160.766693,143.426514 160.786194,143.879944 160.345978,144.772827 
	C159.613556,145.612839 159.137695,145.994064 159.097519,146.416718 
	C157.705704,161.056000 156.333603,175.697357 155.054123,190.346725 
	C154.981140,191.182510 155.713394,192.088608 156.070892,192.961975 
	C156.070892,192.961975 155.998459,192.979828 156.142899,193.282166 
	C157.542923,194.041656 158.798523,194.498840 160.054108,194.956024 
	C160.054108,194.956024 160.016815,195.004272 160.216278,195.274323 
	C163.117416,196.297333 165.819092,197.050293 168.520782,197.803268 
	C168.520782,197.803268 168.806427,197.748413 169.054108,198.176392 
	C173.075607,199.986740 176.849442,201.369125 180.623276,202.751511 
	C180.623276,202.751511 180.835495,202.712738 181.073654,203.069214 
	C181.910202,203.587875 182.508591,203.750076 183.106979,203.912262 
	C183.106979,203.912262 183.033829,203.970734 183.187714,204.205322 
	C183.928879,204.599030 184.516159,204.758148 185.103424,204.917267 
	C185.103424,204.917267 185.030899,204.977539 185.164398,205.259186 
	C188.217621,207.014526 191.137329,208.488251 194.057053,209.961960 
	C194.057053,209.961960 194.010681,210.004684 194.059708,210.333359 
	C195.111389,211.077438 196.114029,211.492859 197.116684,211.908279 
	C197.116684,211.908279 197.024368,211.979828 197.075470,212.292847 
	C198.126633,213.036835 199.126694,213.467789 200.126740,213.898758 
	C200.126740,213.898758 200.025665,213.973022 200.076279,214.277237 
	C200.865051,214.935532 201.603226,215.289612 202.341385,215.643692 
	C202.341385,215.643692 202.188293,215.833344 202.269592,216.041901 
	C202.903320,216.498184 203.455750,216.745895 204.008179,216.993591 
	C204.008179,216.993591 204.000000,217.000000 204.110718,217.230728 
	C204.518082,217.620834 204.814743,217.780197 205.111404,217.939575 
	C205.111404,217.939575 205.022873,217.972443 205.051392,218.287445 
	C206.316803,219.433670 207.553696,220.264908 208.790573,221.096146 
	C208.790573,221.096146 208.919159,221.072784 208.972366,221.436066 
	C209.648972,222.213501 210.272354,222.627670 210.895752,223.041824 
	C212.178329,224.191437 213.460922,225.341034 214.883469,227.105743 
	C215.463135,228.068817 215.902847,228.416779 216.342545,228.764755 
	C216.342545,228.764755 216.190750,228.826782 216.183701,229.114685 
	C216.822998,229.907471 217.469345,230.412338 218.115707,230.917206 
	C218.115707,230.917206 218.033798,230.975555 218.122971,231.179749 
	C218.486588,231.585892 218.761047,231.787872 219.035492,231.989838 
	C219.300446,232.202805 219.565399,232.415756 219.898224,233.224152 
	C220.636124,234.550797 221.306183,235.281998 221.976257,236.013199 
	C221.976257,236.013199 222.002441,236.002457 221.988770,236.364716 
	C222.638336,237.488495 223.301559,238.250015 223.964783,239.011551 
	C223.964783,239.011551 224.205093,239.164520 224.215469,239.623718 
	C224.505142,240.379913 224.784439,240.676941 225.063736,240.973969 
	C225.063736,240.973969 224.998322,240.987946 224.996857,241.348541 
	C226.326447,244.140854 227.657516,246.572586 228.988586,249.004303 
	C228.988586,249.004303 229.207596,249.258499 229.133560,249.856461 
	C229.567291,252.708694 230.364380,254.942474 230.525894,257.221283 
	C230.930710,262.932343 231.189789,268.663086 231.218414,274.387360 
	C231.232101,277.128876 230.590698,279.873657 230.245987,282.616974 
	C230.245987,282.616974 230.292877,282.842834 229.870239,283.061340 
	C228.660660,285.222809 227.873718,287.165741 227.086777,289.108704 
	C227.086777,289.108704 227.013367,289.024780 226.708282,289.073242 
	C225.612656,290.764160 224.822113,292.406616 224.031586,294.049042 
	C224.031570,294.049042 223.997696,294.004517 223.779938,294.117584 
	C223.404343,294.536713 223.246521,294.842773 223.088715,295.148834 
	C223.088715,295.148834 223.048630,295.053986 222.737305,295.090881 
	C221.951828,296.087646 221.477692,297.047516 221.003540,298.007355 
	C221.003540,298.007355 220.999390,298.000000 220.688202,298.158173 
	C219.949921,299.583649 219.522827,300.850952 219.095734,302.118256 
	C219.095734,302.118256 219.018158,302.026978 218.716217,302.075073 
	C217.940979,303.078613 217.467667,304.034027 216.994354,304.989471 
	C216.994370,304.989471 217.000610,305.000000 216.617279,305.003357 
	C215.474106,306.310760 214.714233,307.614777 213.954376,308.918762 
	C213.954361,308.918762 213.991531,308.983887 213.736603,309.086700 
	C213.211182,309.403931 213.054352,309.682343 213.011169,310.024780 
	C213.011169,310.024780 212.997849,310.000702 212.630188,310.006256 
	C211.544617,311.054077 210.826691,312.096344 210.108795,313.138611 
	C210.108795,313.138611 210.052948,313.046539 209.838821,313.142151 
	C209.447998,313.545837 209.271301,313.853912 209.094604,314.161987 
	C209.094589,314.161987 209.074341,314.075317 208.854584,314.160706 
	C208.454926,314.551666 208.275040,314.857269 208.095169,315.162842 
	C208.095169,315.162842 208.076248,315.074280 207.855972,315.155640 
	C207.448410,315.536285 207.261108,315.835602 207.073822,316.134918 
	C207.073837,316.134918 207.048264,316.049042 206.836914,316.128601 
	C206.418732,316.479675 206.211884,316.751251 206.005035,317.022797 
	C205.795700,317.290192 205.586365,317.557617 204.767395,317.894409 
	C203.109909,318.984039 202.062057,320.004333 201.014191,321.024628 
	C201.014175,321.024628 201.000977,320.998474 200.649002,320.998383 
	C199.564697,321.714447 198.832382,322.430634 198.100052,323.146790 
	C198.100052,323.146790 198.030060,323.032471 197.713074,323.035217 
	C196.622543,323.731476 195.848984,324.424988 195.075424,325.118469 
	C195.075424,325.118469 195.024475,325.016876 194.737823,325.039917 
	C194.035812,325.487732 193.620453,325.912537 193.205109,326.337311 
	C193.205093,326.337311 193.115051,326.197021 192.795319,326.153320 
	C184.315048,330.095032 176.154526,334.080444 167.993988,338.065857 
	C167.994003,338.065887 167.822006,338.276337 167.241974,338.182312 
	C161.881119,338.857941 157.089355,339.566132 152.322815,340.415802 
	C148.203217,341.150208 144.112259,342.045349 140.008652,342.869446 
	C138.690964,350.152527 137.178909,357.406982 136.102203,364.725525 
	C134.576660,375.094849 133.312973,385.504272 132.056900,395.910980 
	C131.483276,400.663483 129.574951,404.414551 125.407104,407.023438 
	C123.963676,407.926941 123.063927,409.688049 121.632675,410.624756 
	C119.983459,411.704193 117.773369,413.241364 116.265961,412.842896 
	C114.836700,412.465118 113.027718,409.820007 113.063080,408.208801 
	C113.285637,398.068451 113.651764,387.907990 114.595795,377.812683 
	C115.724396,365.743500 117.479439,353.732880 119.005905,341.350128 
	C113.225571,339.812164 107.512451,338.292114 100.834961,336.515442 
	C99.912933,347.128540 99.197540,357.346619 98.054382,367.516541 
	C97.615433,371.421570 96.234161,375.225861 95.203865,379.054932 
	C94.994606,379.832611 94.606003,380.927795 94.007378,381.178955 
	C87.280411,384.000977 88.153328,390.391449 87.071388,395.811584 
	C86.494621,398.701019 86.120392,401.778229 82.288841,401.573883 
	C78.415314,401.367310 77.978378,398.620758 77.831650,395.215668 
	C76.909485,373.815216 79.117561,352.663849 82.580215,331.610413 
	C83.099373,328.453857 82.495064,326.469086 79.894028,324.373016 
	C75.246735,320.628021 71.203796,316.140717 66.632355,312.291321 
	C63.423634,309.589417 59.997154,306.924255 56.240398,305.145691 
	C50.245014,302.307312 43.876644,300.263580 37.701622,297.794708 
	C34.981739,296.707245 32.628235,294.629913 34.475494,291.789276 
	C35.337551,290.463654 38.805645,289.915039 40.745689,290.400482 
	C44.697109,291.389099 48.413212,293.318329 53.059349,295.196838 
	C48.694763,286.519592 41.820507,279.443756 44.009613,269.412994 
	C46.478542,269.701233 48.362946,269.578278 49.943493,270.212524 
	C51.244656,270.734680 52.989559,272.037720 53.157951,273.195343 
	C54.423729,281.897034 59.551903,288.076630 65.958557,293.382660 
	C72.184975,298.539459 78.633125,303.428528 85.754684,309.042786 
	C87.432701,299.856750 88.736565,291.708252 90.430283,283.641602 
	C95.008080,261.839020 99.791382,240.079681 104.392784,218.281982 
	C105.215897,214.382721 105.625610,210.390244 106.109299,206.426529 
	C107.109581,198.229462 106.499435,197.266220 98.661430,193.900101 
	C96.370979,192.916443 94.075096,191.940002 91.823509,190.872116 
	C71.884880,181.415466 64.610046,164.557312 64.661621,143.682663 
	C64.701515,127.536934 73.137764,115.445923 84.190918,104.645645 
	C95.836037,93.266945 108.861809,84.496071 124.996590,80.722252 
	C126.593140,80.348824 128.266418,77.247604 128.636627,75.184959 
	C130.957306,62.255409 132.908096,49.259644 135.009232,36.290310 
	C135.322983,34.353832 135.783676,32.441170 136.158920,30.603054 
	C143.581467,30.519279 143.726715,30.791180 143.235046,37.704296 
	C142.999222,41.020367 143.299103,44.374531 143.684204,48.293743 
	C144.286270,50.585133 144.560516,52.294224 144.834778,54.003315 
	C144.773804,54.453373 144.712830,54.903431 144.172729,55.796722 
	C142.707352,62.823860 141.721100,69.407768 140.734848,75.991676 
	C140.735153,76.477821 140.735443,76.963959 140.592758,78.099380 
	C144.728897,80.169342 149.018280,81.751160 152.964752,77.951225 
	C152.964752,77.951225 153.006653,77.983101 153.159454,77.923454 
	C153.387512,77.765877 153.546692,77.633270 153.523117,77.576202 
	C153.435272,77.363663 153.287399,77.175926 153.162048,76.978882 
	C153.185303,76.541367 153.208557,76.103851 153.697205,75.230965 
	C154.514603,70.861603 154.866608,66.927620 155.218597,62.993629 
M208.830933,229.173920 
	C208.830933,229.173920 208.787811,229.286743 208.680405,228.715469 
	C208.342712,228.575287 208.005020,228.435089 207.891769,228.352005 
	C207.891769,228.352005 207.660965,228.330627 207.800629,227.620117 
	C202.874680,220.954590 195.942810,217.421875 187.735565,214.410904 
	C189.255554,220.545746 194.027954,222.351089 198.355576,225.247406 
	C198.567001,225.508270 198.778427,225.769135 199.154312,226.438248 
	C199.317764,226.693069 199.537491,226.882721 199.949799,227.451569 
	C199.949799,227.451569 200.035583,227.908386 200.089081,228.569901 
	C200.729004,229.046555 201.368912,229.523224 202.474457,230.219452 
	C202.703720,230.670273 202.932983,231.121094 203.238159,232.174561 
	C203.535049,232.430405 203.831940,232.686264 204.033859,232.960449 
	C204.033859,232.960449 204.092667,232.883667 204.069778,233.570908 
	C204.796021,234.330627 205.522263,235.090347 206.113068,235.917786 
	C206.113068,235.917786 206.201523,235.794907 206.128159,236.474701 
	C206.571625,236.856750 207.015091,237.238800 207.459534,237.790298 
	C207.459534,237.790298 207.395813,237.633286 207.373016,238.234451 
	C207.689423,238.446350 208.005829,238.658264 208.712219,239.119781 
	C208.917618,239.370529 209.014816,239.657867 209.027802,240.614090 
	C209.430222,241.036804 209.832642,241.459503 210.124817,241.910599 
	C210.124817,241.910599 210.181503,241.811874 210.065338,242.546906 
	C210.715469,243.361618 211.365601,244.176331 211.999191,244.999390 
	C211.999191,244.999390 212.011154,244.983536 212.022018,245.597519 
	C212.377029,246.053253 212.732056,246.509003 213.006454,246.982880 
	C213.006454,246.982880 213.063034,246.922668 213.044937,247.561325 
	C213.428101,248.009338 213.811249,248.457352 214.100571,248.921097 
	C214.100571,248.921097 214.124374,248.828979 214.195358,249.334183 
	C214.434570,249.564865 214.673767,249.795563 214.986160,250.042694 
	C214.986160,250.042694 214.945480,250.105728 214.982910,250.687042 
	C215.319824,251.128250 215.656738,251.569443 216.218002,252.194870 
	C216.218002,252.194870 216.205856,252.484909 216.092285,253.273254 
	C216.788956,254.487274 217.485641,255.701294 218.080826,256.955322 
	C218.080826,256.955322 218.130814,256.858337 218.032578,257.658783 
	C218.655807,259.111694 219.279037,260.564575 220.158569,262.443787 
	C220.324112,262.757843 220.344345,263.081024 220.092194,264.345154 
	C221.116119,271.120056 222.140030,277.894928 223.270279,285.373413 
	C229.656631,278.397675 229.313568,270.994751 228.859512,263.762115 
	C228.672882,260.789337 227.026443,257.908203 225.825470,254.724808 
	C225.825470,254.724808 225.839493,254.384995 225.942062,253.576614 
	C225.292404,252.381821 224.642746,251.187042 223.778702,249.791870 
	C223.778702,249.791870 223.809937,249.500092 223.775833,248.888672 
	C223.507843,248.596603 223.239838,248.304520 223.003326,248.005173 
	C223.003326,248.005173 222.978836,248.028259 222.978226,247.408951 
	C222.617859,246.952423 222.257477,246.495911 221.982620,246.025131 
	C221.982620,246.025131 221.927917,246.092407 221.950943,245.451355 
	C221.571091,244.995987 221.191238,244.540619 220.908600,244.077087 
	C220.908600,244.077087 220.879837,244.170319 220.813370,243.660675 
	C220.570267,243.431610 220.327179,243.202545 220.009903,242.969482 
	C220.009903,242.969482 220.049240,242.906448 219.999466,242.305328 
	C219.610794,241.896317 219.222107,241.487320 218.933975,241.052567 
	C218.933975,241.052567 218.879929,241.141159 218.961349,240.331085 
	C217.919098,239.262772 216.876862,238.194458 215.923706,237.057434 
	C215.923706,237.057434 215.897598,237.166870 215.774872,236.649506 
	C215.499039,236.441864 215.223221,236.234222 215.002563,236.005707 
	C215.002563,236.005707 214.969681,236.054672 214.822205,235.578323 
	C214.643326,235.276306 214.384872,235.077942 213.580658,234.729614 
	C213.410110,234.425888 213.239563,234.122162 212.981995,233.221054 
	C212.538422,232.902359 212.094849,232.583649 211.895798,232.174759 
	C211.895798,232.174759 211.678146,232.318130 211.804245,231.594467 
	C211.118500,231.135849 210.432739,230.677231 209.847839,230.118866 
	C209.847839,230.118866 209.818146,230.257568 209.703796,229.694717 
	C209.375443,229.536041 209.047104,229.377365 208.830933,229.173920 
M200.415131,308.963196 
	C208.783264,304.614349 214.152649,297.091675 214.493835,288.403595 
	C215.223495,269.822510 211.934494,252.599701 194.027176,241.168869 
	C181.465012,233.150009 168.419128,226.877945 154.452576,222.276062 
	C150.293732,255.911606 146.184448,289.146301 142.032455,322.726379 
	C162.992081,324.024109 182.186966,320.175995 200.415131,308.963196 
M133.921890,213.784546 
	C130.064545,212.044922 126.207184,210.305298 121.901649,208.363556 
	C121.525299,210.569534 121.211990,212.174347 120.981720,213.790970 
	C118.027473,234.531143 115.294289,255.305710 112.057281,276.001556 
	C110.261032,287.485901 107.576492,298.829620 105.421158,310.261047 
	C105.039330,312.286224 103.431587,314.993347 107.094849,315.964142 
	C112.014488,317.267883 116.935028,318.568237 121.997093,319.907562 
	C122.408745,318.583679 122.755478,317.826324 122.873901,317.034851 
	C125.211472,301.412109 127.564156,285.791443 129.827713,270.157898 
	C132.234299,253.536407 134.595581,236.907959 136.855499,220.266083 
	C137.162598,218.004517 138.277588,215.102661 133.921890,213.784546 
M88.004761,140.640503 
	C84.428558,152.471146 95.220528,170.837708 108.511520,177.817795 
	C112.946266,153.361893 117.400764,128.796982 121.855270,104.232086 
	C121.453400,103.966728 121.051537,103.701370 120.649666,103.436012 
	C106.351166,112.335640 92.357674,121.520348 88.004761,140.640503 
M135.865005,187.414047 
	C137.400879,187.748444 138.936737,188.082840 140.799316,188.488358 
	C143.807770,157.995605 146.758652,128.086258 149.707901,98.193550 
	C139.445480,95.593353 138.114990,96.835152 136.936340,106.630707 
	C134.771149,124.625389 132.081665,142.557861 129.529083,160.504654 
	C128.392258,168.497528 127.057373,176.462234 125.807953,184.468170 
	C129.386307,185.514206 132.248764,186.350967 135.865005,187.414047 
M157.982880,207.970123 
	C157.145248,207.880402 156.307617,207.790695 155.470001,207.700974 
	C155.392288,207.971161 155.314590,208.241364 155.236893,208.511551 
	C162.049103,211.876648 168.861313,215.241760 175.673523,218.606857 
	C175.906540,218.206100 176.139557,217.805328 176.372574,217.404556 
	C171.029221,213.383698 165.190201,210.190704 157.982880,207.970123 
M154.624863,330.018555 
	C155.083923,329.886017 155.542984,329.753510 157.268326,329.255432 
	C151.338394,329.255432 146.697662,329.255432 142.056915,329.255432 
	C142.051895,329.515259 142.046875,329.775085 142.041855,330.034912 
	C145.965225,330.034912 149.888596,330.034912 154.624863,330.018555 
M164.031235,328.548401 
	C162.410202,328.393768 160.789169,328.239136 159.168137,328.084473 
	C159.172836,328.363983 159.177536,328.643524 159.182251,328.923035 
	C160.620544,328.923035 162.058853,328.923035 164.031235,328.548401 
z"/>
<path fill="#1EB970" opacity="1.000000" stroke="none" 
	d="
M160.866760,142.565430 
	C160.903763,136.258011 160.882980,129.532654 161.270813,122.830956 
	C161.604324,117.068291 162.257507,111.311638 163.074753,105.595993 
	C163.375046,103.495781 164.550873,101.520760 165.327347,99.488640 
	C167.460846,100.482796 169.594330,101.476944 171.869446,102.797180 
	C169.844238,102.418091 167.677399,101.712906 164.880630,100.802711 
	C163.559021,114.837296 162.272659,128.497528 160.866760,142.565430 
z"/>
<path fill="#1EB970" opacity="1.000000" stroke="none" 
	d="
M156.097000,192.547318 
	C155.713394,192.088608 154.981140,191.182510 155.054123,190.346725 
	C156.333603,175.697357 157.705704,161.056000 159.097519,146.416718 
	C159.137695,145.994064 159.613556,145.612839 160.222961,145.092712 
	C159.080780,160.692978 157.601944,176.412827 156.097000,192.547318 
z"/>
<path fill="#1EB970" opacity="1.000000" stroke="none" 
	d="
M168.378235,338.070251 
	C176.154526,334.080444 184.315048,330.095032 192.867798,326.194458 
	C185.094162,330.211090 176.928314,334.142883 168.378235,338.070251 
z"/>
<path fill="#1EB970" opacity="1.000000" stroke="none" 
	d="
M230.525513,282.331055 
	C230.590698,279.873657 231.232101,277.128876 231.218414,274.387360 
	C231.189789,268.663086 230.930710,262.932343 230.525894,257.221283 
	C230.364380,254.942474 229.567291,252.708694 229.110550,250.022629 
	C234.170731,260.183014 234.267700,271.023956 230.525513,282.331055 
z"/>
<path fill="#1EB970" opacity="1.000000" stroke="none" 
	d="
M140.464783,342.954834 
	C144.112259,342.045349 148.203217,341.150208 152.322815,340.415802 
	C157.089355,339.566132 161.881119,338.857941 167.109909,338.150269 
	C158.678909,339.821564 149.799911,341.430878 140.464783,342.954834 
z"/>
<path fill="#37BB7C" opacity="1.000000" stroke="none" 
	d="
M158.933502,66.593018 
	C158.766144,63.835533 158.863159,60.661484 158.618744,57.513943 
	C158.451492,55.359859 157.808563,53.242714 157.018829,51.115593 
	C156.510559,50.323650 156.048141,49.412617 156.285034,48.752609 
	C156.657486,47.715027 157.501022,46.846554 158.145081,45.906479 
	C158.774796,46.904171 159.965607,47.915428 159.941864,48.897324 
	C159.802444,54.664593 159.379639,60.425018 158.933502,66.593018 
z"/>
<path fill="#1EB970" opacity="1.000000" stroke="none" 
	d="
M196.857620,91.683067 
	C191.129303,89.504616 185.214325,87.040367 179.149628,84.254562 
	C184.890259,86.421097 190.780624,88.909180 196.857620,91.683067 
z"/>
<path fill="#37BB7C" opacity="1.000000" stroke="none" 
	d="
M140.882629,75.615295 
	C141.721100,69.407768 142.707352,62.823860 143.989014,56.086895 
	C143.199753,62.368866 142.115082,68.803894 140.882629,75.615295 
z"/>
<path fill="#1EB970" opacity="1.000000" stroke="none" 
	d="
M219.619720,147.669479 
	C221.025208,147.981979 222.493515,148.656616 223.961823,149.331268 
	C223.976257,147.452652 223.990692,145.574020 224.040039,143.305267 
	C224.551498,143.748260 225.477966,144.615402 225.418076,145.408005 
	C225.254868,147.567505 224.674927,149.695496 224.260117,151.835983 
	C222.734253,150.567871 221.208405,149.299744 219.619720,147.669479 
z"/>
<path fill="#37BB7C" opacity="1.000000" stroke="none" 
	d="
M152.510727,78.050903 
	C149.018280,81.751160 144.728897,80.169342 140.539917,78.462051 
	C144.438934,78.167152 148.247818,78.158867 152.510727,78.050903 
z"/>
<path fill="#37BB7C" opacity="1.000000" stroke="none" 
	d="
M161.013031,67.290390 
	C160.968124,70.246559 160.718048,73.499626 160.467957,76.752693 
	C159.746490,76.692467 159.025040,76.632240 158.303574,76.572014 
	C158.303574,74.900757 158.303574,73.229492 158.579086,71.311432 
	C159.505692,69.905518 160.156769,68.746407 161.013031,67.290390 
z"/>
<path fill="#1EB970" opacity="1.000000" stroke="none" 
	d="
M224.069702,142.573700 
	C222.810471,141.532486 221.529694,140.129745 220.248901,138.727005 
	C222.276245,137.158783 224.303574,135.590561 226.713074,134.047089 
	C225.465134,135.237473 223.835068,136.403107 221.863251,137.813110 
	C222.532150,139.159882 223.290161,140.686020 224.069702,142.573700 
z"/>
<path fill="#37BB7C" opacity="1.000000" stroke="none" 
	d="
M155.083008,63.372658 
	C154.866608,66.927620 154.514603,70.861603 153.835419,74.930962 
	C153.987961,71.294785 154.467697,67.523232 155.083008,63.372658 
z"/>
<path fill="#1EB970" opacity="1.000000" stroke="none" 
	d="
M180.381424,202.465790 
	C176.849442,201.369125 173.075607,199.986740 169.147736,198.287659 
	C172.709000,199.373993 176.424286,200.777039 180.381424,202.465790 
z"/>
<path fill="#1EB970" opacity="1.000000" stroke="none" 
	d="
M178.283936,83.505196 
	C174.847412,82.998375 171.140350,82.212547 167.260162,81.100372 
	C170.729141,81.591408 174.371277,82.408798 178.283936,83.505196 
z"/>
<path fill="#37BB7C" opacity="1.000000" stroke="none" 
	d="
M165.099518,54.079182 
	C164.160065,57.643307 163.220612,61.207428 161.982788,64.920349 
	C162.654938,60.908451 163.625458,56.747749 164.817566,52.628075 
	C165.059265,53.139126 165.079391,53.609154 165.099518,54.079182 
z"/>
<path fill="#1EB970" opacity="1.000000" stroke="none" 
	d="
M220.035934,112.589859 
	C218.136200,110.741066 216.162170,108.558090 214.286987,106.008507 
	C216.244446,107.846489 218.103027,110.051094 220.035934,112.589859 
z"/>
<path fill="#1EB970" opacity="1.000000" stroke="none" 
	d="
M193.882782,209.671890 
	C191.137329,208.488251 188.217621,207.014526 185.174316,205.213074 
	C187.936661,206.384171 190.822571,207.882996 193.882782,209.671890 
z"/>
<path fill="#1EB970" opacity="1.000000" stroke="none" 
	d="
M167.010880,80.427612 
	C163.099854,78.955177 165.165131,75.971573 166.188446,73.101318 
	C166.622131,75.319336 166.716370,77.671753 167.010880,80.427612 
z"/>
<path fill="#1EB970" opacity="1.000000" stroke="none" 
	d="
M166.827820,70.552277 
	C166.588272,67.493149 166.474197,64.022789 166.779205,60.264462 
	C167.198288,59.976490 167.550842,60.013077 167.550842,60.013077 
	C167.351654,63.389065 167.152481,66.765053 166.827820,70.552277 
z"/>
<path fill="#23B773" opacity="1.000000" stroke="none" 
	d="
M167.214584,45.003876 
	C168.186417,44.306339 169.158249,43.608803 170.130096,42.911274 
	C170.341370,43.923962 170.758575,44.947933 170.703842,45.946026 
	C170.652939,46.874165 170.099075,47.774723 169.402252,48.649040 
	C169.009354,48.426273 168.980881,48.241894 168.989471,47.746124 
	C168.422562,46.624454 167.818573,45.814167 167.214584,45.003876 
z"/>
<path fill="#1EB970" opacity="1.000000" stroke="none" 
	d="
M229.004333,248.638351 
	C227.657516,246.572586 226.326447,244.140854 225.019302,241.323746 
	C226.368835,243.383041 227.694458,245.827713 229.004333,248.638351 
z"/>
<path fill="#1EB970" opacity="1.000000" stroke="none" 
	d="
M228.300476,132.824188 
	C227.697357,130.217514 227.387070,127.422943 227.143204,124.207031 
	C229.890717,126.388832 230.149567,129.370667 228.300476,132.824188 
z"/>
<path fill="#1EB970" opacity="1.000000" stroke="none" 
	d="
M168.252258,197.534393 
	C165.819092,197.050293 163.117416,196.297333 160.218292,195.243896 
	C162.675156,195.717484 165.329437,196.491501 168.252258,197.534393 
z"/>
<path fill="#37BB7C" opacity="1.000000" stroke="none" 
	d="
M156.206268,54.380577 
	C156.299850,56.273994 156.233978,58.534737 155.852249,60.931435 
	C155.706528,58.960896 155.876678,56.854397 156.206268,54.380577 
z"/>
<path fill="#1EB970" opacity="1.000000" stroke="none" 
	d="
M227.378784,288.928375 
	C227.873718,287.165741 228.660660,285.222809 229.784271,283.138245 
	C229.304245,284.913788 228.487534,286.830902 227.378784,288.928375 
z"/>
<path fill="#1EB970" opacity="1.000000" stroke="none" 
	d="
M210.088989,132.308228 
	C211.321182,133.488312 212.610870,134.992401 213.828690,136.869385 
	C212.553391,135.705566 211.349945,134.168900 210.088989,132.308228 
z"/>
<path fill="#07BD65" opacity="1.000000" stroke="none" 
	d="
M168.952393,48.057510 
	C168.980881,48.241894 169.009354,48.426273 169.130768,48.874847 
	C169.223694,49.139038 169.159302,49.112823 168.882660,49.245720 
	C168.369858,50.230167 168.133728,51.081722 167.581360,51.958519 
	C166.842361,51.996368 166.419601,52.008980 165.921021,51.811302 
	C165.705978,51.321945 165.492981,51.121090 165.206223,50.998444 
	C165.330734,50.464287 165.455261,49.930130 165.999359,49.098194 
	C166.699417,48.609188 166.901978,48.355698 167.347977,48.029484 
	C168.097015,48.031853 168.524704,48.044682 168.952393,48.057510 
z"/>
<path fill="#1EB970" opacity="1.000000" stroke="none" 
	d="
M225.267715,120.396019 
	C224.223602,119.362595 223.127869,118.001816 222.068329,116.256027 
	C223.141724,117.270226 224.178925,118.669449 225.267715,120.396019 
z"/>
<path fill="#1EB970" opacity="1.000000" stroke="none" 
	d="
M165.996826,52.021591 
	C166.419601,52.008980 166.842361,51.996368 167.759293,51.984936 
	C168.253448,51.986118 168.610611,52.004574 168.610611,52.004574 
	C168.531403,53.469234 168.452194,54.933895 168.175293,56.413689 
	C167.661407,55.958481 167.345230,55.488136 167.029053,55.017792 
	C166.832840,54.739727 166.636612,54.461670 166.216125,53.741901 
	C165.993515,52.873993 165.995178,52.447792 165.996826,52.021591 
z"/>
<path fill="#1EB970" opacity="1.000000" stroke="none" 
	d="
M176.084793,105.354553 
	C177.561707,105.822563 179.227081,106.562798 180.943481,107.656631 
	C179.420746,107.215744 177.847015,106.421265 176.084793,105.354553 
z"/>
<path fill="#1EB970" opacity="1.000000" stroke="none" 
	d="
M214.242432,308.782166 
	C214.714233,307.614777 215.474106,306.310760 216.612183,305.001068 
	C216.170425,306.212128 215.350449,307.428864 214.242432,308.782166 
z"/>
<path fill="#37BB7C" opacity="1.000000" stroke="none" 
	d="
M144.987640,53.709721 
	C144.560516,52.294224 144.286270,50.585133 144.000031,48.485367 
	C144.372192,49.868500 144.756363,51.642311 144.987640,53.709721 
z"/>
<path fill="#1EB970" opacity="1.000000" stroke="none" 
	d="
M224.326538,293.894562 
	C224.822113,292.406616 225.612656,290.764160 226.758850,289.096741 
	C226.283508,290.627838 225.452499,292.183960 224.326538,293.894562 
z"/>
<path fill="#1EB970" opacity="1.000000" stroke="none" 
	d="
M193.054749,116.355087 
	C194.242584,116.837990 195.570953,117.612709 196.906036,118.758095 
	C195.673599,118.301476 194.434448,117.474197 193.054749,116.355087 
z"/>
<path fill="#1EB970" opacity="1.000000" stroke="none" 
	d="
M208.674500,220.803680 
	C207.553696,220.264908 206.316803,219.433670 205.076157,218.247223 
	C206.234406,218.765091 207.396408,219.638168 208.674500,220.803680 
z"/>
<path fill="#1EB970" opacity="1.000000" stroke="none" 
	d="
M201.326920,320.962250 
	C202.062057,320.004333 203.109909,318.984039 204.514008,317.955536 
	C203.793396,318.931488 202.716522,319.915680 201.326920,320.962250 
z"/>
<path fill="#1EB970" opacity="1.000000" stroke="none" 
	d="
M168.989471,47.746124 
	C168.524704,48.044682 168.097015,48.031853 167.302338,47.625015 
	C166.897995,46.962536 166.860672,46.694065 166.823334,46.425598 
	C166.863083,46.094704 166.902847,45.763809 167.078598,45.218399 
	C167.818573,45.814167 168.422562,46.624454 168.989471,47.746124 
z"/>
<path fill="#1EB970" opacity="1.000000" stroke="none" 
	d="
M208.224213,99.307106 
	C207.265121,98.970901 206.162994,98.359749 205.021729,97.390442 
	C206.015457,97.698914 207.048340,98.365532 208.224213,99.307106 
z"/>
<path fill="#1EB970" opacity="1.000000" stroke="none" 
	d="
M219.384537,301.945496 
	C219.522827,300.850952 219.949921,299.583649 220.691650,298.158691 
	C220.561966,299.258270 220.117645,300.515533 219.384537,301.945496 
z"/>
<path fill="#1EB970" opacity="1.000000" stroke="none" 
	d="
M210.408508,313.039307 
	C210.826691,312.096344 211.544617,311.054077 212.642151,310.012329 
	C212.250595,310.988556 211.479431,311.964264 210.408508,313.039307 
z"/>
<path fill="#1EB970" opacity="1.000000" stroke="none" 
	d="
M221.261810,297.837036 
	C221.477692,297.047516 221.951828,296.087646 222.784119,295.112305 
	C222.601547,295.953461 222.060806,296.810089 221.261810,297.837036 
z"/>
<path fill="#1EB970" opacity="1.000000" stroke="none" 
	d="
M223.936981,238.700378 
	C223.301559,238.250015 222.638336,237.488495 221.979523,236.376251 
	C222.625671,236.813431 223.267426,237.601318 223.936981,238.700378 
z"/>
<path fill="#1EB970" opacity="1.000000" stroke="none" 
	d="
M221.942596,235.709030 
	C221.306183,235.281998 220.636124,234.550797 219.957565,233.477356 
	C220.602371,233.891693 221.255661,234.648270 221.942596,235.709030 
z"/>
<path fill="#1EB970" opacity="1.000000" stroke="none" 
	d="
M217.278625,304.857605 
	C217.467667,304.034027 217.940979,303.078613 218.769684,302.102112 
	C218.604355,302.962616 218.083633,303.844177 217.278625,304.857605 
z"/>
<path fill="#1EB970" opacity="1.000000" stroke="none" 
	d="
M199.983551,213.614517 
	C199.126694,213.467789 198.126633,213.036835 197.103180,212.241425 
	C197.999969,212.361420 198.920166,212.845856 199.983551,213.614517 
z"/>
<path fill="#1EB970" opacity="1.000000" stroke="none" 
	d="
M196.972168,211.624603 
	C196.114029,211.492859 195.111389,211.077438 194.070053,210.303635 
	C194.963455,210.410477 195.895554,210.875702 196.972168,211.624603 
z"/>
<path fill="#23B773" opacity="1.000000" stroke="none" 
	d="
M167.019196,55.425728 
	C167.345230,55.488136 167.661407,55.958481 167.993378,56.727539 
	C167.961060,57.788013 167.912949,58.549770 167.707840,59.662304 
	C167.550842,60.013077 167.198288,59.976490 167.023682,59.938187 
	C166.902496,58.544476 166.955917,57.189068 167.019196,55.425728 
z"/>
<path fill="#1EB970" opacity="1.000000" stroke="none" 
	d="
M198.412033,323.100403 
	C198.832382,322.430634 199.564697,321.714447 200.661133,321.007233 
	C200.258179,321.695465 199.491104,322.374725 198.412033,323.100403 
z"/>
<path fill="#1EB970" opacity="1.000000" stroke="none" 
	d="
M195.393127,325.087372 
	C195.848984,324.424988 196.622543,323.731476 197.766785,323.075317 
	C197.328598,323.760529 196.519730,324.408386 195.393127,325.087372 
z"/>
<path fill="#1EB970" opacity="1.000000" stroke="none" 
	d="
M172.577057,103.553970 
	C173.463562,103.659317 174.562286,104.042374 175.807205,104.768890 
	C174.898697,104.685463 173.843994,104.258575 172.577057,103.553970 
z"/>
<path fill="#1EB970" opacity="1.000000" stroke="none" 
	d="
M207.990189,129.332565 
	C208.619476,129.770142 209.321136,130.510651 210.020996,131.608551 
	C209.366989,131.189117 208.714767,130.412308 207.990189,129.332565 
z"/>
<path fill="#1EB970" opacity="1.000000" stroke="none" 
	d="
M159.839142,194.713623 
	C158.798523,194.498840 157.542923,194.041656 156.166397,193.253189 
	C157.238373,193.438339 158.431274,193.954773 159.839142,194.713623 
z"/>
<path fill="#1EB970" opacity="1.000000" stroke="none" 
	d="
M204.822083,96.744217 
	C204.007935,96.576546 203.050629,96.132164 202.049637,95.343994 
	C202.896942,95.489304 203.787918,95.978409 204.822083,96.744217 
z"/>
<path fill="#1EB970" opacity="1.000000" stroke="none" 
	d="
M201.853073,94.720306 
	C201.031982,94.584145 200.066544,94.173248 199.043091,93.424416 
	C199.892975,93.539505 200.800842,93.992531 201.853073,94.720306 
z"/>
<path fill="#1EB970" opacity="1.000000" stroke="none" 
	d="
M186.079880,111.327759 
	C186.911072,111.492676 187.897781,111.929611 188.917648,112.723633 
	C188.045670,112.587074 187.140533,112.093430 186.079880,111.327759 
z"/>
<path fill="#1EB970" opacity="1.000000" stroke="none" 
	d="
M222.090683,115.594543 
	C221.434677,115.149765 220.732651,114.391441 220.056778,113.263268 
	C220.736832,113.689278 221.390747,114.485138 222.090683,115.594543 
z"/>
<path fill="#1EB970" opacity="1.000000" stroke="none" 
	d="
M201.756393,123.446198 
	C202.378372,123.581421 203.120392,124.007332 203.873322,124.796829 
	C203.214966,124.685898 202.545700,124.211395 201.756393,123.446198 
z"/>
<path fill="#1EB970" opacity="1.000000" stroke="none" 
	d="
M202.220901,215.368362 
	C201.603226,215.289612 200.865051,214.935532 200.108551,214.223465 
	C200.760269,214.274673 201.430344,214.683853 202.220901,215.368362 
z"/>
<path fill="#1EB970" opacity="1.000000" stroke="none" 
	d="
M218.042694,230.625809 
	C217.469345,230.412338 216.822998,229.907471 216.234100,229.050034 
	C216.850937,229.243118 217.410294,229.788757 218.042694,230.625809 
z"/>
<path fill="#1EB970" opacity="1.000000" stroke="none" 
	d="
M214.994171,139.329926 
	C215.628159,139.822617 216.287216,140.632233 216.931244,141.775513 
	C216.283905,141.288391 215.651581,140.467621 214.994171,139.329926 
z"/>
<path fill="#1EB970" opacity="1.000000" stroke="none" 
	d="
M190.786911,114.652786 
	C191.390808,114.721237 192.136856,115.049866 192.913879,115.733437 
	C192.272934,115.696571 191.600998,115.304764 190.786911,114.652786 
z"/>
<path fill="#1EB970" opacity="1.000000" stroke="none" 
	d="
M210.805359,222.771545 
	C210.272354,222.627670 209.648972,222.213501 208.967834,221.501251 
	C209.511719,221.635864 210.113327,222.068573 210.805359,222.771545 
z"/>
<path fill="#23B773" opacity="1.000000" stroke="none" 
	d="
M168.780884,51.668327 
	C168.610611,52.004574 168.253448,51.986118 168.075531,51.959702 
	C168.133728,51.081722 168.369858,50.230167 168.914688,49.236961 
	C169.132645,49.840900 169.041901,50.586491 168.780884,51.668327 
z"/>
<path fill="#23B773" opacity="1.000000" stroke="none" 
	d="
M165.921036,51.811302 
	C165.995178,52.447792 165.993515,52.873993 165.989166,53.618767 
	C165.986481,53.937336 165.540543,53.997345 165.320038,54.038261 
	C165.079391,53.609154 165.059265,53.139126 165.010834,52.317970 
	C164.974670,51.795044 164.966797,51.623238 165.082581,51.224937 
	C165.492981,51.121090 165.705978,51.321945 165.921036,51.811302 
z"/>
<path fill="#1EB970" opacity="1.000000" stroke="none" 
	d="
M184.937103,204.659454 
	C184.516159,204.758148 183.928879,204.599030 183.195526,204.159149 
	C183.623215,204.052795 184.196991,204.227203 184.937103,204.659454 
z"/>
<path fill="#1EB970" opacity="1.000000" stroke="none" 
	d="
M227.240448,123.556458 
	C226.864319,123.424530 226.461975,122.987816 226.067703,122.226761 
	C226.455246,122.352173 226.834732,122.801926 227.240448,123.556458 
z"/>
<path fill="#1EB970" opacity="1.000000" stroke="none" 
	d="
M199.666656,121.604950 
	C200.044907,121.605408 200.493851,121.858467 200.986969,122.396484 
	C200.599884,122.406807 200.168640,122.132179 199.666656,121.604950 
z"/>
<path fill="#1EB970" opacity="1.000000" stroke="none" 
	d="
M196.987061,119.363052 
	C197.449463,119.340927 198.022583,119.585098 198.570892,120.168396 
	C198.063309,120.214798 197.580536,119.922073 196.987061,119.363052 
z"/>
<path fill="#1EB970" opacity="1.000000" stroke="none" 
	d="
M189.040604,113.327118 
	C189.493042,113.291252 190.064941,113.526871 190.664520,114.092728 
	C190.181503,114.148178 189.670776,113.873383 189.040604,113.327118 
z"/>
<path fill="#1EB970" opacity="1.000000" stroke="none" 
	d="
M184.265686,110.186295 
	C184.646484,110.144592 185.176590,110.350273 185.837036,110.818909 
	C185.449905,110.865807 184.932465,110.649750 184.265686,110.186295 
z"/>
<path fill="#1EB970" opacity="1.000000" stroke="none" 
	d="
M193.500977,326.287750 
	C193.620453,325.912537 194.035812,325.487732 194.781876,325.075806 
	C194.673996,325.471863 194.235428,325.855042 193.500977,326.287750 
z"/>
<path fill="#1EB970" opacity="1.000000" stroke="none" 
	d="
M181.150787,108.258301 
	C181.550934,108.194267 182.113297,108.381325 182.815582,108.842194 
	C182.407990,108.913803 181.860489,108.711601 181.150787,108.258301 
z"/>
<path fill="#1EB970" opacity="1.000000" stroke="none" 
	d="
M214.339127,105.407555 
	C213.951248,105.354332 213.492722,105.020546 213.004562,104.370171 
	C213.406113,104.411385 213.837280,104.769188 214.339127,105.407555 
z"/>
<path fill="#23B773" opacity="1.000000" stroke="none" 
	d="
M166.566635,46.673485 
	C166.860672,46.694065 166.897995,46.962536 166.980988,47.635475 
	C166.901978,48.355698 166.699417,48.609188 166.190094,48.891685 
	C166.077484,48.295761 166.193710,47.608566 166.566635,46.673485 
z"/>
<path fill="#1EB970" opacity="1.000000" stroke="none" 
	d="
M209.932068,100.709312 
	C209.481110,100.731094 208.921661,100.476715 208.340958,99.894043 
	C208.820984,99.854889 209.322281,100.144020 209.932068,100.709312 
z"/>
<path fill="#1EB970" opacity="1.000000" stroke="none" 
	d="
M213.747833,137.472839 
	C214.121567,137.581772 214.544327,137.985046 214.973145,138.709442 
	C214.585068,138.609436 214.190964,138.188309 213.747833,137.472839 
z"/>
<path fill="#1EB970" opacity="1.000000" stroke="none" 
	d="
M216.283844,228.480286 
	C215.902847,228.416779 215.463135,228.068817 214.989731,227.414093 
	C215.379074,227.470169 215.802124,227.832977 216.283844,228.480286 
z"/>
<path fill="#1EB970" opacity="1.000000" stroke="none" 
	d="
M216.898849,142.347260 
	C217.248474,142.494461 217.617950,142.939743 217.993134,143.693665 
	C217.638794,143.549973 217.278748,143.097672 216.898849,142.347260 
z"/>
<path fill="#1EB970" opacity="1.000000" stroke="none" 
	d="
M203.885345,216.729141 
	C203.455750,216.745895 202.903320,216.498184 202.316406,215.929382 
	C202.775436,215.893768 203.268967,216.179230 203.885345,216.729141 
z"/>
<path fill="#1EB970" opacity="1.000000" stroke="none" 
	d="
M218.674927,145.505890 
	C219.039764,145.681427 219.427368,146.154816 219.701294,146.962097 
	C219.290985,146.798569 218.994339,146.301163 218.674927,145.505890 
z"/>
<path fill="#1EB970" opacity="1.000000" stroke="none" 
	d="
M182.929611,203.652374 
	C182.508591,203.750076 181.910202,203.587875 181.145981,203.149231 
	C181.570847,203.046021 182.161545,203.219254 182.929611,203.652374 
z"/>
<path fill="#1EB970" opacity="1.000000" stroke="none" 
	d="
M198.331299,92.560799 
	C198.114380,92.704338 197.730087,92.590843 197.182098,92.216141 
	C197.400253,92.071205 197.782089,92.187485 198.331299,92.560799 
z"/>
<path fill="#1EB970" opacity="1.000000" stroke="none" 
	d="
M218.000458,144.274139 
	C218.248062,144.247604 218.498016,144.494507 218.740936,145.015076 
	C218.490204,145.041687 218.246521,144.794632 218.000458,144.274139 
z"/>
<path fill="#1EB970" opacity="1.000000" stroke="none" 
	d="
M182.994446,109.306282 
	C183.184174,109.200844 183.482498,109.333450 183.908173,109.681992 
	C183.724701,109.780060 183.413864,109.662193 182.994446,109.306282 
z"/>
<path fill="#37BB7C" opacity="1.000000" stroke="none" 
	d="
M153.045654,77.214493 
	C153.287399,77.175926 153.435272,77.363663 153.523117,77.576202 
	C153.546692,77.633270 153.387512,77.765877 153.133759,77.919418 
	C152.946609,77.800056 152.937943,77.625084 153.045654,77.214493 
z"/>
<path fill="#1EB970" opacity="1.000000" stroke="none" 
	d="
M211.921204,102.755569 
	C211.637177,102.934273 211.368668,102.750656 211.088257,102.223236 
	C211.287598,102.161140 211.574387,102.332420 211.921204,102.755569 
z"/>
<path fill="#1EB970" opacity="1.000000" stroke="none" 
	d="
M205.033844,217.677917 
	C204.814743,217.780197 204.518082,217.620834 204.113037,217.226486 
	C204.321854,217.133087 204.639069,217.274658 205.033844,217.677917 
z"/>
<path fill="#1EB970" opacity="1.000000" stroke="none" 
	d="
M206.276505,316.985992 
	C206.211884,316.751251 206.418732,316.479675 206.879730,316.141846 
	C206.938568,316.366760 206.743271,316.657990 206.276505,316.985992 
z"/>
<path fill="#1EB970" opacity="1.000000" stroke="none" 
	d="
M207.339447,316.065735 
	C207.261108,315.835602 207.448410,315.536285 207.900070,315.165894 
	C207.977982,315.395386 207.791519,315.695984 207.339447,316.065735 
z"/>
<path fill="#1EB970" opacity="1.000000" stroke="none" 
	d="
M208.362946,315.090881 
	C208.275040,314.857269 208.454926,314.551666 208.898529,314.167633 
	C208.985077,314.399078 208.807892,314.708984 208.362946,315.090881 
z"/>
<path fill="#1EB970" opacity="1.000000" stroke="none" 
	d="
M209.355789,314.080292 
	C209.271301,313.853912 209.447998,313.545837 209.889374,313.160675 
	C209.975037,313.388580 209.796005,313.693604 209.355789,314.080292 
z"/>
<path fill="#1EB970" opacity="1.000000" stroke="none" 
	d="
M225.030029,240.664459 
	C224.784439,240.676941 224.505142,240.379913 224.212646,239.766113 
	C224.465073,239.751190 224.730713,240.053070 225.030029,240.664459 
z"/>
<path fill="#1EB970" opacity="1.000000" stroke="none" 
	d="
M213.254120,309.942200 
	C213.054352,309.682343 213.211182,309.403931 213.699905,309.078979 
	C213.777802,309.265472 213.637436,309.562531 213.254120,309.942200 
z"/>
<path fill="#1EB970" opacity="1.000000" stroke="none" 
	d="
M204.913635,126.366280 
	C205.138748,126.273201 205.447433,126.442757 205.846680,126.869431 
	C205.623886,126.960663 205.310562,126.794792 204.913635,126.366280 
z"/>
<path fill="#1EB970" opacity="1.000000" stroke="none" 
	d="
M205.957367,127.328705 
	C206.176102,127.248650 206.480133,127.428864 206.871399,127.867554 
	C206.653320,127.947006 206.347992,127.767998 205.957367,127.328705 
z"/>
<path fill="#1EB970" opacity="1.000000" stroke="none" 
	d="
M227.318298,134.028717 
	C227.218170,133.809097 227.379822,133.514099 227.776825,133.111969 
	C227.868134,133.320999 227.724106,133.637192 227.318298,134.028717 
z"/>
<path fill="#1EB970" opacity="1.000000" stroke="none" 
	d="
M203.910675,125.361206 
	C204.138885,125.279213 204.444275,125.460457 204.825043,125.907013 
	C204.596207,125.989685 204.292038,125.807060 203.910675,125.361206 
z"/>
<path fill="#1EB970" opacity="1.000000" stroke="none" 
	d="
M218.987625,231.722107 
	C218.761047,231.787872 218.486588,231.585892 218.139618,231.132294 
	C218.357986,231.071915 218.648865,231.263153 218.987625,231.722107 
z"/>
<path fill="#1EB970" opacity="1.000000" stroke="none" 
	d="
M226.078400,121.672020 
	C225.827850,121.718498 225.550842,121.489052 225.264725,120.978348 
	C225.521057,120.930092 225.786484,121.163094 226.078400,121.672020 
z"/>
<path fill="#1EB970" opacity="1.000000" stroke="none" 
	d="
M223.341644,295.052521 
	C223.246521,294.842773 223.404343,294.536713 223.806473,294.126343 
	C223.898712,294.333405 223.746643,294.644806 223.341644,295.052521 
z"/>
<path fill="#1EB970" opacity="1.000000" stroke="none" 
	d="
M198.680847,120.737541 
	C198.928116,120.603439 199.278915,120.694817 199.642776,121.087982 
	C199.301468,121.377892 199.010986,121.235634 198.680847,120.737541 
z"/>
<path fill="#FBFEFD" opacity="1.000000" stroke="none" 
	d="
M200.093811,309.136932 
	C182.186966,320.175995 162.992081,324.024109 142.032455,322.726379 
	C146.184448,289.146301 150.293732,255.911606 154.452576,222.276062 
	C168.419128,226.877945 181.465012,233.150009 194.027176,241.168869 
	C211.934494,252.599701 215.223495,269.822510 214.493835,288.403595 
	C214.152649,297.091675 208.783264,304.614349 200.093811,309.136932 
z"/>
<path fill="#F5FEFA" opacity="1.000000" stroke="none" 
	d="
M134.295532,213.925049 
	C138.277588,215.102661 137.162598,218.004517 136.855499,220.266083 
	C134.595581,236.907959 132.234299,253.536407 129.827713,270.157898 
	C127.564156,285.791443 125.211472,301.412109 122.873901,317.034851 
	C122.755478,317.826324 122.408745,318.583679 121.997093,319.907562 
	C116.935028,318.568237 112.014488,317.267883 107.094849,315.964142 
	C103.431587,314.993347 105.039330,312.286224 105.421158,310.261047 
	C107.576492,298.829620 110.261032,287.485901 112.057281,276.001556 
	C115.294289,255.305710 118.027473,234.531143 120.981720,213.790970 
	C121.211990,212.174347 121.525299,210.569534 121.901649,208.363556 
	C126.207184,210.305298 130.064545,212.044922 134.295532,213.925049 
z"/>
<path fill="#F5FEFA" opacity="1.000000" stroke="none" 
	d="
M88.057663,140.227554 
	C92.357674,121.520348 106.351166,112.335640 120.649666,103.436012 
	C121.051537,103.701370 121.453400,103.966728 121.855270,104.232086 
	C117.400764,128.796982 112.946266,153.361893 108.511520,177.817795 
	C95.220528,170.837708 84.428558,152.471146 88.057663,140.227554 
z"/>
<path fill="#F1FDF9" opacity="1.000000" stroke="none" 
	d="
M135.488113,187.300888 
	C132.248764,186.350967 129.386307,185.514206 125.807953,184.468170 
	C127.057373,176.462234 128.392258,168.497528 129.529083,160.504654 
	C132.081665,142.557861 134.771149,124.625389 136.936340,106.630707 
	C138.114990,96.835152 139.445480,95.593353 149.707901,98.193550 
	C146.758652,128.086258 143.807770,157.995605 140.799316,188.488358 
	C138.936737,188.082840 137.400879,187.748444 135.488113,187.300888 
z"/>
<path fill="#E8FDF4" opacity="1.000000" stroke="none" 
	d="
M209.003784,239.981812 
	C209.014816,239.657867 208.917618,239.370529 208.451782,238.728409 
	C207.926178,238.102448 207.660995,237.867874 207.395813,237.633286 
	C207.395813,237.633286 207.459534,237.790298 207.392014,237.423889 
	C206.950165,236.636612 206.575851,236.215759 206.201523,235.794907 
	C206.201523,235.794907 206.113068,235.917786 206.107651,235.576965 
	C205.432373,234.451996 204.762527,233.667831 204.092667,232.883667 
	C204.092667,232.883667 204.033859,232.960449 204.025818,232.658234 
	C203.732605,232.094635 203.447433,231.833267 203.162247,231.571899 
	C202.932983,231.121094 202.703720,230.670273 202.158112,229.822235 
	C201.239716,228.919479 200.637650,228.413940 200.035583,227.908386 
	C200.035583,227.908386 199.949799,227.451569 199.913544,226.966553 
	C199.581482,226.331024 199.285675,226.180496 198.989868,226.029984 
	C198.778427,225.769135 198.567001,225.508270 198.132462,224.767197 
	C199.159821,224.271072 200.625122,223.828217 201.616608,224.327057 
	C203.760208,225.405563 205.660904,226.966827 207.660965,228.330627 
	C207.660965,228.330627 207.891769,228.352005 207.877441,228.573273 
	C208.171341,228.958618 208.479584,229.122681 208.787811,229.286743 
	C208.787811,229.286743 208.830933,229.173920 208.865387,229.452515 
	C209.205948,229.906616 209.512054,230.082092 209.818146,230.257568 
	C209.818146,230.257568 209.847839,230.118866 209.884933,230.453247 
	C210.507401,231.297791 211.092773,231.807953 211.678146,232.318115 
	C211.678146,232.318130 211.895798,232.174759 211.852814,232.484924 
	C212.229538,233.136215 212.649277,233.477325 213.069016,233.818436 
	C213.239563,234.122162 213.410110,234.425888 213.859024,235.110397 
	C214.414810,235.679016 214.692245,235.866852 214.969681,236.054672 
	C214.969681,236.054672 215.002563,236.005707 215.025696,236.282913 
	C215.331757,236.762375 215.614670,236.964615 215.897598,237.166870 
	C215.897598,237.166870 215.923706,237.057434 215.958679,237.403931 
	C216.955734,238.880676 217.917831,240.010925 218.879929,241.141159 
	C218.879929,241.141159 218.933975,241.052567 218.927124,241.353821 
	C219.296600,242.072189 219.672928,242.489319 220.049240,242.906448 
	C220.049240,242.906448 220.009903,242.969482 220.060715,243.236404 
	C220.367630,243.725662 220.623734,243.947983 220.879837,244.170319 
	C220.879837,244.170319 220.908600,244.077087 220.885803,244.384583 
	C221.217972,245.158875 221.572937,245.625641 221.927917,246.092407 
	C221.927917,246.092407 221.982620,246.025131 221.955505,246.331726 
	C222.278534,247.101639 222.628677,247.564941 222.978836,248.028259 
	C222.978836,248.028259 223.003326,248.005173 223.008606,248.313675 
	C223.279251,248.914810 223.544601,249.207443 223.809937,249.500092 
	C223.809937,249.500092 223.778702,249.791870 223.887863,250.240875 
	C224.611176,251.921585 225.225327,253.153290 225.839478,254.384995 
	C225.839493,254.384995 225.825470,254.724808 225.918304,255.262512 
	C227.704346,263.589233 229.773941,271.405518 224.671799,279.563385 
	C223.021423,273.577240 221.620346,268.495270 220.219269,263.413330 
	C220.344345,263.081024 220.324112,262.757843 220.058716,261.877930 
	C219.349503,259.827484 218.740158,258.342926 218.130814,256.858337 
	C218.130814,256.858337 218.080826,256.955322 218.120361,256.581238 
	C217.508545,254.966385 216.857193,253.725647 216.205841,252.484909 
	C216.205856,252.484909 216.218002,252.194870 216.102676,251.812439 
	C215.640060,250.988571 215.292770,250.547150 214.945465,250.105743 
	C214.945480,250.105728 214.986160,250.042694 214.941467,249.767609 
	C214.639313,249.271332 214.381836,249.050156 214.124374,248.828979 
	C214.124374,248.828979 214.100571,248.921097 214.110291,248.614670 
	C213.767685,247.846390 213.415359,247.384521 213.063034,246.922668 
	C213.063034,246.922668 213.006454,246.982880 213.034241,246.673553 
	C212.711731,245.904007 212.361450,245.443771 212.011154,244.983536 
	C212.011154,244.983536 211.999191,244.999390 211.976837,244.679230 
	C211.363510,243.510010 210.772507,242.660934 210.181503,241.811874 
	C210.181503,241.811874 210.124817,241.910599 210.141541,241.599579 
	C209.773438,240.852997 209.388611,240.417404 209.003784,239.981812 
z"/>
<path fill="#1EB970" opacity="1.000000" stroke="none" 
	d="
M207.730804,227.975372 
	C205.660904,226.966827 203.760208,225.405563 201.616608,224.327057 
	C200.625122,223.828217 199.159821,224.271072 197.900146,224.663055 
	C194.027954,222.351089 189.255554,220.545746 187.735565,214.410904 
	C195.942810,217.421875 202.874680,220.954590 207.730804,227.975372 
z"/>
<path fill="#1EB970" opacity="1.000000" stroke="none" 
	d="
M220.155731,263.879242 
	C221.620346,268.495270 223.021423,273.577240 224.671799,279.563385 
	C229.773941,271.405518 227.704346,263.589233 226.027588,255.392807 
	C227.026443,257.908203 228.672882,260.789337 228.859512,263.762115 
	C229.313568,270.994751 229.656631,278.397675 223.270279,285.373413 
	C222.140030,277.894928 221.116119,271.120056 220.155731,263.879242 
z"/>
<path fill="#A9F8D4" opacity="1.000000" stroke="none" 
	d="
M158.327728,208.050613 
	C165.190201,210.190704 171.029221,213.383698 176.372574,217.404556 
	C176.139557,217.805328 175.906540,218.206100 175.673523,218.606857 
	C168.861313,215.241760 162.049103,211.876648 155.236893,208.511551 
	C155.314590,208.241364 155.392288,207.971161 155.470001,207.700974 
	C156.307617,207.790695 157.145248,207.880402 158.327728,208.050613 
z"/>
<path fill="#30DC89" opacity="1.000000" stroke="none" 
	d="
M154.218414,330.026733 
	C149.888596,330.034912 145.965225,330.034912 142.041855,330.034912 
	C142.046875,329.775085 142.051895,329.515259 142.056915,329.255432 
	C146.697662,329.255432 151.338394,329.255432 157.268326,329.255432 
	C155.542984,329.753510 155.083923,329.886017 154.218414,330.026733 
z"/>
<path fill="#1EB970" opacity="1.000000" stroke="none" 
	d="
M218.920639,240.736115 
	C217.917831,240.010925 216.955734,238.880676 215.914124,237.438293 
	C216.876862,238.194458 217.919098,239.262772 218.920639,240.736115 
z"/>
<path fill="#1EB970" opacity="1.000000" stroke="none" 
	d="
M218.081696,257.258545 
	C218.740158,258.342926 219.349503,259.827484 219.930542,261.664795 
	C219.279037,260.564575 218.655807,259.111694 218.081696,257.258545 
z"/>
<path fill="#30DC89" opacity="1.000000" stroke="none" 
	d="
M163.764191,328.735718 
	C162.058853,328.923035 160.620544,328.923035 159.182251,328.923035 
	C159.177536,328.643524 159.172836,328.363983 159.168137,328.084473 
	C160.789169,328.239136 162.410202,328.393768 163.764191,328.735718 
z"/>
<path fill="#1EB970" opacity="1.000000" stroke="none" 
	d="
M216.149063,252.879089 
	C216.857193,253.725647 217.508545,254.966385 218.171112,256.561218 
	C217.485641,255.701294 216.788956,254.487274 216.149063,252.879089 
z"/>
<path fill="#1EB970" opacity="1.000000" stroke="none" 
	d="
M225.890778,253.980804 
	C225.225327,253.153290 224.611176,251.921585 223.995056,250.341064 
	C224.642746,251.187042 225.292404,252.381821 225.890778,253.980804 
z"/>
<path fill="#1EB970" opacity="1.000000" stroke="none" 
	d="
M210.123413,242.179382 
	C210.772507,242.660934 211.363510,243.510010 211.985107,244.675064 
	C211.365601,244.176331 210.715469,243.361618 210.123413,242.179382 
z"/>
<path fill="#1EB970" opacity="1.000000" stroke="none" 
	d="
M211.741196,231.956299 
	C211.092773,231.807953 210.507401,231.297791 209.834503,230.503113 
	C210.432739,230.677231 211.118500,231.135849 211.741196,231.956299 
z"/>
<path fill="#1EB970" opacity="1.000000" stroke="none" 
	d="
M204.081223,233.227295 
	C204.762527,233.667831 205.432373,234.451996 206.175354,235.543121 
	C205.522263,235.090347 204.796021,234.330627 204.081223,233.227295 
z"/>
<path fill="#1EB970" opacity="1.000000" stroke="none" 
	d="
M200.062332,228.239136 
	C200.637650,228.413940 201.239716,228.919479 201.925308,229.712463 
	C201.368912,229.523224 200.729004,229.046555 200.062332,228.239136 
z"/>
<path fill="#1EB970" opacity="1.000000" stroke="none" 
	d="
M220.024353,242.605896 
	C219.672928,242.489319 219.296600,242.072189 218.876862,241.366699 
	C219.222107,241.487320 219.610794,241.896317 220.024353,242.605896 
z"/>
<path fill="#1EB970" opacity="1.000000" stroke="none" 
	d="
M214.964188,250.396393 
	C215.292770,250.547150 215.640060,250.988571 215.990509,251.720306 
	C215.656738,251.569443 215.319824,251.128250 214.964188,250.396393 
z"/>
<path fill="#1EB970" opacity="1.000000" stroke="none" 
	d="
M213.053986,247.242004 
	C213.415359,247.384521 213.767685,247.846390 214.157196,248.606812 
	C213.811249,248.457352 213.428101,248.009338 213.053986,247.242004 
z"/>
<path fill="#1EB970" opacity="1.000000" stroke="none" 
	d="
M222.978531,247.718597 
	C222.628677,247.564941 222.278534,247.101639 221.912735,246.338852 
	C222.257477,246.495911 222.617859,246.952423 222.978531,247.718597 
z"/>
<path fill="#1EB970" opacity="1.000000" stroke="none" 
	d="
M212.016586,245.290527 
	C212.361450,245.443771 212.711731,245.904007 213.074554,246.664490 
	C212.732056,246.509003 212.377029,246.053253 212.016586,245.290527 
z"/>
<path fill="#1EB970" opacity="1.000000" stroke="none" 
	d="
M221.939423,245.771881 
	C221.572937,245.625641 221.217972,245.158875 220.837189,244.388672 
	C221.191238,244.540619 221.571091,244.995987 221.939423,245.771881 
z"/>
<path fill="#1EB970" opacity="1.000000" stroke="none" 
	d="
M213.025513,233.519745 
	C212.649277,233.477325 212.229538,233.136215 211.730545,232.530029 
	C212.094849,232.583649 212.538422,232.902359 213.025513,233.519745 
z"/>
<path fill="#1EB970" opacity="1.000000" stroke="none" 
	d="
M206.164841,236.134796 
	C206.575851,236.215759 206.950165,236.636612 207.391525,237.339172 
	C207.015091,237.238800 206.571625,236.856750 206.164841,236.134796 
z"/>
<path fill="#1EB970" opacity="1.000000" stroke="none" 
	d="
M209.015793,240.297943 
	C209.388611,240.417404 209.773438,240.852997 210.196655,241.585388 
	C209.832642,241.459503 209.430222,241.036804 209.015793,240.297943 
z"/>
<path fill="#1EB970" opacity="1.000000" stroke="none" 
	d="
M199.072083,226.234116 
	C199.285675,226.180496 199.581482,226.331024 199.845383,226.744385 
	C199.537491,226.882721 199.317764,226.693069 199.072083,226.234116 
z"/>
<path fill="#1EB970" opacity="1.000000" stroke="none" 
	d="
M207.384415,237.933868 
	C207.660995,237.867874 207.926178,238.102448 208.256805,238.603607 
	C208.005829,238.658264 207.689423,238.446350 207.384415,237.933868 
z"/>
<path fill="#1EB970" opacity="1.000000" stroke="none" 
	d="
M220.846603,243.915497 
	C220.623734,243.947983 220.367630,243.725662 220.097809,243.238403 
	C220.327179,243.202545 220.570267,243.431610 220.846603,243.915497 
z"/>
<path fill="#1EB970" opacity="1.000000" stroke="none" 
	d="
M215.836243,236.908188 
	C215.614670,236.964615 215.331757,236.762375 214.998108,236.293335 
	C215.223221,236.234222 215.499039,236.441864 215.836243,236.908188 
z"/>
<path fill="#1EB970" opacity="1.000000" stroke="none" 
	d="
M214.895935,235.816498 
	C214.692245,235.866852 214.414810,235.679016 214.092117,235.237213 
	C214.384872,235.077942 214.643326,235.276306 214.895935,235.816498 
z"/>
<path fill="#1EB970" opacity="1.000000" stroke="none" 
	d="
M223.792877,249.194382 
	C223.544601,249.207443 223.279251,248.914810 222.992874,248.317322 
	C223.239838,248.304520 223.507843,248.596603 223.792877,249.194382 
z"/>
<path fill="#1EB970" opacity="1.000000" stroke="none" 
	d="
M214.159866,249.081573 
	C214.381836,249.050156 214.639313,249.271332 214.904877,249.759384 
	C214.673767,249.795563 214.434570,249.564865 214.159866,249.081573 
z"/>
<path fill="#1EB970" opacity="1.000000" stroke="none" 
	d="
M208.734100,229.001099 
	C208.479584,229.122681 208.171341,228.958618 207.765228,228.544739 
	C208.005020,228.435089 208.342712,228.575287 208.734100,229.001099 
z"/>
<path fill="#1EB970" opacity="1.000000" stroke="none" 
	d="
M203.200195,231.873230 
	C203.447433,231.833267 203.732605,232.094635 204.073303,232.649063 
	C203.831940,232.686264 203.535049,232.430405 203.200195,231.873230 
z"/>
<path fill="#1EB970" opacity="1.000000" stroke="none" 
	d="
M209.760971,229.976135 
	C209.512054,230.082092 209.205948,229.906616 208.809296,229.474915 
	C209.047104,229.377365 209.375443,229.536041 209.760971,229.976135 
z"/>
</svg>