<?xml version="1.0" encoding="UTF-8"?>
<!DOCTYPE svg PUBLIC "-//W3C//DTD SVG 1.1//EN" "http://www.w3.org/Graphics/SVG/1.1/DTD/svg11.dtd">
<!-- Creator: CorelDRAW -->
<svg xmlns="http://www.w3.org/2000/svg" xml:space="preserve" width="100mm" height="90mm" version="1.1" style="shape-rendering:geometricPrecision; text-rendering:geometricPrecision; image-rendering:optimizeQuality; fill-rule:evenodd; clip-rule:evenodd"
viewBox="0 0 10000 9000"
 xmlns:xlink="http://www.w3.org/1999/xlink"
 xmlns:xodm="http://www.corel.com/coreldraw/odm/2003">
 <defs>
  <style type="text/css">
   <![CDATA[
    .fil0 {fill:#00BF63;fill-rule:nonzero}
   ]]>
  </style>
 </defs>
 <g id="Vrstva_x0020_1">
  <metadata id="CorelCorpID_0Corel-Layer"/>
  <path class="fil0" d="M5566.97 4942.5c0,-158.81 -124.22,-305.63 -254.1,-389.62 -86.81,-57.17 -182.81,-93.87 -281.62,-124.92 0.71,-9.18 1.41,-18.36 2.12,-28.23 4.23,-43.77 9.17,-87.52 13.41,-130.58 16.23,-161.64 32.47,-323.97 45.17,-486.31 112.22,44.47 215.28,117.17 298.56,200.46 31.06,44.47 67.76,88.92 86.82,139.75 0.71,11.3 10.59,21.18 23.29,19.77 14.12,-4.94 19.06,-13.41 19.06,-24 0,-24.71 -26.82,-59.3 -33.89,-78.36 -0.71,-2.11 -2.12,-4.23 -2.82,-6.35 9.88,1.42 20.47,0 30.35,-5.64 17.64,-9.18 28.23,-28.24 28.23,-47.29 0,-7.76 -2.12,-16.24 -6.35,-23.29 -16.24,-28.23 -34.59,-55.06 -52.94,-81.87 -60.7,-92.47 -134.81,-144 -235.74,-186.34 -46.59,-21.18 -95.29,-36 -144.7,-45.17 1.41,-22.6 3.53,-44.47 4.94,-67.07 4.24,-34.58 1.41,-71.29 12,-104.45 0,-0.71 0,-2.12 0,-2.83 0,-3.52 -1.41,-6.35 -2.82,-8.47 2.82,-10.58 5.65,-21.17 8.47,-31.06 0,0 0,0.71 0,0.71 0,0 0,0.71 0,0.71 2.82,-9.18 6.35,-19.05 9.17,-28.23 0,-0.72 0.71,-1.41 0.71,-2.83 1.41,-2.12 2.12,-4.93 2.12,-7.05 0,-11.3 -15.53,-16.95 -23.29,-6.35 -8.47,17.63 -13.42,37.39 -19.06,55.76 -17.65,63.52 -32.47,127.74 -43.76,192.69 -2.12,0 -4.24,-0.72 -6.36,-0.72 4.24,-44.47 7.77,-89.63 12,-134.1 1.42,-19.76 2.83,-38.82 2.83,-58.58 0,-7.76 0,-15.54 -0.71,-23.29 2.12,-9.18 -6.35,-18.36 -16.23,-14.82 -7.77,2.81 -9.88,11.28 -6.36,17.63 0,50.12 -9.88,99.53 -16.94,150.34 -2.82,19.76 -5.64,39.54 -8.47,59.3 -28.93,-1.42 -57.87,-0.71 -86.81,1.4 12,-79.76 24.7,-160.21 49.41,-237.14 0,0 0,0 0,-0.71 0,-4.24 -3.53,-9.2 -8.47,-9.2 -6.36,0 -9.89,5.66 -11.3,10.59 -6.35,17.65 -10.58,36 -15.52,54.36 -2.12,7.06 -3.53,14.82 -5.65,21.88 4.23,-50.12 9.17,-99.53 14.11,-149.63 0,-0.71 0,-2.13 0,-2.83 0,-11.3 -7.76,-21.17 -19.76,-21.88 -4.23,-0.71 -7.76,0 -10.59,2.82 -1.41,-2.11 -4.23,-4.23 -7.05,-4.94 -7.06,-2.11 -14.83,1.41 -16.94,8.47 -14.83,82.59 -22.59,166.57 -38.82,248.44 -5.65,30.35 -11.3,60.71 -17.65,91.06 -44.47,11.98 -88.23,25.4 -130.58,42.34 -50.82,21.89 -101.64,59.99 -144.69,103.76 -107.99,86.81 -181.4,207.51 -158.81,352.9 13.41,80.48 36,168.71 107.99,216 42.35,34.58 88.23,58.56 136.22,76.93 15.53,10.59 31.06,21.18 46.59,31.76 -0.71,7.76 -1.41,14.82 -2.12,22.58 -19.76,183.51 -69.17,362.1 -108.69,542.79 -13.41,64.23 -24.7,129.15 -34.58,194.81 -2.83,-1.43 -6.35,-2.12 -9.18,-3.54 -4.94,-3.53 -9.17,-7.05 -14.11,-9.88 -74.12,-69.87 -195.52,-123.51 -203.99,-236.46 -1.41,-10.58 -9.17,-19.05 -19.76,-19.05 -14.82,-0.71 -20.47,10.58 -24,22.59 0,-2.82 0,-4.94 0,-8.48 1.41,-4.22 3.53,-8.47 0.71,-13.4 -8.47,-13.41 -24.71,-4.95 -25.41,9.18 -2.83,46.58 21.88,88.92 45.88,127.75 2.82,4.94 5.64,9.18 8.47,13.41 0.7,1.41 1.41,2.82 2.11,3.52 5.65,7.77 11.3,16.24 16.94,24.01 -4.94,-2.12 -10.58,-4.24 -15.52,-6.35 -27.53,-11.31 -56.47,-23.29 -85.41,-34.59 -7.76,-3.53 -16.94,-3.53 -24.7,0.71 -21.18,10.59 -18.35,43.75 4.23,50.82 60.7,23.28 121.4,47.98 182.1,71.98 40.93,50.83 86.82,98.11 141.88,134.82 -2.83,16.94 -4.95,34.58 -7.77,51.53 -9.88,65.64 -19.06,131.98 -24,198.33 -5.64,64.23 -6.35,128.46 -7.76,192.69 0,7.05 1.41,12.7 3.53,17.64 -0.71,8.47 -1.41,17.66 -2.12,26.12 -1.41,39.53 55.05,44.47 62.11,7.07 2.83,-16.24 4.94,-31.78 7.06,-48.01 4.94,-17.65 8.47,-35.99 12,-53.64 13.41,0 27.53,-6.35 35.29,-19.05 21.18,-34.59 24.71,-75.53 27.53,-114.35 2.12,-64.94 9.17,-129.87 18.35,-194.09 40.93,15.52 83.29,26.11 126.34,33.17 -16.94,110.82 -31.76,220.92 -40.23,334.56 -4.23,46.59 -9.17,93.18 -4.23,139.75 1.41,15.54 14.82,28.24 30.35,28.95 14.82,0.7 31.05,-10.59 33.17,-26.12 0.71,-3.52 1.41,-7.06 1.41,-10.58 10.59,0 20.47,-5.66 26.12,-14.13 3.53,-0.69 7.06,-2.81 10.58,-4.93 36.71,-27.54 29.65,-80.47 38.12,-121.41 12,-104.45 27.53,-208.92 41.64,-312.67 35.29,0.7 70.59,-1.41 105.88,-6.35 69.87,-9.9 134.81,-38.83 196.22,-71.3 103.75,-43.06 194.8,-112.92 258.32,-210.34 3.53,-7.75 6.35,-15.53 9.17,-23.28 27.53,-33.18 50.12,-69.89 66.35,-110.81 11.29,-34.59 16.94,-68.47 16.94,-101.64l0.01 -0.01zm-1003.68 -793.35c-3.53,-14.13 -6.35,-28.23 -7.77,-42.36 2.83,-88.23 36.71,-154.58 106.58,-211.74 40.93,-38.83 88.94,-74.11 140.46,-98.11 -24,105.87 -47.29,211.03 -64.93,317.62 -13.41,71.28 -22.59,143.28 -31.06,214.58 -1.41,-0.72 -2.82,-1.43 -4.94,-2.12 -62.11,-49.41 -112.22,-96.7 -138.34,-177.87zm371.96 168.68c-3.53,26.13 -7.06,52.94 -9.88,79.05 -25.41,-7.04 -50.12,-14.1 -74.82,-21.17 -9.88,-2.82 -19.06,-5.64 -28.94,-8.47 21.88,-136.21 44.47,-272.43 64.94,-409.37 7.05,-63.53 13.41,-127.76 19.76,-191.28 12.7,-2.11 26.11,-2.83 39.52,-2.83 15.53,0 31.06,0.72 46.59,1.42 -6.35,45.16 -12.71,91.04 -18.35,136.22 -19.77,136.23 -24,278.09 -38.82,416.43zm-206.81 681.13c19.06,-156.69 42.35,-312.69 66.35,-468.66 11.29,5.64 21.88,11.3 33.17,16.93 24.71,12 50.12,22.6 74.82,33.19 -7.06,59.99 -14.82,120.68 -22.59,182.1 -27.52,181.39 -56.46,362.08 -81.87,544.18 -41.65,-8.47 -83.29,-19.76 -124.23,-32.47 17.65,-92.46 37.4,-183.5 54.35,-275.26l0 -0.01zm63.54 352.89c0,0.72 0,1.43 0,2.12 -9.89,-2.12 -19.77,-4.23 -29.65,-6.35 -9.88,-2.12 -19.06,-5.64 -28.23,-8.47 19.05,4.95 38.11,9.2 57.88,12.7zm134.1 16.95c54.35,2.83 108.69,1.43 163.75,-7.04 12.71,-2.12 25.41,-4.94 38.12,-7.06 -65.64,16.93 -134.11,21.17 -201.87,16.93 0,-1.4 0,-2.11 0,-2.83zm513.14 -278.8c-2.12,10.59 -4.24,20.48 -7.77,30.35 -7.76,14.83 -16.23,28.95 -23.29,43.78 -6.35,11.28 -13.41,21.88 -21.18,32.46 -0.7,0.7 -1.41,1.42 -1.41,2.12 -83.28,63.52 -190.56,106.58 -291.5,121.4 -54.35,7.76 -107.99,9.18 -161.64,5.64 4.94,-40.23 10.59,-79.75 14.83,-119.99 0,-2.81 0.7,-5.64 0.7,-7.76 7.06,-41.65 13.41,-83.28 19.77,-124.94 21.17,-148.22 35.99,-297.84 48.7,-447.48 45.17,16.94 90.34,33.89 134.81,51.53 66.35,27.52 124.93,70.58 182.81,113.63 12,9.88 24.7,19.77 36,30.34 5.64,4.95 10.58,9.9 14.82,15.53 38.82,78.36 59.29,165.17 54.35,253.39zm-415.73 -558.3c0,-2.82 0.7,-4.93 0.7,-7.76 22.59,6.35 45.17,13.41 67.05,22.58 47.29,22.59 92.47,52.23 134.11,87.53 -64.23,-39.53 -134.11,-69.17 -201.86,-102.35zm-550.55 734.05c14.12,10.59 27.53,21.18 40.23,31.78 6.36,4.93 13.42,9.88 19.77,14.82 0,0.69 0,0.69 0,1.41 -21.18,-14.82 -40.93,-31.07 -60,-48.01zm1028.38 -200.44c4.94,-33.18 -0.71,-67.77 -8.47,-100.93 -2.82,-15.54 -7.06,-30.35 -12,-45.18 -9.88,-35.3 -20.47,-70.58 -40.23,-101.64 -1.41,-2.12 -2.83,-4.24 -4.24,-6.36 -33.17,-62.82 -74.81,-120.69 -117.16,-170.1 -21.88,-26.11 -45.18,-48.7 -68.47,-68.47 88.93,48.01 167.99,112.95 226.57,205.41 67.76,105.86 65.64,203.98 24,287.27z"/>
 </g>
</svg>
