<?xml version="1.0" standalone="no"?>
<!DOCTYPE svg PUBLIC "-//W3C//DTD SVG 1.0//EN" "http://www.w3.org/TR/2001/REC-SVG-20010904/DTD/svg10.dtd">
<svg xmlns="http://www.w3.org/2000/svg" xmlns:xlink="http://www.w3.org/1999/xlink" id="body_1" width="800" height="599">

<defs>
    <clipPath  id="1">

    <path id=""  clip-rule="evenodd" transform="matrix(1 0 0 1 0 0)"  d="M0 449L0 -1L0 -1L600 -1L600 -1L600 449L600 449L0 449z" />    </clipPath>
    <clipPath  id="2">

    <path id=""  clip-rule="evenodd" transform="matrix(1 0 0 1 0 0)"  d="M0 -1L600 -1L600 -1L600 449L600 449L0 449z" />    </clipPath>
    <clipPath  id="3">

    <path id=""  clip-rule="evenodd" transform="matrix(1 0 0 1 0 0)"  d="M0 -1L600 -1L600 -1L600 449L600 449L0 449z" />    </clipPath>
    <clipPath  id="4">

    <path id=""  clip-rule="evenodd" transform="matrix(1 0 0 1 0 0)"  d="M89.81046 66.53964L533.0604 66.53964L533.0604 66.53964L533.0604 360.5397L533.0604 360.5397L89.81046 360.5397z" />    </clipPath>
    <clipPath  id="5">

    <path id=""  clip-rule="evenodd" transform="matrix(1 0 0 1 0 0)"  d="M418.7126 142.4629L533.0604 142.4629L533.0604 142.4629L533.0604 339.9244L533.0604 339.9244L418.7126 339.9244z" />    </clipPath>
    <clipPath  id="6">

    <path id=""  clip-rule="evenodd" transform="matrix(1 0 0 1 0 0)"  d="M89.81046 66.53964L533.0604 66.53964L533.0604 66.53964L533.0604 360.5397L533.0604 360.5397L89.81046 360.5397z" />    </clipPath>
    <clipPath  id="7">

    <path id=""  clip-rule="evenodd" transform="matrix(1 0 0 1 0 0)"  d="M118.093 324.951L180.8392 324.951L180.8392 324.951L180.8392 360.4579L180.8392 360.4579L118.093 360.4579z" />    </clipPath>
    <clipPath  id="8">

    <path id=""  clip-rule="evenodd" transform="matrix(1 0 0 1 0 0)"  d="M180.8392 351.1544L296.9664 351.1544L296.9664 351.1544L296.9664 360.4579L296.9664 360.4579L180.8392 360.4579z" />    </clipPath>
    <clipPath  id="9">

    <path id=""  clip-rule="evenodd" transform="matrix(1 0 0 1 0 0)"  d="M89.81046 66.53964L533.0604 66.53964L533.0604 66.53964L533.0604 360.5397L533.0604 360.5397L89.81046 360.5397z" />    </clipPath>
</defs>

<g transform="matrix(1.3333 0 0 1.3333 0 0)">
	<g clip-path="url(#1)" >
		<g clip-path="url(#2)" >
    <path id=""  transform="matrix(1 0 0 -1 0 449)"  d="M0 450L600 450L600 450L600 0L600 0L0 0z" stroke="none" fill="#FFFFFF" fill-rule="nonzero" />
		</g>
		<g clip-path="url(#3)" >
    <path id=""  transform="matrix(1 0 0 -1 0 449)"  d="M0 450L600 450L600 450L600 0L600 0L0 0z" stroke="none" fill="#FFFFFF" fill-rule="nonzero" />
		</g>
		<g clip-path="url(#4)" >
    <path id=""  transform="matrix(1 0 0 -1 0 449)"  d="M365.3535 365.9701C 350.4059 358.5565 338.363 346.8 325.2921 336.6703C 312.9639 326.6064 299.1723 318.0852 288.578 306.0802C 278.4008 302.7646 268.5419 298.0232 260.351 291.1251C 272.1891 293.9143 283.098 300.0192 292.7045 307.3414C 291.6729 307.0453 290.6413 306.7346 289.6133 306.4092C 293.3301 308.4308 296.8859 310.6936 300.343 313.1099C 298.5797 304.4096 298.6236 295.5191 298.6675 286.6725C 298.6602 277.8552 298.5394 268.9392 300.1454 260.2352C 301.7477 267.912 301.8355 275.8483 302.0403 283.6713C 302.1465 293.5999 302.6659 303.6163 300.7709 313.4097C 312.0932 321.3789 322.3473 330.953 333.6037 339.0063C 344.6808 347.3813 356.3433 355.2664 365.3535 365.9701" stroke="none" fill="#2C2C2C" fill-rule="nonzero" />
    <path id=""  transform="matrix(1 0 0 -1 0 449)"  d="M322.2302 353.6251C 322.3399 353.6909 322.4497 353.7567 322.5558 353.8225C 336.7717 362.702 352.1802 370.0168 365.1194 380.7534C 365.2474 380.5121 365.3755 380.2672 365.5035 380.0259C 352.4326 372.2979 341.264 361.9306 329.2394 352.7441C 315.9966 341.5616 300.8514 332.4518 288.6512 320.1104C 276.9997 315.6945 265.7031 309.7212 256.5501 301.1817C 267.3602 304.5412 277.2448 310.4889 286.138 317.4674C 285.8087 317.1128 285.4832 316.7509 285.1613 316.389C 299.1796 323.5175 310.5201 334.6561 322.9435 344.1022C 337.2729 355.749 353.0143 365.8239 366.1364 378.8488C 374.3089 363.8827 385.8616 351.0991 396.1962 337.6172C 408.4805 322.6547 418.6358 305.6525 433.3895 292.9163C 430.2837 299.1492 426.501 304.9433 422.4001 310.5291C 426.9034 308.1639 432.0542 306.9064 437.1429 307.5059C 432.6359 310.2184 427.3424 311.2456 422.1221 310.9019C 414.9886 320.571 406.9258 329.6296 399.8069 339.2805C 389.0626 352.8574 379.4012 367.5529 366.6559 379.3716C 367.6253 380.3439 368.5838 381.3346 369.5203 382.3436C 368.5545 381.8318 367.6143 381.2798 366.6815 380.7132C 366.3778 380.5377 366.0742 380.3622 365.7742 380.1831C 365.5584 380.3768 365.3462 380.5706 365.1304 380.7643C 365.5291 381.0934 365.9279 381.426 366.3193 381.766C 351.3169 376.0961 338.1472 366.661 324.319 358.7027C 313.1833 352.0385 301.3856 346.1128 291.6766 337.3942C 302.6842 341.2947 312.5029 347.7578 322.4424 353.753C 322.3729 353.7092 322.2997 353.6653 322.2302 353.6251" stroke="none" fill="#2C2C2C" fill-rule="nonzero" />
    <path id=""  transform="matrix(1 0 0 -1 0 449)"  d="M322.4424 353.753C 322.4789 353.775 322.5119 353.7932 322.5485 353.8152C 322.5411 353.8115 322.5375 353.8115 322.5338 353.8079C 322.5046 353.7896 322.4716 353.7713 322.4424 353.753" stroke="none" fill="#2C2C2C" fill-rule="nonzero" />
    <path id=""  transform="matrix(1 0 0 -1 0 449)"  d="M322.5997 353.8481C 322.585 353.8408 322.5704 353.8298 322.5558 353.8225C 322.5521 353.8188 322.5521 353.8188 322.5485 353.8152C 322.5668 353.8261 322.5814 353.8371 322.5997 353.8481" stroke="none" fill="#2C2C2C" fill-rule="nonzero" />
    <path id=""  transform="matrix(1 0 0 -1 0 449)"  d="M302.044 283.8065C 302.044 283.7627 302.0403 283.7151 302.0403 283.6713C 302.0367 283.5726 302.0367 283.4702 302.0367 283.3679C 302.0367 283.5141 302.0403 283.6603 302.044 283.8065" stroke="none" fill="#2C2C2C" fill-rule="nonzero" />
    <path id=""  transform="matrix(1 0 0 -1 0 449)"  d="M173.6251 249.2537C 154.8291 248.8297 190.9908 244.4576 195.8197 244.6805C 234.5824 243.0209 273.1147 237.6837 311.8554 236.152C 314.3467 236.1228 316.8708 236.2544 319.3365 236.5395C 314.515 237.8994 309.5288 238.477 304.5792 239.1533C 277.5814 241.7231 250.4519 243.0246 223.4321 245.4665C 206.8383 246.7204 190.2994 249.6083 173.6251 249.2537" stroke="none" fill="#2C2C2C" fill-rule="nonzero" />
    <path id=""  transform="matrix(1 0 0 -1 0 449)"  d="M112.313 283.6091C 114.8738 298.5058 117.3321 313.4207 119.4905 328.3867C 120.9062 337.1602 122.472 345.9812 123.1597 354.857C 126.5582 342.9617 131.5554 331.5488 136.0404 319.9934C 135.2721 319.3062 134.4966 318.6189 133.7211 317.928C 134.032 319.4085 134.2332 320.9402 133.8418 322.4171C 133.7723 322.11 133.7101 321.803 133.6625 321.4922C 133.6625 321.5069 133.6662 321.5215 133.6662 321.5361C 133.4467 320.5125 133.3369 318.6153 133.5491 317.7708C 130.0116 314.6014 126.5655 311.2931 124.1365 307.1988C 128.4459 311.0591 132.4187 315.3252 136.1282 319.7704C 136.5745 318.6153 137.0171 317.4565 137.4525 316.2976C 135.5136 314.51 133.5381 312.748 131.6505 310.9019C 131.6212 310.9751 131.5883 311.0518 131.5517 311.1249C 131.5517 311.0189 131.5517 310.9129 131.5517 310.8069C 129.8104 309.0961 128.1422 307.3158 126.6533 305.3747C 124.9413 303.2544 124.0999 302.1248 123.895 301.7227C 124.2169 303.7114 124.6632 305.8462 123.9572 307.7618C 123.7121 305.5903 123.3463 303.4153 123.8219 301.2511C 123.8365 301.3535 123.8511 301.4522 123.8658 301.5509C 124.1987 301.529 127.9337 305.4332 131.5444 309.3776C 131.5407 306.8844 131.6139 304.373 132.3456 301.9822C 132.4077 304.6106 132.7553 307.3524 132.0126 309.893C 132.5138 310.4413 133.0114 310.9897 133.4942 311.5234C 133.1394 309.458 133.3077 307.3158 133.6186 305.2394C 129.9567 292.6129 128.9178 279.3211 126.196 266.4716C 123.7816 252.9642 119.8124 239.5152 119.999 225.7043C 125.6912 240.5497 126.5509 256.66 129.6787 272.1378C 130.2604 275.395 130.9261 278.6521 131.5956 281.9093C 130.3152 268.241 130.8896 254.2985 133.3443 240.8495C 135.5282 255.7534 135.477 271.1691 133.1431 286.0694C 135.499 287.4073 137.6866 289.0999 139.4096 291.1799C 136.9659 290.0394 134.8514 288.3286 133.1065 286.3033C 133.037 286.7457 132.9638 287.1917 132.887 287.634C 135.9855 289.7615 138.7548 292.4959 140.3059 295.9395C 137.2513 294.2945 134.8405 291.7027 132.9931 288.8001C 134.449 296.2466 135.6416 303.7296 135.627 311.326C 135.0892 309.882 134.5954 308.4271 134.1381 306.9648C 134.2259 308.1749 134.2405 309.3885 134.054 310.5985C 134.054 310.5693 134.0576 310.5364 134.0613 310.5035C 134.0137 310.9933 133.9515 311.4832 133.8966 311.973C 135.3746 313.6181 136.6806 315.1096 137.5183 316.1222C 137.9975 314.8463 138.4658 313.5706 138.9231 312.2874C 146.5285 293.5963 152.4512 274.1631 161.3371 256.0166C 162.6614 253.4503 164.1284 250.9389 165.6758 248.5116C 165.3575 250.3285 165.0173 252.138 164.6003 253.9329C 161.5603 266.9067 156.007 279.0798 151.2769 291.487C 144.6372 308.4563 137.961 325.4184 131.4968 342.4572C 131.5224 342.3951 131.5444 342.3329 131.5663 342.2671C 129.2946 348.3719 126.5911 354.3525 123.456 360.0663C 123.5072 361.5943 123.5292 363.1223 123.5109 364.6541C 137.7232 358.8453 153.2268 357.9131 168.2183 355.303C 197.5756 350.6055 226.8562 345.4365 256.0892 340.0298C 266.753 337.9206 277.5631 336.2865 288.4573 336.3487C 275.4852 327.6848 264.3531 316.2757 255.3758 303.5578C 268.187 312.3898 279.7324 323.4663 288.5012 336.3487C 288.9183 336.3523 289.3316 336.356 289.7487 336.3633C 278.6605 340.5124 266.9395 342.618 255.2441 344.2594C 225.8721 348.9093 196.5111 353.658 167.2525 358.9806C 152.7659 361.47 138.3304 365.4144 123.5109 364.6723C 123.5072 365.0964 123.4999 365.5241 123.489 365.9482C 123.0683 364.6797 122.6768 363.4038 122.3037 362.1207C 121.8062 362.9908 121.2977 363.8498 120.7819 364.7052C 121.0745 363.1845 121.4038 361.6784 121.7623 360.1796C 119.2564 350.8943 117.9028 341.3057 116.6444 331.7864C 114.3616 316.8496 112.1301 301.9018 110.2534 286.9065C 107.8866 270.9753 105.5672 255.0296 102.8528 239.1496C 101.031 229.1442 99.39212 218.9926 99.75063 208.7934C 106.972 233.0338 107.6414 258.7875 112.313 283.6091" stroke="none" fill="#2C2C2C" fill-rule="nonzero" />
    <path id=""  transform="matrix(1 0 0 -1 0 449)"  d="M140.9168 296.7365C 138.6853 280.0157 138.8243 262.7173 141.7582 246.1026C 144.0922 262.816 143.752 280.1144 140.9168 296.7365" stroke="none" fill="#2C2C2C" fill-rule="nonzero" />
    <path id=""  transform="matrix(1 0 0 -1 0 449)"  d="M119.8234 122.3894C 123.1414 140.6711 120.705 159.4097 121.1806 177.8852C 121.0123 195.4102 122.3732 213.1253 119.2454 230.4675C 118.0199 223.0868 117.5772 215.6623 117.4785 208.2158C 114.2117 208.9214 105.3258 209.6781 103.6942 209.2906C 89.81119 208.1098 113.3776 206.2381 117.4675 207.3933C 117.4272 203.3941 117.4821 199.3875 117.5626 195.381C 113.9592 197.4537 108.8633 198.4151 106.6684 201.8916C 106.6903 203.4014 106.8732 205.6605 105.0624 205.3133C 105.1099 205.3608 105.1392 205.4302 105.1392 205.5253C 104.9197 206.2601 103.8296 205.4485 103.4235 206.048C 103.4308 206.0371 103.4381 206.0298 103.4491 206.0188C 103.3174 206.2564 103.4345 206.5452 103.5113 206.7828C 103.5113 206.7792 103.5113 206.7792 103.5076 206.7755C 103.5332 206.8486 103.5771 206.9254 103.5918 206.9912C 103.204 206.5744 102.904 205.8506 103.5479 205.518C 102.9004 204.4798 104.5832 203.8766 105.388 204.18C 104.2942 197.6877 112.763 196.803 117.5663 195.2165C 117.7162 188.0442 117.9504 180.8682 117.8809 173.7105C 118.5064 156.6132 116.4578 139.282 119.8234 122.3894M105.4099 204.1837C 105.4099 204.18 105.4099 204.18 105.4099 204.18C 105.4099 204.18 105.4099 204.18 105.4099 204.1837z" stroke="none" fill="#2C2C2C" fill-rule="nonzero" />
    <path id=""  transform="matrix(1 0 0 -1 0 449)"  d="M151.105 178.0826C 151.2001 187.3861 150.8745 196.7518 149.1405 205.9018C 149.96 206.4099 150.3843 206.8157 149.0235 206.5087C 149.0125 206.5635 149.0052 206.6147 148.9942 206.6658C 148.9832 206.611 148.9723 206.5525 148.9613 206.4977C 148.9284 206.4904 148.8991 206.4831 148.8662 206.4721C 144.6409 206.2052 140.2913 205.1561 137.3281 201.9391C 137.5329 201.972 137.7378 202.0086 137.9427 202.0452C 135.2319 184.2935 135.3453 165.8363 138.3231 148.1468C 140.8839 164.6227 141.0375 181.7236 138.7036 198.2652C 139.6108 198.3164 142.0289 198.799 146.1115 199.8225C 146.3749 197.6511 146.5212 195.4358 146.8285 193.2826C 146.6712 195.0117 148.7491 201.1568 146.1627 201.1276C 142.1204 199.9505 139.5559 199.0658 138.6524 198.6089C 138.4877 199.7677 138.3085 200.9229 138.1183 202.078C 141.2278 202.6227 144.3592 203.2734 147.1505 204.7942C 147.5236 204.9879 148.2187 205.3535 148.815 205.7044C 146.7115 193.9553 147.1724 181.9868 147.2456 170.1061C 147.209 160.108 147.3553 149.9819 149.3527 140.1629C 151.7452 152.6505 151.0904 165.4379 151.105 178.0826" stroke="none" fill="#2C2C2C" fill-rule="nonzero" />
    <path id=""  transform="matrix(1 0 0 -1 0 449)"  d="M140.1449 244.8195C 143.8215 247.8536 138.8572 245.6347 137.0683 244.527C 129.7994 239.5261 136.9184 241.9169 140.1449 244.8195" stroke="none" fill="#2C2C2C" fill-rule="nonzero" />
    <path id=""  transform="matrix(1 0 0 -1 0 449)"  d="M154.9901 254.6275C 151.3867 253.7611 148.1528 251.6737 145.7128 248.9174C 149.2686 249.8861 152.6232 251.7834 154.9901 254.6275" stroke="none" fill="#2C2C2C" fill-rule="nonzero" />
    <path id=""  transform="matrix(1 0 0 -1 0 449)"  d="M299.0552 260.5496C 294.2995 272.3791 286.3831 282.8561 277.2009 291.6259C 278.6788 288.1129 280.486 284.7534 282.4066 281.4633C 282.3663 281.5364 282.3261 281.6095 282.2822 281.679C 286.716 273.8304 292.3058 266.5484 299.0552 260.5496" stroke="none" fill="#2C2C2C" fill-rule="nonzero" />
    <path id=""  transform="matrix(1 0 0 -1 0 449)"  d="M432.0689 283.1668C 424.6865 297.2848 413.1411 308.5258 403.4139 320.9841C 391.1149 335.5517 380.2719 351.6072 365.5584 363.912C 374.4699 347.7469 387.4969 334.4697 399.0423 320.2201C 409.9109 307.7618 419.0967 293.5999 432.0689 283.1668" stroke="none" fill="#2C2C2C" fill-rule="nonzero" />
    <path id=""  transform="matrix(1 0 0 -1 0 449)"  d="M398.4423 226.121C 398.5521 226.1064 398.6618 226.0918 398.7716 226.0808C 398.7862 226.0771 398.8008 226.0771 398.8155 226.0771C 398.6911 226.0918 398.5667 226.1064 398.4423 226.121" stroke="none" fill="#2C2C2C" fill-rule="nonzero" />
    <path id=""  transform="matrix(1 0 0 -1 0 449)"  d="M416.2872 216.854C 413.4301 217.6363 410.5145 218.0494 407.5916 218.4881C 398.157 220.0381 388.5907 219.7895 379.0829 220.4036C 364.8706 221.1055 350.6657 222.5824 336.4315 222.5349C 333.5269 222.469 330.6295 222.2863 327.7468 221.9536C 327.7029 222.034 327.509 222.1035 327.2127 222.162C 327.1761 223.0539 326.7298 223.7778 325.5702 224.0994C 325.5116 226.2636 325.0104 228.541 323.5508 230.197C 323.5728 220.5499 324.1764 223.7375 325.7567 222.3265C 324.4434 222.4142 322.8082 222.4361 321.8863 222.4142C 317.5842 222.1656 313.1139 221.5369 309.3203 219.3947C 314.7857 218.7074 320.1743 219.4312 325.3616 221.2225C 325.5153 221.2481 325.658 221.2737 325.7933 221.2993C 326.0823 221.2298 326.3713 221.1603 326.664 221.0909C 326.7554 220.9227 326.8469 220.7399 326.942 220.5389C 326.9932 220.6924 327.0371 220.8423 327.0737 220.9922C 332.3855 219.7675 337.8472 219.1095 343.2834 218.7038C 362.2769 217.8337 381.2779 216.9783 400.2605 215.9803C 405.6052 216.0096 411.0047 216.0644 416.2872 216.854M326.1957 222.363C 326.1628 222.3703 326.1299 222.374 326.097 222.3777C 326.1299 222.374 326.1664 222.374 326.1957 222.363z" stroke="none" fill="#2C2C2C" fill-rule="nonzero" />
		</g>
		<g clip-path="url(#5)" >
    <path id=""  transform="matrix(1 0 0 -1 0 449)"  d="M531.7706 221.5076C 519.0874 237.8701 501.4291 249.4511 486.5035 263.6349C 469.3902 278.049 453.7732 294.5577 434.7174 306.4494C 450.9125 287.1441 471.6656 272.3279 490.1764 255.3622C 503.8838 244.0883 515.8682 230.4566 531.3938 221.588C 530.6841 221.7343 529.7292 221.9061 528.5038 222.1108C 509.9711 225.3168 491.0836 225.112 472.3754 226.5743C 456.8864 227.1555 441.4815 229.5061 425.9706 229.3379C 423.5708 229.2904 421.1746 229.0747 418.7968 228.7494C 422.3416 227.7404 426.0035 227.097 429.6727 226.6657C 440.834 225.2144 452.116 225.3826 463.3139 224.3517C 481.2502 223.4232 499.15 221.0543 517.1047 220.6083C 517.101 219.0437 517.8473 217.4609 517.4156 215.9401C 515.956 213.67 513.889 211.7947 511.4637 210.6102C 506.8872 206.9327 495.6967 202.8823 497.2039 197.9033C 495.2759 190.1973 497.4965 181.9649 496.7612 174.0761C 496.6039 159.4902 496.0917 144.9153 496.3003 130.3257C 496.3405 124.5937 496.8965 118.8581 496.4722 113.1297C 496.4759 112.9506 496.5344 112.7532 496.6331 112.5521C 496.6295 112.5229 496.6222 112.49 496.6185 112.4607C 496.6222 112.49 496.6295 112.5229 496.6331 112.5521C 497.3758 111.0424 500.4999 109.2182 501.462 110.1175C 501.8462 111.2507 501.1913 112.468 500.9938 113.594C 500.9426 112.6179 501.1291 111.5578 500.8694 110.5927C 496.8087 112.161 497.8148 115.5643 497.7526 119.0957C 497.555 124.813 497.2697 130.5268 497.2916 136.2441C 496.8197 156.5035 499.0769 176.8251 497.1782 197.0223C 497.1782 197.015 497.1782 197.0041 497.1782 196.9931C 497.1929 197.2526 497.2185 197.5195 497.2477 197.779C 497.2843 197.6657 497.3282 197.5524 497.3831 197.4354C 497.5002 199.2888 498.561 200.8205 499.9329 201.9866C 500.0244 202.0269 500.1158 202.0671 500.2072 202.1073C 500.1158 202.0707 500.0244 202.0305 499.9329 201.9903C 500.0646 202.1 500.2036 202.2133 500.339 202.3193C 500.2987 202.2864 500.2621 202.2572 500.2219 202.2243C 504.374 204.9769 508.7968 207.2983 512.9526 210.0619C 518.0485 213.0778 519.4679 215.2858 517.3607 220.601C 518.2972 220.5791 519.2338 220.5608 520.1703 220.5499C 525.3906 210.1972 504.6447 205.1524 500.4926 198.9781C 500.0719 198.7917 499.6476 198.6052 499.2159 198.4297C 499.6183 198.5833 500.0536 198.7734 500.489 198.9708C 499.7902 197.9289 499.5671 196.8542 500.017 195.7209C 500.017 195.71 500.0207 195.7027 500.0207 195.6953C 500.1158 200.5427 510.8966 204.3884 514.522 207.3896C 517.9131 209.3125 521.9299 212.12 521.7214 216.4702C 521.5348 217.7496 521.5714 219.6286 520.5544 220.5462C 522.9981 220.5206 525.4418 220.5352 527.8855 220.5937C 532.4108 220.7838 534.7008 220.8642 531.7706 221.5076" stroke="none" fill="#2C2C2C" fill-rule="nonzero" />
		</g>
		<g clip-path="url(#6)" >
    <path id=""  transform="matrix(1 0 0 -1 0 449)"  d="M504.6301 217.4426C 504.6996 217.4316 504.7727 217.4243 504.8459 217.4133C 504.9191 217.4024 504.9922 217.3951 505.0617 217.3841C 504.9191 217.406 504.7727 217.4243 504.6301 217.4426" stroke="none" fill="#2C2C2C" fill-rule="nonzero" />
    <path id=""  transform="matrix(1 0 0 -1 0 449)"  d="M419.8796 222.3557C 418.0834 222.279 416.9091 222.1729 416.2214 222.0523C 416.108 223.1819 415.925 224.3078 415.8775 225.3533C 414.0886 222.9223 415.2336 219.9503 415.5958 217.3293C 416.2726 218.5137 416.3677 219.8882 416.2799 221.2883C 418.1639 220.7509 422.6416 220.1587 424.7085 219.7749C 434.765 218.4954 444.9203 218.4808 455.0207 217.7862C 466.6941 216.9308 478.3785 216.1448 490.0154 214.8288C 492.3603 214.5766 494.7126 214.3938 497.0685 214.2695C 496.5124 211.6631 496.571 208.9652 497.0721 206.3515C 497.2185 204.6699 497.5221 203.1309 497.994 201.9464C 497.994 201.9501 497.994 201.9538 497.994 201.9574C 497.994 201.9538 497.994 201.9501 497.994 201.9501C 498.7696 205.964 499.3366 210.2045 498.3306 214.211C 500.8292 214.1013 503.3314 214.0575 505.8336 214.0721C 509.426 214.2695 513.366 213.4653 516.5742 215.315C 515.045 215.6623 513.5306 216.101 511.9868 216.3861C 512.0453 216.3788 512.1039 216.3715 512.1624 216.3642C 509.7333 216.7663 507.2859 217.0734 504.8459 217.4133C 491.7274 219.1607 478.448 218.6891 465.2674 219.7749C 450.1223 220.2757 435.0503 222.9443 419.8796 222.3557" stroke="none" fill="#2C2C2C" fill-rule="nonzero" />
    <path id=""  transform="matrix(1 0 0 -1 0 449)"  d="M442.8534 264.9655C 431.3592 264.2344 446.9799 262.0154 450.9417 263.2364C 455.8694 264.1248 444.7776 265.4481 442.8534 264.9655" stroke="none" fill="#2C2C2C" fill-rule="nonzero" />
    <path id=""  transform="matrix(1 0 0 -1 0 449)"  d="M429.5593 281.0283C 425.3706 280.4946 433.042 279.4564 434.6443 280.4507C 433.0456 281.0758 431.2677 281.2915 429.5593 281.0283" stroke="none" fill="#2C2C2C" fill-rule="nonzero" />
    <path id=""  transform="matrix(1 0 0 -1 0 449)"  d="M441.7596 275.6509C 441.7632 275.6472 441.7632 275.6472 441.7669 275.6472C 441.7632 275.6472 441.7596 275.6509 441.7596 275.6509" stroke="none" fill="#2C2C2C" fill-rule="nonzero" />
    <path id=""  transform="matrix(1 0 0 -1 0 449)"  d="M452.9538 263.4923C 449.8113 268.018 445.8714 272.0026 441.7596 275.6509C 439.9158 277.2484 437.9184 278.707 435.7344 279.7964C 439.9451 273.07 446.4092 267.8279 452.9538 263.4923" stroke="none" fill="#2C2C2C" fill-rule="nonzero" />
    <path id=""  transform="matrix(1 0 0 -1 0 449)"  d="M435.2845 264.6658C 431.4067 270.2406 426.6071 275.4791 420.6954 278.908C 421.3978 279.1201 422.1002 279.343 422.7989 279.577C 425.3816 280.3995 434.9333 283.9857 428.1509 283.123C 421.138 282.2054 414.2203 280.1436 407.8147 277.146C 407.9391 287.1076 407.9208 297.0728 405.7661 306.8333C 403.0407 294.4115 403.926 281.668 403.948 269.0598C 403.948 267.996 403.948 266.9323 403.9443 265.8648C 401.7311 266.256 399.7263 266.5557 398.6765 266.6727C 397.5461 266.8336 396.412 266.998 395.2816 267.1589C 395.3182 278.1147 395.0877 289.0597 392.7574 299.7743C 392.9879 299.7925 393.222 299.8072 393.4525 299.8254C 384.6946 302.9071 375.3405 304.7898 366.012 304.3986C 355.7214 304.2853 374.3565 300.2422 377.6964 300.0813C 382.668 299.5513 387.7017 299.416 392.6916 299.7706C 390.5661 289.2132 390.8698 278.4547 391.2063 267.7401C 386.2274 268.4457 381.2449 269.111 376.2368 269.6228C 371.7664 270.0578 367.3034 270.5952 362.8403 271.1508C 362.833 282.0957 362.7745 293.121 360.371 303.8283C 358.3334 293.2198 358.5419 282.4065 358.8492 271.648C 356.2701 271.9697 353.691 272.2877 351.112 272.5838C 351.1266 283.1631 351.0205 293.8376 348.6573 304.1829C 346.6234 293.9106 346.8136 283.4446 347.1172 273.0189C 346.4441 273.0919 345.771 273.1577 345.0978 273.2236C 345.2661 278.8861 344.8893 284.5084 344.0992 290.1563C 343.1919 293.4683 345.9612 302.1431 342.8919 303.6053C 334.0719 304.5668 325.486 307.027 316.6221 307.6338C 352.1473 297.3506 339.7861 312.1083 343.6565 283.7846C 344.2711 280.3301 344.0479 276.8024 344.2089 273.3076C 339.6361 273.739 335.056 274.0534 330.4576 274.1557C 329.4003 274.1411 328.3212 274.1046 327.2786 274.0826C 332.8903 273.0225 338.5825 272.7008 344.2675 272.2731C 344.293 271.9221 344.3223 271.5749 344.3589 271.2239C 336.3108 271.8966 318.5646 273.1212 327.67 274.3458C 330.871 274.3897 325.9287 275.1062 324.6702 274.8613C 323.7118 274.631 323.6496 273.3003 324.0264 272.4998C 321.3888 271.626 318.8866 270.4636 316.4977 269.0708C 316.5014 269.2572 316.5087 269.4473 316.5124 269.6337C 320.8913 271.6041 326.1409 274.4884 322.4789 273.2345C 320.412 272.6313 318.4293 271.7906 316.5343 270.7853C 316.6331 276.265 316.538 281.7594 316.4355 287.2392C 316.3697 294.6527 316.0807 302.1175 314.9649 309.4543C 316.6258 308.9754 318.7256 308.4637 320.2365 308.0286C 326.4482 306.475 332.8318 305.7768 339.2227 305.6159C 342.5298 305.5172 345.8624 305.5026 349.1512 305.7256C 338.7142 309.1436 327.7834 311.315 316.7648 311.0774C 315.9563 311.0811 315.2759 311.0738 314.7089 311.0555C 314.4711 312.4592 314.204 313.8593 313.8967 315.2521C 313.626 313.8228 313.3955 312.3861 313.198 310.9458C 311.9359 310.7776 312.1444 310.4596 313.0846 310.0758C 312.1115 302.5196 312.0273 294.8611 312.192 287.2501C 312.2651 280.9917 312.3347 274.7114 312.6968 268.4566C 312.47 268.2994 312.2432 268.1459 312.02 267.9887C 312.192 267.9997 312.4297 268.0509 312.7151 268.1349C 313.0517 262.4212 313.6333 256.7294 314.6759 251.0961C 311.7237 255.0807 308.3325 258.7473 304.6377 262.0154C 308.6362 251.9881 314.8881 242.754 323.1265 235.728C 321.6998 239.5261 319.8779 243.1708 317.7306 246.618C 319.4792 246.8227 321.2498 247.0055 322.8448 247.7403C 322.8228 242.2934 323.1118 236.8466 323.6971 231.4619C 324.2459 238.784 323.8654 246.1355 324.0154 253.4686C 324.0483 254.1998 324.0995 254.9272 324.1617 255.6583C 324.619 255.8996 325.058 256.1774 325.4714 256.5138C 325.0544 256.4077 324.6337 256.3127 324.2093 256.2213C 324.4507 258.8972 324.8056 261.5841 324.9775 264.2673C 325.5629 264.6036 325.6872 264.7901 325.0031 264.6913C 325.1165 266.691 325.1238 268.6833 324.897 270.6646C 324.5276 268.6102 324.213 266.5447 323.9459 264.472C 323.8874 264.4574 323.8325 264.4428 323.774 264.4282C 321.3449 263.7263 318.9524 262.6223 316.9989 261.0211C 318.1 261.2734 321.7144 262.6881 323.8471 263.6934C 323.5325 261.1345 323.2911 258.5645 323.1265 255.9874C 320.8913 255.5012 318.6597 254.9601 316.8306 253.5271C 318.8683 254.1559 321.0888 254.4008 323.0789 255.1685C 322.9399 252.807 322.8631 250.4381 322.8484 248.073C 321.0376 247.9048 319.1756 247.6891 317.533 246.9287C 316.7172 248.2228 315.8575 249.4877 314.9576 250.7196C 315.8575 256.4333 316.2892 262.18 316.4648 267.9449C 319.1792 269.0671 321.7034 270.6683 324.1544 272.2768C 324.1654 272.2585 324.1764 272.2438 324.1873 272.2292C 327.0005 270.9644 330.5527 271.4031 333.6293 271.0009C 337.2473 270.7889 340.8689 270.5403 344.4833 270.2369C 344.571 269.6191 344.6808 269.005 344.8235 268.3908C 344.8747 268.994 344.9186 269.5972 344.9552 270.1967C 345.7088 270.1346 346.4587 270.0651 347.2087 269.9957C 347.2416 268.771 347.2782 267.5464 347.3074 266.3181C 347.3221 265.1118 347.333 263.9017 347.3477 262.6954C 342.0176 263.2876 336.6839 263.8213 331.3539 264.2856C 330.2454 264.3221 329.1187 264.4099 328.0285 264.4976C 334.3353 262.8965 340.836 262.1471 347.3623 261.5366C 347.3989 259.1458 347.4464 256.755 347.5233 254.3679C 343.6053 254.6713 339.6873 254.9528 335.7693 255.2197C 335.8206 255.216 335.8754 255.2124 335.9303 255.2124C 334.4597 255.3037 332.9818 255.3586 331.5075 255.3147C 329.2138 255.1393 324.9629 255.3513 329.7515 254.5909C 335.6815 254.1669 341.6189 253.7757 347.5598 253.3663C 347.666 250.5441 347.8159 247.7257 348.0464 244.9108C 342.998 245.3166 337.946 245.6858 332.8976 246.0295C 331.1526 246.1062 329.382 246.183 327.6517 246.2049C 334.306 244.41 341.2238 244.1614 348.1342 243.88C 348.3354 241.6354 348.5842 239.3945 348.9061 237.1609C 343.5906 237.6033 338.2643 237.8811 332.9122 237.8153C 327.3078 237.691 322.4826 237.2596 331.6611 236.6748C 337.4704 236.6821 343.2687 236.4847 349.0561 236.1374C 349.2499 234.8433 349.4695 233.5492 349.7182 232.2551C 349.9267 233.5236 350.106 234.7921 350.2633 236.0643C 353.6874 235.8486 357.1078 235.5817 360.5247 235.2747C 360.7807 233.4322 361.0917 231.5934 361.4648 229.762C 361.7794 231.5423 362.0282 233.3299 362.2331 235.1211C 372.5639 234.1597 382.8728 232.8693 393.1781 231.5934C 393.6061 228.7603 393.9683 229.3379 394.2756 231.4545C 397.9009 231.0049 401.5262 230.5589 405.1515 230.1312C 405.3381 228.4569 405.5539 226.7863 405.8064 225.1194C 403.4651 225.4886 401.1165 225.7957 398.7716 226.0808C 376.8989 227.5979 355.0702 230.4895 333.1573 231.0597C 330.0771 231.0195 326.9859 230.7709 323.9459 230.3688C 330.0552 228.5666 336.3693 227.6052 342.7054 227.0678C 355.3263 226.026 367.9875 225.5325 380.6121 224.5052C 391.7587 223.595 402.9676 222.5056 414.1472 223.467C 412.8704 223.7851 411.5827 224.0702 410.2914 224.3261C 410.4669 225.9675 410.6389 227.6929 410.7962 229.4805C 411.1657 229.4403 411.5315 229.3964 411.901 229.3562C 411.8864 228.0768 411.8717 226.7973 411.8571 225.5178C 411.8571 225.4008 411.8607 225.2839 411.8607 225.1632C 411.9998 226.4317 412.1424 227.8282 412.2778 229.316C 412.457 229.2977 412.6326 229.2758 412.8119 229.2575C 412.64 229.3343 412.468 229.4037 412.2924 229.4732C 412.5046 231.8164 412.7021 234.39 412.8631 237.0842C 412.9655 237.0696 413.0716 237.0513 413.174 237.033C 413.0716 237.0513 412.9655 237.0696 412.8631 237.0842C 413.335 244.9218 413.4814 253.7647 412.7021 260.8566C 412.2046 253.0117 412.0583 245.1229 411.9742 237.2377C 411.7693 237.2743 411.5608 237.3072 411.3559 237.3437C 411.751 244.8816 411.74 252.8654 410.7889 259.8806C 410.0975 253.7063 410.7413 247.4369 410.734 241.2296C 410.734 241.2333 410.734 241.237 410.734 241.2406C 410.6938 239.9867 410.6316 238.7329 410.5694 237.479C 409.4975 237.6581 408.4293 237.8336 407.3575 238.009C 407.5331 240.8897 407.6428 243.7776 407.7123 246.6655C 408.3671 246.5412 409.0256 246.417 409.6841 246.289C 409.0256 246.4243 408.3708 246.5559 407.7123 246.6875C 407.7635 249.0015 407.7891 251.3155 407.8001 253.6295C 408.3123 253.5491 408.8244 253.465 409.3365 253.3846C 408.8244 253.4796 408.3123 253.5746 407.8001 253.666C 407.8074 256.2725 407.7964 258.8753 407.7781 261.4781C 411.8754 260.9955 415.508 260.7543 412.1936 261.5731C 410.7267 261.9716 409.2487 262.3043 407.7635 262.5967C 407.7525 263.0939 407.7452 263.591 407.7379 264.0918C 409.7573 263.7519 411.7729 263.4009 413.7886 263.039C 413.7776 263.039 413.7667 263.0427 413.7557 263.0463C 413.7813 263.0719 413.7996 263.0975 413.8069 263.1268C 413.9789 263.0573 414.1216 262.9769 414.2203 262.8892C 414.78 261.7852 413.0899 261.0723 414.0228 261.3538C 414.8203 261.4634 414.8678 262.381 414.8276 263.0244C 414.6849 263.942 413.5106 263.8104 412.8119 263.8469C 412.8009 263.8433 412.7936 263.8433 412.7863 263.8433C 411.6742 264.2563 409.7902 264.7169 407.7269 265.1447C 407.694 268.8514 407.7562 272.5692 407.8038 276.2906C 411.9559 276.722 416.0824 277.5591 420.0918 278.7289C 423.8671 272.8946 429.4057 268.2702 435.2845 264.6658M391.2393 266.6142C 391.2575 265.9891 391.2758 265.3604 391.2978 264.7352C 390.5661 264.8193 389.8345 264.907 389.1028 264.9984C 380.345 266.2852 371.6055 267.7182 362.844 268.9684C 362.844 269.3852 362.844 269.8055 362.844 270.2223C 372.3188 269.0891 381.7937 267.9375 391.2393 266.6142zM391.3746 261.8839C 391.3965 260.0963 391.4148 258.305 391.4405 256.5174C 381.9583 258.0893 372.4432 259.5296 362.9062 260.7945C 362.8806 262.7356 362.8586 264.6731 362.8476 266.6106C 362.8476 267.1223 362.8476 267.6378 362.844 268.1496C 372.3517 266.7897 381.812 265.0935 391.3234 263.7555C 391.3417 263.1341 391.36 262.509 391.3746 261.8839zM362.9976 253.0336C 362.9867 255.3476 362.9537 257.6616 362.9208 259.972C 363.8098 259.855 364.6987 259.7307 365.584 259.5954C 374.265 258.9374 382.8619 257.6909 391.4441 256.3054C 391.477 254.0462 391.5209 251.7834 391.6014 249.5242C 382.1083 250.9828 372.5639 252.1124 362.9976 253.0336zM391.6087 249.2464C 391.7185 246.2488 391.8867 243.2512 392.1684 240.2646C 382.4265 241.5879 372.6517 242.6846 362.8623 243.6168C 362.9757 246.4828 363.0086 249.3561 363.0013 252.2294C 372.5639 251.4617 382.1083 250.5368 391.6087 249.2464zM358.8784 270.6975C 358.8894 270.3027 358.9004 269.9079 358.9114 269.5131C 356.314 269.8677 353.713 270.1967 351.1083 270.5001C 351.1083 270.8766 351.112 271.2532 351.112 271.6297C 353.6984 271.319 356.2884 271.0082 358.8784 270.6975zM345.0174 271.1691C 345.0356 271.5164 345.0503 271.8637 345.0649 272.2109C 345.76 272.1561 346.4514 272.1013 347.1465 272.0391C 347.1574 271.6809 347.1684 271.3226 347.1794 270.9644C 346.6526 271.0266 345.9136 271.0923 345.0174 271.1691zM351.1083 269.6155C 351.9753 269.5241 352.8423 269.429 353.7094 269.3303C 355.4543 269.1329 357.1956 268.9172 358.937 268.687C 358.9589 267.8096 358.9845 266.9286 359.0065 266.0476C 359.0467 264.4647 359.0723 262.8782 359.0979 261.2916C 356.4677 261.628 353.8374 261.9496 351.2035 262.2567C 351.1742 264.7097 351.134 267.1662 351.1083 269.6155zM351.2181 261.182C 353.852 260.948 356.4896 260.7104 359.1126 260.4253C 359.1492 258.0784 359.1857 255.7314 359.2443 253.3846C 356.5811 253.6295 353.9179 253.8561 351.2547 254.0718C 351.2656 256.4443 351.2474 258.8131 351.2181 261.182zM351.2474 253.1104C 353.9215 252.9203 356.5957 252.7265 359.2662 252.5218C 359.343 249.6485 359.4565 246.7789 359.6503 243.9165C 356.7713 244.1797 353.8886 244.432 351.0059 244.6696C 351.1559 247.4807 351.2254 250.2919 351.2474 253.1104zM350.3804 237.0367C 350.6364 239.2702 350.823 241.5111 350.9584 243.7557C 353.6728 243.6277 356.3799 243.4632 359.0614 243.1635C 359.2772 243.1488 359.493 243.1306 359.7052 243.1159C 359.8808 240.7398 360.1113 238.371 360.4259 236.0094C 357.0786 236.3823 353.7313 236.7406 350.3804 237.0367zM377.3965 234.1816C 372.3627 234.6422 367.3363 235.2308 362.3062 235.7974C 362.5586 238.1553 362.7233 240.5168 362.8293 242.8856C 372.6334 242.1472 382.4265 241.2552 392.1867 240.0745C 392.344 238.3892 392.5416 236.7077 392.783 235.0261C 392.8964 233.8124 393.0025 232.8364 393.1086 232.0614C 387.8737 232.7815 382.657 233.6479 377.3965 234.1816zM397.9046 231.4582C 396.712 231.5898 395.523 231.7397 394.3341 231.8969C 394.5865 233.8672 394.795 236.8648 394.9597 239.7309C 398.1241 239.3324 401.2811 238.8974 404.4345 238.4294C 404.5918 235.8998 404.8004 233.3737 405.071 230.855C 402.642 231.0451 400.1727 231.1292 397.9046 231.4582zM410.1597 225.2766C 410.1597 225.2839 410.1597 225.2948 410.1597 225.3021C 410.1597 224.9841 410.1597 224.6697 410.1633 224.3517C 408.8025 224.6222 407.4306 224.8635 406.0551 225.0828C 406.2929 226.7022 406.4978 228.3253 406.677 229.9521C 407.8513 229.8168 409.0219 229.6816 410.1926 229.5463C 410.1523 228.1243 410.1341 226.7022 410.1597 225.2766zM411.9742 237.2341C 411.9485 234.6971 411.9266 232.1564 411.901 229.6194C 411.5535 229.7437 411.1986 229.857 410.8401 229.9594C 411.0413 232.3319 411.2206 234.8104 411.3559 237.3401C 411.5608 237.3072 411.7693 237.2706 411.9742 237.2341zM410.5694 237.468C 410.4413 235.0224 410.295 232.5732 410.2109 230.1239C 409.1024 230.3908 407.9428 230.5662 406.7575 230.6978C 407.0136 233.1215 407.2075 235.5525 407.3538 237.9835C 408.4257 237.8153 409.4975 237.6471 410.5694 237.468zM404.4308 238.4733C 401.2811 238.9668 398.1277 239.4347 394.967 239.8771C 395.1353 242.7687 395.2596 245.5067 395.3438 246.8995C 395.3255 247.51 395.3072 248.1168 395.2926 248.7273C 398.2192 248.2996 401.1421 247.8353 404.0577 247.3272C 404.1309 244.3698 404.248 241.4197 404.4308 238.4733zM404.054 247.3967C 401.1384 247.945 398.2155 248.4568 395.2889 248.9357C 395.2414 251.1839 395.2231 253.4357 395.2231 255.6913C 398.1314 255.2124 401.0397 254.7262 403.948 254.2509C 403.9662 251.9662 403.9955 249.6814 404.054 247.3967zM403.948 254.3606C 401.0433 254.8797 398.135 255.3878 395.2231 255.8813C 395.2231 258.3269 395.2414 260.7762 395.2596 263.2291C 397.0376 262.9988 398.8191 262.7868 400.6007 262.5967C 401.1531 262.4322 402.4115 262.2092 403.937 261.9825C 403.9333 259.4419 403.9333 256.9012 403.948 254.3606zM403.9406 263.2474C 401.0616 263.6788 398.1643 263.9895 395.267 264.3002C 395.2706 264.8778 395.2743 265.459 395.2743 266.0366C 398.1679 265.6162 401.058 265.1776 403.9443 264.7133C 403.9406 264.2271 403.9406 263.7372 403.9406 263.2474z" stroke="none" fill="#2C2C2C" fill-rule="nonzero" />
    <path id=""  transform="matrix(1 0 0 -1 0 449)"  d="M496.6185 112.4607C 496.5417 111.9526 496.4612 111.4445 496.3661 110.94C 496.4685 111.3896 496.5453 111.938 496.6185 112.4607" stroke="none" fill="#2C2C2C" fill-rule="nonzero" />
    <path id=""  transform="matrix(1 0 0 -1 0 449)"  d="M517.0095 215.4795C 516.9803 215.4686 516.9547 215.4576 516.9254 215.443C 516.9547 215.4576 516.9839 215.4649 517.0095 215.4795" stroke="none" fill="#2C2C2C" fill-rule="nonzero" />
    <path id=""  transform="matrix(1 0 0 -1 0 449)"  d="M514.8512 214.4377C 515.0341 214.4413 515.1658 214.5912 515.3231 214.6789C 515.1658 214.5985 515.0085 214.5181 514.8512 214.4377" stroke="none" fill="#2C2C2C" fill-rule="nonzero" />
    <path id=""  transform="matrix(1 0 0 -1 0 449)"  d="M476.1836 199.6398C 494.6541 200.3124 462.6042 203.0175 457.3619 202.7909C 457.4351 202.7872 457.5083 202.7872 457.5815 202.7872C 457.4461 202.7872 457.3107 202.7909 457.1754 202.7909C 457.19 202.7909 457.2047 202.7909 457.2193 202.7909C 445.9738 202.9188 434.743 204.1362 423.4903 203.5951C 393.7781 201.8477 471.4535 198.47 476.1836 199.6398" stroke="none" fill="#2C2C2C" fill-rule="nonzero" />
    <path id=""  transform="matrix(1 0 0 -1 0 449)"  d="M445.491 163.1897C 459.3593 163.8367 473.407 163.0507 487.1217 165.5073C 479.4431 166.604 471.6474 166.5528 463.9065 166.5236C 449.5479 165.84 435.0759 166.9403 420.8125 164.8347C 410.1048 162.9959 442.1693 162.6815 445.491 163.1897" stroke="none" fill="#2C2C2C" fill-rule="nonzero" />
    <path id=""  transform="matrix(1 0 0 -1 0 449)"  d="M416.1336 202.9993C 413.2399 190.625 413.0497 177.527 415.2629 165.0357C 418.0322 177.4173 418.4858 190.5227 416.1336 202.9993" stroke="none" fill="#2C2C2C" fill-rule="nonzero" />
    <path id=""  transform="matrix(1 0 0 -1 0 449)"  d="M376.577 112.8884C 380.9998 113.265 378.8122 143.347 379.2292 148.6586C 378.9512 164.3375 380.1877 180.2358 377.2684 195.7209C 377.9086 195.8196 378.5451 195.9183 379.1817 196.028C 378.5049 196.145 377.8245 196.2583 377.144 196.3643C 377.1331 196.4374 377.1184 196.5105 377.1038 196.5837C 377.0892 196.5142 377.0745 196.4447 377.0636 196.3753C 365.5291 198.1921 353.7862 198.6345 342.142 197.812C 339.3105 197.6219 336.4717 197.3477 333.6622 196.9346C 333.611 197.1942 333.5634 197.4537 333.5122 197.7169C 333.4573 197.4391 333.4061 197.1649 333.3549 196.8871C 332.1477 196.7079 330.9478 196.4996 329.7589 196.2583C 330.8783 196.0353 332.005 195.8306 333.1317 195.6478C 330.8563 182.4218 331.727 168.9143 331.5075 155.5494C 331.7087 139.9436 330.6588 124.1953 333.7463 108.7868C 336.6802 123.6396 335.6633 138.8287 335.7437 153.8752C 335.4438 167.7482 336.3071 181.8077 333.9183 195.5199C 341.7615 194.3062 349.7402 194.0138 357.6676 194.1015C 364.1024 194.2806 370.5665 194.712 376.9282 195.6698C 374.1626 180.7146 375.41 165.4342 375.2271 150.3182C 375.1978 137.827 374.7772 125.2919 376.577 112.8884" stroke="none" fill="#2C2C2C" fill-rule="nonzero" />
    <path id=""  transform="matrix(1 0 0 -1 0 449)"  d="M316.9038 107.394C 319.8999 122.192 318.678 137.3518 318.7805 152.3398C 318.7731 152.6359 318.7695 152.932 318.7658 153.2281C 321.5205 153.8203 328.676 152.2411 328.4382 154.3431C 327.787 156.5511 329.715 166.8416 327.3298 166.7648C 324.8458 166.5345 322.307 166.5601 319.8596 166.0922C 321.7327 165.9021 323.6093 165.723 325.4897 165.6426C 328.5699 166.2823 326.6713 159.2525 327.1981 157.0775C 328.087 152.8845 323.1703 155.3155 318.7622 153.3232C 318.539 167.5215 319.5085 181.9027 316.9404 195.9183C 317.8 195.6442 319.5706 195.3883 322.3143 195.1982C 330.1905 195.3627 330.849 197.0552 322.5082 197.3989C 319.5706 197.238 317.6391 196.9748 316.8014 196.6714C 316.7574 196.898 316.7136 197.1247 316.666 197.3477C 316.6148 197.0808 316.5636 196.814 316.5124 196.5471C 316.2892 196.4155 316.2636 196.2802 316.4429 196.145C 313.8053 181.5152 315.0308 166.5565 314.793 151.7695C 314.943 136.9606 313.9004 122.0092 316.9038 107.394" stroke="none" fill="#2C2C2C" fill-rule="nonzero" />
    <path id=""  transform="matrix(1 0 0 -1 0 449)"  d="M392.1245 124.9885C 392.9294 121.8191 391.9928 115.25 394.4695 113.5062C 396.9278 127.4524 395.9694 141.5996 396.0169 155.6774C 395.8376 169.0788 396.5364 182.6521 394.3085 195.9074C 394.3304 195.922 394.3524 195.9366 394.378 195.9512C 394.3488 195.9622 394.3232 195.9695 394.2939 195.9768C 394.1366 196.92 393.961 197.8631 393.7708 198.8026C 393.6098 197.9618 393.4598 197.121 393.3208 196.2766C 390.1235 197.1795 386.7103 197.3989 383.4326 196.8176C 374.0199 195.6295 388.2797 194.2258 393.1927 195.4797C 390.9905 181.3471 391.9087 166.933 391.766 152.6761C 391.938 143.4457 391.2905 134.1933 392.1245 124.9885" stroke="none" fill="#2C2C2C" fill-rule="nonzero" />
    <path id=""  transform="matrix(1 0 0 -1 0 449)"  d="M279.1361 140.9708C 281.7006 152.7163 281.5103 164.7652 281.5835 176.7154C 281.7847 188.3439 282.0737 200.115 279.8787 211.5826C 277.3143 199.4168 277.5118 186.9182 277.4204 174.5513C 277.168 163.3359 276.9631 152.0181 279.1361 140.9708" stroke="none" fill="#2C2C2C" fill-rule="nonzero" />
    <path id=""  transform="matrix(1 0 0 -1 0 449)"  d="M207.2919 179.6838C 206.7798 165.6535 206.1615 151.5209 208.865 137.6625C 211.8647 151.605 211.5355 165.8546 211.3233 180.0201C 211.3709 192.4784 212.172 205.1049 209.7027 217.3951C 206.9773 205.0208 207.5187 192.27 207.2919 179.6838" stroke="none" fill="#2C2C2C" fill-rule="nonzero" />
    <path id=""  transform="matrix(1 0 0 -1 0 449)"  d="M259.9633 213.4909C 259.9816 213.4872 259.9962 213.4872 260.0145 213.4872C 260.0182 213.4872 260.0218 213.4872 260.0291 213.4872C 260.0072 213.4872 259.9852 213.4872 259.9633 213.4909" stroke="none" fill="#2C2C2C" fill-rule="nonzero" />
    <path id=""  transform="matrix(1 0 0 -1 0 449)"  d="M216.0607 214.6643C 192.8894 213.1875 251.7725 210.7162 256.038 210.475C 274.2853 209.6232 292.1595 211.0489 260.0145 213.4872C 245.3632 213.6444 230.7193 215.0408 216.0607 214.6643" stroke="none" fill="#2C2C2C" fill-rule="nonzero" />
    <path id=""  transform="matrix(1 0 0 -1 0 449)"  d="M220.7762 140.2653C 231.0961 139.5269 241.4599 139.578 251.7944 139.9034C 272.694 141.2889 275.7413 142.2649 269.8954 142.8864C 270.5649 155.0376 269.8296 167.2401 270.1954 179.4096C 270.0344 188.0076 271.0514 196.6933 270.0381 205.2401C 269.0101 197.1064 269.91 188.8703 269.7344 180.6964C 270.0381 168.1028 269.2333 155.4544 269.8369 142.89C 265.8201 143.3104 257.6915 143.5663 248.2789 143.6687C 246.2851 143.6138 244.2914 143.5627 242.294 143.5042C 242.294 143.9684 242.294 144.429 242.2903 144.8933C 257.633 144.8677 282.8566 145.0797 259.9889 145.9315C 259.4621 145.9205 258.9353 145.9096 258.4085 145.8986C 258.8182 157.0409 258.2622 168.2052 258.4707 179.3548C 258.2988 187.2509 259.1146 195.2384 257.9988 203.076C 256.9233 185.0685 258.4305 166.933 258.1707 148.8816C 258.1671 148.8999 258.1671 148.9145 258.1671 148.9328C 258.2037 147.9238 258.2439 146.9002 258.3207 145.8986C 257.2159 145.8767 256.1075 145.8584 255.0027 145.8438C 254.9186 165.2587 255.7856 184.8565 254.6186 204.2239C 253.715 184.8199 254.8381 165.2807 254.999 145.8438C 250.7628 145.7889 246.5266 145.7853 242.2903 145.7962C 242.283 147.6752 242.2647 149.5506 242.2428 151.4296C 242.2428 149.5506 242.2501 147.6716 242.2647 145.7962C 237.0554 145.8109 231.846 145.8474 226.6367 145.8401C 226.6331 146.7321 226.6257 147.6241 226.6147 148.5197C 226.6184 147.6241 226.6221 146.7321 226.6257 145.8401C 224.9247 145.8401 223.2272 145.8328 221.5262 145.8218C 212.7903 145.2845 220.1872 144.9445 226.6367 144.886C 226.6404 144.4693 226.644 144.0562 226.6477 143.6394C 226.6477 144.0562 226.644 144.4693 226.644 144.886C 229.2633 144.8604 231.729 144.886 232.885 144.9628C 234.2824 144.9262 237.8675 144.9006 242.2757 144.8933C 242.2793 144.429 242.283 143.9648 242.2903 143.5042C 233.5618 143.241 224.8076 142.8096 216.2071 141.2962C 213.1488 140.8356 219.547 140.4262 220.7762 140.2653" stroke="none" fill="#2C2C2C" fill-rule="nonzero" />
    <path id=""  transform="matrix(1 0 0 -1 0 449)"  d="M239.2247 134.3688C 253.9272 134.6795 268.787 134.0033 283.2845 136.8729C 274.3804 138.1414 265.3482 138.4485 256.3709 138.0208C 242.3306 137.2896 228.1951 137.9184 214.2243 136.1418C 200.2791 134.1019 235.4897 133.9667 239.2247 134.3688" stroke="none" fill="#2C2C2C" fill-rule="nonzero" />
    <path id=""  transform="matrix(1 0 0 -1 0 449)"  d="M175.4396 102.6454C 175.436 102.6454 175.4323 102.6491 175.4286 102.6491C 175.4177 102.6491 175.4104 102.6527 175.3994 102.6527C 175.414 102.6527 175.425 102.6491 175.4396 102.6454" stroke="none" fill="#2C2C2C" fill-rule="nonzero" />
		</g>
		<g clip-path="url(#7)" >
    <path id=""  transform="matrix(1 0 0 -1 0 449)"  d="M119.41 112.8446C 120.2404 115.557 120.2368 118.4377 119.6588 121.194C 137.5842 113.3417 156.5448 107.6938 175.4286 102.6491C 196.6391 98.67175 126.9496 121.0222 119.6112 121.4133C 119.4832 121.9946 119.3295 122.5685 119.1539 123.1315C 118.1662 119.8304 117.9504 116.2406 118.982 112.9396C 118.9344 112.9506 118.8869 112.9615 118.8393 112.9689C 118.8942 112.9396 118.9491 112.9067 119.0003 112.8738C 119.0661 112.6654 119.1393 112.4571 119.2161 112.2523C 119.2637 112.3876 119.3076 112.5265 119.3551 112.6654C 126.8362 108.2239 135.1807 105.548 143.1666 102.1665C 155.4071 97.55679 167.1866 91.19968 180.0673 88.60785C 169.4365 95.27936 157.1594 98.67542 145.6286 103.446C 136.933 106.6666 128.4751 110.7974 119.41 112.8446" stroke="none" fill="#2C2C2C" fill-rule="nonzero" />
		</g>
		<g clip-path="url(#8)" >
    <path id=""  transform="matrix(1 0 0 -1 0 449)"  d="M278.7008 97.14371C 251.253 94.14246 223.6296 93.65625 196.138 91.48849C 191.1262 90.85605 186.1034 90.16882 181.1831 89.0173C 189.9994 88.23865 198.9182 88.52744 207.7492 89.11966C 232.9106 91.99661 258.2293 92.94708 283.4821 94.5665C 287.9452 95.03076 292.4045 95.66684 296.7322 96.86588C 290.773 97.68475 284.6967 97.48367 278.7008 97.14371" stroke="none" fill="#2C2C2C" fill-rule="nonzero" />
		</g>
		<g clip-path="url(#9)" >
    <path id=""  transform="matrix(1 0 0 -1 0 449)"  d="M355.9848 109.3425C 375.2198 111.0241 377.0965 112.8007 356.2848 113.1041C 337.346 111.6857 335.5535 109.4083 355.9848 109.3425" stroke="none" fill="#2C2C2C" fill-rule="nonzero" />
    <path id=""  transform="matrix(1 0 0 -1 0 449)"  d="M484.0269 109.6021C 472.8912 109.0537 461.6896 108.2897 450.7515 106.0232C 456.8205 105.431 462.981 105.3396 469.0903 105.5151C 480.2808 105.8221 491.6543 106.1329 502.5449 108.9184C 496.4173 109.825 490.2056 109.7958 484.0269 109.6021" stroke="none" fill="#2C2C2C" fill-rule="nonzero" />
    <path id=""  transform="matrix(1 0 0 -1 0 449)"  d="M420.3771 98.86917C 410.3792 98.18192 400.3958 97.33746 390.3795 96.90244C 370.9945 95.70706 351.4339 96.24445 332.2062 93.19199C 329.8174 92.81546 328.4236 92.50473 327.7724 92.24884C 314.4747 97.80539 299.9296 100.0353 285.6331 101.004C 298.9821 96.12015 313.0553 92.24155 327.3261 91.86868C 327.6883 91.0827 337.4302 91.03885 340.8141 91.00595C 350.084 90.93283 359.3174 91.87231 368.5618 92.40237C 387.4566 94.18268 406.4319 94.61768 425.3633 95.73264C 452.288 98.52554 434.2419 99.57834 420.3771 98.86917" stroke="none" fill="#2C2C2C" fill-rule="nonzero" />
    <path id=""  transform="matrix(1 0 0 -1 0 449)"  d="M390.0833 96.89148C 390.182 96.89514 390.2808 96.8988 390.3795 96.90244C 390.4052 96.9061 390.4344 96.9061 390.4601 96.9061C 390.3357 96.90244 390.2076 96.89514 390.0833 96.89148" stroke="none" fill="#2C2C2C" fill-rule="nonzero" />
    <path id=""  transform="matrix(1 0 0 -1 0 449)"  d="M310.1031 220.272C 310.0995 220.2757 310.0995 220.2793 310.0995 220.283C 310.0117 222.8821 310.5421 225.5873 309.4593 228.0548C 309.8251 228.0475 310.1909 228.0402 310.5568 228.0329C 313.0919 228.1023 315.6381 228.1828 318.1622 228.4606C 314.0211 229.5865 309.7446 230.2811 305.501 230.9464C 278.3788 233.9842 251.0408 235.0809 223.8272 237.2121C 205.2104 238.2722 186.696 241.9461 168.0171 241.2772C 156.9801 240.9701 174.5799 238.4075 178.2931 237.9835C 178.4247 237.9725 178.5528 237.9615 178.6808 237.9469C 175.9518 215.0226 178.9589 191.8094 178.4247 168.7791C 179.4564 146.5237 176.4713 123.9576 180.0344 101.8997C 183.3012 124.0125 180.0124 146.5822 180.7368 168.8705C 179.8771 191.8314 182.5915 215.0445 179.5551 237.8592C 194.0564 236.4444 208.6528 236.1703 223.1687 234.8469C 251.7359 232.745 280.2482 228.6507 308.8886 228.0658C 308.552 225.4155 308.4972 220.8715 310.1031 220.272" stroke="none" fill="#2C2C2C" fill-rule="nonzero" />
    <path id=""  transform="matrix(1 0 0 -1 0 449)"  d="M310.1068 220.2611C 310.1068 220.2647 310.1031 220.2684 310.1031 220.272C 310.1031 220.2684 310.1068 220.2647 310.1068 220.2611" stroke="none" fill="#2C2C2C" fill-rule="nonzero" />
    <path id=""  transform="matrix(1 0 0 -1 0 449)"  d="M310.1031 220.272C 310.1031 220.2757 310.0995 220.2793 310.0995 220.283C 310.0995 220.2793 310.0995 220.2793 310.0995 220.2793C 310.0995 220.2793 310.1031 220.2757 310.1031 220.272" stroke="none" fill="#2C2C2C" fill-rule="nonzero" />
    <path id=""  transform="matrix(1 0 0 -1 0 449)"  d="M324.2532 219.9686C 320.9242 220.5937 307.6923 217.0295 317.1599 217.3987C 319.8157 216.8504 331.1087 220.6668 324.2532 219.9686" stroke="none" fill="#2C2C2C" fill-rule="nonzero" />
    <path id=""  transform="matrix(1 0 0 -1 0 449)"  d="M375.8417 215.8487C 357.2066 216.9271 338.5423 217.2964 319.8889 217.5778C 331.3173 214.3828 343.3602 215.0079 355.0848 213.8418C 369.0008 212.7268 383.0119 210.358 396.9205 212.8036C 402.6639 213.9039 378.9475 215.5417 375.8417 215.8487" stroke="none" fill="#2C2C2C" fill-rule="nonzero" />
    <path id=""  transform="matrix(1 0 0 -1 0 449)"  d="M131.4383 141.8811C 131.6871 145.5879 136.2379 142.8425 138.6085 143.0692C 141.246 142.7292 143.8983 142.7877 146.5176 143.2556C 151.9793 143.7674 136.8306 146.637 134.7161 145.65C 132.148 145.6317 130.1579 144.7727 131.4383 141.8811" stroke="none" fill="#2C2C2C" fill-rule="nonzero" />
    <path id=""  transform="matrix(1 0 0 -1 0 449)"  d="M142.8447 139.1065C 156.6216 138.5801 139.8413 142.583 135.2246 141.9286C 127.6228 141.5228 139.9291 138.8433 142.8447 139.1065" stroke="none" fill="#2C2C2C" fill-rule="nonzero" />
    <path id=""  transform="matrix(1 0 0 -1 0 449)"  d="M422.4952 199.4826C 416.397 199.2486 427.6973 198.1994 430.1044 198.2287C 432.6469 197.6145 437.7355 199.3765 436.8429 195.3371C 436.7807 193.7871 437.3148 186.2822 437.5123 188.5961C 437.5197 188.7278 437.5233 188.863 437.5306 188.9946C 437.5306 188.9946 437.5306 188.9946 437.5306 188.991C 437.5343 189.1481 437.5416 189.3053 437.5489 189.4589C 437.5489 189.4442 437.5453 189.4296 437.5453 189.415C 438.3098 202.3741 441.134 197.7644 422.4952 199.4826" stroke="none" fill="#2C2C2C" fill-rule="nonzero" />
    <path id=""  transform="matrix(1 0 0 -1 0 449)"  d="M437.516 188.6035C 437.516 188.5998 437.516 188.5998 437.5123 188.5961C 437.5123 188.5888 437.5123 188.5815 437.5123 188.5779C 437.5123 188.5852 437.5123 188.5961 437.516 188.6035" stroke="none" fill="#2C2C2C" fill-rule="nonzero" />
    <path id=""  transform="matrix(1 0 0 -1 0 449)"  d="M431.5018 183.8694C 431.6774 180.5648 431.8274 186.0482 431.875 187.3313C 432.4457 198.5284 433.6895 197.3842 422.4294 197.6803C 434.9552 195.2128 429.391 197.9472 431.5018 183.8694" stroke="none" fill="#2C2C2C" fill-rule="nonzero" />
    <path id=""  transform="matrix(1 0 0 -1 0 449)"  d="M418.9211 180.8938C 418.9211 180.9157 418.9211 180.9376 418.9248 180.9596C 418.9248 180.9559 418.9248 180.9486 418.9211 180.945C 418.9211 180.9267 418.9211 180.9084 418.9211 180.8938" stroke="none" fill="#2C2C2C" fill-rule="nonzero" />
    <path id=""  transform="matrix(1 0 0 -1 0 449)"  d="M426.223 173.9371C 426.2267 173.9371 426.2267 173.9371 426.2303 173.9371C 424.0976 174.1711 421.9392 174.2552 419.8174 173.875C 419.4735 182.2573 420.8929 190.6908 420.1028 199.0293C 419.2101 193.3887 419.126 187.664 418.9541 181.9685C 418.9541 181.932 418.9541 181.8918 418.9504 181.8552C 418.9504 181.8589 418.9541 181.8662 418.9541 181.8698C 418.9504 181.8077 418.9504 181.7455 418.9467 181.6834C 418.9467 181.7236 418.9504 181.7602 418.9504 181.8004C 418.9431 181.6066 418.9358 181.4129 418.9321 181.2155C 418.9321 181.2264 418.9321 181.2337 418.9321 181.2411C 418.9321 181.2045 418.9285 181.168 418.9285 181.1314C 418.9285 181.1314 418.9285 181.135 418.9285 181.1387C 418.9285 181.1021 418.9285 181.0656 418.9248 181.0327C 418.9248 181.04 418.9248 181.0473 418.9248 181.0546C 418.9248 181.04 418.9248 181.0254 418.9248 181.0144C 418.9248 181.0217 418.9248 181.0327 418.9248 181.0437C 418.9248 181.0034 418.9248 180.9669 418.9211 180.9267C 418.9211 180.9413 418.9248 180.9559 418.9248 180.9706C 418.9248 180.9669 418.9248 180.9632 418.9248 180.9596C 418.9248 180.9742 418.9248 180.9925 418.9248 181.0071C 419.2797 170.8079 416.1372 172.2665 426.223 173.9371" stroke="none" fill="#2C2C2C" fill-rule="nonzero" />
    <path id=""  transform="matrix(1 0 0 -1 0 449)"  d="M424.939 169.9489C 424.928 169.9489 424.917 169.9525 424.906 169.9525C 424.8951 169.9525 424.8877 169.9525 424.8768 169.9525C 424.8987 169.9525 424.9207 169.9489 424.939 169.9489" stroke="none" fill="#2C2C2C" fill-rule="nonzero" />
    <path id=""  transform="matrix(1 0 0 -1 0 449)"  d="M438.1415 185.2513C 438.1086 184.999 438.094 184.7504 438.0903 184.4946C 438.0867 184.3812 438.083 184.2679 438.0793 184.1546C 438.0793 184.1582 438.0793 184.1619 438.0793 184.1619C 437.9989 183.1529 438.0318 182.1403 438.0025 181.1277C 437.9257 179.5851 437.8635 178.0387 437.8379 176.4924C 437.5782 174.8072 438.2147 172.3506 437.4392 171.0456C 433.2944 170.0695 429.0362 171.1881 424.8365 170.9651C 416.7738 170.9395 416.8396 170.3291 424.8329 169.9525C 424.8585 169.9525 424.8804 169.9525 424.906 169.9525C 442.857 169.6345 439.5061 166.7466 438.1415 185.2513" stroke="none" fill="#2C2C2C" fill-rule="nonzero" />
    <path id=""  transform="matrix(1 0 0 -1 0 449)"  d="M441.0316 197.9435C 441.0462 197.9362 441.0608 197.9326 441.0791 197.9289C 440.9291 197.9435 440.8999 198.0825 440.8816 198.2031C 440.8852 198.1994 440.8852 198.1958 440.8852 198.1885C 440.8852 198.2031 440.8816 198.2141 440.8779 198.225C 440.8816 198.2214 440.8816 198.2214 440.8816 198.2177C 440.8194 198.5504 440.7572 198.9086 440.6694 199.223C 440.0292 196.9638 442.2936 197.4208 443.8008 197.3148C 449.5589 196.8469 455.3206 196.8578 461.0787 197.3075C 454.439 197.7937 447.6786 198.5175 441.0316 197.9435" stroke="none" fill="#2C2C2C" fill-rule="nonzero" />
    <path id=""  transform="matrix(1 0 0 -1 0 449)"  d="M445.6373 193.151C 449.2297 193.374 458.4667 192.7343 459.3118 193.3594C 459.3081 193.3594 459.3045 193.3594 459.3008 193.3594C 459.1837 193.3704 459.0667 193.3777 458.9496 193.3887C 458.9606 193.3887 458.9679 193.3887 458.9752 193.385C 454.8378 193.8602 450.6783 194.3428 446.5043 194.2733C 444.2435 194.5548 440.556 192.6064 440.9584 196.1267C 439.8243 192.069 442.9778 193.4727 445.6373 193.151" stroke="none" fill="#2C2C2C" fill-rule="nonzero" />
    <path id=""  transform="matrix(1 0 0 -1 0 449)"  d="M440.4353 191.3744C 440.4353 191.5024 440.4279 191.6266 440.406 191.7327C 440.4097 191.6047 440.4206 191.4841 440.4353 191.3744" stroke="none" fill="#2C2C2C" fill-rule="nonzero" />
    <path id=""  transform="matrix(1 0 0 -1 0 449)"  d="M441.3388 189.0531C 447.364 188.6254 453.411 188.7643 459.4289 188.9581C 457.3656 189.6709 451.11 189.6051 447.503 189.9158C 445.041 190.5556 440.823 188.2708 440.4353 191.3744C 440.4389 190.4166 440.0694 188.9325 441.3388 189.0531" stroke="none" fill="#2C2C2C" fill-rule="nonzero" />
    <path id=""  transform="matrix(1 0 0 -1 0 449)"  d="M444.5325 184.14C 448.9224 184.1253 457.8302 183.8183 459.9922 184.2971C 459.9959 184.2971 460.0032 184.2971 460.0069 184.2971C 455.595 184.882 451.1502 185.1416 446.7018 185.1818C 443.6874 185.7265 440.9657 183.6136 440.1719 187.0937C 439.8646 183.4198 441.7266 184.3629 444.5325 184.14" stroke="none" fill="#2C2C2C" fill-rule="nonzero" />
    <path id=""  transform="matrix(1 0 0 -1 0 449)"  d="M440.1719 187.1266C 440.1463 187.2619 440.117 187.3934 440.0841 187.5287C 440.1097 187.3752 440.1389 187.2289 440.1719 187.0937C 440.1719 187.1047 440.1719 187.1156 440.1719 187.1266" stroke="none" fill="#2C2C2C" fill-rule="nonzero" />
    <path id=""  transform="matrix(1 0 0 -1 0 449)"  d="M440.9474 181.263C 440.6913 181.8333 440.5926 182.5096 440.3328 183.0762C 440.384 181.6103 440.2889 180.276 442.2095 180.5355C 448.0334 179.9031 453.883 180.0822 459.7288 180.2943C 458.1741 181.2009 445.9263 181.2813 440.9474 181.263M440.8962 181.2886C 440.9035 181.2813 440.9182 181.2776 440.9255 181.2703C 440.9145 181.274 440.9035 181.2813 440.8962 181.2886z" stroke="none" fill="#2C2C2C" fill-rule="nonzero" />
    <path id=""  transform="matrix(1 0 0 -1 0 449)"  d="M444.4959 176.7008C 441.7376 176.401 441.7852 176.0099 440.6255 178.609C 441.1267 177.4356 440.6401 175.425 442.5388 175.7284C 448.5602 175.5456 454.5817 175.6992 460.5958 176.0208C 455.2914 176.7629 449.8552 176.8836 444.4959 176.7008" stroke="none" fill="#2C2C2C" fill-rule="nonzero" />
    <path id=""  transform="matrix(1 0 0 -1 0 449)"  d="M460.219 172.3543C 453.8464 172.8661 447.4335 172.7381 441.0681 172.3104C 440.5816 172.6723 440.673 173.7032 440.245 174.2003C 440.0585 170.4936 442.6741 171.8352 445.2898 171.4769C 449.5333 171.6012 458.1448 171.7511 460.2044 172.3543C 460.2081 172.3543 460.2154 172.3543 460.219 172.3543" stroke="none" fill="#2C2C2C" fill-rule="nonzero" />
    <path id=""  transform="matrix(1 0 0 -1 0 449)"  d="M460.0251 167.92C 460.0288 167.92 460.0325 167.92 460.0398 167.9164C 460.0325 167.92 460.0288 167.92 460.0251 167.92" stroke="none" fill="#2C2C2C" fill-rule="nonzero" />
    <path id=""  transform="matrix(1 0 0 -1 0 449)"  d="M444.5142 167.3315C 448.9919 166.9074 457.5705 167.379 460.0251 167.92C 454.6841 168.4062 449.3175 168.2636 443.9838 168.0772C 443.7057 168.5488 444.0935 169.4992 443.607 170.0183C 443.9326 168.9545 442.6595 167.3534 444.5142 167.3315" stroke="none" fill="#2C2C2C" fill-rule="nonzero" />
    <path id=""  transform="matrix(1 0 0 -1 0 449)"  d="M475.0569 193.5641C 474.1642 195.5199 471.4864 194.1965 469.8073 194.6974C 465.0808 194.7266 461.7921 194.5658 468.8964 193.8346C 475.5983 193.6007 473.963 192.2737 473.8021 186.5929C 473.5167 183.3248 474.1972 170.1243 474.435 178.6529C 474.3581 183.6136 475.6934 188.6583 475.0569 193.5641" stroke="none" fill="#2C2C2C" fill-rule="nonzero" />
    <path id=""  transform="matrix(1 0 0 -1 0 449)"  d="M480.6137 182.0124C 480.6028 177.0261 481.1003 172.0435 482.088 167.1816C 484.7036 177.6549 485.0987 188.8045 482.827 199.3692C 481.5758 194.595 480.8698 189.6746 480.6686 184.7322C 480.8369 200.5902 484.7805 196.7006 468.6257 197.4391C 465.6698 197.1795 463.6431 197.0114 468.1025 196.7189C 471.7937 195.9622 476.3994 196.8944 479.6589 195.8525C 480.0577 188.9544 479.4724 182.0526 479.476 175.1545C 479.937 166.615 480.0869 178.2471 480.6137 182.0124" stroke="none" fill="#2C2C2C" fill-rule="nonzero" />
    <path id=""  transform="matrix(1 0 0 -1 0 449)"  d="M474.6398 169.5285C 479.2272 169.3128 478.4371 169.7003 474.4386 170.3144C 465.7613 171.2283 464.4626 169.6747 464.3931 173.2755C 467.5428 172.7125 470.6926 172.899 473.8643 173.0891C 473.857 173.0891 473.846 173.0891 473.8387 173.0891C 474.7935 173.4656 470.3011 173.97 469.189 173.7068C 467.5977 173.5606 465.9734 173.6118 464.3894 173.4071C 464.3675 175.6297 464.7552 179.7167 464.2541 187.2948C 462.9042 181.8369 463.3505 176.0282 463.3176 170.4424C 463.6797 168.801 472.6168 169.9927 474.6398 169.5285" stroke="none" fill="#2C2C2C" fill-rule="nonzero" />
    <path id=""  transform="matrix(1 0 0 -1 0 449)"  d="M463.9358 194.7851C 463.698 192.7051 463.698 190.5044 464.415 188.5303C 464.4297 190.625 464.6418 192.7782 463.9358 194.7851" stroke="none" fill="#2C2C2C" fill-rule="nonzero" />
    <path id=""  transform="matrix(1 0 0 -1 0 449)"  d="M343.6675 283.7115C 343.6638 283.7371 343.6602 283.759 343.6565 283.7846C 343.6528 283.8102 343.6492 283.8358 343.6455 283.8614C 343.6528 283.8102 343.6602 283.759 343.6675 283.7115" stroke="none" fill="#2C2C2C" fill-rule="nonzero" />
    <path id=""  transform="matrix(1 0 0 -1 0 449)"  d="M327.2127 269.2791C 325.3616 256.9963 325.5958 244.41 325.8811 232.0285C 326.8213 237.8482 326.5579 243.7447 326.7518 249.612C 326.9384 256.1409 327.9663 262.7904 327.2127 269.2791" stroke="none" fill="#2C2C2C" fill-rule="nonzero" />
    <path id=""  transform="matrix(1 0 0 -1 0 449)"  d="M331.3502 264.2856C 331.3502 264.2856 331.3502 264.2856 331.3539 264.2856C 331.3539 264.2856 331.3539 264.2856 331.3575 264.2819C 331.3539 264.2856 331.3502 264.2856 331.3502 264.2856" stroke="none" fill="#2C2C2C" fill-rule="nonzero" />
    <path id=""  transform="matrix(1 0 0 -1 0 449)"  d="M332.8647 246.0295C 332.8757 246.0295 332.8867 246.0295 332.8976 246.0295C 332.9305 246.0258 332.9671 246.0258 333.0001 246.0258C 332.9561 246.0258 332.9086 246.0295 332.8647 246.0295" stroke="none" fill="#2C2C2C" fill-rule="nonzero" />
    <path id=""  transform="matrix(1 0 0 -1 0 449)"  d="M411.612 250.9134C 411.612 250.9572 411.612 251.0047 411.6083 251.0486C 411.6083 251.023 411.6083 251.0011 411.6083 250.9755C 411.612 250.9572 411.612 250.9353 411.612 250.9134" stroke="none" fill="#2C2C2C" fill-rule="nonzero" />
    <path id=""  transform="matrix(1 0 0 -1 0 449)"  d="M327.7542 192.3029C 327.7542 192.3029 327.7578 192.3066 327.7578 192.3066C 327.7614 192.3322 327.7651 192.3541 327.7688 192.3834C 327.7651 192.3541 327.7614 192.3285 327.7542 192.3029" stroke="none" fill="#2C2C2C" fill-rule="nonzero" />
    <path id=""  transform="matrix(1 0 0 -1 0 449)"  d="M318.9744 183.1968C 330.2271 182.3158 328.3943 180.0639 328.076 194.924C 328.0358 194.043 327.9334 193.1693 327.7578 192.3066C 325.9872 182.2537 329.6747 184.2752 318.9744 183.1968" stroke="none" fill="#2C2C2C" fill-rule="nonzero" />
    <path id=""  transform="matrix(1 0 0 -1 0 449)"  d="M326.364 181.6505C 325.0287 181.5883 319.0951 180.934 322.5009 180.8499C 323.8947 180.6854 325.3836 180.8755 326.7335 180.5611C 327.6773 177.6037 327.7176 174.5038 327.4395 171.4367C 327.7614 168.3696 322.5009 169.7442 320.4157 168.4793C 322.4826 169.1008 327.9956 167.2766 328.5882 169.7478C 328.2663 172.6906 330.3259 181.1387 326.364 181.6505" stroke="none" fill="#2C2C2C" fill-rule="nonzero" />
    <path id=""  transform="matrix(1 0 0 -1 0 449)"  d="M327.8566 152.5664C 319.4609 152.4202 318.0964 151.7988 327.4798 151.4332C 326.4957 140.6857 330.7905 141.7824 319.45 139.6768C 322.8667 140.1191 329.7881 137.8709 328.6284 143.1167C 327.9846 144.8458 329.8759 152.8662 327.8566 152.5664M327.1176 141.1427C 327.1286 141.1536 327.1396 141.1609 327.1505 141.1719C 327.1432 141.1609 327.1286 141.1536 327.1176 141.1427z" stroke="none" fill="#2C2C2C" fill-rule="nonzero" />
    <path id=""  transform="matrix(1 0 0 -1 0 449)"  d="M319.45 139.6768C 319.2634 139.6512 319.0841 139.6183 318.9195 139.578C 319.0988 139.611 319.278 139.6439 319.45 139.6768" stroke="none" fill="#2C2C2C" fill-rule="nonzero" />
    <path id=""  transform="matrix(1 0 0 -1 0 449)"  d="M323.4813 138.3498C 322.3473 138.2913 321.2059 138.0317 320.1267 137.7502C 329.9601 137.9038 326.4591 136.3648 327.0261 128.2968C 326.8396 126.0304 322.7899 127.1453 321.0632 126.4873C 323.2435 126.4361 325.6982 125.5698 327.787 126.4508C 328.848 129.7225 327.9773 133.7912 328.387 137.3189C 327.8566 139.0699 324.9446 138.0646 323.4813 138.3498" stroke="none" fill="#2C2C2C" fill-rule="nonzero" />
    <path id=""  transform="matrix(1 0 0 -1 0 449)"  d="M322.3436 124.1953C 315.3198 123.8882 324.0191 123.4385 326.6969 123.0327C 324.5788 116.215 331.0099 112.2122 320.701 112.0221C 321.3705 111.9636 322.0839 111.9197 322.7679 111.8575C 330.5527 110.6805 327.2969 113.9449 327.4871 119.6477C 328.8772 125.9646 327.7505 123.9649 322.3436 124.1953" stroke="none" fill="#2C2C2C" fill-rule="nonzero" />
    <path id=""  transform="matrix(1 0 0 -1 0 449)"  d="M362.8037 185.445C 362.7818 185.4487 362.7562 185.4523 362.7269 185.4596C 362.7159 185.456 362.7086 185.456 362.6977 185.4523C 362.7342 185.4523 362.7708 185.4487 362.8037 185.445" stroke="none" fill="#2C2C2C" fill-rule="nonzero" />
    <path id=""  transform="matrix(1 0 0 -1 0 449)"  d="M364.5999 186.2639C 357.4517 185.9349 350.3913 187.4008 343.2431 187.0389C 333.033 186.4869 359.8113 185.891 362.7269 185.4596C 364.5597 185.7119 365.2401 184.882 365.4377 183.6501C 365.2584 182.25 365.1596 180.8426 365.1304 179.4315C 365.1523 178.7187 365.1706 178.0058 365.1889 177.293C 365.1852 176.624 365.2036 175.8856 365.2328 175.4981C 365.5986 157.5637 364.8414 139.6 365.423 121.6911C 366.301 133.6121 365.2292 145.7889 365.595 157.8013C 365.456 164.8091 366.0779 171.8681 365.862 178.8722C 366.6486 182.1074 367.7204 186.0811 364.5999 186.2639" stroke="none" fill="#2C2C2C" fill-rule="nonzero" />
    <path id=""  transform="matrix(1 0 0 -1 0 449)"  d="M339.7971 118.3938C 340.8506 127.9313 339.9397 137.5784 340.2141 147.1561C 340.2141 147.1415 340.2141 147.1232 340.2141 147.1086C 340.2836 157.7538 340.6129 168.3989 340.7263 179.044C 340.7226 179.0367 340.7226 179.0258 340.7226 179.0184C 340.7116 181.8552 340.6129 184.7249 340.3312 187.536C 339.2081 175.0667 340.0934 162.5097 339.8446 150.0039C 339.8446 150.0112 339.8446 150.0148 339.8446 150.0221C 340.0349 139.494 338.8532 128.8781 339.7971 118.3938" stroke="none" fill="#2C2C2C" fill-rule="nonzero" />
    <path id=""  transform="matrix(1 0 0 -1 0 449)"  d="M365.851 120.0607C 364.1939 120.2508 362.4855 120.2801 360.8063 120.2801C 354.1666 119.9218 345.5588 120.2655 339.8995 119.2821C 339.958 119.2784 340.0165 119.2748 340.0714 119.2675C 348.639 119.0152 357.32 119.1834 365.851 120.0607" stroke="none" fill="#2C2C2C" fill-rule="nonzero" />
    <path id=""  transform="matrix(1 0 0 -1 0 449)"  d="M362.2879 125.2992C 362.3318 129.2729 362.3318 133.2502 362.3062 137.2275C 362.2696 133.2465 362.255 129.2692 362.2879 125.2992" stroke="none" fill="#2C2C2C" fill-rule="nonzero" />
    <path id=""  transform="matrix(1 0 0 -1 0 449)"  d="M342.2261 177.2418C 342.2261 177.2711 342.2261 177.2966 342.2298 177.3259C 342.2298 177.3296 342.2298 177.3332 342.2298 177.3332C 342.2261 177.304 342.2261 177.2711 342.2261 177.2418" stroke="none" fill="#2C2C2C" fill-rule="nonzero" />
    <path id=""  transform="matrix(1 0 0 -1 0 449)"  d="M342.592 181.8589C 342.3798 180.3564 342.2627 178.843 342.2298 177.3259C 342.5993 159.6437 341.9627 141.8957 342.5225 124.2391C 343.2029 140.2763 342.3981 156.361 342.9395 172.4128C 342.9395 172.3799 342.9395 172.3506 342.9395 172.3177C 343.0053 175.4944 343.0456 178.7187 342.592 181.8589" stroke="none" fill="#2C2C2C" fill-rule="nonzero" />
    <path id=""  transform="matrix(1 0 0 -1 0 449)"  d="M362.4123 182.8495C 362.3977 183.3211 362.3794 183.789 362.3647 184.2606C 362.3465 183.7927 362.3282 183.3248 362.3135 182.8568C 359.7674 183.0323 356.0031 183.1968 352.7692 183.3028C 352.7619 183.3357 352.7582 183.3686 352.7545 183.4015C 352.7545 183.3686 352.7509 183.3357 352.7509 183.3028C 349.9889 183.3942 347.6147 183.4417 346.7148 183.4125C 337.6387 183.1127 344.8893 182.5827 352.718 182.3341C 352.5826 178.5505 352.5095 174.7633 352.4729 170.9761C 350.8779 170.9944 349.3853 170.9907 348.3208 170.9724C 341.125 170.5045 346.5209 170.128 352.4619 170.0732C 352.4326 166.264 352.4399 162.4512 352.4655 158.6384C 349.3524 158.6128 346.2063 158.5434 343.148 158.0499C 346.2429 157.6806 349.356 157.6148 352.4729 157.688C 352.5607 146.0814 352.8094 134.4602 352.6924 122.8792C 349.1036 122.7622 345.5222 122.5429 342.003 121.9214C 343.5906 121.6253 348.1306 121.6802 352.6814 121.8739C 352.6814 121.8081 352.6777 121.7387 352.6777 121.6692C 352.6814 121.7387 352.6814 121.8081 352.6814 121.8739C 360.9453 122.2285 369.2422 123.0474 359.9576 123.0656C 357.9419 123.0035 355.9189 122.9706 353.8923 122.9158C 354.9056 133.2758 354.0167 143.7381 354.1118 154.1347C 354.0789 155.3337 354.0605 156.5364 354.0496 157.7391C 356.2299 157.8195 358.4102 157.9548 360.5795 158.0864C 361.5709 158.1559 362.0245 158.218 362.0904 158.2729C 362.1489 151.2577 362.2623 144.239 362.3062 137.2275C 362.4416 152.2265 362.8952 167.2766 362.4306 182.2208C 363.1476 182.239 363.722 182.2683 364.1097 182.3121C 366.3559 182.462 365.0865 182.6631 362.4123 182.8495M352.8423 161.307C 352.8607 160.4187 352.8789 159.5304 352.8936 158.6421C 352.868 158.6421 352.8387 158.6421 352.8131 158.6421C 352.8204 159.5304 352.8314 160.4187 352.8423 161.307zM352.9265 153.9117C 353.2484 143.5956 352.5789 133.1625 353.8191 122.9121C 353.446 122.9012 353.0692 122.8902 352.696 122.8792C 352.8607 134.4821 352.718 146.0923 352.8058 157.6989C 352.8387 157.6989 352.8753 157.6989 352.9082 157.6989C 352.9265 156.4377 352.9338 155.1765 352.9265 153.9117zM362.0904 158.3021C 361.8453 158.5032 356.5262 158.6201 354.0422 158.6421C 354.024 162.4476 354.0715 166.2604 354.0057 170.0659C 357.0786 170.0659 360.0162 170.1572 361.1575 170.3729C 361.1539 170.3729 361.1465 170.3729 361.1429 170.3729C 360.4186 170.7056 357.1993 170.8774 353.9874 170.9505C 353.9033 174.5403 353.702 178.1228 353.2191 181.6761C 353.1643 181.1789 353.113 180.6781 353.0692 180.1773C 353.0289 180.8938 352.9704 181.6139 352.8899 182.3268C 356.4055 182.2171 360.0125 182.1659 362.2916 182.2171C 362.0282 174.2588 362.0245 166.2859 362.0904 158.3021z" stroke="none" fill="#2C2C2C" fill-rule="nonzero" />
    <path id=""  transform="matrix(1 0 0 -1 0 449)"  d="M380.6084 193.3082C 379.7341 189.6892 380.6303 186.0336 380.795 182.3889C 382.4741 180.3454 387.3322 181.7967 389.8857 181.4604C 378.7939 183.3357 382.7777 181.5993 380.6084 193.3082" stroke="none" fill="#2C2C2C" fill-rule="nonzero" />
    <path id=""  transform="matrix(1 0 0 -1 0 449)"  d="M382.1046 179.9908C 379.906 178.7955 381.5851 175.191 381.2339 173.111C 381.5559 171.5318 380.623 169.4956 381.6217 168.1686C 383.7984 167.2766 393.4232 167.7299 386.6445 168.4099C 384.8373 168.8961 381.79 168.2746 382.5253 170.9944C 382.8582 173.4327 381.7754 176.8287 382.7594 178.8064C 391.5283 178.6967 388.9492 179.3182 382.1046 179.9908" stroke="none" fill="#2C2C2C" fill-rule="nonzero" />
    <path id=""  transform="matrix(1 0 0 -1 0 449)"  d="M386.5933 153.824C 387.603 153.8605 388.6163 153.8898 389.6259 153.9483C 388.4005 154.2042 387.1164 154.4052 385.858 154.5734C 384.5995 155.034 381.779 154.2955 381.9217 156.1051C 382.0058 158.9638 381.9144 161.8627 382.2583 164.6994C 384.5556 165.2551 386.9591 165.3428 389.2821 165.6755C 387.8298 165.9277 386.3482 166.0191 384.8739 166.052C 378.7793 166.8489 381.2705 161.987 380.6559 158.0718C 379.8365 152.5555 382.4009 153.7947 386.5933 153.824" stroke="none" fill="#2C2C2C" fill-rule="nonzero" />
    <path id=""  transform="matrix(1 0 0 -1 0 449)"  d="M380.2316 146.5822C 380.7437 144.8348 379.4341 141.8445 380.7255 140.6784C 383.0887 140.247 393.2074 141.0769 386.5164 141.3327C 383.8679 141.9213 380.6377 140.8319 381.5669 144.6264C 382.1083 146.7138 379.7304 151.5465 382.7887 151.393C 384.6617 151.5465 386.4982 151.934 388.3383 152.3032C 385.8543 152.486 383.3228 152.3727 380.8206 152.4166C 378.8524 151.4661 380.4803 148.3369 380.2316 146.5822" stroke="none" fill="#2C2C2C" fill-rule="nonzero" />
    <path id=""  transform="matrix(1 0 0 -1 0 449)"  d="M381.0254 126.4508C 391.3124 127.2404 392.6074 127.4926 381.3986 127.8691C 381.3949 127.8545 381.3949 127.8435 381.3949 127.8326C 381.4937 131.0934 381.2339 134.3542 381.1791 137.615C 382.3424 138.3461 384.6032 137.5602 386.1214 138.0793C 393.6464 139.165 383.952 138.6715 381.1864 139.1723C 378.333 138.9931 380.5535 133.5097 380.1292 131.554C 380.6633 129.9784 378.8854 126.9662 381.0254 126.4508" stroke="none" fill="#2C2C2C" fill-rule="nonzero" />
    <path id=""  transform="matrix(1 0 0 -1 0 449)"  d="M382.5765 124.8788C 384.9434 124.8569 387.2957 125.3504 389.6406 125.4345C 386.8896 126.0779 384.0325 125.7928 381.2449 126.1912C 379.2073 125.3285 380.9633 122.1481 380.5462 120.4117C 380.8499 118.4084 378.8232 113.9156 381.5705 113.3856C 383.9154 113.2613 386.2677 113.6963 388.6199 113.7621C 386.9152 114.018 385.1922 114.3763 383.4472 114.3982C 380.3669 114.0327 381.8229 117.6115 381.7534 119.5782C 382.3936 121.0807 380.6121 124.9264 382.5765 124.8788M381.5998 114.6577C 381.5961 114.6651 381.5888 114.6651 381.5888 114.6724C 381.5925 114.6687 381.5961 114.6651 381.5998 114.6577zM381.5193 114.7564C 381.512 114.7638 381.5083 114.7747 381.5047 114.782C 381.5083 114.7747 381.5156 114.7638 381.5193 114.7564z" stroke="none" fill="#2C2C2C" fill-rule="nonzero" />
    <path id=""  transform="matrix(1 0 0 -1 0 449)"  d="M370.8299 191.8716C 375.7466 192.4565 358.2456 192.844 355.5092 192.8549C 355.5129 192.8549 355.5165 192.8549 355.5202 192.8549C 351.0242 192.95 346.5355 193.2388 342.0396 193.2059C 327.8712 192.5223 366.9376 191.6047 370.8299 191.8716" stroke="none" fill="#2C2C2C" fill-rule="nonzero" />
    <path id=""  transform="matrix(1 0 0 -1 0 449)"  d="M374.0967 110.0809C 375.0259 120.1521 373.9687 130.5962 374.0931 140.7881C 373.5516 157.348 374.7808 174.0322 373.4748 190.53C 372.4432 175.0265 373.8736 159.4171 373.6248 143.8771C 373.9467 132.6214 373.0688 121.3073 374.0967 110.0809" stroke="none" fill="#2C2C2C" fill-rule="nonzero" />
    <path id=""  transform="matrix(1 0 0 -1 0 449)"  d="M371.4409 149.5323C 370.9726 163.4163 372.1505 177.4283 370.8445 191.2465C 369.7837 178.3751 371.0787 165.3867 370.8921 152.4751C 371.2323 138.7775 370.4385 125.0178 371.4738 111.3567C 372.2969 124.0307 371.3311 136.8181 371.4409 149.5323" stroke="none" fill="#2C2C2C" fill-rule="nonzero" />
    <path id=""  transform="matrix(1 0 0 -1 0 449)"  d="M337.3826 187.3423C 337.7302 189.2615 337.8106 191.3159 337.3351 193.2242C 336.9034 191.2867 337.0022 189.2798 337.3826 187.3423" stroke="none" fill="#2C2C2C" fill-rule="nonzero" />
    <path id=""  transform="matrix(1 0 0 -1 0 449)"  d="M274.4828 206.0188C 274.4426 206.4757 274.4023 206.9364 274.3548 207.3933C 274.3036 206.951 274.256 206.505 274.2121 206.0627C 265.5092 207.3531 256.6453 206.8888 247.8728 207.4262C 236.8578 207.5615 225.8282 209.0603 214.8206 208.384C 224.4747 206.8705 234.3593 207.3823 244.1048 206.7134C 254.1247 206.5269 264.1739 205.1012 274.1792 205.6861C 273.261 195.688 274.2597 185.5766 273.9634 175.542C 274.2194 164.3814 273.1878 153.1696 274.1646 142.0346C 275.2255 152.2886 274.2633 162.751 274.556 173.0781C 274.278 183.9352 275.412 194.8911 274.5084 205.7081C 274.9474 205.7337 275.3901 205.7666 275.8291 205.7995C 275.3791 205.8799 274.9328 205.953 274.4828 206.0188" stroke="none" fill="#2C2C2C" fill-rule="nonzero" />
    <path id=""  transform="matrix(1 0 0 -1 0 449)"  d="M214.9011 142.6414C 215.9254 155.0961 214.6999 167.6568 214.9523 180.1517C 214.6523 189.2432 215.6437 198.4334 214.4731 207.4591C 213.4012 196.9419 214.6413 186.326 214.3926 175.765C 214.7255 164.7287 213.7634 153.6375 214.9011 142.6414" stroke="none" fill="#2C2C2C" fill-rule="nonzero" />
    <path id=""  transform="matrix(1 0 0 -1 0 449)"  d="M236.803 149.068C 236.8322 152.6542 236.7993 156.244 236.7261 159.8411C 236.7042 156.244 236.7188 152.6542 236.803 149.068" stroke="none" fill="#2C2C2C" fill-rule="nonzero" />
    <path id=""  transform="matrix(1 0 0 -1 0 449)"  d="M236.4262 205.1488C 235.5335 190.1059 236.4335 174.9461 236.7261 159.8411C 236.8212 174.9571 237.5383 190.1279 236.4262 205.1488" stroke="none" fill="#2C2C2C" fill-rule="nonzero" />
    <path id=""  transform="matrix(1 0 0 -1 0 449)"  d="M239.0638 154.0908C 239.0747 153.1404 239.0894 152.1899 239.1113 151.2431C 239.093 152.1899 239.0784 153.1404 239.0638 154.0908" stroke="none" fill="#2C2C2C" fill-rule="nonzero" />
    <path id=""  transform="matrix(1 0 0 -1 0 449)"  d="M238.7711 202.7982C 238.2699 199.1609 238.237 195.4797 238.3979 191.8167C 238.3979 191.8241 238.3979 191.8314 238.3979 191.835C 238.3979 191.7985 238.4016 191.7619 238.4016 191.7217C 238.4016 191.7436 238.3979 191.7619 238.3979 191.7838C 238.7821 179.2195 238.8589 166.6552 239.0638 154.0908C 238.8662 170.3035 239.9783 186.655 238.7711 202.7982" stroke="none" fill="#2C2C2C" fill-rule="nonzero" />
    <path id=""  transform="matrix(1 0 0 -1 0 449)"  d="M241.8842 205.3864C 241.1124 187.4556 242.0123 169.4152 242.2428 151.4296C 242.2464 169.4078 242.9012 187.4885 241.8842 205.3864" stroke="none" fill="#2C2C2C" fill-rule="nonzero" />
    <path id=""  transform="matrix(1 0 0 -1 0 449)"  d="M246.2668 204.8856C 245.4071 188.0697 246.4022 171.1114 246.6034 154.2517C 246.5741 171.126 247.368 188.0917 246.2668 204.8856" stroke="none" fill="#2C2C2C" fill-rule="nonzero" />
    <path id=""  transform="matrix(1 0 0 -1 0 449)"  d="M246.6034 154.2517C 246.607 152.6249 246.618 150.9982 246.6363 149.3751C 246.6363 150.9982 246.6217 152.6249 246.6034 154.2517" stroke="none" fill="#2C2C2C" fill-rule="nonzero" />
    <path id=""  transform="matrix(1 0 0 -1 0 449)"  d="M248.941 202.8786C 247.9203 184.4617 249.3837 165.9131 249.2446 147.4522C 249.3178 157.6258 250.0165 186.5673 248.941 202.8786" stroke="none" fill="#2C2C2C" fill-rule="nonzero" />
    <path id=""  transform="matrix(1 0 0 -1 0 449)"  d="M251.8895 201.3762C 250.9786 186.2383 251.9408 170.9724 252.1932 155.7797C 252.2407 170.9871 253.0199 186.2602 251.8895 201.3762" stroke="none" fill="#2C2C2C" fill-rule="nonzero" />
    <path id=""  transform="matrix(1 0 0 -1 0 449)"  d="M252.248 147.8946C 252.259 150.5193 252.2371 153.1477 252.1932 155.7797C 252.1859 153.1477 252.1968 150.5193 252.248 147.8946" stroke="none" fill="#2C2C2C" fill-rule="nonzero" />
    <path id=""  transform="matrix(1 0 0 -1 0 449)"  d="M260.8815 203.4306C 259.9926 186.3772 261.0425 169.2104 261.218 152.1131C 261.1815 169.1958 261.9973 186.4137 260.8815 203.4306" stroke="none" fill="#2C2C2C" fill-rule="nonzero" />
    <path id=""  transform="matrix(1 0 0 -1 0 449)"  d="M261.218 152.1131C 261.2217 150.7789 261.229 149.4482 261.2437 148.1139C 261.2437 149.4482 261.2327 150.7789 261.218 152.1131" stroke="none" fill="#2C2C2C" fill-rule="nonzero" />
    <path id=""  transform="matrix(1 0 0 -1 0 449)"  d="M263.541 203.6171C 262.5533 186.8707 263.6983 169.9671 263.8703 153.1879C 263.8337 169.9489 264.7592 186.9036 263.541 203.6171" stroke="none" fill="#2C2C2C" fill-rule="nonzero" />
    <path id=""  transform="matrix(1 0 0 -1 0 449)"  d="M228.9048 203.9863C 227.9829 185.9349 229.0109 167.3351 229.267 149.2216C 229.267 167.4119 230.0791 185.8727 228.9048 203.9863" stroke="none" fill="#2C2C2C" fill-rule="nonzero" />
    <path id=""  transform="matrix(1 0 0 -1 0 449)"  d="M233.1813 205.7921C 232.2594 187.7407 233.3898 169.5541 233.5398 151.4588C 233.4557 169.5358 234.3519 187.7773 233.1813 205.7921" stroke="none" fill="#2C2C2C" fill-rule="nonzero" />
    <path id=""  transform="matrix(1 0 0 -1 0 449)"  d="M233.5398 151.4588C 233.5398 150.8629 233.5435 150.2671 233.5508 149.6712C 233.5471 150.2671 233.5435 150.8629 233.5398 151.4588" stroke="none" fill="#2C2C2C" fill-rule="nonzero" />
    <path id=""  transform="matrix(1 0 0 -1 0 449)"  d="M223.5967 206.6C 222.7516 190.3655 223.6589 174.0103 223.9186 157.7209C 223.9625 174.0212 224.6686 190.3874 223.5967 206.6" stroke="none" fill="#2C2C2C" fill-rule="nonzero" />
    <path id=""  transform="matrix(1 0 0 -1 0 449)"  d="M223.9808 148.5562C 223.9918 151.6087 223.9662 154.6648 223.9186 157.7209C 223.9113 154.6648 223.9259 151.6087 223.9808 148.5562" stroke="none" fill="#2C2C2C" fill-rule="nonzero" />
    <path id=""  transform="matrix(1 0 0 -1 0 449)"  d="M226.2379 205.072C 225.3234 186.2858 226.4062 167.3497 226.6147 148.5197C 226.5672 167.3607 227.4196 186.3077 226.2379 205.072" stroke="none" fill="#2C2C2C" fill-rule="nonzero" />
    <path id=""  transform="matrix(1 0 0 -1 0 449)"  d="M220.3189 204.8526C 219.4117 185.2403 220.5018 165.4781 220.7067 145.8365C 221.0835 163.3432 220.6335 180.9157 220.864 198.4407C 220.7908 200.5792 220.6408 202.7434 220.3189 204.8526" stroke="none" fill="#2C2C2C" fill-rule="nonzero" />
    <path id=""  transform="matrix(1 0 0 -1 0 449)"  d="M220.864 198.4517C 220.864 198.448 220.864 198.4444 220.864 198.4407C 220.8677 198.4005 220.8677 198.3603 220.8713 198.3201C 220.8677 198.3639 220.8677 198.4078 220.864 198.4517" stroke="none" fill="#2C2C2C" fill-rule="nonzero" />
    <path id=""  transform="matrix(1 0 0 -1 0 449)"  d="M216.4412 204.7795C 215.5596 185.5108 216.5729 164.6555 216.8363 145.2113C 217.2204 163.0105 216.7704 180.8316 216.968 198.6345C 216.8985 200.6853 216.7521 202.7616 216.4412 204.7795" stroke="none" fill="#2C2C2C" fill-rule="nonzero" />
    <path id=""  transform="matrix(1 0 0 -1 0 449)"  d="M235.1275 307.9482C 234.9373 308.2772 234.7836 308.6501 234.619 308.9791C 236.8725 302.0956 241.4855 295.9944 245.1145 289.736C 242.4659 296.1589 239.4771 302.4648 235.1275 307.9482" stroke="none" fill="#2C2C2C" fill-rule="nonzero" />
    <path id=""  transform="matrix(1 0 0 -1 0 449)"  d="M215.7022 313.5851C 222.7736 312.5689 230.0645 311.1688 236.9968 310.0904C 239.66 302.2528 244.2841 295.1353 248.3667 287.9337C 247.3862 288.3541 246.3692 288.6795 245.3157 288.8769C 237.4651 289.8895 229.4682 290.4927 221.5444 290.9423C 211.7513 291.0703 237.9333 288.186 241.138 288.2737C 243.5853 288.1823 246.0693 288.0617 248.4874 287.718C 248.6922 287.3598 248.8934 287.0016 249.091 286.6433C 249.091 286.6433 249.091 286.647 249.091 286.647C 249.091 286.6433 249.091 286.6433 249.0947 286.6433C 249.091 286.6433 249.091 286.6433 249.091 286.6433C 249.1385 286.5629 249.1824 286.4861 249.23 286.4057C 249.0727 286.8224 248.9081 287.2465 248.7361 287.6815C 248.8276 287.6669 248.9227 287.6523 249.0142 287.6376C 248.9081 287.6888 248.7983 287.74 248.6922 287.7875C 245.9998 294.5175 241.5221 303.3019 237.198 309.904C 237.2017 309.8967 237.2017 309.893 237.2054 309.8857C 237.2017 309.893 237.198 309.9003 237.1944 309.9076C 237.1944 309.9076 237.1944 309.904 237.198 309.904C 237.081 310.0941 236.9749 310.317 236.8578 310.4925C 236.9017 310.3609 236.9493 310.2293 236.9932 310.0977C 227.1049 312.3057 217.1509 315.1022 206.9554 315.084C 206.959 315.084 206.9627 315.084 206.9663 315.0803C 206.959 315.084 206.9554 315.084 206.9481 315.084C 206.9481 315.084 206.9517 315.084 206.9517 315.084C 206.9334 315.084 206.9151 315.0876 206.8968 315.0913C 207.0724 314.3309 214.7584 313.735 215.7022 313.5851" stroke="none" fill="#2C2C2C" fill-rule="nonzero" />
    <path id=""  transform="matrix(1 0 0 -1 0 449)"  d="M206.8968 315.0913C 206.8859 315.1498 206.9188 315.2119 207.0066 315.2777C 206.9517 315.2302 206.842 315.2009 206.7798 315.1425C 206.8127 315.1132 206.8566 315.0986 206.8968 315.0913" stroke="none" fill="#2C2C2C" fill-rule="nonzero" />
    <path id=""  transform="matrix(1 0 0 -1 0 449)"  d="M234.3666 306.8735C 226.8635 308.9243 219.2507 311.0738 211.4294 311.3077C 211.4404 311.3077 211.4514 311.3077 211.4587 311.3077C 211.1441 311.3297 210.8075 311.3772 210.5039 311.3954C 218.2484 309.0887 226.4538 308.4198 234.3666 306.8735" stroke="none" fill="#2C2C2C" fill-rule="nonzero" />
    <path id=""  transform="matrix(1 0 0 -1 0 449)"  d="M218.563 289.8529C 218.5593 289.8529 218.5593 289.8529 218.5593 289.8566C 218.5593 289.8529 218.5593 289.8529 218.5593 289.8529C 218.5593 289.8529 218.563 289.8529 218.563 289.8529" stroke="none" fill="#2C2C2C" fill-rule="nonzero" />
    <path id=""  transform="matrix(1 0 0 -1 0 449)"  d="M210.0137 311.1798C 212.2671 304.8007 214.656 298.2828 219.002 293.0114C 216.4485 299.2625 212.7939 305.042 210.0137 311.1798" stroke="none" fill="#2C2C2C" fill-rule="nonzero" />
    <path id=""  transform="matrix(1 0 0 -1 0 449)"  d="M218.8373 292.8469C 223.5967 290.8034 228.9012 291.1324 233.9678 290.9642C 228.989 291.9183 223.904 292.6166 218.8373 292.8469" stroke="none" fill="#2C2C2C" fill-rule="nonzero" />
    <path id=""  transform="matrix(1 0 0 -1 0 449)"  d="M221.3359 291.9842C 221.3396 291.9842 221.3396 291.9805 221.3432 291.9805C 221.3688 291.9768 221.3944 291.9695 221.42 291.9622C 221.3908 291.9695 221.3652 291.9768 221.3359 291.9842" stroke="none" fill="#2C2C2C" fill-rule="nonzero" />
    <path id=""  transform="matrix(1 0 0 -1 0 449)"  d="M205.942 314.9962C 206.0225 312.8687 207.2883 310.8362 208.1223 308.9023C 208.137 308.9389 208.1479 308.9791 208.1589 309.0157C 210.9136 302.2601 214.0011 295.5922 218.5593 289.8566C 215.8669 295.9797 211.5099 302.8011 208.2065 309.4287C 208.1736 311.3552 205.3896 315.0218 206.8785 314.9195C 206.6042 314.967 206.1945 315.2265 205.942 314.9962" stroke="none" fill="#2C2C2C" fill-rule="nonzero" />
    <path id=""  transform="matrix(1 0 0 -1 0 449)"  d="M207.2115 312.6091C 210.1271 311.2931 213.3573 311.092 216.5107 311.4649C 220.7689 310.222 225.1917 309.4982 229.6255 309.2057C 229.6255 309.2057 229.6218 309.2057 229.6182 309.2057C 229.9255 309.1765 230.2328 309.1509 230.5364 309.1253C 230.5144 309.129 230.4925 309.129 230.4705 309.1326C 230.7303 309.1107 230.99 309.0851 231.2461 309.0632C 232.3875 308.9316 233.5874 308.8511 234.6922 308.6062C 228.6963 310.2659 222.47 311.5417 216.218 311.549C 216.2985 311.527 216.379 311.5051 216.4595 311.4795C 213.4158 312.0132 210.3283 312.6676 207.2115 312.6091" stroke="none" fill="#2C2C2C" fill-rule="nonzero" />
    <path id=""  transform="matrix(1 0 0 -1 0 449)"  d="M132.8248 327.5313C 131.7932 324.1389 131.5151 320.5857 132.1114 317.0836C 132.1114 317.0909 132.1114 317.0982 132.1114 317.1019C 132.5687 317.7635 133.1467 324.7787 132.8248 327.5313" stroke="none" fill="#2C2C2C" fill-rule="nonzero" />
    <path id=""  transform="matrix(1 0 0 -1 0 449)"  d="M155.5827 264.7133C 155.5827 264.7242 155.5754 264.7389 155.5717 264.7535C 153.011 272.4815 150.5782 280.3081 146.9127 287.5791C 146.5871 289.8749 146.1956 292.156 145.742 294.4225C 143.3861 280.023 143.4666 265.046 146.47 250.7635C 148.4016 261.8875 148.6211 273.3588 147.3004 284.5962C 148.2882 281.668 149.6307 278.8349 150.6697 275.936C 151.683 273.2345 152.6049 270.4928 153.6072 267.784C 152.7841 265.0386 152.5793 262.0557 152.7805 259.1275C 150.8782 257.8078 148.7784 256.6198 147.3443 254.7664C 149.3344 255.98 151.5989 256.9963 152.7805 259.1129C 152.8829 257.6506 153.0841 256.2067 153.3622 254.8102C 153.6548 259.091 153.9402 263.3863 153.6512 267.6634C 154.7742 264.6255 156.0034 261.628 157.5691 258.7839C 156.9948 260.7652 156.1717 262.7173 155.5827 264.7133" stroke="none" fill="#2C2C2C" fill-rule="nonzero" />
    <path id=""  transform="matrix(1 0 0 -1 0 449)"  d="M155.5973 264.6731C 155.59 264.6987 155.5827 264.7206 155.5754 264.7462C 155.579 264.7352 155.5827 264.7242 155.5827 264.7133C 155.59 264.6913 155.5973 264.6731 155.6046 264.6512C 155.601 264.6584 155.5973 264.6658 155.5973 264.6731" stroke="none" fill="#2C2C2C" fill-rule="nonzero" />
    <path id=""  transform="matrix(1 0 0 -1 0 449)"  d="M155.5717 264.7608C 155.5717 264.7571 155.5717 264.7535 155.5717 264.7535C 155.5754 264.7498 155.5754 264.7498 155.5754 264.7462C 155.5717 264.7498 155.5717 264.7571 155.5717 264.7608" stroke="none" fill="#2C2C2C" fill-rule="nonzero" />
    <path id=""  transform="matrix(1 0 0 -1 0 449)"  d="M107.967 201.2373C 110.5168 199.0987 113.9666 197.4537 117.248 196.8578C 115.4445 198.2068 107.7805 201.1861 108.4865 203.2734C 108.6072 204.5017 109.0499 205.964 108.1097 206.9766C 109.0572 205.0866 106.5001 203.0102 107.967 201.2373" stroke="none" fill="#2C2C2C" fill-rule="nonzero" />
    <path id=""  transform="matrix(1 0 0 -1 0 449)"  d="M150.2197 104.2904C 157.7776 101.4537 170.8229 95.48041 176.0762 95.54257C 157.3021 100.7043 140.0608 110.3332 121.4769 115.9445C 130.4945 110.8267 140.6644 108.2239 150.2197 104.2904" stroke="none" fill="#2C2C2C" fill-rule="nonzero" />
    <path id=""  transform="matrix(1 0 0 -1 0 449)"  d="M178.326 97.90408C 167.0403 102.4078 155.3705 105.8916 144.0044 110.187C 136.783 112.3145 129.6238 117.3117 122.2927 117.7943C 122.3256 117.553 123.2768 117.4068 123.1487 117.4653C 131.7968 113.6196 140.7339 110.494 149.7112 107.5001C 149.7039 107.5037 149.7002 107.5037 149.6929 107.5074C 151.9135 106.769 154.1414 106.0451 156.3656 105.3213C 156.3582 105.3213 156.3509 105.325 156.3436 105.3286C 156.3582 105.3213 156.3692 105.3177 156.3839 105.314C 160.0165 104.2758 181.8854 95.99585 178.326 97.90408" stroke="none" fill="#2C2C2C" fill-rule="nonzero" />
    <path id=""  transform="matrix(1 0 0 -1 0 449)"  d="M156.4021 105.3104C 156.3948 105.3104 156.3912 105.314 156.3839 105.314C 156.3802 105.314 156.3802 105.3177 156.3765 105.3177C 156.3839 105.314 156.3948 105.3104 156.4021 105.3104" stroke="none" fill="#2C2C2C" fill-rule="nonzero" />
    <path id=""  transform="matrix(1 0 0 -1 0 449)"  d="M289.6499 98.90936C 274.2158 99.39923 259.056 95.68878 243.6292 95.6705C 224.5113 94.75659 205.1482 96.36142 186.1985 93.3309C 193.3065 92.61441 200.451 93.84271 207.5663 94.06204C 219.5873 94.48242 231.6156 94.55188 243.6366 94.90649C 253.3638 95.07465 263.0033 96.16037 272.6391 97.38864C 276.8314 98.11612 289.5475 98.0101 289.6499 98.90936" stroke="none" fill="#2C2C2C" fill-rule="nonzero" />
    <path id=""  transform="matrix(1 0 0 -1 0 449)"  d="M278.591 102.0715C 250.9055 99.7319 223.187 97.81268 195.3844 97.94794C 192.3151 97.71033 181.1611 97.22415 189.6482 96.65387C 221.9944 96.59171 254.2381 99.89639 286.4965 101.8156C 283.8882 102.0422 281.2213 102.0386 278.591 102.0715" stroke="none" fill="#2C2C2C" fill-rule="nonzero" />
    <path id=""  transform="matrix(1 0 0 -1 0 449)"  d="M437.5306 105.4273C 437.527 105.7125 437.5453 106.0232 437.5416 106.2974C 437.0331 105.1276 436.4771 103.3765 438.1379 102.9342C 438.1342 102.9342 438.1269 102.9379 438.1233 102.9415C 440.1572 102.1629 441.2401 100.485 440.1097 98.4451C 444.1776 103.4204 437.2307 102.4773 437.5306 105.4273" stroke="none" fill="#2C2C2C" fill-rule="nonzero" />
    <path id=""  transform="matrix(1 0 0 -1 0 449)"  d="M472.818 109.7519C 479.3443 109.825 485.8669 110.0919 492.364 110.728C 492.792 110.7572 492.7591 111.4481 492.3128 111.4079C 475.5105 109.8762 458.4375 111.8795 441.7522 109.3644C 441.7449 109.8031 441.5181 110.2527 440.9803 110.6548C 439.9707 111.0497 439.6085 111.5176 439.5061 112.1317C 449.1089 111.0058 458.8362 112.1866 468.4793 112.3109C 475.2398 112.5156 482.0002 112.8738 488.735 113.4989C 489.5106 113.7987 494.7382 113.583 493.5932 114.5334C 475.6019 112.7239 457.4497 113.9485 439.4731 112.4242C 439.4512 112.8446 439.5134 113.3307 439.55 113.8937C 440.973 113.9815 442.3961 114.0656 443.8191 114.146C 458.6826 113.5172 507.1689 115.4145 488.446 115.7106C 482.1319 115.2244 475.7849 115.25 469.4378 115.3304C 471.6218 115.4181 473.8057 115.5059 475.9934 115.5936C 499.7719 117.6407 495.9747 119.6915 474.8666 118.9677C 451.0112 116.5002 426.8815 117.2459 403.1249 114.0399C 386.5896 111.6674 420.8637 112.1975 425.2645 112.8738C 429.9763 113.265 434.6955 113.594 439.4109 113.8864C 439.0561 113.2906 438.8732 112.7934 438.811 112.3657C 438.5842 112.3474 438.3537 112.3291 438.1269 112.3072C 438.3501 112.2743 438.5732 112.2487 438.7964 112.2195C 438.5988 109.6167 443.1899 109.9274 439.3415 107.3721C 432.4822 108.3336 425.4877 108.1142 418.5846 107.7487C 391.8794 104.9411 364.867 106.1658 338.257 102.7807C 335.6596 102.3274 333.0476 101.8704 330.4905 101.2636C 322.7277 104.9302 314.2333 106.6995 305.6876 107.4343C 308.563 125.928 306.6095 144.7032 306.5107 163.3249C 305.4828 184.7322 307.9301 206.5013 303.9573 227.649C 300.6905 208.2706 303.2878 188.4975 302.9805 168.9545C 303.5695 148.4758 301.6197 127.7266 305.245 107.4708C 305.1243 107.4818 304.9999 107.4927 304.8792 107.5037C 297.3981 108.8161 289.7231 108.52 282.1578 108.1983C 266.8737 107.2953 251.5713 106.4034 236.2615 106.1694C 219.7263 105.8221 203.0228 106.2316 186.7546 102.8355C 203.4142 100.697 220.1616 102.5065 236.8359 103.4423C 250.3567 104.4184 263.9215 104.4549 277.468 104.8644C 265.6738 103.7823 253.8723 102.7295 242.0635 101.907C 242.0672 101.907 242.0745 101.907 242.0781 101.907C 240.9843 101.8741 239.8869 101.8339 238.793 101.801C 229.1024 101.8229 219.4373 101.5012 209.7686 100.8834C 202.796 100.5142 195.6478 101.6511 188.8215 99.83789C 200.5425 99.15063 212.2927 99.91467 223.9918 100.8432C 234.5897 101.015 245.1986 101.0077 255.7417 102.2726C 267.6382 103.5374 279.6849 103.4789 291.479 105.4785C 291.7461 105.4931 292.0095 105.5114 292.2729 105.526C 292.1485 105.5151 292.0241 105.5041 291.8961 105.4968C 295.1299 105.7088 298.3528 106.0853 301.5319 106.7068C 310.9445 103.0731 320.9864 100.5471 331.1087 100.92C 340.8214 99.84521 350.6437 99.99509 360.3637 100.9492C 382.7192 102.9342 405.1662 103.5666 427.5473 105.0471C 431.7982 105.4566 436.0271 106.1402 440.1536 107.2551C 440.0438 107.2697 439.9377 107.288 439.8317 107.3027C 440.8047 107.5841 441.6718 108.3701 441.7486 109.2219C 452.0941 108.5053 462.4579 109.7592 472.818 109.7519" stroke="none" fill="#2C2C2C" fill-rule="nonzero" />
    <path id=""  transform="matrix(1 0 0 -1 0 449)"  d="M499.0512 197.2344C 499.1098 197.5414 499.172 197.8522 499.2195 198.1556C 499.161 197.8485 499.1025 197.5451 499.0476 197.2417C 499.0293 197.4793 499.011 197.7169 498.9927 197.9545C 498.9818 197.5597 498.9744 197.1649 498.9671 196.7701C 498.9598 196.7408 498.9561 196.7079 498.9488 196.6787C 498.9561 196.7079 498.9598 196.7408 498.9671 196.7701C 498.6049 178.9307 499.5341 161.0475 499.7939 143.2081C 500.4999 132.4569 497.3538 121.2305 500.5621 110.7718C 500.3426 139.5342 501.4547 168.5378 499.0512 197.2344" stroke="none" fill="#2C2C2C" fill-rule="nonzero" />
    <path id=""  transform="matrix(1 0 0 -1 0 449)"  d="M497.3831 197.4354C 497.3831 197.4318 497.3794 197.4245 497.3794 197.4171C 497.3831 197.4245 497.3831 197.4281 497.3831 197.4354" stroke="none" fill="#2C2C2C" fill-rule="nonzero" />
    <path id=""  transform="matrix(1 0 0 -1 0 449)"  d="M451.2307 266.3985C 452.266 265.3347 453.1696 264.1577 454.0695 262.9805C 452.6208 262.8197 451.1283 262.8343 449.7016 262.5711C 456.4547 260.8456 457.0363 263.1121 451.2307 266.3985" stroke="none" fill="#2C2C2C" fill-rule="nonzero" />
		</g>
	</g>
</g>
</svg>