<?xml version="1.0" standalone="no"?>
<!DOCTYPE svg PUBLIC "-//W3C//DTD SVG 1.0//EN" "http://www.w3.org/TR/2001/REC-SVG-20010904/DTD/svg10.dtd">
<svg xmlns="http://www.w3.org/2000/svg" xmlns:xlink="http://www.w3.org/1999/xlink" id="body_1" width="800" height="599">

<defs>
    <clipPath  id="1">

    <path id=""  clip-rule="evenodd" transform="matrix(1 0 0 1 0 0)"  d="M0 449L0 -1L0 -1L600 -1L600 -1L600 449L600 449L0 449z" />    </clipPath>
    <clipPath  id="2">

    <path id=""  clip-rule="evenodd" transform="matrix(1 0 0 1 0 0)"  d="M0 -1L600 -1L600 -1L600 449L600 449L0 449z" />    </clipPath>
    <clipPath  id="3">

    <path id=""  clip-rule="evenodd" transform="matrix(1 0 0 1 0 0)"  d="M0 -1L600 -1L600 -1L600 449L600 449L0 449z" />    </clipPath>
    <clipPath  id="4">

    <path id=""  clip-rule="evenodd" transform="matrix(1 0 0 1 0 0)"  d="M198.8095 98.75095L385.5595 98.75095L385.5595 98.75095L385.5595 367.2509L385.5595 367.2509L198.8095 367.2509z" />    </clipPath>
</defs>

<g transform="matrix(1.3333 0 0 1.3333 0 0)">
	<g clip-path="url(#1)" >
		<g clip-path="url(#2)" >
    <path id=""  transform="matrix(1 0 0 -1 0 449)"  d="M0 450L600 450L600 450L600 0L600 0L0 0z" stroke="none" fill="#FFFFFF" fill-rule="nonzero" />
		</g>
		<g clip-path="url(#3)" >
    <path id=""  transform="matrix(1 0 0 -1 0 449)"  d="M0 450L600 450L600 450L600 0L600 0L0 0z" stroke="none" fill="#FFFFFF" fill-rule="nonzero" />
		</g>
		<g clip-path="url(#4)" >
    <path id=""  transform="matrix(1 0 0 -1 0 449)"  d="M315.7126 337.0314C 315.6049 337.1449 315.467 337.2764 315.3352 337.39C 313.4355 339.0039 308.8329 341.9268 304.554 344.3655C 303.3854 345.0289 302.2467 345.6565 301.1859 346.2065C 298.7649 347.4557 296.8052 348.3284 296.1099 348.448C 295.1392 348.6035 294.1443 348.5675 293.1675 348.4121C 291.6393 348.167 290.135 347.647 288.7327 347.0972C 288.2354 346.8999 286.1678 345.5071 284.0881 344.0607C 282.1824 342.7278 280.2708 341.335 279.5696 340.7013C 278.0714 339.5118 277.1665 338.3702 276.663 337.2883C 275.8301 335.519 276.0457 333.9949 276.2195 332.9608C 276.3573 332.1539 277.0465 331.5859 278.0533 331.1377C 279.9351 330.2949 282.8118 329.8766 286.1678 329.8586C 287.9476 329.8467 289.8594 329.9602 291.8131 330.1694C 296.7512 330.6953 301.983 331.8611 306.3699 333.1042C 308.6412 333.7499 310.6727 334.4371 312.3147 335.1187C 313.6212 335.6565 314.6759 336.1647 315.3412 336.6906C 315.485 336.8043 315.6168 336.9178 315.7126 337.0314zM277.9454 342.6022C 278.7245 343.2239 280.792 344.5985 282.8717 345.8958C 285.1909 347.3481 287.5222 348.7051 288.0735 348.8964C 289.6138 349.4222 291.2677 349.9125 292.9337 350.1096C 294.0903 350.2472 295.259 350.2412 296.3916 350.014C 297.2965 349.8467 300.1852 348.4121 303.583 346.625C 306.9991 344.8258 310.9484 342.6979 313.765 340.9525C 315.5989 339.8168 316.9712 338.8306 317.5105 338.2388C 317.9421 337.7606 318.014 337.3063 317.996 337.0314C 317.954 336.4575 317.6365 335.824 316.9833 335.2023C 316.348 334.6105 315.3472 333.9769 314.0408 333.3851C 312.6324 332.7457 310.8525 332.124 308.8389 331.5681C 305.2191 330.5758 300.8204 329.7928 296.4155 329.2728C 294.6057 329.0636 292.7958 328.9082 291.0399 328.7887C 289.8054 328.7051 288.6008 328.6451 287.4382 328.6033C 283.8125 328.4718 280.6003 328.6212 278.323 329.2788C 276.0938 329.9185 274.7333 331.072 274.3856 332.5962C 274.08 333.8993 273.7385 335.83 274.6553 338.155C 275.1947 339.5178 276.1956 341.0122 277.9454 342.6022z" stroke="none" fill="#000000" fill-rule="evenodd" />
    <path id=""  transform="matrix(1 0 0 -1 0 449)"  d="M285.5204 342.8241C 285.3467 342.8934 285.0231 342.7362 284.6575 342.4911C 283.9623 342.0255 283.1293 341.2514 282.8956 341.0757C 282.3861 340.6662 281.8048 340.2126 281.2595 339.6806C 280.8101 339.2371 280.4504 338.7314 280.1029 338.2371C 280.031 338.1426 279.9711 338.0476 279.8992 337.9573C 279.7373 337.7487 279.5695 337.5569 279.4436 337.3405C 278.8503 336.4295 278.5988 335.4212 278.7904 334.5449C 279.0062 333.5604 279.7013 332.7846 280.9479 332.5126C 279.4917 332.5042 278.5627 333.2652 278.0833 334.31C 277.6038 335.3572 277.6517 336.6943 278.1553 337.9968C 278.3051 338.3291 278.4847 338.665 278.7306 338.9609C 278.8864 339.1426 279.0662 339.3046 279.2578 339.4588C 279.8751 339.9573 280.5942 340.3339 281.3015 340.7176C 281.7748 340.9776 282.2244 341.2395 282.6439 341.4636C 282.9016 341.6035 283.8365 342.2466 284.5856 342.6083C 284.9991 342.8055 285.3528 342.9197 285.5204 342.8241z" stroke="none" fill="#000000" fill-rule="evenodd" />
    <path id=""  transform="matrix(1 0 0 -1 0 449)"  d="M300.6525 334.4863L300.9463 334.5276L300.9463 334.5276L301.7612 334.6537L301.7612 334.6537L303.8467 335.0338C 304.2782 335.1193 304.7396 335.1779 305.2131 335.2675C 306.0342 335.4212 306.8612 335.6543 307.7001 335.8521C 307.9039 335.8994 308.1018 335.9513 308.3054 335.9824C 308.9287 336.0804 309.546 336.1211 310.1152 336.2675C 310.3311 336.3243 310.5468 336.3757 310.7506 336.451C 310.9724 336.5323 311.1342 336.5712 311.1581 336.7087C 311.188 336.9047 311.1042 337.1265 310.9484 337.3578C 310.4089 338.1797 309.3064 339.0404 308.8987 339.402C 309.4921 339.0703 311.248 338.2114 311.8174 337.3279C 312.2308 336.6902 312.147 336.0638 311.2361 335.4792C 310.6367 335.1079 309.9595 334.8151 309.2163 334.6148C 308.9227 334.5365 308.623 334.4648 308.3174 334.4385C 307.4185 334.3626 306.5195 334.5144 305.6385 334.5551C 305.0273 334.5831 304.446 334.5826 303.9008 334.5718L303.9008 334.5718L301.7792 334.4971L301.7792 334.4971L300.9521 334.4851L300.9521 334.4851L300.6525 334.4863z" stroke="none" fill="#000000" fill-rule="evenodd" />
    <path id=""  transform="matrix(1 0 0 -1 0 449)"  d="M312.8062 324.2861C 312.7283 324.3094 312.6324 324.1982 312.5365 324.0398C 312.3627 323.7577 312.1888 323.3267 312.141 323.234L312.141 323.234L309.9056 319.0458C 309.4082 318.0219 308.7311 316.9328 308.2156 315.8085C 307.8739 315.0691 307.6104 314.3153 307.5205 313.5556C 307.4005 312.515 307.8141 311.3656 308.4733 310.2771C 309.4381 308.6805 310.9424 307.2322 312.063 306.3763C 312.9739 305.6859 314.0466 305.2741 315.1794 304.9692C 315.8566 304.7858 316.5516 304.6524 317.2529 304.5317C 318.3556 304.341 319.4583 304.1874 320.495 304.0559C 324.1388 303.5448 327.9562 303.4187 331.7797 303.5933C 335.6151 303.7684 339.4387 304.2418 343.0702 304.9465C 339.4745 304.0075 335.6691 303.2831 331.8336 302.8676C 327.9622 302.4486 324.0728 302.3506 320.3392 302.6459C 319.2725 302.7439 318.1279 302.8234 316.9891 303.0207C 316.234 303.1521 315.479 303.3344 314.7538 303.5777C 313.4834 304.0045 312.3027 304.619 311.3319 305.4964C 310.2173 306.5018 308.7849 308.1808 307.8739 309.9417C 307.2268 311.1922 306.8312 312.4803 307.017 313.625C 307.1488 314.4259 307.4604 315.2137 307.856 315.9824C 308.4194 317.087 309.1505 318.151 309.6898 319.1564L309.6898 319.1564L312.093 323.2598C 312.147 323.3506 312.3386 323.7732 312.5244 324.0482C 312.6265 324.2042 312.7283 324.313 312.8062 324.2861z" stroke="none" fill="#000000" fill-rule="evenodd" />
    <path id=""  transform="matrix(1 0 0 -1 0 449)"  d="M258.2168 282.1647L258.99 281.332C 259.3254 280.9339 259.649 280.5251 259.9967 280.136C 260.2303 279.8795 260.4642 279.6327 260.7278 279.4037C 261.7046 278.5508 262.8253 277.7176 264.0239 277.0188C 265.2106 276.3272 266.4691 275.7744 267.7095 275.4402C 269.5793 274.9788 271.5031 274.7086 273.4447 274.3864C 274.3018 274.2442 275.1588 274.0708 276.0217 273.9196C 278.0293 273.567 280.0549 273.2459 282.0864 273.023C 285.3826 272.662 288.6727 272.4814 291.8669 272.4235C 287.0846 272.0684 282.0447 271.8957 277.0885 272.3607C 275.7701 272.4844 274.4456 272.6261 273.1571 272.8975C 271.1914 273.3123 269.3097 273.9734 267.4698 274.6715C 266.2053 275.1228 264.9469 275.809 263.7662 276.6159C 262.6035 277.4103 261.5129 278.3153 260.578 279.2418C 260.3264 279.491 260.0925 279.7576 259.877 280.0332C 259.5532 280.4432 259.2537 280.8718 258.9359 281.2896L258.9359 281.2896L258.2168 282.1647z" stroke="none" fill="#000000" fill-rule="evenodd" />
    <path id=""  transform="matrix(1 0 0 -1 0 449)"  d="M324.2046 290.1683C 324.1207 290.1229 324.1567 290.0834 324.2406 290.0487C 324.4144 289.9794 324.804 289.9286 324.9838 289.8862L324.9838 289.8862L326.5897 289.5981L326.5897 289.5981L331.3302 288.8443C 332.1692 288.7038 333.0621 288.6273 333.925 288.4492C 334.5244 288.326 335.1058 288.1527 335.6392 287.8825C 336.8977 287.2633 338.3179 285.7618 339.4266 284.0702C 340.5833 282.3087 341.3563 280.3333 341.2664 278.8377C 341.1586 277.5777 340.4154 276.5406 339.3486 275.7558C 338.0002 274.757 336.1306 274.1874 334.86 273.7636C 331.7737 272.7714 328.6334 272.0045 325.4392 271.5054C 322.2689 271.0086 319.0568 270.7755 315.8265 270.8395C 319.0328 270.9973 322.2031 271.4492 325.3134 272.1569C 328.4116 272.861 331.4501 273.8186 334.4165 274.9973C 335.5553 275.4378 337.2034 276.0738 338.4377 276.9859C 339.1628 277.5209 339.7742 278.1348 339.8882 278.9895C 340.0918 280.2669 339.5465 282.0248 338.6776 283.6219C 337.7726 285.2806 336.52 286.7612 335.3875 287.4151C 334.902 287.6895 334.3745 287.8736 333.8232 288.0146C 332.9783 288.2316 332.0913 288.3488 331.2643 288.5281L331.2643 288.5281L326.5659 289.4874L326.5659 289.4874L324.9717 289.8461C 324.7979 289.8963 324.4084 289.9644 324.2406 290.0415C 324.1508 290.0816 324.1147 290.124 324.2046 290.1683z" stroke="none" fill="#000000" fill-rule="evenodd" />
    <path id=""  transform="matrix(1 0 0 -1 0 449)"  d="M257.2339 260.5341L255.2863 258.9423C 254.4473 258.3147 253.6023 257.7068 252.7452 257.1061C 251.4629 256.2035 250.1683 255.3237 248.8618 254.4545C 247.022 253.1605 245.1703 251.9232 243.2046 250.8646C 242.6173 250.5478 242.0121 250.2681 241.4008 249.9901C 239.9863 249.3439 238.5481 248.763 237.1158 248.1467C 236.5344 247.8981 235.3778 247.5699 234.455 247.0822C 233.8856 246.7821 233.3882 246.4473 233.2743 245.9889C 233.1125 245.3685 233.562 244.6966 234.1672 244.0588C 235.1022 243.069 236.4506 242.1933 237.0619 241.7881C 236.2948 242.1915 234.4849 243.1395 233.4481 244.2375C 232.8909 244.8329 232.5792 245.4826 232.675 246.1085C 232.7471 246.607 233.1125 247.0624 233.6219 247.4671C 234.5509 248.2017 235.9832 248.7558 236.6484 249.118C 238.2185 249.956 239.7527 250.8281 241.3347 251.6285C 242.042 251.9871 242.7611 252.3224 243.4802 252.656C 245.1643 253.4342 246.8484 254.1736 248.5024 255.0439C 249.635 255.6853 250.7616 256.3302 251.8823 256.9985C 253.0031 257.6667 254.0996 258.3559 255.1964 259.0696L255.1964 259.0696L257.2339 260.5341z" stroke="none" fill="#000000" fill-rule="evenodd" />
    <path id=""  transform="matrix(1 0 0 -1 0 449)"  d="M264.5752 232.225C 264.5692 232.1778 264.8749 232.152 265.2705 232.1389C 265.9357 232.1162 266.8525 232.1287 266.9305 232.1335C 268.3748 232.2136 269.813 232.3337 271.2454 232.4994C 272.6776 232.6643 274.104 232.8753 275.5243 233.1246C 276.4473 233.2925 277.3641 233.479 278.2871 233.7037C 280.3846 234.216 282.4521 234.944 284.5497 235.6446C 285.4365 235.9387 286.3295 236.216 287.2224 236.5083C 289.2959 237.1879 291.3695 237.8998 293.3951 238.7235C 297.3445 240.3284 301.132 242.2304 304.6018 244.3637C 299.6577 240.757 293.9764 237.5269 288.0076 235.2244C 287.2944 234.9489 286.5752 234.6846 285.8501 234.4581C 285.3647 234.3057 284.8673 234.1754 284.3759 234.0516C 282.3323 233.5406 280.2826 233.1927 278.2511 232.8939C 277.3641 232.7635 276.4893 232.6374 275.6143 232.5418C 274.1699 232.3732 272.7256 232.2471 271.2754 232.1586C 269.8311 232.0707 268.3868 232.0193 266.9365 232.0134C 266.8525 232.0128 265.9357 232.0469 265.2705 232.103C 264.8749 232.1365 264.5632 232.1783 264.5752 232.225z" stroke="none" fill="#000000" fill-rule="evenodd" />
    <path id=""  transform="matrix(1 0 0 -1 0 449)"  d="M316.5516 234.0516C 316.4258 234.0845 316.2521 233.9925 316.0724 233.8496C 315.7188 233.5729 315.3292 233.1066 315.1674 232.9733C 314.4303 232.3643 313.6812 231.7701 312.926 231.1873C 312.171 230.6039 311.4098 230.0325 310.6307 229.47C 309.2704 228.4796 307.3586 227.7839 305.7644 226.8622C 305.0813 226.4641 304.458 226.0217 303.9725 225.4916C 303.2415 224.6816 302.7262 223.6488 302.3306 222.5119C 301.7192 220.7414 301.4376 218.7259 301.0961 216.8986C 300.9282 216.0104 300.7365 215.1682 300.5266 214.4109C 300.203 213.3804 299.442 211.9357 299.0284 210.5424C 298.7827 209.7175 298.6329 208.916 298.9266 208.265C 299.1244 207.8185 299.4958 207.4736 299.9393 207.1843C 300.7004 206.681 301.6354 206.3337 302.3365 206.0002C 304.5 204.9739 306.7714 204.2955 309.0906 203.8323C 311.4397 203.366 313.8311 203.1168 316.2222 202.9536C 313.3275 202.9661 310.4209 203.1036 307.5863 203.5991C 305.6686 203.9327 303.7928 204.4305 301.9711 205.158C 301.204 205.4628 300.203 205.7748 299.364 206.2537C 298.7048 206.6302 298.1594 207.1185 297.8298 207.7432C 297.4763 208.4336 297.4224 209.2692 297.5602 210.1586C 297.8 211.785 298.7168 213.6099 299.0524 214.8424C 299.3101 215.6595 299.5259 216.5878 299.7655 217.5543C 300.1132 218.9232 300.5087 220.3619 301.0061 221.7157C 301.6053 223.3666 302.3665 224.8813 303.4873 225.9542C 304.0446 226.5011 304.7396 226.9476 305.5007 227.3433C 307.1249 228.1849 309.0605 228.7946 310.4569 229.7199C 311.254 230.2489 312.0389 230.7875 312.8181 231.338C 313.5912 231.8896 314.3583 232.4528 315.1254 233.0302C 315.2872 233.1563 315.6947 233.6052 316.0603 233.8663C 316.246 234.0038 316.4258 234.0899 316.5516 234.0516z" stroke="none" fill="#000000" fill-rule="evenodd" />
    <path id=""  transform="matrix(1 0 0 -1 0 449)"  d="M351.6821 197.2937L352.7489 197.601L352.7489 197.601L354.7444 198.3344L354.7444 198.3344L360.5995 200.7258C 362.2776 201.4485 364.0994 202.1574 365.9272 202.9601C 367.6711 203.7229 369.3972 204.5854 371.0751 205.4963C 371.968 205.9823 372.8311 206.5035 373.682 207.0212C 374.9824 207.8173 376.241 208.6279 377.3318 209.5931C 378.0449 210.213 378.2367 210.907 378.1107 211.6183C 377.9669 212.4318 377.4816 213.2501 376.9302 213.9954C 375.8994 215.3977 374.7308 216.6804 373.4783 217.8926C 371.5906 219.7288 369.535 221.3995 367.5153 223.069C 369.6548 221.5406 371.8362 220.0134 373.8558 218.3087C 375.2223 217.1604 376.5106 215.9333 377.6672 214.5753C 378.5483 213.5424 379.2675 212.3469 379.3273 211.1682C 379.3752 210.3015 379.0697 209.4384 378.2427 208.6188C 377.4036 207.7994 376.4807 207.0349 375.4739 206.3511C 374.8267 205.9117 374.1555 205.4993 373.4484 205.1287C 371.0632 203.8777 368.4082 202.996 365.8492 202.1078C 364.0874 201.4957 362.3676 200.8968 360.7614 200.3116L360.7614 200.3116L354.7924 198.1921L354.7924 198.1921L352.7609 197.5471L352.7609 197.5471L351.6821 197.2937z" stroke="none" fill="#000000" fill-rule="evenodd" />
    <path id=""  transform="matrix(1 0 0 -1 0 449)"  d="M279.6295 190.1652C 279.0901 190.21 278.5027 190.109 277.9154 189.9452C 277.0525 189.7037 276.1836 189.329 275.4585 189.0863C 273.9423 188.5806 272.444 188.0385 270.9518 187.4652C 269.4656 186.8914 267.9912 186.2871 266.517 185.6721C 263.7961 184.4766 261.0935 183.4162 258.3187 182.6081C 257.0601 182.2416 255.7837 181.9565 254.5013 181.6696C 251.5527 181.0068 248.5802 180.4532 245.5718 179.7695C 244.3851 179.5011 243.2046 179.1849 242.0601 178.7791C 240.9153 178.3719 239.8066 177.8788 238.746 177.2566C 238.2725 176.9769 237.6671 176.6158 237.2117 176.1604C 236.9 175.8508 236.6544 175.4993 236.5585 175.1012C 236.6244 175.5124 236.8461 175.8872 237.1398 176.2244C 237.5713 176.7216 238.1586 177.1347 238.6201 177.4545C 239.6449 178.1658 240.7415 178.7503 241.8741 179.2495C 243.0068 179.7485 244.1814 180.1586 245.3739 180.5214C 248.8918 181.5788 252.3618 182.5352 255.8257 183.5107C 256.347 183.6571 256.8684 183.8035 257.3898 183.9392C 257.9172 184.0743 258.4385 184.198 258.9659 184.3248C 261.3989 184.91 263.8262 185.5226 266.2593 186.3254C 268.0752 186.9673 269.891 187.5865 271.7189 188.1705C 272.9413 188.5591 274.1639 188.9332 275.3984 189.2794C 276.1356 189.488 277.0225 189.8221 277.8975 190.0229C 278.4967 190.1604 279.084 190.2357 279.6295 190.1652z" stroke="none" fill="#000000" fill-rule="evenodd" />
    <path id=""  transform="matrix(1 0 0 -1 0 449)"  d="M333.1282 185.5489L333.5056 185.1855L333.5056 185.1855L334.3926 184.4832L334.3926 184.4832L336.9695 182.6349L336.9695 182.6349L339.1271 181.1293C 340.2117 180.4144 343.0582 179.1765 344.5565 177.6332C 345.4076 176.7575 345.821 175.7742 345.4854 174.7097C 345.1677 173.6786 344.4426 172.7515 343.5377 171.9458C 342.9324 171.409 342.2493 170.9243 341.5482 170.519C 340.8109 170.0874 340.0499 169.7563 339.4087 169.4664C 336.4542 168.2046 333.3138 167.1448 330.1017 166.3349C 326.9075 165.5267 323.6653 164.9709 320.483 164.678C 323.6113 165.21 326.7876 166.0229 329.8859 167.0593C 332.9723 168.0898 335.9747 169.3427 338.7794 170.7897C 339.3846 171.085 340.0739 171.4581 340.7871 171.8555C 341.4222 172.21 342.0754 172.5818 342.6627 173.0163C 343.4598 173.6057 344.155 174.2632 344.5027 175.0707C 344.9102 176.0169 344.2869 176.9272 343.3939 177.7557C 341.9617 179.091 339.7921 180.1675 338.9113 180.8232L338.9113 180.8232L336.8257 182.4425L336.8257 182.4425L334.3447 184.4162L334.3447 184.4162L333.4816 185.1646L333.4816 185.1646L333.1282 185.5489z" stroke="none" fill="#000000" fill-rule="evenodd" />
    <path id=""  transform="matrix(1 0 0 -1 0 449)"  d="M215.002 141.3367C 214.7863 141.3725 214.5105 141.1932 214.2229 140.9242C 213.6655 140.4042 213.0723 139.5494 212.8446 139.3104C 211.9097 138.3062 210.9387 137.3438 210.0338 136.3277C 209.4286 135.6523 208.8533 134.9529 208.3319 134.2057C 207.9723 133.6917 207.6127 133.082 207.6008 132.4902C 207.5889 132.1436 207.7267 131.8148 208.0681 131.5219C 209.099 130.6613 210.4475 130.0754 211.9037 129.657C 214.0911 129.0234 216.5002 128.7784 218.4059 128.4974C 218.8794 128.4138 219.3528 128.342 219.8203 128.2524C 220.9231 128.0491 222.0197 127.822 223.1104 127.6129C 226.796 126.9075 230.4517 126.3038 234.1553 125.981C 237.6732 125.6761 241.2089 125.5925 244.8107 125.8256C 240.304 125.2278 235.8693 125.1323 231.4344 125.3713C 228.3121 125.5446 225.2019 125.8375 222.0796 126.3217C 220.7612 126.5249 219.4429 126.788 218.1183 127.0389C 216.2065 127.5052 213.7974 128.0013 211.6281 128.8142C 210.1118 129.3821 208.7095 130.0933 207.6727 131.0856C 207.1992 131.5279 207.0433 132.0181 207.0793 132.5142C 207.1273 133.1896 207.5469 133.883 207.9904 134.4568C 208.5536 135.192 209.1709 135.8734 209.8121 136.5309C 210.765 137.5112 211.7778 138.4377 212.7546 139.4C 212.9944 139.6332 213.6176 140.458 214.199 140.9541C 214.4987 141.2112 214.7863 141.3845 215.002 141.3367z" stroke="none" fill="#000000" fill-rule="evenodd" />
    <path id=""  transform="matrix(1 0 0 -1 0 449)"  d="M286.0299 133.4885C 285.826 133.5064 285.8921 133.5901 286.0839 133.7037C 286.4253 133.8949 287.1566 134.1879 287.4502 134.397C 287.8698 134.6959 288.2832 135.0127 288.6847 135.3354C 289.0923 135.6583 289.4818 135.9989 289.8712 136.3397C 291.4055 137.7144 293.1195 139.2446 293.6288 140.984C 293.9524 142.0838 293.7666 143.2614 292.7119 144.5285C 291.4354 146.0228 289.8414 146.9493 288.0914 147.5889C 286.7789 148.0671 285.3766 148.342 283.9623 148.6229C 282.5239 148.9158 281.0857 149.2147 279.6893 149.5135C 274.6013 150.715 269.5554 152.0898 264.4674 153.3091C 262.2921 153.8351 260.1106 154.3313 257.9113 154.7736C 260.1345 154.4747 262.3459 154.1221 264.5573 153.7396C 269.7052 152.843 274.8231 151.785 279.9769 150.9003C 281.3794 150.6313 282.8536 150.4341 284.286 150.1054C 285.7662 149.7587 287.1985 149.2864 288.5409 148.6649C 290.3687 147.822 292.0048 146.6744 293.2454 144.947C 294.3779 143.4347 294.5098 142.0778 294.0842 140.8406C 293.473 139.0652 291.6572 137.5351 290.0032 136.1843C 289.6016 135.8555 289.1941 135.5327 288.7747 135.2219C 288.3552 134.9111 287.9296 134.6182 287.4921 134.3313C 287.1864 134.134 286.4434 133.871 286.0958 133.6857C 285.9041 133.5901 285.838 133.5124 286.0299 133.4885z" stroke="none" fill="#000000" fill-rule="evenodd" />
    <path id=""  transform="matrix(1 0 0 -1 0 449)"  d="M293.9404 120.8107C 293.6469 120.8465 293.2273 120.6074 292.7659 120.2607C 291.8789 119.5853 290.8662 118.4974 290.4587 118.1926C 288.3671 116.6026 286.2517 115.0186 284.0702 113.5243C 282.6139 112.5201 281.1337 111.5577 279.6115 110.6731C 278.5568 110.0336 277.484 109.4119 276.3992 108.8142C 275.6741 108.4138 274.943 108.0192 274.2119 107.6426C 273.6786 107.3737 273.1451 107.1107 272.6058 106.8596C 272.0664 106.6146 271.5211 106.3755 270.9697 106.1483C 269.933 105.7598 268.147 105.2996 266.2352 104.7437C 263.8441 104.0503 261.2433 103.2195 259.8409 101.8985C 258.7441 100.8704 258.4805 99.54938 259.7629 97.81598C 259.9907 97.51111 260.2244 97.2182 260.4702 96.9433C 260.7218 96.66833 260.9855 96.41132 261.2671 96.1662C 261.7106 95.78967 262.1781 95.44299 262.6636 95.12018C 263.149 94.7915 263.6523 94.48663 264.1558 94.19379C 265.0367 93.67975 265.9357 93.1955 266.8525 92.73523C 267.7695 92.2691 268.6924 91.8327 269.6273 91.41431C 268.6685 91.77893 267.7155 92.16144 266.7748 92.56793C 265.8278 92.97437 264.8928 93.40472 263.976 93.87097C 263.3408 94.19379 262.7115 94.52844 262.1002 94.90503C 261.6868 95.15607 261.2852 95.42505 260.9016 95.71204C 260.584 95.95105 260.2844 96.21411 260.0027 96.495C 259.7211 96.76996 259.4513 97.06281 259.1996 97.36768C 257.4137 99.50757 257.7734 101.2291 259.1097 102.6337C 260.542 104.14 263.2628 105.2816 265.8098 106.1124C 267.6677 106.7222 269.4236 107.1525 270.4363 107.547L270.4363 107.547L273.6904 108.7604C 274.6313 109.149 275.5663 109.5494 276.4952 109.9798C 277.4241 110.4042 278.3469 110.8525 279.2578 111.3127C 280.8041 112.1196 282.3203 112.9983 283.8065 113.9248C 286.0419 115.3235 288.2113 116.8238 290.3627 118.3241C 290.7762 118.6169 291.825 119.663 292.7358 120.3026C 293.2094 120.6313 293.6469 120.8525 293.9404 120.8107z" stroke="none" fill="#000000" fill-rule="evenodd" />
    <path id=""  transform="matrix(1 0 0 -1 0 449)"  d="M331.1324 122.7951L332.2532 122.4006L332.2532 122.4006L335.2017 121.1813C 336.4542 120.6851 337.6946 120.1591 338.9292 119.6212C 340.1638 119.0832 341.3864 118.5273 342.6147 117.9595L342.6147 117.9595L349.8242 114.5225C 350.903 114.0085 351.9818 113.5004 353.0485 112.9684C 353.7556 112.6157 354.4568 112.2452 355.1641 111.8865C 356.5842 111.0916 357.9927 110.2607 359.3711 109.4C 362.5771 107.3976 365.6875 105.2458 368.8757 103.2135C 369.5948 102.7532 371.0991 102.2332 372.1779 101.5817C 372.7411 101.241 373.1906 100.8704 373.3763 100.452C 373.6102 99.93793 373.5022 99.41193 373.2206 98.91583C 372.837 98.23444 372.1418 97.62469 371.6924 97.23022C 372.106 97.64862 372.7531 98.28821 373.0887 98.98157C 373.3046 99.43585 373.3884 99.90802 373.1548 100.3444C 372.9569 100.7031 372.5254 101.0019 372.004 101.2769C 370.8774 101.8566 369.3252 102.2811 368.5701 102.6995C 365.262 104.5225 362.0018 106.4293 358.6998 108.2584C 357.2914 109.0353 355.8772 109.8065 354.4387 110.5297C 353.9175 110.8226 353.39 111.1035 352.8748 111.4024C 351.6702 112.0957 350.4955 112.825 349.291 113.5303C 347.9126 114.3372 346.5581 115.168 345.1677 115.9571C 344.245 116.4831 343.316 116.9852 342.3751 117.4753C 341.1825 118.0969 339.984 118.7067 338.7794 119.2984C 337.5688 119.8901 336.3583 120.4639 335.1296 121.0139L335.1296 121.0139L332.2352 122.3528L332.2352 122.3528L331.1324 122.7951z" stroke="none" fill="#000000" fill-rule="evenodd" />
    <path id=""  transform="matrix(1 0 0 -1 0 449)"  d="M304.4462 312.0403C 306.8134 305.6326 312.1949 302.4945 318.5415 301.2632C 323.132 300.3785 328.22 300.4384 333.092 301.078C 335.0758 301.3409 337.0234 301.7054 338.8873 302.13C 342.0096 302.8413 344.9042 303.726 347.3612 304.5806C 349.2371 305.2382 354.3311 306.9955 358.1904 309.3206C 359.6047 310.1754 360.8452 311.0959 361.6604 312.0822C 362.2177 312.7515 362.5713 313.439 362.4873 314.1682C 362.3555 315.4354 361.4146 316.6606 360.0424 317.91C 357.6091 320.1036 353.8036 322.2375 349.5187 324.0906C 344.5925 326.2244 339.0671 328.0415 334.2847 329.1354C 329.6702 330.1874 325.7808 330.6057 323.9171 330.1814C 321.7776 329.6672 319.6741 328.986 317.6245 328.173C 315.5688 327.3541 313.5734 326.3977 311.6497 325.3397C 311.4338 325.2202 311.1461 324.8556 310.7626 324.3834C 309.7617 323.1102 308.4254 321.0122 307.2268 318.8425C 306.22 317.0194 305.3151 315.1484 304.8057 313.6899C 304.5599 312.9907 304.8057 312.1061 304.4462 312.0403zM302.0968 311.1975C 301.9351 311.6517 301.8992 312.369 302.1328 313.2656C 302.4745 314.5806 303.3494 316.4814 304.4521 318.4539C 305.8844 321.0242 307.6763 323.726 309.0067 325.3577C 309.7258 326.2423 310.3551 326.8281 310.7446 327.0254C 312.7642 328.0654 314.8557 328.9979 317.0012 329.7869C 319.1466 330.5758 321.3401 331.2274 323.5695 331.6997C 325.5591 332.1479 329.6881 331.6818 334.6143 330.6117C 339.4987 329.5477 345.1919 327.928 350.2738 325.8838C 354.8523 324.0427 358.9515 321.8849 361.5524 319.5896C 363.4462 317.916 364.5608 316.1288 364.7346 314.3953C 364.8306 313.3732 364.5428 312.369 363.9017 311.4126C 363.2604 310.4443 362.2477 309.5118 361.0071 308.6631C 356.8721 305.83 350.13 303.7738 347.8646 303.0684C 345.3357 302.2794 342.3573 301.5083 339.163 300.8508C 337.2573 300.4623 335.2795 300.1156 333.2659 299.8287C 328.2379 299.1174 323.0121 298.8485 318.2477 299.6014C 311.0922 300.7313 305.0215 304.1024 302.0968 311.1975z" stroke="none" fill="#000000" fill-rule="evenodd" />
    <path id=""  transform="matrix(1 0 0 -1 0 449)"  d="M321.1722 294.3475C 321.2681 294.5746 321.424 294.778 321.6398 294.9214C 321.3821 294.754 321.2501 294.5447 321.1722 294.3475zM321.2142 293.3373C 321.1663 293.427 321.1362 293.5226 321.1123 293.6241C 321.0885 293.726 321.0824 293.8335 321.0885 293.9351C 321.0764 293.7439 321.1063 293.5405 321.2142 293.3373zM321.9813 292.6919C 321.9393 292.6439 321.7535 292.7455 321.5737 292.7694C 320.7228 292.8712 318.9369 293.0385 315.7966 293.2955C 313.6571 293.4747 311.5177 293.5226 309.3843 293.4569C 307.2388 293.3911 305.1052 293.2118 302.9718 292.9369C 294.0903 291.7594 285.8801 289.0038 277.2863 287.2285C 273.6125 286.4694 269.8729 285.8717 265.9716 285.6804C 264.2577 285.5847 260.71 285.9375 258.2288 285.2739C 257.3298 285.0349 256.5808 284.6821 256.2692 283.9949C 256.0953 283.6003 256.0894 283.1102 256.2511 282.5005C 256.7306 280.5997 257.7135 278.5913 259.0259 276.864C 260.3203 275.1604 261.9384 273.7319 263.7423 273.0026C 266.2474 271.9805 271.9885 271.2931 279.0242 270.7073C 283.8605 270.3009 289.3021 269.9303 294.7615 269.6912C 302.7201 269.3385 310.7026 269.1652 316.8514 269.3086C 321.0165 269.4103 324.3306 269.6433 326.2123 269.9901C 334.3687 271.6338 342.1774 274.5686 343.6337 279.0935C 344.5446 281.9387 342.6628 285.2262 336.8376 289.1951C 335.9327 289.8108 333.6914 290.4025 331.2644 290.9584C 326.9913 291.9268 322.1312 292.6559 322.1312 292.6559C 322.0773 292.6619 322.0292 292.6738 321.9813 292.6919zM322.7483 295.0708C 323.863 294.8676 329.2267 293.8455 333.3199 292.6798C 335.4174 292.0822 337.1853 291.4246 338.0004 290.8389C 344.6644 286.0211 346.3125 281.8789 345.1738 278.5853C 343.5018 273.7496 335.2556 270.3785 326.452 268.7527C 324.2585 268.3104 320.1415 268.0116 314.9995 267.8263C 307.3885 267.5573 297.5183 267.5094 288.3491 267.8861C 283.8304 268.0654 279.4856 268.3463 275.6682 268.7228C 269.8011 269.3146 265.1626 270.1575 262.9453 271.1018C 260.8478 272.0044 258.954 273.6899 257.4797 275.7162C 256.0535 277.6768 255.0107 279.9542 254.5133 282.0822C 253.9978 284.3057 254.8669 285.6086 256.3889 286.3798C 258.918 287.6588 263.7543 287.121 265.8998 287.2046C 269.7172 287.3839 273.3909 287.928 276.9746 288.6989C 285.5984 290.5519 293.7788 293.5645 302.6841 294.9214C 304.8776 295.2621 307.083 295.4951 309.2883 295.6206C 311.5056 295.7401 313.7291 295.7461 315.9585 295.6206C 319.1586 295.4353 320.9805 295.3098 321.8434 295.2262C 322.251 295.1843 322.4907 295.1425 322.5985 295.1185C 322.6525 295.1067 322.7004 295.0887 322.7483 295.0708z" stroke="none" fill="#000000" fill-rule="evenodd" />
    <path id=""  transform="matrix(1 0 0 -1 0 449)"  d="M230.0322 246.4454C 230.2839 245.2859 231.063 244.1503 232.1357 243.0265C 233.5261 241.568 235.4377 240.1753 237.5413 238.8604C 239.9865 237.3361 242.7013 235.9375 245.2662 234.736C 248.5144 233.2178 251.5107 232.0104 253.3805 231.3408C 260.1345 228.926 268.6266 228.8843 276.9087 230.3666C 279.282 230.7909 281.6431 231.3348 283.9265 232.0044C 289.6855 233.6899 295.0193 236.0809 299.2682 238.6869C 300.2031 239.2727 307.4426 242.889 309.9116 244.8915C 310.0554 245.011 310.2052 245.1544 310.3071 245.262C 309.9236 246.5112 308.665 247.7484 307.2087 248.95C 304.7457 250.9823 301.6294 252.7994 300.0533 253.947C 299.7177 254.204 298.5011 254.6045 296.7152 255.1604C 293.0775 256.2841 287.2883 257.8142 281.3135 259.213C 273.7744 260.9763 265.9418 262.5244 261.7826 262.853C 259.038 263.0444 255.6638 261.9625 252.1161 260.259C 244.7388 256.7086 236.6604 250.51 231.3986 247.342C 231.1589 247.1986 230.7874 247.0193 230.4398 246.7982C 230.3019 246.7084 230.1102 246.5232 230.0322 246.4454zM301.5575 255.9315C 303.3734 254.5208 307.2388 252.1179 309.7617 249.5656C 311.1461 248.173 312.1289 246.7144 312.3567 245.3457C 312.3987 245.0826 312.3748 244.7598 312.1709 244.4132C 311.9072 243.959 311.0862 243.2596 309.9176 242.5243C 306.7593 240.5459 300.9402 237.8142 300.0892 237.3181C 295.6904 234.7421 290.171 232.5005 284.2799 230.8029C 281.9487 230.1334 279.5636 229.5356 277.1604 229.0576C 268.5966 227.36 259.8051 227.1448 252.7334 229.458C 250.7977 230.0917 247.6873 231.2153 244.3373 232.7216C 241.6705 233.9231 238.8538 235.3575 236.3307 236.9476C 234.0594 238.3761 232.0338 239.9423 230.5536 241.55C 229.1692 243.0564 228.2583 244.6163 227.9886 246.1526C 227.8868 246.7622 228.0665 247.3121 228.4741 247.7783C 228.9655 248.3462 229.8944 248.7767 230.3859 249.0576C 235.7374 252.1299 244.0256 258.0952 251.4688 261.6039C 255.3103 263.415 258.9299 264.5806 261.8905 264.3893C 266.1035 264.1443 274.062 262.7216 281.739 261.1198C 289.0204 259.6014 296.0441 257.9159 299.3522 256.8638C 300.5088 256.4933 301.2639 256.1466 301.5575 255.9315z" stroke="none" fill="#000000" fill-rule="evenodd" />
    <path id=""  transform="matrix(1 0 0 -1 0 449)"  d="M293.4131 207.5094C 294.3301 206.2482 296.2657 205.1006 298.8428 203.9888C 303.0017 202.1896 308.761 200.5936 314.9696 199.2727C 322.1312 197.7484 329.886 196.5709 336.5142 195.8477C 339.7502 195.501 342.7167 195.256 345.2098 195.1425C 347.6489 195.0228 349.6326 195.0348 350.969 195.1425C 353.0125 195.3217 355.0502 195.8538 357.0518 196.559C 360.0901 197.6409 363.0507 199.1233 365.8314 200.3964C 368.4862 201.6157 374.1555 203.7976 378.4045 206.7084C 380.0045 207.8022 381.4009 208.9978 382.3179 210.2888C 382.9651 211.2034 383.3666 212.1658 383.3546 213.1759C 383.3486 214.1741 382.8271 214.9392 382.1741 215.6205C 380.9034 216.9476 379.1296 217.9937 378.0448 219.2129C 374.8507 222.8711 369.9905 226.8221 364.3152 230.3845C 359.413 233.4568 353.8995 236.2422 348.2842 238.2506C 342.1594 240.4204 335.9209 241.7234 330.2515 241.4365C 326.0206 241.2213 322.1252 240.1156 318.859 237.9219C 316.1143 236.057 313.3635 234.2279 310.5948 232.4347C 307.8441 230.6594 305.0753 228.926 302.2406 227.2524C 302.1748 227.1627 301.8811 226.7682 301.6414 226.3856C 300.3049 224.2876 297.7579 219.6014 295.8282 215.2739C 294.8395 213.0504 294.0065 210.9225 293.605 209.3026C 293.4672 208.7585 293.3832 208.2805 293.3712 207.8859C 293.3652 207.7424 293.4911 207.5511 293.4131 207.5094zM291.3336 206.1287C 291.01 206.5889 290.8182 207.342 290.9321 208.3522C 291.094 209.7209 291.7831 211.7651 292.766 214.0426C 294.8215 218.8124 298.1296 224.6821 299.8254 227.2704C 300.4608 228.2327 300.9702 228.7885 301.162 228.8962C 304.0325 230.522 306.8492 232.2017 309.642 233.9351C 312.4346 235.6683 315.2034 237.4436 317.9661 239.2488C 321.4839 241.562 325.6549 242.6737 330.1736 242.907C 336.0287 243.2058 342.489 242.0223 348.8474 239.8584C 354.6307 237.9099 360.324 235.1903 365.3939 232.1239C 371.3329 228.5315 376.3969 224.4729 379.7589 220.7191C 381.0293 219.2727 383.2468 218.0533 384.4752 216.3558C 385.1345 215.4353 385.554 214.3953 385.542 213.1759C 385.5179 210.7311 383.9419 208.4597 381.5148 206.5111C 377.0261 202.901 369.6848 200.2769 366.4965 198.908C 363.6499 197.6827 360.6116 196.2601 357.5072 195.238C 355.3798 194.5267 353.2223 194.0067 351.0708 193.8572C 349.6925 193.7556 347.6549 193.7795 345.1559 193.8932C 342.6389 194.0067 339.6484 194.2159 336.3822 194.5148C 329.6942 195.1245 321.8553 196.1227 314.6101 197.4795C 308.2096 198.6809 302.2706 200.1514 297.9618 201.8727C 294.7736 203.146 292.4543 204.6104 291.3336 206.1287z" stroke="none" fill="#000000" fill-rule="evenodd" />
    <path id=""  transform="matrix(1 0 0 -1 0 449)"  d="M233.9636 178.2386C 232.6692 176.4215 232.2137 174.9749 232.4534 173.7794C 232.6511 172.8112 233.3282 172.0701 234.2272 171.4543C 235.8573 170.3485 238.2126 169.6851 240.5317 169.2488C 243.2585 168.7286 245.9553 168.5375 247.5195 168.4358C 255.8856 167.7783 264.1978 168.3282 272.5339 168.2207C 276.1357 168.1729 279.7433 167.9995 283.3571 167.5691C 292.3644 166.5231 301.2098 162.8052 310.2352 161.813C 314.0288 161.3945 317.8462 161.4902 321.7115 162.4406C 326.1942 163.5643 338.5397 165.9193 344.5446 170.3964C 346.2527 171.6696 347.4332 173.1041 347.547 174.7897C 347.6129 175.8118 347.2654 176.9058 346.4623 178.0952C 345.839 179.0216 343.9993 180.5039 341.9736 182.0282C 338.9292 184.3175 335.4294 186.6366 334.4825 187.2643L334.4825 187.2643L334.4764 187.2643C 330.2515 187.8082 326.0326 188.4 321.8136 189.0038C 311.7574 190.4502 301.7253 192.0103 291.6572 193.4388C 286.0598 194.2159 281.1757 193.8153 276.4471 192.5961C 271.6829 191.3588 267.0863 189.3086 262.0583 186.8998C 259.0079 185.4174 246.4348 182.3868 238.9857 180.1215C 237.0918 179.5416 235.5457 179.0216 234.5929 178.5852C 234.3232 178.4657 234.0295 178.2804 233.9636 178.2386zM335.6212 189.4938C 335.6212 189.4938 340.8768 185.8894 344.6106 182.8112C 346.3004 181.4125 347.6848 180.1035 348.2302 179.2548C 349.303 177.5811 349.6865 176.0389 349.5547 174.6343C 349.3569 172.4406 347.9125 170.5099 345.6473 168.89C 339.3787 164.4191 326.6677 162.1656 322.0353 161.1017C 318.0081 160.1573 314.0408 160.1454 310.0974 160.5697C 301.0841 161.5499 292.1846 165.0109 283.1774 165.9193C 280.8101 166.1526 278.4489 166.2661 276.0876 166.3138C 271.3174 166.4095 266.5588 166.2003 261.7946 166.0569C 256.9943 165.9193 252.1879 165.8478 247.3578 166.1584C 244.2295 166.3916 236.7982 167.0133 232.9928 169.6791C 231.6084 170.6473 230.6675 171.8787 230.3859 173.379C 230.0862 175.0049 230.5536 177.0193 232.3635 179.4579C 232.5492 179.715 233.0166 180.0676 233.7777 180.4023C 234.7906 180.8446 236.4327 181.3767 238.4402 181.9506C 245.8475 184.0785 258.3486 186.8698 261.3931 188.2924C 267.6018 191.2512 273.1871 193.6301 279.168 194.7538C 283.1294 195.495 287.2644 195.7042 291.8849 195.1185C 301.9771 193.8691 312.0331 192.4824 322.1132 191.2213C 326.4281 190.6832 330.7489 190.1693 335.0698 189.697C 335.2676 189.6731 335.4534 189.6074 335.6212 189.4938z" stroke="none" fill="#000000" fill-rule="evenodd" />
    <path id=""  transform="matrix(1 0 0 -1 0 449)"  d="M292.4064 150.2948C 292.2385 150.0437 291.5674 150.6653 290.7943 150.9105C 287.2046 152.0402 279.4677 153.8572 271.3353 155.5129C 263.1549 157.1807 254.5673 158.6868 249.3833 159.2069C 244.8048 159.6492 241.0353 160.0199 237.835 160.1394C 233.1426 160.3187 229.6967 160.0079 226.7002 158.7705C 221.6122 156.6665 217.8607 151.8727 211.3944 142.3569C 210.0999 140.4502 204.874 136.8756 202.375 133.2655C 201.6139 132.1776 201.1105 131.1077 201.2423 130.0796C 201.3622 129.189 202.0094 128.3999 203.262 127.6587C 205.5753 126.26 209.2909 125.1663 213.8453 124.2816C 221.2467 122.835 230.8413 121.9683 240.5017 121.7472C 247.1 121.5978 253.7281 121.6934 259.697 122.1357C 267.6857 122.7214 274.4756 123.875 278.4309 125.3634C 280.4146 126.1226 282.2844 127.1388 284.0823 128.2924C 286.8149 130.0437 289.3679 132.1178 291.873 134.0963C 294.0065 135.7998 295.5946 137.2404 296.6494 138.5613C 297.6201 139.7747 298.1116 140.8566 298.0996 141.9742C 298.0936 143.0862 297.5721 144.1979 296.6732 145.4771C 295.6904 146.8816 294.2522 148.4418 292.4064 150.2948zM294.1084 152.1178C 298.2374 147.7484 300.3409 144.7418 300.299 141.9683C 300.2749 140.7311 299.8735 139.5117 299.0045 138.2325C 297.8718 136.5768 295.9182 134.7776 293.0297 132.6079C 290.4407 130.6473 287.7859 128.6031 284.9692 126.8816C 283.0514 125.7161 281.0619 124.694 278.9584 123.9468C 275.027 122.5242 268.3807 121.5559 260.5602 120.9462C 257.0482 120.6713 253.2966 120.4441 249.4432 120.3186C 243.9476 120.1333 238.2424 120.1095 232.7469 120.3126C 224.6746 120.6055 217.0457 121.3229 211.1366 122.584C 207.3011 123.403 204.1788 124.4668 202.0934 125.7101C 200.3314 126.774 199.4384 127.9875 199.1208 129.2368C 198.8571 130.2649 198.9771 131.3407 199.4086 132.4286C 200.2295 134.5027 202.2612 136.6605 204.4005 138.5852C 206.6299 140.5876 208.9672 142.327 209.7761 143.4686C 216.692 153.2655 220.7852 158.0773 226.1128 160.2051C 229.295 161.4783 232.9268 161.795 237.8949 161.6157C 241.113 161.5022 244.9126 161.1974 249.5331 160.8027C 255.6998 160.2948 266.6729 158.4896 276.1237 156.6605C 283.0155 155.3276 289.0983 153.9888 291.9509 153.1161C 293.1615 152.7454 293.8926 152.345 294.1084 152.1178z" stroke="none" fill="#000000" fill-rule="evenodd" />
    <path id=""  transform="matrix(1 0 0 -1 0 449)"  d="M253.3026 102.817C 252.0681 101.269 251.5288 99.8822 251.6306 98.59717C 251.7384 97.13867 252.6434 95.86548 253.9679 94.7179C 259.7271 89.73279 273.0553 87.15662 277.6937 85.93713C 285.4965 83.91089 296.949 83.05029 309.0667 83.07397C 315.3652 83.08594 321.8434 83.3551 328.0762 83.77344C 339.0072 84.4967 349.1891 85.71606 356.3986 86.94739C 361.6123 87.83203 368.6061 88.9198 373.8259 91.97424C 377.1399 93.91089 379.7289 96.66052 380.52 100.7908C 380.532 100.8684 380.4661 100.9282 380.4182 101.0118C 380.2982 101.2092 380.1244 101.4065 379.9087 101.6156C 379.3214 102.1836 378.4705 102.7753 377.4935 103.373C 373.6101 105.746 367.785 108.1669 366.2568 109.3204C 360.4078 113.7615 344.8323 121.6395 330.3774 126.7024C 319.6801 130.4441 309.6119 132.6975 304.7518 130.8745C 302.4865 130.0137 300.2451 128.8123 298.0276 127.4496C 292.8978 124.3055 287.8937 120.3007 283.0454 117.4794C 281.4093 116.5231 279.7433 115.6145 278.1012 114.6641C 277.4061 114.2577 276.7169 113.8512 276.0337 113.4268C 275.1228 112.8649 265.9896 109.5475 259.3794 106.4393C 256.4789 105.0704 254.0698 103.8093 253.3026 102.817zM251.337 104.3533C 252.2479 105.4889 254.9867 107.0491 258.3906 108.5792C 264.9648 111.5439 274.05 114.6401 274.955 115.1842C 275.6622 115.6025 276.3754 116.0149 277.1005 116.4154C 278.7545 117.3359 280.4386 118.2206 282.0865 119.1471C 286.9587 121.8906 292.0049 125.8116 297.1587 128.8781C 299.484 130.2649 301.8331 131.4843 304.1943 132.351C 309.2583 134.2397 319.728 131.9922 330.8867 128.1609C 345.5874 123.1219 361.5286 115.4232 367.5215 111.0001C 369.2653 109.7148 376.6006 106.8756 380.2504 104.2577C 381.2272 103.5522 381.9583 102.8409 382.3599 102.1896C 382.7494 101.5559 382.8632 100.9342 382.7554 100.3605C 381.8085 95.53674 378.83 92.28516 374.9346 90.06763C 369.4572 86.94141 362.1516 85.91321 356.7042 85.07654C 349.4347 83.96484 339.163 82.98438 328.1599 82.38672C 321.8973 82.0459 315.3951 81.84277 309.0726 81.8009C 296.8052 81.72327 285.1969 82.31506 277.2623 84.25171C 272.426 85.42322 258.5885 87.94556 252.5056 92.99634C 250.6239 94.55652 249.4553 96.36768 249.2574 98.39392C 249.0836 100.1752 249.6589 102.1656 251.337 104.3533z" stroke="none" fill="#000000" fill-rule="evenodd" />
		</g>
	</g>
</g>
</svg>