<svg version="1.1" id="Layer_1" xmlns="http://www.w3.org/2000/svg" xmlns:xlink="http://www.w3.org/1999/xlink" x="0px" y="0px"
	 width="100%" viewBox="0 0 299 411" enable-background="new 0 0 299 411" xml:space="preserve">
<path fill="none" opacity="1.000000" stroke="#000000" stroke-linecap="round" stroke-linejoin="round" stroke-width="3.000000"
	d="
M94.000000,359.000000 
	C94.731606,364.047150 98.570282,366.370880 102.511429,368.478638 
	C112.362457,373.747040 123.229248,375.897247 134.017944,377.903534 
	C152.533005,381.346649 171.268387,380.659180 190.002960,380.098816 
	C201.560989,379.753082 213.067932,378.941559 224.485565,377.393494 
	C235.870285,375.849915 247.507278,375.235718 258.062897,369.618225 
	C261.379578,367.853149 264.240112,365.726166 266.418854,362.936615 
	C270.076630,358.253418 269.318085,354.416290 263.966248,351.563354 
	C247.718933,342.902283 232.154312,332.914642 214.995056,326.012299 
	C203.921692,321.558044 192.657867,317.617645 180.989517,315.047607 
	C172.349518,313.144592 164.358505,314.434235 156.952072,319.935455 
	C139.972122,332.547516 120.801971,341.202911 101.456566,349.397461 
	C97.053764,351.262451 94.783188,354.069336 94.000000,358.500000 
"/>
<path fill="none" opacity="1.000000" stroke="#000000" stroke-linecap="round" stroke-linejoin="round" stroke-width="3.000000"
	d="
M27.000000,317.000000 
	C28.809698,323.693024 35.052467,324.111267 40.041775,325.328827 
	C49.825199,327.716217 59.897900,328.891663 70.000282,328.954102 
	C84.671410,329.044739 99.337646,329.186188 114.005585,328.073608 
	C131.395477,326.754578 145.237076,318.704285 156.919525,306.423462 
	C159.344910,303.873840 159.131454,300.346100 157.532516,296.984528 
	C153.896057,289.339447 147.037201,286.947418 139.501236,285.493561 
	C126.663406,283.016937 113.924599,279.665619 100.972763,278.248993 
	C89.428413,276.986359 77.802162,274.391937 65.980362,276.907745 
	C60.289989,278.118744 55.525928,280.891235 52.122627,285.099182 
	C45.049057,293.845184 38.716373,303.201935 29.980169,310.476196 
	C28.028141,312.101501 28.088966,314.746338 26.500000,316.500000 
"/>
<path fill="none" opacity="1.000000" stroke="#000000" stroke-linecap="round" stroke-linejoin="round" stroke-width="2.000000"
	d="
M38.500000,316.500000 
	C48.727684,320.841248 59.504902,322.251648 70.500000,322.500000 
"/>
<path fill="none" opacity="1.000000" stroke="#000000" stroke-linecap="round" stroke-linejoin="round" stroke-width="2.000000"
	d="
M212.500000,112.500000 
	C215.999710,121.666969 212.958099,122.331551 206.418243,124.781769 
	C201.102707,126.773270 195.464035,128.777664 189.500000,128.500000 
"/>
<path fill="none" opacity="1.000000" stroke="#000000" stroke-linecap="round" stroke-linejoin="round" stroke-width="2.000000"
	d="
M149.500000,296.500000 
	C145.617157,293.151825 140.965607,291.788208 136.007233,290.956909 
	C130.143112,289.973755 124.333328,288.666687 118.500000,287.500000 
"/>
<path fill="none" opacity="1.000000" stroke="#000000" stroke-linecap="round" stroke-linejoin="round" stroke-width="3.000000"
	d="
M113.500000,243.500000 
	C103.500000,246.166672 93.500000,248.833344 83.500000,251.500000 
"/>
<path fill="none" opacity="1.000000" stroke="#000000" stroke-linecap="round" stroke-linejoin="round" stroke-width="2.000000"
	d="
M144.500000,127.500000 
	C134.604492,127.825706 124.953194,126.381004 115.500000,123.500000 
"/>
<path fill="none" opacity="1.000000" stroke="#000000" stroke-linecap="round" stroke-linejoin="round" stroke-width="3.000000"
	d="
M163.500000,191.500000 
	C161.666672,197.500000 159.799026,203.489792 158.010803,209.503204 
	C156.568878,214.352158 159.676361,215.730484 163.500000,216.500000 
"/>
<path fill="none" opacity="1.000000" stroke="#000000" stroke-linecap="round" stroke-linejoin="round" stroke-width="2.000000"
	d="
M158.500000,169.500000 
	C149.585617,174.006378 140.492493,178.012299 130.500000,179.500000 
"/>
<path fill="none" opacity="1.000000" stroke="#000000" stroke-linecap="round" stroke-linejoin="round" stroke-width="2.000000"
	d="
M129.500000,344.500000 
	C123.618637,347.587341 117.244865,349.377655 110.994736,351.484375 
	C107.514343,352.657501 104.647461,354.291687 104.500000,358.500000 
"/>
<path fill="none" opacity="1.000000" stroke="#000000" stroke-linecap="round" stroke-linejoin="round" stroke-width="2.000000"
	d="
M176.500000,83.500000 
	C185.196579,87.230759 194.401901,86.382843 203.500000,86.500000 
"/>
<path fill="none" opacity="1.000000" stroke="#000000" stroke-linecap="round" stroke-linejoin="round" stroke-width="2.000000"
	d="
M219.500000,254.500000 
	C220.676727,258.338715 218.305450,260.426575 215.478333,261.960052 
	C208.885773,265.535889 201.947037,268.251709 194.500000,269.500000 
"/>
<path fill="none" opacity="1.000000" stroke="#000000" stroke-linecap="round" stroke-linejoin="round" stroke-width="2.000000"
	d="
M263.500000,205.500000 
	C265.328278,208.465652 265.798553,210.695160 262.089142,213.135498 
	C257.458954,216.181610 252.796005,218.894485 247.500000,220.500000 
"/>
<path fill="none" opacity="1.000000" stroke="#000000" stroke-linecap="round" stroke-linejoin="round" stroke-width="2.000000"
	d="
M223.500000,337.500000 
	C231.162430,340.896667 238.179779,345.475952 245.500000,349.500000 
"/>
<path fill="none" opacity="1.000000" stroke="#000000" stroke-linecap="round" stroke-linejoin="round" stroke-width="3.000000"
	d="
M92.500000,150.500000 
	C86.023544,154.213745 79.499710,157.832748 72.500000,160.500000 
"/>
<path fill="none" opacity="1.000000" stroke="#000000" stroke-linecap="round" stroke-linejoin="round" stroke-width="3.000000"
	d="
M173.000000,44.500000 
	C170.166672,43.311008 167.333328,44.535477 164.500000,44.500000 
"/>
<path fill="none" opacity="1.000000" stroke="#000000" stroke-linecap="round" stroke-linejoin="round" stroke-width="2.000000"
	d="
M174.500000,39.500000 
	C174.775253,40.666668 176.675400,41.833332 174.500000,43.000000 
"/>
<path fill="none" opacity="1.000000" stroke="#000000" stroke-linecap="round" stroke-linejoin="round" stroke-width="3.000000"
	d="
M196.000000,168.000000 
	C183.585968,170.897736 174.662033,180.267212 163.546722,185.597427 
	C161.877838,186.397736 160.466522,188.308655 159.566223,190.034546 
	C156.395828,196.112335 153.304642,202.247955 150.560745,208.526550 
	C148.297531,213.705353 149.163315,215.699036 154.517105,218.466904 
	C162.205032,222.441513 170.590820,224.286209 178.999176,226.004044 
	C193.033173,228.871201 207.219650,230.590820 221.502701,231.455338 
	C226.794128,231.775620 231.976624,231.187546 237.025421,229.060349 
	C247.418930,224.681305 258.302551,221.199600 267.429321,214.405045 
	C274.935120,208.817245 273.547058,204.397552 267.633667,199.827072 
	C261.692810,195.235352 256.926819,189.164032 250.513580,184.979187 
	C237.894699,176.744965 224.389664,170.616211 209.481781,168.108337 
	C205.267700,167.399429 200.833328,168.000000 196.500000,168.000000 
"/>
<path fill="none" opacity="1.000000" stroke="#000000" stroke-linecap="round" stroke-linejoin="round" stroke-width="3.000000"
	d="
M106.500000,139.000000 
	C90.841522,143.116043 78.511612,153.165619 65.178383,161.673813 
	C67.005608,167.328232 71.149368,170.270416 75.503311,172.994705 
	C88.806038,181.318314 102.960007,187.359192 118.988617,185.876907 
	C133.241074,184.558899 146.914383,180.634048 159.501831,173.503220 
	C163.656876,171.149368 167.790451,168.751999 172.013458,166.525543 
	C175.439789,164.719101 175.229401,162.293945 172.956543,160.043900 
	C166.410706,153.563812 158.820450,149.474945 149.563965,147.235626 
	C136.280899,144.022202 122.958740,141.241592 109.497124,139.017395 
	C108.685936,138.883362 107.833336,139.000000 107.000000,139.000000 
"/>
<path fill="none" opacity="1.000000" stroke="#000000" stroke-linecap="round" stroke-linejoin="round" stroke-width="3.000000"
	d="
M172.500000,98.000000 
	C155.811478,98.802361 140.238541,105.080566 123.968048,107.809494 
	C118.302155,108.759781 112.411186,109.504150 106.495186,109.064842 
	C100.691498,108.633865 99.414162,111.964409 101.400391,116.543213 
	C104.827515,124.443680 110.201813,128.489670 118.977402,129.668259 
	C137.766434,132.191696 156.627045,132.891342 175.499680,132.850235 
	C187.040222,132.825104 198.787384,132.536240 209.505981,127.011612 
	C210.962631,126.260818 212.692749,125.921616 213.967896,124.957535 
	C220.896439,119.719254 222.416397,113.454086 212.012970,105.483070 
	C206.817566,101.502403 200.512100,100.864990 194.483246,99.578491 
	C187.434875,98.074448 180.187454,98.202141 173.000000,98.000000 
"/>
<path fill="none" opacity="1.000000" stroke="#000000" stroke-linecap="round" stroke-linejoin="round" stroke-width="3.000000"
	d="
M138.500000,231.000000 
	C131.554443,232.415039 124.392738,233.258057 118.026863,236.551926 
	C104.431839,243.586258 89.268227,245.629730 74.957512,250.371780 
	C70.806602,251.747269 68.818031,254.262375 68.628067,258.006500 
	C68.445168,261.611603 71.455177,263.228149 74.488388,264.527100 
	C78.979637,266.450500 83.681625,267.117310 88.497635,267.527740 
	C103.990784,268.848145 119.528419,266.407898 134.993973,268.056488 
	C142.966980,268.906342 150.739349,270.897186 158.539505,272.841522 
	C166.006577,274.702789 173.650391,276.914673 181.492447,275.939209 
	C193.576691,274.436096 205.446472,271.987305 216.526123,266.553284 
	C219.326050,265.180054 221.621384,263.276154 223.424683,260.941833 
	C225.282333,258.537109 225.531677,255.130234 223.406616,253.097626 
	C216.185059,246.190277 209.537323,238.938980 198.016388,238.232681 
	C183.448532,237.339554 168.997391,234.518600 154.501389,232.490005 
	C149.353363,231.769592 144.244583,230.694870 139.000000,231.000000 
"/>
<path fill="none" opacity="1.000000" stroke="#000000" stroke-linecap="round" stroke-linejoin="round" stroke-width="3.000000"
	d="
M192.500000,49.000004 
	C188.166672,50.500004 183.790619,51.888512 179.510742,53.528057 
	C174.085968,55.606201 170.621490,59.647099 168.474411,64.989716 
	C166.969986,68.733185 163.079712,71.758888 165.011200,76.495430 
	C167.461472,82.504135 172.221588,86.457451 178.044846,88.362961 
	C187.671127,91.512909 197.413651,91.265182 207.555481,89.283966 
	C217.457901,87.349525 226.926743,84.761772 235.995117,80.489624 
	C236.532806,80.236320 236.976883,79.790504 237.503418,79.506340 
	C246.528305,74.635857 247.140961,69.805244 238.956924,64.061371 
	C229.206268,57.217979 217.979080,53.668053 206.486465,51.059601 
	C202.065201,50.056114 197.608109,48.936886 193.000000,49.000000 
"/>
</svg>