<?xml version="1.0" encoding="UTF-8"?>
<!DOCTYPE svg PUBLIC "-//W3C//DTD SVG 1.1//EN" "http://www.w3.org/Graphics/SVG/1.1/DTD/svg11.dtd">
<!-- Creator: CorelDRAW -->
<svg xmlns="http://www.w3.org/2000/svg" xml:space="preserve" width="100mm" height="90mm" version="1.1" style="shape-rendering:geometricPrecision; text-rendering:geometricPrecision; image-rendering:optimizeQuality; fill-rule:evenodd; clip-rule:evenodd"
viewBox="0 0 10000 9000"
 xmlns:xlink="http://www.w3.org/1999/xlink"
 xmlns:xodm="http://www.corel.com/coreldraw/odm/2003">
 <defs>
  <style type="text/css">
   <![CDATA[
    .fil2 {fill:none}
    .fil0 {fill:black}
    .fil3 {fill:#2B2A29}
    .fil1 {fill:#A99881}
   ]]>
  </style>
 </defs>
 <g id="Vrstva_x0020_1">
  <metadata id="CorelCorpID_0Corel-Layer"/>
  <path class="fil0" d="M4738.5 1833.25c20.64,-16.55 75.41,-53.12 130.51,-87.63 61.43,-38.65 123.19,-74.75 137.8,-79.83 40.8,-14.01 84.62,-27.04 128.75,-32.29 30.65,-3.66 61.6,-3.51 91.61,2.54 23.97,4.46 100.49,42.63 190.51,90.17 90.5,47.88 195.12,104.5 269.73,150.93 48.59,30.21 84.94,56.45 99.23,72.2 11.43,12.73 13.34,24.82 12.86,32.13 -1.11,15.26 -9.52,32.11 -26.82,48.65 -16.83,15.76 -43.34,32.63 -77.95,48.36 -37.31,17.01 -84.46,33.55 -137.81,48.33 -95.89,26.41 -212.42,47.24 -329.1,61.07 -47.94,5.57 -95.89,9.72 -142.4,12.88 -32.71,2.24 -64.61,3.82 -95.42,4.95 -96.05,3.5 -181.14,-0.48 -241.47,-17.99 -59.06,-17.01 -95.09,-47.7 -104.31,-88.26 -8.1,-34.66 -17.15,-86.04 7.14,-147.9 14.29,-36.25 40.81,-76.02 87.16,-118.31l-0.02 0z"/>
  <path class="fil1" d="M5739.01 1981.47c-2.85,-3.02 -6.51,-6.53 -10,-9.55 -50.32,-42.94 -172.26,-120.71 -285.61,-185.59 -30.96,-17.66 -61.12,-34.35 -89.22,-48.99 -64.14,-33.22 -116.06,-56.44 -134.47,-59.64 -25.72,-4.12 -52.08,-3.16 -77.95,0.97 -40.49,6.52 -80.34,20.36 -117.49,34.99 -13.17,5.24 -67.95,42.3 -123.04,80.78 -50.48,35.47 -101.13,72.53 -119.7,89.37 -39.69,31.66 -63.66,62.04 -77,90.81 -22.07,47.06 -16.35,87.63 -11.75,115.14 3.66,21.47 21.91,36.58 48.58,48.51 49.85,22.42 126.06,33.55 214.96,34.02 47.16,0.33 97.8,-2.69 149.56,-8.26 130.81,-14.01 269.4,-45.02 385.63,-78.1 60.17,-17.16 113.98,-35.46 157.49,-53.59 34.6,-14.3 62.55,-27.83 80.17,-41.81 3.81,-3.03 7.3,-6.05 9.84,-9.07l0 0.01z"/>
  <path class="fil0" d="M5378.31 2668.8c-4.29,-12.09 -5.24,-31.16 0.95,-55.03 9.05,-34.97 32.23,-85.55 61.44,-138.03 37.95,-68.4 85.41,-140.26 120.66,-183.68 19.05,-23.56 35.72,-39.12 46.04,-44.37 53.5,-27.68 108.91,-52.49 165.75,-73.48 56.83,-20.99 114.94,-38.33 174,-50.9 52.71,-11.92 162.09,0.48 292.58,28.95 129.4,28.31 280.22,71.41 414.85,125.79 121.29,48.99 229.88,106.4 298.78,167.46 50.17,44.55 79.7,92.1 84.31,138.22 2.54,27.18 -5.09,53.91 -22.07,79.35 -16.99,25.77 -43.82,50.58 -76.68,73.15 -109.55,75.39 -288.15,130.09 -348.17,148.86 -66.99,20.99 -145.9,41.5 -230.52,58.99 -50.48,10.34 -102.87,19.57 -156.22,27.21 -133.2,18.92 -271.63,26.08 -397.85,6.04 -189.55,-30.06 -350.38,-119.75 -427.85,-308.53z"/>
  <path class="fil1" d="M5440.54 2646.39c62.71,170.48 205.28,253.96 373.41,286.73 121.61,23.53 256.4,21.95 385.47,4.92 52.55,-6.99 104.15,-16.7 153.52,-27.98 82.71,-18.92 159.4,-42.47 224.49,-65.21 49.69,-17.5 184.64,-64.24 286.88,-126.11 37.46,-22.74 70.33,-47.24 91.92,-73.48 14.77,-17.8 24.13,-36.1 21.91,-55.5 -3.49,-33.71 -28.42,-66.31 -64.77,-99.56 -64.46,-58.36 -165.27,-115.14 -278.79,-164.44 -130.5,-56.77 -276.88,-105.11 -403.57,-134.21 -122.24,-27.99 -225.28,-39.12 -274.65,-27.83 -56.68,13.69 -112.41,31.81 -166.7,53.44 -54.46,21.78 -107.32,47.24 -158.29,75.39 -5.71,3.17 -13.33,12.88 -23.49,25.43 -26.52,33.89 -61.92,89.7 -93.67,147.43 -26.67,48.51 -50.65,98.28 -64.14,137.09 -6.51,18.6 0,42.15 -9.53,43.9l0 -0.01z"/>
  <path class="fil0" d="M5883.64 3117.1c2.54,-6.04 6.67,-11.45 12.39,-15.26 -6.83,4.46 -10.32,10.02 -12.39,15.26z"/>
  <path class="fil0" d="M5884.75 3143.99c-1.27,-2.4 -2.07,-4.94 -2.71,-7.63 -0.62,-2.71 -0.79,-5.57 -0.62,-8.27 -0.31,5.08 0.48,10.48 3.34,15.9l-0.01 0z"/>
  <path class="fil0" d="M5925.4 3097.87c29.53,5.41 171.62,32.6 280.05,63.6 55.57,15.91 102.39,33.4 124,48.99 176.54,128.19 220.19,238.39 190.03,326.02 -44.29,128.65 -262.75,218.34 -495.97,261.6 -58.11,11.76 -167.17,19.72 -303.39,24.64 -201.63,7.17 -463.1,8.43 -706.01,-1.58 -119.7,-4.78 -234.81,-12.26 -335.92,-22.27 -155.43,-15.75 -278.31,-38.17 -337.05,-63.3 -55.57,-24.01 -105.74,-68.85 -144.79,-122.77 -37.79,-52.17 -65.41,-112.75 -78.59,-169.38 -13.66,-59.15 9.37,-93.81 49.69,-114.33 67,-34.03 195.12,-19.72 251.95,-21.94 101.13,-4.78 198.46,-19.25 293.39,-39.77 228.46,-49.3 445.17,-129.45 681.09,-165.55 58.11,-9.07 116.53,-15.26 174.94,-18.61 58.74,-3.17 117.64,-3.34 176.7,0 84.78,4.94 133.04,8.27 155.9,10.5 10.8,1.11 17.15,2.23 20.01,2.86 1.43,0.31 2.7,0.79 3.97,1.27l0 0.02z"/>
  <path class="fil1" d="M5905.08 3161.16c-1.11,1.28 -6.04,-1.44 -10.8,-2.06 -22.54,-2.71 -69.85,-7.17 -153.03,-14.01 -56.68,-4.77 -113.36,-6.04 -169.88,-4.29 -56.83,1.75 -113.35,6.52 -169.87,13.84 -235.28,31.33 -452.79,104.64 -680.45,151.87 -97.32,20.2 -196.39,36.1 -299.74,41.18 -45.41,2.54 -139.39,-6.84 -205.12,10.81 -23.8,6.36 -43.66,15.76 -51.91,34.04 -4.61,10.49 -4.77,23.53 -0.48,39.75 12.7,50.58 38.74,104.01 73.51,149.97 34.29,45.34 77.15,83.33 124.94,102.75 66.36,27.19 218.45,45.46 404.84,61.07 128.12,10.81 272.28,20.67 416.9,27.03 210.84,9.38 422.31,13.99 585.2,10.17 110.34,-2.71 198.12,-8.9 247.98,-18.13 216.07,-43.74 422.94,-121.81 461.52,-242.2 24.13,-75.69 -25.72,-163.17 -180.04,-268.76 -23.97,-16.38 -83.35,-32.11 -147.64,-46.92 -113.2,-25.76 -241.95,-45.15 -241.95,-45.15 -1.43,-0.16 -2.7,-0.48 -3.97,-0.96l-0.01 0z"/>
  <path class="fil0" d="M5364.02 4139.21c48.11,37.55 150.51,101.47 217.34,169.39 36.68,37.05 62.71,75.84 68.75,112.26 1.11,7 0.47,15.59 -4.92,24.82 -6.99,12.09 -28.74,30.68 -59.7,50.25 -83.67,52.63 -237.82,125.31 -260.36,138.5 -116.54,68.54 -262.75,128.19 -418.82,173.35 -61.75,17.82 -124.94,33.72 -188.6,46.43 -226.87,45.17 -459.77,50.91 -647.11,-10.65 -51.28,-16.86 -133.68,-46.75 -222.43,-86.83 -70.64,-31.96 -145.26,-70.12 -212.1,-112.44 -60.17,-38 -113.83,-79.66 -153.05,-122.45 -36.67,-40.07 -60.8,-81.58 -67.95,-122.46 -2.69,-16.22 2.07,-30.85 12.87,-43.25 13.01,-15.11 37.62,-26.56 50.64,-34.04 141.77,-81.73 361.34,-240.44 558.52,-333.8 101.77,-48.19 197.65,-79.21 276.09,-74.12 111.6,6.52 322.43,44.38 525.81,87 192.89,40.4 378.96,85.24 466.6,113.22 30.64,9.86 50.64,19.09 58.42,24.8l0 0.02z"/>
  <path class="fil1" d="M3469.22 4391.61c6.67,30.85 27.31,61.06 55.73,90.97 36.83,38.79 87.47,75.84 143.2,110.84 64.77,40.55 136.69,77.77 204.64,109.72 86.05,40.4 165.43,72.52 214.96,90.35 178.92,64.24 403.89,65.36 623.3,25.91 62.87,-11.28 125.42,-25.76 185.91,-43.57 152.57,-44.86 293.85,-108.47 406.42,-177.8 24.77,-15.59 216.55,-111.81 281.96,-165.08 3.81,-3.17 7.78,-6.99 10.48,-9.86 -10.16,-33.23 -43.5,-66.16 -82.08,-98.11 -65.25,-54.08 -147.81,-102.43 -189.55,-132.97 -8.89,-6.83 -41.12,-17.49 -88.43,-32.27 -96.37,-29.91 -249.73,-70.61 -408.01,-107.84 -199.73,-46.9 -407.21,-88.09 -517.41,-96.84 -72.71,-5.09 -162.09,23.7 -256.08,69.01 -195.43,94.47 -409.44,259.39 -548.83,343.67 -6.35,3.82 -16.2,8.59 -25.4,14.48 -3.66,2.4 -8.73,7.31 -10.8,9.39l-0.01 0z"/>
  <line class="fil2" x1="5147" y1="5425.78" x2="5093.17" y2= "5464.28" />
  <path class="fil0" d="M5093.17 5464.28c-8.57,-12.26 -13.65,-32.29 -10.63,-59.16 4.29,-36.43 22.54,-90.81 48.58,-151.41 54.45,-126.9 142.09,-283.08 187.02,-351.95 16.83,-25.6 30.32,-40.38 35.4,-43.25 76.05,-43.25 150.67,-87.95 224.65,-134.05 73.98,-46.12 147.33,-93.36 220.52,-141.38 93.19,-61.56 203.69,-91.13 323.39,-97.34 155.11,-7.93 326.26,23.53 494.7,81.12 153.21,51.84 304.03,124.19 438.34,205.77 157.33,95.59 291.48,203.57 380.55,303.45 33.65,38.47 92.4,70.92 124.94,116.08 17.47,24.49 28.58,52.17 28.26,84.61 -0.62,65.05 -42.39,125.47 -106.68,177.32 -118.92,96.06 -313.4,165.87 -397.86,202.29 -75.41,32.6 -155.9,70.45 -238.14,97.65 -56.36,18.93 -113.51,32.76 -170.51,36.73 -36.51,2.7 -90.49,2.08 -156.7,-0.94 -66.67,-3.03 -145.9,-8.59 -232.42,-16.56 -177.18,-16.21 -384.84,-42.76 -576.78,-78.86 -169.56,-31.98 -326.89,-71.1 -441.04,-116.9 -84.46,-33.87 -145.9,-72.83 -175.59,-113.22z"/>
  <path class="fil1" d="M5148.26 5427.53c24.29,33.55 75.57,64.09 143.84,93.67 110.18,47.88 262.75,90.34 427.23,125.48 189.72,40.56 395.15,71.89 570.74,91.13 85.73,9.22 164.32,15.73 230.36,18.76 64.61,3.19 117.17,2.86 152.57,0 54.14,-4.77 108.12,-18.93 161.14,-37.68 80.5,-28.79 158.92,-68.23 232.59,-102.1 70.33,-32.46 220.52,-90.5 333.08,-167.94 42.39,-29.11 79.38,-60.92 103.67,-95.26 17.15,-24.34 27.78,-49.94 27.46,-76.82 -0.15,-26.56 -13.97,-46.91 -31.27,-65.04 -33.66,-35.31 -80.65,-63.14 -109.39,-95.59 -84.62,-97.32 -213.37,-202.44 -363.72,-297.22 -129.85,-81.74 -275.92,-155.86 -424.68,-209.29 -162.26,-57.74 -327.52,-92.4 -477.72,-84.76 -112.08,5.73 -215.27,35.15 -301.8,93.51 -72.71,49.63 -145.58,98.29 -218.93,145.99 -72.87,47.24 -146.22,93.36 -221.3,137.88 -1.75,2.4 -9.53,12.9 -15.88,23.07 -35.4,55.83 -102.88,180.51 -153.99,295.64 -26.2,59.15 -48.27,115.78 -58.91,158.87 -3.66,14.48 -5.87,27.2 -6.19,37.7 -0.15,3.82 3.18,8.91 1.11,10.01l-0.01 -0.01z"/>
  <polygon class="fil1" points="4030.4,6971.53 5164.82,6970.34 5030.86,6881.91 4089.95,6698.35 3588.89,6665.28 3347.45,6708.28 3147.36,6885.22 3079.58,6970.34 "/>
  <path class="fil3" d="M6266.42 5906.84c0,0 139.23,95.91 238.14,177.8 44.77,37.23 81.44,72.04 95.89,94.64 28.42,44.52 38.58,85.56 35.09,122.93 -5.24,58.37 -43.51,109.73 -103.52,152.83 -166.06,118.96 -502.79,178.91 -625.51,207.21 -106.68,25.12 -211.79,25.45 -316.26,14.15 -238.77,-26.08 -474.53,-118.16 -713.15,-142.32 -62.71,-6.21 -125.26,-9.23 -187.81,-10.5 -126.37,-2.54 -252.43,3.02 -378.65,6.83 -127.17,3.67 -254.49,5.57 -382.45,-2.7 -82.87,-6.2 -279.73,-22.75 -380.55,-93.66 -36.67,-25.76 -61.6,-58.53 -69.06,-98.44 -7.93,-43.27 4.44,-96.87 52.39,-161.75 4.92,-6.84 17.3,-16.22 37.47,-25.12 26.82,-11.78 70.33,-25.93 123.51,-41.18 196.23,-56.61 527.4,-130.88 608.06,-168.73 164.47,-78.73 312.44,-142.03 470.88,-171.92 104.94,-19.72 214.48,-25.28 336.89,-9.69 267.35,33.23 533.75,70.13 800.79,103.68 114.31,14.33 228.77,28 343.24,40.57 5.24,0.62 10.16,2.37 14.61,5.39l0 -0.02z"/>
  <path class="fil1" d="M3573.36 6206.32c-34.29,48.34 -46.36,86.84 -40.01,118.64 5.24,25.75 23.18,45.48 46.99,61.85 43.19,29.43 105.58,47.09 167.02,58.7 72.24,13.83 143.68,18.92 185.12,21.63 221.63,17.49 441.82,2.86 662.65,5.71 95.42,1.27 190.99,5.88 286.72,17.35 238.62,27.82 472.94,126.74 712.05,153.13 100.49,11.14 201.62,8.59 304.02,-16.69 118.75,-29.89 445.8,-92.55 604.88,-211.67 45.25,-33.87 76.52,-72.04 79.54,-116.9 1.74,-27.19 -7.46,-56.29 -28.74,-87.93 -16.51,-24.66 -65.25,-64.1 -118.91,-104.64 -80.65,-60.92 -173.36,-122.63 -198.45,-139.32l-0.16 0c-111.93,-14.47 -223.69,-30.23 -335.46,-46.28 -266.39,-38.49 -532.15,-80 -798.88,-118 -148.29,-20.67 -277.67,-10.02 -402.93,22.41 -126.21,32.94 -247.98,87.48 -381.18,151.56 -80.81,39.44 -413.89,120.08 -611.23,180.35 -50.17,15.42 -91.13,29.26 -116.37,40.87 -7.14,3.19 -14.92,8.11 -16.67,9.23z"/>
  <path class="fil0" d="M4939.17 1827.33c-4.6,-1.84 -13.17,2.34 -22.86,8.87 -18.41,12.39 -40.48,32.97 -46.67,37.65 -13.5,10.89 -28.9,22.95 -43.35,37.11 -11.9,11.81 -21.43,25.26 -30.64,38.4 -1.9,2.52 -3.49,5.05 -5.39,7.44 -4.29,5.55 -8.74,10.67 -12.07,16.43 -15.72,24.23 -22.38,51.05 -17.31,74.38 5.72,26.19 24.13,46.82 57.16,54.07 -38.58,0.22 -63.19,-20.02 -75.89,-47.83 -12.7,-27.87 -11.43,-63.44 1.91,-98.1 3.97,-8.83 8.73,-17.78 15.25,-25.64 4.13,-4.84 8.89,-9.14 13.97,-13.25 16.35,-13.26 35.4,-23.28 54.14,-33.5 12.54,-6.9 24.44,-13.87 35.56,-19.84 6.82,-3.73 31.59,-20.84 51.44,-30.46 10.95,-5.24 20.32,-8.28 24.76,-5.74l-0.01 0.01z"/>
  <path class="fil0" d="M5340.04 2049.17l7.78 -1.09 21.59 -3.35 55.25 -10.11c11.43,-2.29 23.66,-3.85 36.2,-6.22 21.75,-4.1 43.66,-10.29 65.87,-15.56 5.4,-1.25 10.64,-2.64 16.04,-3.47 16.51,-2.61 32.86,-3.69 47.95,-7.58 5.71,-1.51 11.43,-2.89 16.83,-4.89 5.87,-2.16 10.16,-3.2 10.79,-6.84 0.79,-5.22 -1.43,-11.13 -5.55,-17.29 -14.3,-21.85 -43.5,-44.76 -54.3,-54.37 15.71,8.82 62.23,31.68 77.31,55.17 10.95,16.97 8.74,33.65 -15.4,49.2 -15.87,9.87 -33.81,17.67 -53.5,22.99 -7.78,2.08 -15.72,3.99 -23.8,4.7 -23.82,2.01 -47.63,-2.03 -70.97,-3.11 -16.19,-0.74 -31.59,-0.74 -46.04,-0.44l-56.2 1.99 -21.91 0.31 -7.93 -0.04 -0.01 0z"/>
  <path class="fil0" d="M5662.01 2320.55c-2.06,-0.61 -4.6,2.35 -7.14,6.57 -4.61,7.5 -9.21,18.96 -10.48,21.43l-59.22 111.44c-13.18,27.24 -31.12,56.21 -44.77,86.13 -9.05,19.66 -16.04,39.73 -18.42,59.94 -3.17,27.69 7.78,58.26 25.24,87.22 25.56,42.49 65.42,81.02 95.09,103.78 24.13,18.37 52.55,29.33 82.56,37.44 17.94,4.88 36.35,8.43 54.93,11.65 29.21,5.07 58.42,9.15 85.89,12.65 96.53,13.6 197.66,16.96 298.95,12.32 101.6,-4.67 202.89,-17.27 299.1,-36.02 -95.26,25 -196.07,44.26 -297.68,55.32 -102.55,11.14 -205.59,13.75 -304.5,5.91 -28.26,-2.62 -58.58,-4.74 -88.75,-9.98 -20,-3.49 -40,-8.34 -59.21,-14.82 -33.66,-11.35 -64.93,-27.7 -90.65,-51.06 -29.53,-26.75 -67.48,-71.41 -91.61,-118.26 -17.14,-33.27 -27.63,-67.54 -22.7,-98.01 3.49,-21.3 11.75,-42.27 22.22,-62.72 14.93,-29.39 34.3,-57.7 48.58,-84.43l63.67 -109.18c1.43,-2.42 6.51,-13.66 11.43,-20.98 2.7,-4.15 5.4,-7.05 7.46,-6.34l0.01 0z"/>
  <path class="fil0" d="M4215.87 3441.24l20.48 22.15c8.89,10.61 17.46,21.47 26.67,31.84 6.19,6.81 12.39,13.38 19.37,19.48 25.88,22.68 55.57,44.86 87.32,63.45 31.43,18.39 64.77,33.1 97.63,41.99 49.54,12.29 100.5,19.47 151.94,28.04 22.7,3.8 45.41,8.4 68.27,12.43 53.18,9.38 106.84,17.92 160.66,23.85 87.32,9.61 174.48,14.4 259.1,15.96 -126.69,9.44 -260.21,14.04 -391.5,1.66 -34.93,-3.28 -70.02,-7.05 -104.15,-14.28 -52.07,-11.03 -101.92,-28.62 -150.66,-47.19 -33.5,-12.02 -66.84,-30.28 -98.11,-51.75 -30.8,-21.12 -59.69,-45.2 -84.46,-69.86 -6.67,-6.63 -12.86,-13.72 -18.57,-21.05 -8.58,-10.92 -16.52,-22.31 -24.93,-33.44l-19.05 -23.28 -0.01 0z"/>
  <path class="fil0" d="M5963.97 3228.31c-2.22,1.21 -1.27,2.26 0.96,3.19 4.6,1.83 14.92,3.18 19.68,4.31l42.55 7.69 125.57 20.04c22.23,3.74 45.88,5.78 68.74,10.51 15.88,3.28 31.28,7.9 45.41,15.09 33.34,16.47 70.96,56.43 100.34,101.43 30.64,46.87 51.12,99.43 48.73,139.22 -2.85,33.51 -22.54,61.11 -50.8,81.99 -35.72,26.56 -85.25,41.73 -118.91,52.99 -81.76,26.41 -164.95,46.81 -249.57,60.09 -83.99,13.21 -169.08,19.42 -254.65,17.72 84.93,-4.21 168.92,-16.23 251.31,-35.06 82.08,-18.73 162.57,-44.2 241.16,-75.57 30.17,-11.72 73.83,-28.63 106.53,-52.9 19.21,-14.25 35.4,-30.58 38.41,-53.32 5.4,-33.99 -9.05,-80.75 -32.07,-123.25 -23.97,-44.13 -57.15,-83.52 -87.16,-100.92 -12.86,-7.29 -26.82,-12.19 -41.43,-15.94 -22.38,-5.78 -45.88,-8.89 -67.79,-13.66l-124.46 -25.53 -42.24 -9.54c-4.6,-1.34 -14.92,-3.14 -19.36,-5.2 -2.38,-1.08 -3.34,-2.21 -0.96,-3.38l0.01 0z"/>
  <path class="fil0" d="M4189.82 4016.76l-51.6 42.36c-22.22,16.7 -44.6,32.86 -67.31,48.84 -33.97,24.03 -68.27,47.44 -102.88,70.55 -48.74,34.43 -97.79,67.36 -149.87,95.53 -15.55,8.43 -31.59,15.87 -47.78,23.25 -37.47,17.19 -75.57,32.65 -113.52,49.05 -15.4,6.61 -46.04,15.35 -70.49,28.32 -15.08,8 -28.26,16.9 -31.27,29.09 -4.29,16.51 7.62,34.38 23.65,51.36 24.77,26.32 60.49,49.63 76.68,60.42 -20.32,-10.75 -68.26,-35.97 -95.73,-65.18 -14.76,-15.84 -23.02,-33.12 -20.48,-49.77 1.91,-13.28 11.59,-25.39 25.09,-36.16 24.6,-19.54 62.55,-34.29 80.17,-43.91 41.59,-22.31 82.24,-45.5 124.15,-66.81 18.74,-9.53 37.79,-18.46 56.84,-27.34 44.61,-20.69 89.22,-40.36 133.04,-63.52 30,-17.06 59.85,-34.22 89.54,-52 29.69,-17.78 58.74,-36.12 87.78,-55.11l53.98 -38.97 0.01 0z"/>
  <path class="fil0" d="M4384.3 4769.95c-0.16,1.26 7.93,1.94 18.42,2.29 17.62,0.61 41.91,0.26 43.98,0.14 38.26,-2.12 76.36,-5.32 114.31,-9.74 37.94,-4.39 75.73,-9.99 113.35,-16.63 24.45,-4.47 48.74,-9.43 73.19,-15.41 55.57,-13.62 110.34,-32.99 165.9,-51.64 23.5,-7.82 47.16,-15.2 70.81,-22.98 54.93,-18.08 109.86,-37.02 163.52,-58.93 104.63,-42.69 204.96,-93.31 296.89,-150.07 -130.98,95.96 -281.49,181.9 -439.61,243.16 -18.89,7.33 -37.95,14.37 -57.16,20.39 -12.85,4.05 -26.03,7.53 -39.05,10.81 -54.14,13.6 -108.44,22.86 -162.25,30.82 -23.5,3.47 -46.68,6.81 -69.86,9.35 -38.26,4.5 -76.52,7.85 -114.94,10.21 -38.26,2.35 -76.52,3.7 -114.94,3.87 -2.23,0.01 -26.52,-0.9 -44.14,-2.38 -10.48,-0.89 -18.73,-2.02 -18.42,-3.25l0 -0.01z"/>
  <path class="fil0" d="M5761.23 4721.34c-3.33,-0.86 -7.93,1.58 -12.69,5.38 -9.37,7.37 -19.69,19.77 -23.98,23.32 -19.53,16.21 -39.37,32.01 -59.37,47.51 -20.01,15.53 -40.17,30.73 -60.81,45.7 -36.04,26.35 -86.68,44.87 -128.92,69.38 -18.09,10.59 -34.6,22.37 -47.46,36.46 -19.37,21.55 -33.02,49.04 -43.51,79.28 -16.19,47.12 -23.65,100.74 -32.7,149.36 -4.44,23.62 -9.52,46.04 -15.08,66.18 -8.58,27.42 -28.73,65.86 -39.69,102.93 -6.51,21.95 -10.48,43.28 -2.7,60.6 5.24,11.87 15.08,21.04 26.82,28.74 20.16,13.4 44.93,22.64 63.5,31.5 57.32,27.32 117.49,45.36 178.93,57.69 62.23,12.4 125.57,19.04 188.93,23.38 -76.69,-0.34 -153.69,-3.99 -228.78,-17.17 -50.8,-8.88 -100.49,-22.12 -148.75,-41.48 -20.32,-8.11 -46.84,-16.42 -69.06,-29.15 -17.47,-10.03 -31.91,-23.02 -40.64,-39.64 -9.37,-18.36 -10.8,-40.6 -7.15,-64.25 6.36,-43.29 30.64,-91.84 39.53,-124.63 6.83,-21.73 12.55,-46.44 18.9,-72.16 9.21,-36.41 19.68,-74.68 32.86,-110.71 15.88,-43.92 36.04,-84.22 65.73,-112.77 14.76,-14.55 33.18,-26.43 53.34,-36.95 43.02,-22.41 94.3,-38.62 131.3,-63.24 21.11,-14.08 41.91,-28.41 62.55,-43.05 20.48,-14.68 40.8,-29.66 61.12,-45.02 4.29,-3.36 15.08,-15.3 24.77,-22.25 4.92,-3.66 9.68,-5.95 13.01,-4.94z"/>
  <path class="fil0" d="M6691.88 5699.34l28.26 -8.17 52.87 -19.53 155.1 -63.63c44.47,-19.22 92.72,-38.08 141.14,-59.44 46.2,-20.3 91.93,-43.24 136.38,-67.48 23.65,-12.94 46.52,-26.8 69.06,-40.58 34.45,-21.17 67.79,-42.75 96.69,-68.42 18.89,-16.49 23.97,-34.97 20.63,-53.88 -3.81,-21.64 -16.66,-43.42 -31.27,-63.25 -27.31,-37.31 -58.27,-71.45 -91.45,-103.7 -50.01,-48.85 -104.46,-93.3 -157.96,-137.71 56.67,40.66 114.46,81.29 167.97,126.64 36.19,30.55 70.33,63.2 100.97,99.35 23.34,27.47 42.39,59.27 43.97,90.64 1.27,23.06 -6.82,46.03 -28.73,67.82 -22.23,21.82 -46.68,42.15 -73.35,60.35 -17.15,11.68 -34.93,22.66 -53.66,32.52 -63.19,33.28 -133.52,56.74 -201.31,80.38 -46.67,16.28 -92.24,32.22 -134.79,47.79l-158.12 56.38 -53.82 17.16 -28.58 6.75 0 0.01z"/>
  <path class="fil0" d="M4783.11 5889c-14.29,-1.2 -29.86,1.5 -45.41,5.86 -22.86,6.43 -45.88,16.39 -65.08,22.84 -40.17,13.46 -79.86,27.88 -119.39,43.14 -39.38,15.26 -78.43,31.34 -117.49,47.71 -72.08,31.81 -143.67,60.01 -217.18,81.52 -33.34,9.75 -67.16,17.32 -101.13,24.96 -78.11,17.64 -156.86,32.36 -236.56,50.55 -31.43,7.14 -62.71,15.57 -93.03,26.36 -30.32,10.83 -59.69,23.94 -87.78,40.51 -12.55,7.44 -28.58,17.05 -40.65,29.16 -8.25,8.23 -14.76,17.59 -17.3,28.18 1.74,-10.94 7.62,-20.91 15.4,-29.88 11.43,-13.24 26.99,-24.23 39.21,-32.72 27.15,-18.93 56.2,-34.48 86.21,-47.77 30,-13.27 61.12,-24.19 92.71,-33.83 93.2,-28.15 185.12,-53.58 276.89,-79.55 13.81,-3.89 27.62,-7.78 41.43,-11.39 13.97,-3.6 27.78,-6.89 41.76,-10.27 64.45,-15.56 128.75,-31.86 193.21,-53.22 48.1,-17.07 96.21,-33.56 144.63,-49.1 32.38,-10.33 64.77,-20.27 97.48,-29.5 19.53,-5.54 43.02,-14.43 66.2,-19.77 15.87,-3.66 31.43,-5.65 45.88,-3.78l-0.01 -0.01z"/>
  <path class="fil0" d="M6200.37 6011.82l10 9.67 23.49 18.69 68.27 49.17 57.16 40.05c28.73,19.03 104.14,51.96 143.83,93.02 22.54,23.31 33.5,49.47 24.61,77.78 -8.41,27.44 -27.62,52.11 -51.6,73.54 -16.03,14.28 -34.14,27.19 -52.7,37.97 -19.53,11.48 -39.69,20.3 -56.68,28 -78.27,33.57 -161.46,61.78 -246.56,83.33 -84.62,21.49 -170.51,36.29 -254.8,44.08 82.87,-14.16 167.02,-35.79 249.1,-63.37 81.76,-27.41 161.3,-60.74 235.6,-99.24 16.03,-7.86 34.29,-17.78 53.19,-28.36 16.82,-9.44 34.14,-19.32 49.69,-30.89 21.11,-15.68 39.53,-33.17 48.74,-54.65 10.79,-25.19 -5.72,-49.4 -29.38,-71.45 -37.94,-35.52 -95.41,-64.17 -118.75,-81.6l-55.25 -43.1 -65.72 -52.5 -22.87 -19.91 -9.36 -10.23 -0.01 0z"/>
  <path class="fil0" d="M4783.7 6970.34c-134.45,-31.9 -267.8,-68.4 -402.24,-100.75 -57.63,-13.99 -115.42,-27.19 -173.68,-38.96 58.9,7.96 117.49,17.34 176.07,27.51 136.37,23.85 271.96,52.01 408.49,75.54 37.15,7.17 76.21,12.4 114.15,21.16 18.66,4.38 37.03,9.54 55,15.5l-177.78 0 -0.01 0z"/>
  <path class="fil0" d="M5166.68 6901.3c23.09,24.53 43.78,47.44 62.06,69.04l-86.97 0c-6.51,-6.69 -13.22,-13.55 -20.18,-20.54 -4.44,6.67 -22.22,-9.87 -42.69,-16.38 -95.09,-30.06 -300.06,-78.41 -515.5,-122.46 -216.71,-44.38 -444.21,-84.45 -581.53,-98.28 -121.29,-11.78 -221.15,-21.63 -305.93,-24.82 -124.31,-4.76 -215.6,3.5 -294.98,36.43 -95.51,39.67 -173.25,115.29 -271.39,246.05l-59.94 0c118.38,-155.25 207.44,-240.77 315.76,-284.21 84.3,-33.89 180.51,-42.32 312.13,-37.54 85.25,3.02 185.9,11.13 308.31,21.63 163.35,13.51 454.05,61.54 704.42,110.2 182.58,35.45 343.71,71.08 419.29,94.29 32.07,9.87 51.44,20.52 57.15,26.57l-0.01 0.02z"/>
 </g>
</svg>
