<?xml version="1.0" encoding="UTF-8"?>
<!DOCTYPE svg PUBLIC "-//W3C//DTD SVG 1.1//EN" "http://www.w3.org/Graphics/SVG/1.1/DTD/svg11.dtd">
<!-- Creator: CorelDRAW -->
<svg xmlns="http://www.w3.org/2000/svg" xml:space="preserve" width="60mm" height="60mm" version="1.1" style="shape-rendering:geometricPrecision; text-rendering:geometricPrecision; image-rendering:optimizeQuality; fill-rule:evenodd; clip-rule:evenodd"
viewBox="0 0 6000 6000"
 xmlns:xlink="http://www.w3.org/1999/xlink"
 xmlns:xodm="http://www.corel.com/coreldraw/odm/2003">
 <defs>
  <style type="text/css">
   <![CDATA[
    .str4 {stroke:#2B2A29;stroke-width:20;stroke-miterlimit:22.9256}
    .str1 {stroke:#434242;stroke-width:20;stroke-miterlimit:22.9256}
    .str3 {stroke:#66C3D0;stroke-width:20;stroke-miterlimit:22.9256}
    .str0 {stroke:#A2D9F7;stroke-width:20;stroke-miterlimit:22.9256}
    .str2 {stroke:#A75F4A;stroke-width:20;stroke-miterlimit:22.9256}
    .fil2 {fill:none}
    .fil1 {fill:#434242}
    .fil3 {fill:#66C3D0}
    .fil0 {fill:#A2D9F7}
    .fil4 {fill:#2C2C2C;fill-rule:nonzero}
    .fil5 {fill:#434242;fill-rule:nonzero}
   ]]>
  </style>
 </defs>
 <g id="Vrstva_x0020_1">
  <metadata id="CorelCorpID_0Corel-Layer"/>
  <polygon class="fil0 str0" points="3802.59,2732.83 3461.12,2744.45 3452.23,3341.87 3790.76,3332.4 3802.99,2756.23 "/>
  <polygon class="fil1 str1" points="3447.82,2729.22 2813.9,2670.68 2866.56,3460.66 3455.62,3456.75 "/>
  <polyline class="fil2 str2" points="2434.33,2683.03 2331.29,2704.41 2325.36,3467.23 2428.54,3484.67 2865.67,3447.38 2849.26,3350.67 2421.82,3333.8 2434.79,2687.97 "/>
  <path class="fil1 str1" d="M2407.18 3100.11c-0.01,0.25 -0.01,0.51 -0.01,0.77 0,-0.23 0,-0.5 0.01,-0.77zm0.03 -0.42c-0.02,0.14 -0.02,0.29 -0.04,0.42 0.01,-0.14 0.02,-0.29 0.04,-0.42zm-0.01 0c-0.02,0.14 -0.03,0.29 -0.03,0.42 0,-0.12 0,-0.28 0.03,-0.42zm14.62 234.11l0.91 -45.29c-36.81,-1.02 -10.53,-42.4 -15.53,-188.8 0.01,-0.12 0.02,-0.23 0.02,-0.34 0,-0.08 0.01,-0.16 0.01,-0.25 0.01,-0.27 0.02,-0.56 0.02,-0.84 0,-0.06 0,-0.1 0,-0.16 0,-0.15 0,-0.28 0,-0.42 0,-0.1 0,-0.17 0,-0.27 0,-0.08 0,-0.16 0.05,-0.25 0.04,-0.55 0.04,-1.16 0.04,-1.76 0,-0.06 0,-0.12 0,-0.18 0.01,-0.59 0.05,-1.16 0.07,-1.76 0.01,-0.19 0.01,-0.37 0.02,-0.59 0.07,-3.42 0.19,-6.81 0.31,-10.18 0.03,-0.9 0.07,-1.81 0.12,-2.71 0.01,-0.42 0.03,-0.84 -0.02,-1.26 0.01,-0.11 0.02,-0.22 0.03,-0.33 0.06,-0.76 0.06,-1.55 0.06,-2.28 3.85,-127.89 5.78,-256.42 24.87,-383.17l-50.48 0.89 -22.15 4.59c33.15,251.13 19.14,510.22 -34.72,757.16l-0.09 11.65 82.3 13.89c7.61,-3.14 21.58,-6.58 42.97,-10.25 137.29,-20.32 275.42,-27.68 413.85,-30.53l-15.21 -89.68c-38.17,19.85 -124.79,5.52 -303.8,2.37 -0.26,0 -0.51,-0.07 -0.76,-0.05 -0.22,-0.01 -0.45,-0.02 -0.67,-0.02 -0.33,0 -0.65,0 -1.01,0 -124.31,-5.87 -165.19,-14.21 -121.21,-19.17l0 -0.01z"/>
  <polygon class="fil3 str3" points="2811.63,2708.94 2446.86,2694.01 2421.82,3333.8 2854.63,3331.98 "/>
  <polyline class="fil2 str2" points="2362.91,2598.72 3873.46,2654.4 3872.09,2735.45 "/>
  <polyline class="fil2 str2" points="3872.09,2735.45 2653.41,2689.13 2343.08,2694.5 2349.57,2596.97 "/>
  <path class="fil1 str1" d="M2904.64 2698.67c-0.64,-5.37 0.03,-11.96 2.33,-20.09 1.77,6.36 3.09,13.5 4.36,20.34l113.05 4.3c63.63,-0.43 127.5,2.83 191.21,7.27l306.27 11.65c8.5,-0.79 17.82,-1.61 27.59,-2.47 181.34,8.32 252.49,-8.82 277.37,14.07l34.66 1.32c3.55,-16.27 7.36,-32.47 11.45,-48.61l0.54 -32.06 -19.87 -0.83c-1.4,6.55 -38.95,12.08 -130.45,15.42 -96.48,23.91 -1509.76,-27.07 -1350.07,-68.7l-20.3 -3.13c1.73,9.18 -6.26,12.8 -4.67,22.01 4.32,24.92 8.16,49.95 11.53,75.05l73.17 -1.27c0.5,-3.29 1.01,-6.6 1.53,-9.91 0.31,3.3 0.61,6.58 0.89,9.88l86.37 -1.5c-64.95,-7.09 -109.84,-15.84 -32.28,-18.81 232.03,21.44 319.33,0.11 347.82,23.51l67.51 2.56 -0.01 0z"/>
  <polygon class="fil1 str1" points="3802.21,3355.76 3452.23,3341.87 3452.99,3456.78 3872.33,3457.84 3872.09,2735.45 3820.33,2739.42 "/>
  <path class="fil1 str1" d="M3731.76 3352.97c45.24,9.01 38.55,13.66 -44.1,9.75 -36.92,-8.49 -174.02,7.07 -233.09,-5.1l0.79 74.28c138.92,-0.52 278.53,-0.92 416.97,11.62l-0.03 -85.05c-4.15,19.53 -8.65,38.99 -13.47,58.31 -22.7,-112.02 -34.14,-226.81 -33.89,-341.69 -9.93,71.16 -14.04,264.26 -21.04,222.8l-1.7 57.85 -70.45 -2.79 0.01 0.02z"/>
  <path class="fil1 str1" d="M3831.01 2738.59c18.94,27.77 -2.95,98.29 -4.8,273.84 3.77,-92.9 15.27,-185.47 34.99,-276.14l-30.19 2.3z"/>
  <path class="fil4" d="M3723.13 2668.99c424.47,-15.5 -312.08,-77.83 -432.55,-72.61 1.68,0.09 3.36,0.09 5.04,0.09 -3.11,0 -6.22,-0.09 -9.33,-0.09 0.34,0 0.67,0 1.01,0 -258.43,-2.94 -516.52,-30.99 -775.14,-18.53 -682.82,40.27 1102.26,118.09 1210.97,91.14z"/>
  <path class="fil4" d="M3017.78 3508.76c318.71,-14.89 641.54,3.2 956.73,-53.39 -176.46,-25.26 -355.62,-24.09 -533.52,-23.42 -329.98,15.76 -662.56,-9.6 -990.35,38.91 -246.07,42.36 490.81,49.61 567.15,37.89l-0.01 0.01z"/>
  <path class="fil4" d="M2343.11 2591.57c-66.5,285.09 -70.87,586.87 -20.01,874.67 63.64,-285.27 74.07,-587.22 20.01,-874.67z"/>
  <path class="fil4" d="M2489.31 2672.6c-140.15,5.39 119.55,29.56 174.87,28.88 58.42,14.15 175.37,-26.45 154.85,66.62 -1.42,35.72 10.85,208.63 15.39,155.3 0.17,-3.03 0.25,-6.14 0.42,-9.18 0,0 0,0 0,0.09 0.08,-3.62 0.25,-7.25 0.42,-10.79 0,0.34 -0.08,0.69 -0.08,1.01 17.57,-298.57 82.47,-192.36 -345.87,-231.94l0 0.01z"/>
  <path class="fil4" d="M2834.5 2923.24c0,0.09 0,0.09 -0.08,0.17 0,0.17 0,0.35 0,0.42 0,-0.17 0,-0.42 0.08,-0.59z"/>
  <path class="fil4" d="M2696.29 3032.32c4.04,76.14 7.48,-50.2 8.58,-79.77 13.11,-257.98 41.7,-231.62 -217.08,-238.43 287.86,56.85 159.99,-6.14 208.5,318.21l0 -0.01z"/>
  <path class="fil4" d="M2407.18 3100.88c0,-0.52 0,-1.01 0.08,-1.53 0,0.1 0,0.26 -0.08,0.34 0,0.42 0,0.85 0,1.19z"/>
  <path class="fil5 str1" d="M2574.98 3261.16c0.08,0 0.08,0 0.16,0 -49.01,-5.39 -98.61,-7.33 -147.37,1.43 -7.91,-193.14 24.71,-387.44 6.56,-579.56 -20.52,129.96 -22.45,261.85 -26.4,393.08 0,0.84 0,1.76 -0.09,2.61 0,-0.08 0.09,-0.26 0.09,-0.33 -0.09,1.42 -0.09,2.86 -0.17,4.3 0,-0.94 0.08,-1.77 0.08,-2.71 -0.17,4.47 -0.33,8.95 -0.42,13.47 0,-0.25 0,-0.42 0,-0.59 0,0.84 -0.08,1.68 -0.08,2.53 0,0 0,-0.08 0,-0.18 0,0.85 0,1.69 -0.09,2.46 0,-0.17 0,-0.35 0,-0.52 0,0.35 0,0.68 0,0.94 0,-0.17 0,-0.42 0,-0.69 0,0.94 0,1.78 -0.08,2.7 0,-0.34 0.08,-0.66 0.08,-1.01 0,0.09 0,0.17 0,0.25 0,-0.33 0,-0.75 0,-1.09 8.16,234.99 -64.06,201.38 167.73,162.9l0 0.01z"/>
  <path class="fil4" d="M2545.48 3353.03c-0.26,0 -0.51,-0.07 -0.76,-0.07 -0.25,0 -0.42,0 -0.67,0 0.5,0 1.01,0.07 1.43,0.07z"/>
  <path class="fil4" d="M2848.88 3000.47c-0.76,5.81 -1.09,11.54 -1.18,17.45 -0.08,2.61 -0.17,5.21 -0.25,7.82 0,-0.07 0,-0.17 0,-0.17 -1.85,23.26 -1.09,46.59 -1.76,69.9 -1.77,35.54 -3.2,71.16 -3.79,106.79 -5.97,38.83 8.66,95.43 -9.16,125.5 -95.25,22.48 -193.11,-3.29 -289.63,1.85 -185.29,0.6 -183.78,14.65 -0.08,23.34 0.59,0 1.09,0 1.68,0 412.54,7.32 335.53,73.85 304.17,-352.49l0 0.01z"/>
  <path class="fil4" d="M2915.3 2708.06c0.33,0.18 0.67,0.25 1.09,0.35 -3.45,-0.35 -4.12,-3.55 -4.54,-6.33 0.08,0.09 0.08,0.17 0.08,0.35 0,-0.35 -0.08,-0.6 -0.17,-0.85 0.09,0.08 0.09,0.08 0.09,0.17 -1.43,-7.66 -2.86,-15.93 -4.88,-23.16 -14.71,52.04 37.33,41.51 71.97,43.97 132.33,10.78 264.74,10.52 397.07,0.15 -152.59,-11.2 -307.95,-27.86 -460.71,-14.65z"/>
  <path class="fil4" d="M3021.14 2818.48c82.56,-5.14 294.84,9.6 314.25,-4.8 -0.08,0 -0.17,0 -0.25,0 -2.69,-0.27 -5.38,-0.44 -8.07,-0.69 0.25,0 0.42,0 0.58,0.1 -95.08,-10.95 -190.67,-22.07 -286.59,-20.48 -51.96,-6.49 -136.7,38.41 -127.46,-42.69 -26.06,93.49 46.41,61.14 107.53,68.57l0.01 -0.01z"/>
  <path class="fil4" d="M2901.59 2859.42c0,-2.95 -0.17,-5.81 -0.67,-8.27 0.08,2.96 0.34,5.74 0.67,8.27z"/>
  <path class="fil4" d="M2922.36 2912.88c138.46,9.86 277.43,6.65 415.73,2.19 -47.42,-16.41 -191.18,-14.9 -274.07,-22.07 -56.58,-14.73 -153.52,37.9 -162.43,-33.59 0.09,22.07 -8.4,56.25 20.77,53.47z"/>
  <path class="fil4" d="M2995.75 3026.09c100.88,0.32 305.6,7.4 355.29,-3.63 0.08,0 0.25,0 0.33,0 -101.39,-13.47 -203.53,-19.46 -305.76,-20.38 -69.28,-12.56 -131.83,36.13 -150.07,-44.06 -7.06,84.65 35.73,62.93 100.21,68.07z"/>
  <path class="fil4" d="M2895.54 2957.27c-0.59,-3.12 -1.26,-6.15 -2.02,-9.26 0.59,3.53 1.26,6.9 2.02,10.01 0,-0.25 0,-0.5 0,-0.75z"/>
  <path class="fil4" d="M2912.19 3091.77c0.16,0.18 0.5,0.25 0.67,0.42 -0.25,-0.07 -0.51,-0.24 -0.67,-0.42zm1.17 0.6c-5.88,-13.14 -8.15,-28.72 -14.12,-41.78 1.18,33.78 -1.01,64.52 43.13,58.54 133.84,14.57 268.27,10.46 402.61,5.56 -35.73,-20.89 -317.2,-22.74 -431.62,-22.32z"/>
  <path class="fil4" d="M2994.91 3197.49c-63.39,6.9 -62.3,15.91 -88.95,-43.97 11.52,27.04 0.34,73.36 43.97,66.37 138.38,4.21 276.77,0.68 414.98,-6.74 -121.91,-17.1 -246.83,-19.88 -370,-15.66z"/>
  <path class="fil4" d="M3356.25 3297.62c-146.45,-11.79 -293.83,-8.84 -440.11,1 -11.19,-8.32 -9.08,-32.08 -18.92,-43.53 -4.29,85.4 55.82,54.49 115.93,62.74 97.53,-2.86 295.43,-6.31 342.76,-20.21 0.09,0 0.25,0 0.34,0z"/>
  <path class="fil4" d="M3351.79 3399.79c0.09,0 0.17,0 0.34,0.09 -0.17,-0.09 -0.25,-0.09 -0.34,-0.09z"/>
  <path class="fil4" d="M2995.33 3413.34c102.9,9.78 300.05,-1.1 356.46,-13.56 -122.74,-11.19 -246.07,-7.92 -368.65,-3.62 -6.39,-10.86 2.52,-32.77 -8.66,-44.72 7.48,24.51 -21.77,61.4 20.85,61.9z"/>
  <path class="fil4" d="M3697.24 2808.96c-20.51,-45.07 -82.05,-14.57 -120.64,-26.11 -108.62,-0.67 -184.2,3.03 -20.93,19.88 154.01,5.39 116.43,35.95 112.72,166.83 -6.55,75.3 9.08,379.43 14.55,182.94 -1.77,-114.29 28.92,-230.51 14.29,-343.54l0.01 0z"/>
  <path class="fil4" d="M3824.94 3075.11c-0.26,114.88 11.18,229.67 33.89,341.69 60.11,-241.3 69.19,-498.17 16.98,-741.58 -28.75,110 -44.98,223.35 -49.6,337.22 3.86,-365.35 94.49,-275.74 -276.77,-292.76 -67.93,5.98 -114.5,9.86 -12.02,16.6 84.83,17.44 190.68,-4.04 265.58,19.96 9.17,158.93 -4.29,317.94 -4.2,476.87 10.59,196.75 14.04,-71.24 26.15,-158l-0.01 0z"/>
  <path class="fil4" d="M3687.66 3362.72c105.42,4.98 87.26,-3.95 -4.63,-18.1 -199.41,-21.05 -229.26,14.73 -230.86,-68.22 72.39,12.96 144.77,8.66 217.66,4.3 -0.16,0 -0.42,0 -0.58,0 21.94,-8.7 -81.3,-20.31 -106.86,-14.24 -36.57,3.36 -73.9,2.19 -110.3,6.91 -0.5,-51.21 8.41,-145.38 -3.11,-319.97 -31.02,125.74 -20.77,259.57 -21.52,388.26 8.32,37.83 213.71,10.36 260.2,21.06z"/>
  <path class="fil4" d="M3441.66 2780.83c-5.46,47.93 -5.46,98.61 11.02,144.1 0.33,-48.26 5.21,-97.86 -11.02,-144.1z"/>
  <path class="fil0 str4" d="M2574.98 3261.14c0.05,0.01 0.11,0.01 0.16,0.02 -0.08,0 -0.08,0 -0.16,-0.02zm-148.42 -48.67c0.14,16.7 0.52,33.41 1.2,50.12 48.71,-8.75 98.25,-6.82 147.21,-1.43 -85.1,14.13 -129.22,27.59 -151.39,27.36l-1.77 45.27c21.01,-2.37 61.39,-3.98 121.29,-4.17 36.72,-1.95 73.63,0.56 110.52,3.21l156.92 -0.67c7.41,-1.2 14.81,-2.64 22.19,-4.39 17.82,-30.07 3.19,-86.67 9.16,-125.5l1.18 -37.62 -30.6 -443.38c-5.86,-6.64 -14.29,-10.78 -24.34,-13.29l-76.39 -3.14c-13.41,0.2 -26.39,0.05 -37.84,-1.55l-227.05 -9.28 -20.29 518.46zm278.3 -259.92c-1.1,29.57 -4.54,155.91 -8.58,79.77 -48.51,-324.35 79.36,-261.35 -208.5,-318.21 258.78,6.82 230.19,-19.54 217.08,238.43l0 0.01z"/>
 </g>
</svg>
