<?xml version="1.0" encoding="UTF-8"?>
<!DOCTYPE svg PUBLIC "-//W3C//DTD SVG 1.1//EN" "http://www.w3.org/Graphics/SVG/1.1/DTD/svg11.dtd">
<!-- Creator: CorelDRAW -->
<svg xmlns="http://www.w3.org/2000/svg" xml:space="preserve" width="60mm" height="60mm" version="1.1" style="shape-rendering:geometricPrecision; text-rendering:geometricPrecision; image-rendering:optimizeQuality; fill-rule:evenodd; clip-rule:evenodd"
viewBox="0 0 6000 6000"
 xmlns:xlink="http://www.w3.org/1999/xlink"
 xmlns:xodm="http://www.corel.com/coreldraw/odm/2003">
 <defs>
  <style type="text/css">
   <![CDATA[
    .str2 {stroke:#2B2A29;stroke-width:20;stroke-miterlimit:22.9256}
    .str0 {stroke:#434242;stroke-width:20;stroke-miterlimit:22.9256}
    .str1 {stroke:#A2D9F7;stroke-width:20;stroke-miterlimit:22.9256}
    .fil2 {fill:none}
    .fil0 {fill:#434242}
    .fil1 {fill:#A2D9F7}
    .fil3 {fill:#2C2C2C;fill-rule:nonzero}
   ]]>
  </style>
 </defs>
 <g id="Vrstva_x0020_1">
  <metadata id="CorelCorpID_0Corel-Layer"/>
  <polygon class="fil0 str0" points="2875.58,3597.73 2528.34,3569.86 2480.83,3528.36 2512.3,3504 2883.23,3514.31 "/>
  <polygon class="fil1 str1" points="2638.77,2171.96 2875.85,2088.69 2882.8,3480.67 2621.27,3468.85 "/>
  <path class="fil1 str2" d="M2813.71 2224.21c-93.82,23.58 -149.39,34.7 -170.24,35.89 38.15,271.08 47.38,548.68 28.33,822.99 -7.72,111.33 -20.1,222.12 -37.09,331.7 -5.23,-31.12 -10.07,-62.34 -14.52,-93.64l1.07 147.69 246.62 11.16c-18.51,-131.18 -25.22,-264.11 -27.34,-396.91 -0.94,-58.15 -0.99,-116.29 -0.78,-174.23 -1.68,-273.73 -12.27,-549.46 36.07,-820.17 -13.7,8.09 -29.68,16.51 -38.25,20.97 -64.15,35.05 -136.11,50.03 -207.57,62.59 4.37,26.61 8.49,53.22 12.27,79.93 20.77,-10.53 79.7,-30.91 172.6,-58.04 59.44,-0.67 11.68,140.91 15.3,180.74 -7.06,-49.6 -10.42,-100.63 -16.48,-150.68l0.01 0.01z"/>
  <line class="fil2 str0" x1="2634.16" y1="2163.74" x2="2645.81" y2= "2250.48" />
  <polyline class="fil2 str0" points="2645.81,2250.48 2872.3,2206.34 2867.85,2091.42 2635.65,2174.78 "/>
  <path class="fil0 str0" d="M2645.81 2250.48c23.42,-10.95 80.97,-30.62 169.09,-56.34 13.38,-0.14 21.32,6.9 25.65,18.38l17.5 -3.41c3.23,-27.14 6.95,-54.23 11.22,-81.27l-1.34 -34.58c-11.54,6.54 -23.37,12.77 -30.33,16.39 -62.61,34.21 -132.65,49.3 -202.4,61.68l10.62 79.14 -0.01 0.01z"/>
  <path class="fil3" d="M2929.42 2733.1c2.18,-214.36 -5.3,-430.13 -45.15,-640.96 18.83,-11.7 28.6,-21.05 -2.69,-13.99 -0.25,-1.26 -0.42,-2.43 -0.67,-3.62 -0.25,1.26 -0.5,2.62 -0.76,3.89 -0.75,0.15 -1.43,0.32 -2.18,0.57 -97.1,6.16 -197.07,30.34 -265.16,104.44 4.71,-0.75 9.41,-1.59 14.12,-2.43 -62.3,408.99 -59.69,834.23 8.74,1241.77 58.85,-379.58 62.39,-773.58 8.75,-1154.69 20.85,-1.19 76.42,-12.31 170.24,-35.88 6.06,50.03 9.42,101.07 16.48,150.67 -3.62,-39.84 44.14,-181.42 -15.3,-180.74 -92.9,27.13 -151.83,47.51 -172.6,58.04 -3.78,-26.71 -7.9,-53.32 -12.27,-79.94 71.46,-12.54 143.42,-27.53 207.57,-62.58 8.57,-4.45 24.55,-12.88 38.25,-20.96 -48.34,270.7 -37.75,546.43 -36.07,820.17 -0.84,230.35 2.53,463.63 48.43,689.86 54.98,-287.7 39.92,-582.32 40.27,-873.64l0 0.02z"/>
  <path class="fil3" d="M2476.5 3559.15c5.72,-85.39 110.3,-22.14 164.78,-27.36 60.62,7.82 121.57,6.48 181.75,-4.31 125.52,-11.79 -222.62,-77.9 -271.21,-55.16 -59.02,0.42 -104.75,20.22 -75.33,86.83l0.01 0z"/>
  <path class="fil3" d="M2738.64 3623.08c316.61,12.14 -69.03,-80.09 -175.12,-65.02 -174.69,9.36 108.11,71.08 175.12,65.02z"/>
 </g>
</svg>
