<svg xmlns="http://www.w3.org/2000/svg" xmlns:xlink="http://www.w3.org/1999/xlink" width="160" zoomAndPan="magnify" viewBox="0 0 120 95.999999" height="127" preserveAspectRatio="xMidYMid meet" version="1.0"><defs><clipPath id="9763b532f2"><path d="M 13.808594 8.367188 L 102.207031 8.367188 L 102.207031 14.480469 L 13.808594 14.480469 Z M 13.808594 8.367188 " clip-rule="nonzero"/></clipPath><clipPath id="0346a2fc2a"><path d="M 31.273438 8.527344 C 28.53125 8.527344 25.804688 8.578125 23.0625 8.71875 C -11.425781 10.746094 60.984375 14.40625 86.351562 14.40625 C 90.5625 14.40625 93.484375 14.308594 94.394531 14.078125 C 118.402344 13.207031 79.351562 9.789062 69.921875 9.789062 C 69.53125 9.789062 69.191406 9.796875 68.914062 9.808594 L 69.113281 9.816406 L 68.84375 9.808594 L 68.703125 9.808594 C 56.234375 9.65625 43.753906 8.527344 31.273438 8.527344 Z M 31.273438 8.527344 " clip-rule="nonzero"/></clipPath><clipPath id="d6edfd76a7"><path d="M 16.355469 58.808594 L 109.339844 58.808594 L 109.339844 63.902344 L 16.355469 63.902344 Z M 16.355469 58.808594 " clip-rule="nonzero"/></clipPath><clipPath id="d888fc8f03"><path d="M 52.84375 63.449219 C 71.613281 62.566406 90.632812 63.636719 109.203125 60.308594 C 98.8125 58.816406 88.253906 58.886719 77.773438 58.929688 C 58.332031 59.859375 38.742188 58.367188 19.441406 61.21875 C 4.941406 63.707031 48.351562 64.128906 52.84375 63.449219 " clip-rule="nonzero"/></clipPath><clipPath id="becb032d80"><path d="M 9.734375 9.386719 L 15.335938 9.386719 L 15.335938 61 L 9.734375 61 Z M 9.734375 9.386719 " clip-rule="nonzero"/></clipPath><clipPath id="aa5305d37c"><path d="M 13.101562 9.519531 C 9.183594 26.289062 8.933594 44.027344 11.921875 60.949219 C 15.671875 44.179688 16.28125 26.429688 13.101562 9.519531 " clip-rule="nonzero"/></clipPath><clipPath id="8abd5f0bf8"><path d="M 19.160156 14.226562 L 43 14.226562 L 43 29.765625 L 19.160156 29.765625 Z M 19.160156 14.226562 " clip-rule="nonzero"/></clipPath><clipPath id="9d6c58d4ba"><path d="M 21.714844 14.289062 C 13.453125 14.609375 28.753906 16.027344 32.011719 15.988281 C 35.453125 16.816406 42.34375 14.4375 41.132812 19.90625 C 41.042969 22.007812 41.773438 32.179688 42.042969 29.039062 L 42.054688 28.679688 L 42.0625 28.496094 L 42.082031 28.078125 L 42.082031 27.90625 C 43.121094 10.367188 46.941406 16.617188 21.714844 14.289062 " clip-rule="nonzero"/></clipPath><clipPath id="b6942c145e"><path d="M 21.453125 16.519531 L 34.953125 16.519531 L 34.953125 36.898438 L 21.453125 36.898438 Z M 21.453125 16.519531 " clip-rule="nonzero"/></clipPath><clipPath id="a728af9fc5"><path d="M 33.902344 35.4375 C 34.144531 39.917969 34.34375 32.488281 34.402344 30.746094 C 35.171875 15.578125 36.863281 17.128906 21.613281 16.726562 C 38.5625 20.066406 31.03125 16.367188 33.894531 35.4375 " clip-rule="nonzero"/></clipPath><clipPath id="58a957d0aa"><path d="M 16.609375 14.738281 L 26.800781 14.738281 L 26.800781 50.65625 L 16.609375 50.65625 Z M 16.609375 14.738281 " clip-rule="nonzero"/></clipPath><clipPath id="33c501371d"><path d="M 26.761719 48.886719 L 26.773438 48.886719 C 23.894531 48.566406 20.972656 48.457031 18.09375 48.976562 C 17.632812 37.617188 19.542969 26.199219 18.484375 14.90625 C 17.273438 22.546875 17.164062 30.296875 16.933594 38.019531 L 16.933594 38.15625 L 16.921875 38.316406 L 16.921875 38.296875 L 16.902344 38.769531 L 16.902344 39.238281 L 16.894531 39.269531 L 16.894531 39.335938 C 17.371094 53.128906 13.121094 51.15625 26.773438 48.886719 " clip-rule="nonzero"/></clipPath><clipPath id="712a25508f"><path d="M 14 33.332031 L 44.632812 33.332031 L 44.632812 54.988281 L 14 54.988281 Z M 14 33.332031 " clip-rule="nonzero"/></clipPath><clipPath id="47e75dce7d"><path d="M 42.894531 33.566406 L 42.824219 34.246094 L 42.804688 35.046875 C 42.691406 36.40625 42.742188 37.789062 42.691406 39.15625 L 42.472656 45.4375 C 42.121094 47.71875 42.984375 51.046875 41.933594 52.816406 C 36.324219 54.136719 30.554688 52.628906 24.871094 52.929688 L 14.054688 53.789062 L 24.933594 54.296875 C 49.273438 54.726562 44.734375 58.636719 42.882812 33.578125 " clip-rule="nonzero"/></clipPath><clipPath id="4f863be4c1"><path d="M 46.160156 15 L 74 15 L 74 17.792969 L 46.160156 17.792969 Z M 46.160156 15 " clip-rule="nonzero"/></clipPath><clipPath id="a83a0056ab"><path d="M 46.804688 16.367188 L 46.84375 16.386719 L 46.621094 16.1875 L 46.601562 16.007812 L 46.601562 15.996094 L 46.433594 15.066406 C 45.453125 17.699219 48.511719 17.089844 50.554688 17.226562 C 58.34375 17.867188 66.144531 17.847656 73.941406 17.238281 C 64.953125 16.578125 55.804688 15.597656 46.804688 16.378906 " clip-rule="nonzero"/></clipPath><clipPath id="3f89f7f409"><path d="M 46.160156 18.8125 L 71.636719 18.8125 L 71.636719 23 L 46.160156 23 Z M 46.160156 18.8125 " clip-rule="nonzero"/></clipPath><clipPath id="3cb102c918"><path d="M 53.042969 22.859375 C 57.902344 22.558594 70.414062 23.429688 71.554688 22.578125 L 71.542969 22.578125 L 71.222656 22.558594 L 71.09375 22.539062 C 65.503906 21.898438 59.871094 21.246094 54.222656 21.339844 C 51.164062 20.957031 46.171875 23.597656 46.710938 18.828125 C 45.171875 24.328125 49.441406 22.429688 53.042969 22.859375 " clip-rule="nonzero"/></clipPath><clipPath id="fd0aedd0bf"><path d="M 45.90625 24.925781 L 46 24.925781 L 46 25.4375 L 45.90625 25.4375 Z M 45.90625 24.925781 " clip-rule="nonzero"/></clipPath><clipPath id="84756485e3"><path d="M 45.992188 25.269531 L 45.984375 24.929688 L 45.972656 25.117188 " clip-rule="nonzero"/></clipPath><clipPath id="8b9c48683a"><path d="M 45.90625 25.179688 L 71.890625 25.179688 L 71.890625 29 L 45.90625 29 Z M 45.90625 25.179688 " clip-rule="nonzero"/></clipPath><clipPath id="25face5546"><path d="M 47.222656 28.40625 C 55.371094 28.988281 63.5625 28.796875 71.703125 28.539062 C 68.914062 27.578125 60.441406 27.65625 55.5625 27.238281 C 52.234375 26.367188 46.523438 29.46875 45.992188 25.257812 C 46.003906 26.558594 45.503906 28.566406 47.222656 28.398438 " clip-rule="nonzero"/></clipPath><clipPath id="82a1c61254"><path d="M 45.398438 30.53125 L 45.652344 30.53125 L 45.652344 31.039062 L 45.398438 31.039062 Z M 45.398438 30.53125 " clip-rule="nonzero"/></clipPath><clipPath id="7b1e2cafdb"><path d="M 45.644531 31.019531 L 45.574219 30.65625 L 45.601562 30.878906 L 45.644531 31.027344 " clip-rule="nonzero"/></clipPath><clipPath id="6f34f0d484"><path d="M 45.652344 36.390625 L 72.144531 36.390625 L 72.144531 40.722656 L 45.652344 40.722656 Z M 45.652344 36.390625 " clip-rule="nonzero"/></clipPath><clipPath id="80969cb746"><path d="M 46.621094 38.929688 L 46.652344 38.949219 L 46.632812 38.9375 Z M 46.691406 38.96875 L 45.863281 36.507812 L 45.804688 40.296875 C 56.28125 40.796875 64.203125 40.558594 72.113281 40.277344 C 70.011719 39.046875 53.433594 38.9375 46.691406 38.96875 " clip-rule="nonzero"/></clipPath><clipPath id="1d954b7cb2"><path d="M 46.160156 42.503906 L 73.417969 42.503906 L 73.417969 46.578125 L 46.160156 46.578125 Z M 46.160156 42.503906 " clip-rule="nonzero"/></clipPath><clipPath id="9e4918955a"><path d="M 51.492188 45.148438 C 47.761719 45.558594 47.824219 46.078125 46.253906 42.558594 C 46.933594 44.148438 46.273438 46.867188 48.84375 46.457031 C 56.992188 46.707031 65.144531 46.496094 73.292969 46.066406 C 66.113281 45.058594 58.753906 44.898438 51.503906 45.148438 " clip-rule="nonzero"/></clipPath><clipPath id="f5334fdb3c"><path d="M 45.652344 48.363281 L 72.910156 48.363281 L 72.910156 52.4375 L 45.652344 52.4375 Z M 45.652344 48.363281 " clip-rule="nonzero"/></clipPath><clipPath id="9a02f64175"><path d="M 72.773438 51.039062 C 64.152344 50.347656 55.472656 50.519531 46.851562 51.097656 C 46.191406 50.609375 46.3125 49.207031 45.742188 48.539062 C 45.492188 53.558594 49.03125 51.738281 52.574219 52.226562 C 58.3125 52.058594 69.972656 51.859375 72.761719 51.039062 L 72.78125 51.039062 " clip-rule="nonzero"/></clipPath><clipPath id="61cf9c3988"><path d="M 50 54 L 72.65625 54 L 72.65625 58.296875 L 50 58.296875 Z M 50 54 " clip-rule="nonzero"/></clipPath><clipPath id="200c8f8c75"><path d="M 51.523438 57.835938 C 57.582031 58.40625 69.191406 57.769531 72.523438 57.039062 C 65.292969 56.378906 58.023438 56.578125 50.8125 56.828125 C 50.433594 56.1875 50.960938 54.898438 50.304688 54.199219 C 50.742188 55.636719 49.011719 57.808594 51.53125 57.835938 " clip-rule="nonzero"/></clipPath><clipPath id="28f011fb63"><path d="M 74.691406 20.597656 L 93.289062 20.597656 L 93.289062 46.578125 L 74.691406 46.578125 Z M 74.691406 20.597656 " clip-rule="nonzero"/></clipPath><clipPath id="43e72cef6a"><path d="M 92.863281 22.308594 C 91.652344 19.65625 88.03125 21.449219 85.753906 20.769531 L 74.902344 20.949219 C 93.59375 22.246094 91.382812 24.046875 91.164062 31.746094 C 90.773438 36.179688 91.703125 54.058594 92.023438 42.507812 C 91.921875 35.789062 93.734375 28.957031 92.863281 22.308594 " clip-rule="nonzero"/></clipPath><clipPath id="752b59151b"><path d="M 77.242188 14.226562 L 105.515625 14.226562 L 105.515625 58.042969 L 77.242188 58.042969 Z M 77.242188 14.226562 " clip-rule="nonzero"/></clipPath><clipPath id="464c2f69f7"><path d="M 100.382812 37.949219 C 100.363281 44.699219 101.042969 51.449219 102.371094 58.039062 C 105.914062 43.847656 106.453125 28.746094 103.371094 14.4375 C 101.671875 20.90625 100.722656 27.566406 100.453125 34.269531 C 100.683594 12.789062 106.011719 18.058594 84.152344 17.058594 L 77.414062 17.636719 C 88.441406 19.058594 94.683594 17.796875 99.09375 19.207031 C 99.632812 28.558594 98.84375 37.90625 98.84375 47.246094 C 99.472656 58.816406 99.671875 43.058594 100.382812 37.957031 " clip-rule="nonzero"/></clipPath><clipPath id="d2599a999f"><path d="M 76.730469 30.785156 L 97.621094 30.785156 L 97.621094 54.988281 L 76.730469 54.988281 Z M 76.730469 30.785156 " clip-rule="nonzero"/></clipPath><clipPath id="c0b9c78a5e"><path d="M 92.292969 54.859375 L 97.433594 54.628906 C 80.273438 52.558594 78.523438 54.667969 78.421875 49.789062 C 82.683594 50.546875 86.953125 50.296875 91.242188 50.039062 L 91.210938 50.039062 C 92.503906 49.527344 86.414062 48.847656 84.914062 49.199219 L 78.414062 49.609375 C 78.382812 46.597656 78.914062 41.058594 78.234375 30.796875 C 76.414062 38.1875 77.011719 46.058594 76.960938 53.628906 C 77.453125 55.847656 89.550781 54.238281 92.28125 54.867188 " clip-rule="nonzero"/></clipPath><clipPath id="352b9f89aa"><path d="M 77.496094 20.597656 L 78.769531 20.597656 L 78.769531 29.257812 L 77.496094 29.257812 Z M 77.496094 20.597656 " clip-rule="nonzero"/></clipPath><clipPath id="c5844d8ca2"><path d="M 77.8125 20.648438 C 77.492188 23.46875 77.492188 26.449219 78.460938 29.117188 C 78.484375 26.277344 78.773438 23.367188 77.8125 20.648438 " clip-rule="nonzero"/></clipPath></defs><rect x="-12" width="144" fill="#ffffff" y="-9.6" height="115.199999" fill-opacity="1"/><g clip-path="url(#9763b532f2)"><g clip-path="url(#0346a2fc2a)"><path fill="#2c2c2c" d="M 4.894531 3.527344 L 114.179688 3.527344 L 114.179688 68.742188 L 4.894531 68.742188 Z M 4.894531 3.527344 " fill-opacity="1" fill-rule="nonzero"/></g></g><g clip-path="url(#d6edfd76a7)"><g clip-path="url(#d888fc8f03)"><path fill="#2c2c2c" d="M 4.894531 3.527344 L 114.179688 3.527344 L 114.179688 68.742188 L 4.894531 68.742188 Z M 4.894531 3.527344 " fill-opacity="1" fill-rule="nonzero"/></g></g><g clip-path="url(#becb032d80)"><g clip-path="url(#aa5305d37c)"><path fill="#2c2c2c" d="M 4.894531 3.527344 L 114.179688 3.527344 L 114.179688 68.742188 L 4.894531 68.742188 Z M 4.894531 3.527344 " fill-opacity="1" fill-rule="nonzero"/></g></g><g clip-path="url(#8abd5f0bf8)"><g clip-path="url(#9d6c58d4ba)"><path fill="#2c2c2c" d="M 4.894531 3.527344 L 114.179688 3.527344 L 114.179688 68.742188 L 4.894531 68.742188 Z M 4.894531 3.527344 " fill-opacity="1" fill-rule="nonzero"/></g></g><g clip-path="url(#b6942c145e)"><g clip-path="url(#a728af9fc5)"><path fill="#2c2c2c" d="M 4.894531 3.527344 L 114.179688 3.527344 L 114.179688 68.742188 L 4.894531 68.742188 Z M 4.894531 3.527344 " fill-opacity="1" fill-rule="nonzero"/></g></g><g clip-path="url(#58a957d0aa)"><g clip-path="url(#33c501371d)"><path fill="#2c2c2c" d="M 4.894531 3.527344 L 114.179688 3.527344 L 114.179688 68.742188 L 4.894531 68.742188 Z M 4.894531 3.527344 " fill-opacity="1" fill-rule="nonzero"/></g></g><g clip-path="url(#712a25508f)"><g clip-path="url(#47e75dce7d)"><path fill="#2c2c2c" d="M 4.894531 3.527344 L 114.179688 3.527344 L 114.179688 68.742188 L 4.894531 68.742188 Z M 4.894531 3.527344 " fill-opacity="1" fill-rule="nonzero"/></g></g><g clip-path="url(#4f863be4c1)"><g clip-path="url(#a83a0056ab)"><path fill="#2c2c2c" d="M 4.894531 3.527344 L 114.179688 3.527344 L 114.179688 68.742188 L 4.894531 68.742188 Z M 4.894531 3.527344 " fill-opacity="1" fill-rule="nonzero"/></g></g><g clip-path="url(#3f89f7f409)"><g clip-path="url(#3cb102c918)"><path fill="#2c2c2c" d="M 4.894531 3.527344 L 114.179688 3.527344 L 114.179688 68.742188 L 4.894531 68.742188 Z M 4.894531 3.527344 " fill-opacity="1" fill-rule="nonzero"/></g></g><g clip-path="url(#fd0aedd0bf)"><g clip-path="url(#84756485e3)"><path fill="#2c2c2c" d="M 4.894531 3.527344 L 114.179688 3.527344 L 114.179688 68.742188 L 4.894531 68.742188 Z M 4.894531 3.527344 " fill-opacity="1" fill-rule="nonzero"/></g></g><g clip-path="url(#8b9c48683a)"><g clip-path="url(#25face5546)"><path fill="#2c2c2c" d="M 4.894531 3.527344 L 114.179688 3.527344 L 114.179688 68.742188 L 4.894531 68.742188 Z M 4.894531 3.527344 " fill-opacity="1" fill-rule="nonzero"/></g></g><g clip-path="url(#82a1c61254)"><g clip-path="url(#7b1e2cafdb)"><path fill="#2c2c2c" d="M 4.894531 3.527344 L 114.179688 3.527344 L 114.179688 68.742188 L 4.894531 68.742188 Z M 4.894531 3.527344 " fill-opacity="1" fill-rule="nonzero"/></g></g><g clip-path="url(#6f34f0d484)"><g clip-path="url(#80969cb746)"><path fill="#2c2c2c" d="M 4.894531 3.527344 L 114.179688 3.527344 L 114.179688 68.742188 L 4.894531 68.742188 Z M 4.894531 3.527344 " fill-opacity="1" fill-rule="nonzero"/></g></g><g clip-path="url(#1d954b7cb2)"><g clip-path="url(#9e4918955a)"><path fill="#2c2c2c" d="M 4.894531 3.527344 L 114.179688 3.527344 L 114.179688 68.742188 L 4.894531 68.742188 Z M 4.894531 3.527344 " fill-opacity="1" fill-rule="nonzero"/></g></g><g clip-path="url(#f5334fdb3c)"><g clip-path="url(#9a02f64175)"><path fill="#2c2c2c" d="M 4.894531 3.527344 L 114.179688 3.527344 L 114.179688 68.742188 L 4.894531 68.742188 Z M 4.894531 3.527344 " fill-opacity="1" fill-rule="nonzero"/></g></g><g clip-path="url(#61cf9c3988)"><g clip-path="url(#200c8f8c75)"><path fill="#2c2c2c" d="M 4.894531 3.527344 L 114.179688 3.527344 L 114.179688 68.742188 L 4.894531 68.742188 Z M 4.894531 3.527344 " fill-opacity="1" fill-rule="nonzero"/></g></g><g clip-path="url(#28f011fb63)"><g clip-path="url(#43e72cef6a)"><path fill="#2c2c2c" d="M 4.894531 3.527344 L 114.179688 3.527344 L 114.179688 68.742188 L 4.894531 68.742188 Z M 4.894531 3.527344 " fill-opacity="1" fill-rule="nonzero"/></g></g><g clip-path="url(#752b59151b)"><g clip-path="url(#464c2f69f7)"><path fill="#2c2c2c" d="M 4.894531 3.527344 L 114.179688 3.527344 L 114.179688 68.742188 L 4.894531 68.742188 Z M 4.894531 3.527344 " fill-opacity="1" fill-rule="nonzero"/></g></g><g clip-path="url(#d2599a999f)"><g clip-path="url(#c0b9c78a5e)"><path fill="#2c2c2c" d="M 4.894531 3.527344 L 114.179688 3.527344 L 114.179688 68.742188 L 4.894531 68.742188 Z M 4.894531 3.527344 " fill-opacity="1" fill-rule="nonzero"/></g></g><g clip-path="url(#352b9f89aa)"><g clip-path="url(#c5844d8ca2)"><path fill="#2c2c2c" d="M 4.894531 3.527344 L 114.179688 3.527344 L 114.179688 68.742188 L 4.894531 68.742188 Z M 4.894531 3.527344 " fill-opacity="1" fill-rule="nonzero"/></g></g></svg>