<?xml version="1.0" encoding="UTF-8"?>
<!DOCTYPE svg PUBLIC "-//W3C//DTD SVG 1.1//EN" "http://www.w3.org/Graphics/SVG/1.1/DTD/svg11.dtd">
<!-- Creator: CorelDRAW -->
<svg xmlns="http://www.w3.org/2000/svg" xml:space="preserve" width="100mm" height="90mm" version="1.1" style="shape-rendering:geometricPrecision; text-rendering:geometricPrecision; image-rendering:optimizeQuality; fill-rule:evenodd; clip-rule:evenodd"
viewBox="0 0 10000 9000"
 xmlns:xlink="http://www.w3.org/1999/xlink"
 xmlns:xodm="http://www.corel.com/coreldraw/odm/2003">
 <defs>
  <style type="text/css">
   <![CDATA[
    .fil4 {fill:black}
    .fil1 {fill:#999999}
    .fil0 {fill:#B3B3B3}
    .fil3 {fill:#CCCCCC}
    .fil2 {fill:#E6E6E6}
   ]]>
  </style>
 </defs>
 <g id="Vrstva_x0020_1">
  <metadata id="CorelCorpID_0Corel-Layer"/>
  <path class="fil0" d="M7302.9 5760.88c52.84,46.28 204.3,79.52 279.27,97.46 50.89,12.16 99.06,19.56 149.75,29.72 -50.93,6.03 -103.1,-3.57 -153.32,-12.53 -60.69,-10.88 -257.42,-57.97 -275.7,-114.65z"/>
  <path class="fil1" d="M6891.11 4705.57c2.52,0.96 5.19,1.67 8.18,2.05 -1.96,-3.75 -4.53,-6.78 -7.52,-9.49 -1.24,1.51 -0.43,4.97 -0.67,7.44l0.01 0zm-50.36 12.94c-7.95,13.51 -22.05,24.76 -34.61,37.26 -12.76,12.71 -25.56,24.35 -38.08,34.59 -79.4,64.95 -170.07,125.71 -251.52,182.34 81.35,85.21 186.98,146.21 339.25,160.74 0.76,-65.47 -0.33,-132.55 0.62,-199.33 0.52,-32.42 3.23,-65.27 3.43,-97.65 0.19,-34.04 -1.72,-68.22 0.66,-101.01 0.48,-6.27 3.19,-12.34 3.43,-18.99 0.19,-7.4 -3.62,-14.9 -1.38,-22.41 -4.24,-0.7 -7.62,-2.27 -10.85,-4.03 -3.91,8.17 -5.72,19.79 -10.95,28.49zm-34.61 -33.96c-71.26,66.03 -143.89,131.35 -215.53,196.02 -25.04,22.58 -50.41,44.8 -72.02,69.77 0,-0.37 0.05,-0.75 0.62,-0.62 27.79,-18.93 55.78,-38.3 82.96,-58.99 26.95,-20.52 55.46,-39.27 81.59,-60.39 38.22,-30.85 80.26,-64.18 108.1,-105.05 9.66,-14.2 19.14,-29.91 23.8,-47.47 -4.28,0.14 -6.9,4.31 -9.52,6.73zm82.21 -20.99c49.03,55.26 99.58,109.43 159.13,153.9 59.16,44.25 115.09,95.79 186.92,126.8 -101.48,-107.62 -224.43,-199.67 -347.34,-288.15 0.57,2.28 1.91,3.99 1.29,7.45zm-63.17 -51.49c-6.43,10.63 -7.95,35.6 6.14,38.58 8.86,-7.39 11.47,-21.04 12.9,-35.92 -3.52,-3.38 -13.9,-5.27 -19.04,-2.66zm23.75 -19.05c5.76,4.05 10.62,8.95 11.57,17.66 3.67,-2.42 9.2,-3.08 12.23,-6.11 -27.07,-2.48 -8.75,-37.42 -2.71,-52.18 5.52,-13.47 10.85,-28.06 14.28,-42.05 7.57,-30.77 8.14,-70.31 8.14,-105.1 0,-75.94 2.52,-153.37 2.76,-222.35 -17.7,134.44 -35.64,268.68 -46.27,410.13zm62.56 -445.4c3.62,64.81 2,137.86 6.14,210.15 1.91,33.8 4.29,70.53 2.76,105.81 -1.66,35.78 -1.81,69.69 -10.9,97.59 -5.14,15.82 -17.75,31 -29.27,39.97 -0.95,0.82 -3.48,1.62 -2.71,3.43 5.61,-1.25 11.18,0.08 16.32,1.37 27.99,6.88 56.03,22.16 80.26,33.89 8.52,4.13 16.76,9.74 25.08,12.87 5.29,2.03 12.28,2.08 17.04,4.79 22.57,12.92 9.24,45.96 -13.61,44.72 -9.81,-0.56 -15.38,-7.34 -23.13,-11.47 -0.91,2.8 4.42,5.3 6.85,7.4 47.41,40.69 97.34,79.56 142.75,121.37 35.28,32.53 74.74,67.74 108.77,101.68 7.38,7.36 32.61,25.79 29.27,41.35 -3.09,14.2 -23.84,6.55 -35.36,2.05 -8.95,-3.48 -17.57,-7.88 -24.52,-11.55 -48.17,-25.44 -89.25,-53.82 -129.85,-84.72 -39.89,-30.38 -81.21,-60.72 -117.62,-96.28 -10.14,-9.92 -20.09,-22.39 -30.56,-31.85 -1.76,-1.61 -2.95,-3.99 -4.09,-1.37 -1.62,3.94 -0.72,15.94 -1.38,23.12 -0.72,8.35 -1.29,16.22 -1.29,23.69 -0.1,118.48 0.9,233.88 3.33,347.09 147.9,-12.9 255.38,-69.55 337.2,-151.14 40.08,-40.02 75.93,-90.63 99.3,-145.79 12.18,-28.8 24.37,-58.43 31.22,-90.84 7.24,-33.91 10,-70.74 11.57,-111.18 1.52,-37.65 -6.09,-75.01 -13.61,-108.47 -7.48,-33.85 -19.23,-63.75 -31.9,-90.86 -26.84,-57.49 -60.58,-103.09 -101.34,-143.73 -81.11,-80.93 -192.21,-138 -346.05,-145.07 -0.76,0.05 -0.72,1.04 -0.67,1.99l0 -0.01zm-0.63 -17.61c161.04,6.36 267.89,66.28 356.24,147.12 41.95,38.44 78.16,90.42 104.63,146.38 27.13,57.45 45.55,125.9 45.55,205.45 0,40.39 -4.33,77.89 -12.9,112.55 -8.37,34.22 -17.89,65.94 -31.27,94.27 -13.57,28.78 -28.89,55.64 -45.55,79.94 -49.94,73.4 -119.05,133.4 -201.92,174.98 -55.93,28.05 -122.72,46.53 -199.16,52.17 1.04,132.82 11.32,266.11 6.14,404.77 -0.43,9.69 0.95,48.23 -10.19,48.19 -6.9,-0.1 -6.81,-13.62 -8.23,-21.04 -11,-57.29 -12.57,-124.13 -16.95,-186.46 -5.19,-73.59 -13.04,-142.07 -14.98,-216.93 -3.77,119.19 -6.15,243.79 -6.15,368.84 0,9.77 2.43,44.62 -4.71,48.08 -4.81,2.32 -13.75,-4.13 -14.98,-6.78 -1.62,-3.75 0.33,-17.85 0.71,-25.79 1.19,-26.15 1.86,-57.15 0.67,-82.64 -5.19,-109.09 1.52,-219.02 -1.38,-329.53 -157.99,-12.96 -265.8,-76.14 -348.72,-164.07 -7.52,4.28 -13.38,7.93 -22.42,12.88 -6.24,3.37 -20.76,11.19 -24.47,1.36 -3.09,-7.96 6.81,-15.65 10.85,-20.35 5.86,-6.89 10.38,-11.44 15.66,-16.95 -16.32,-21.32 -31.27,-44.25 -44.93,-69.16 -4.38,-7.99 -10.23,-16.15 -10.85,-25.78 4.9,1.04 6.76,6.69 8.8,10.16 15.95,27 33.85,53.96 54.46,77.28 90.44,-82.89 181.07,-166.71 274.6,-248.09 13.19,-11.47 26.23,-24.25 40.17,-33.89 3.19,-2.28 6.76,-4.51 11.47,-4.78 -4.14,-5.85 -11.47,-11.02 -13.52,-23.08 -3.57,-20.7 6.1,-49.23 29.9,-41.3 7.52,-159.55 32.6,-301.43 48.93,-452.19 -95.92,3.27 -176.12,28.58 -241.29,67.12 -15.37,8.97 -29.56,20.85 -46.31,31.14 -5.43,3.38 -17.09,8.55 -20.38,-0.66 -4.33,-12.24 17.71,-23.03 24.47,-27.16 75.73,-46.14 168.74,-82.49 285.51,-85.39 4.33,-11.86 -1.19,-35.93 8.9,-40.02 13.52,-5.51 12.46,26.11 13.61,39.35l-0.01 0.01z"/>
  <path class="fil1" d="M6078.71 5150.33c1.24,2.85 0.67,-2.42 0.67,-2.66 0.43,-9.07 0.19,-23.4 -1.38,-27.15 -0.48,10.69 0.85,19.57 0.71,29.81zm-205.35 85.45c-7.23,10.31 -13.18,21.32 -20.37,31.9 -7.09,10.35 -16.9,19.23 -21.75,31.15 20.23,-14.15 35.94,-34.09 51.64,-52.84 15.95,-19.09 31.71,-38.22 46.94,-57.68 30.56,-39.02 63.64,-77.13 88.34,-121.33 0,-0.37 -0.04,-0.82 -0.62,-0.66 -50.5,54.01 -101.38,108.79 -144.18,169.46zm284.89 -210.82c-8.28,-4.6 -18.75,-11.62 -25.85,-12.9 -17.23,-3.09 -29.84,3.99 -44.17,5.4 74.73,39.54 152.75,75.91 232.48,110.56 -44.36,-38.17 -106.48,-72.19 -162.46,-103.06zm-116.96 -191.86c6.09,54.77 10.7,108.75 20.42,162.05 6.14,-2.89 9.57,-8.54 13.56,-13.57 -2.71,-13.24 -4.09,-26.78 -5.41,-40.02 -9.57,-95.08 -29.66,-185.47 -51.7,-267.83 4.05,53.98 17.19,105.67 23.14,159.37l-0.01 0zm-13.62 -183.76c28.94,96.79 48.98,202.52 66.69,310.55 18,5.41 30.23,15.38 44.79,24.36 29.75,18.22 59.98,35.17 87.73,54.31 35.27,24.15 73.31,45.32 104.68,71.81 1.38,1.14 3.14,5.66 6.09,3.43 20.09,-48.99 22.05,-122.34 10.95,-177.64 -11,-54.83 -35.94,-102.06 -62.59,-139.7 -55.6,-78.71 -138.99,-134.16 -256.95,-148.45 0,-1.61 -1.9,0.24 -1.38,1.33l-0.01 0zm-7.46 -23.69c66.02,4.04 120.62,23.94 165.88,51.51 88.68,54.02 154.22,137.9 177.41,256.96 11.04,56.35 6.37,119.68 -8.14,169.52 -1.58,5.4 -7,15.18 -6.76,19.59 0.37,8.51 17.94,13.31 10.8,25.83 -3.76,6.75 -14.18,3.32 -21.75,1.28 -48.65,92.95 -122.76,160.49 -239.96,185.13 5.86,112.17 1.24,241.2 7.48,357.98 0.37,7.27 0,16.23 0.66,25.11 1.53,18.14 4,28.77 -14.9,30.48 -7.66,11.73 -26.51,6.59 -29.94,-4.09 -2.38,-7.4 1.53,-16.76 2.05,-24.39 2.05,-30.06 -0.71,-62.84 -0.71,-95.61 0,-93.56 0.43,-195.39 0,-286.06 -72.5,3.33 -132.43,-12.58 -180.12,-38.69 -3.95,-2.18 -18.9,-7.74 -16.33,-13.56 2.62,-5.75 16.28,2.84 20.42,4.78 46.55,21.55 105.25,39.67 176.03,34.57 0.57,-31.77 1.38,-68.26 1.38,-105.1 0,-35.89 -2.1,-73.48 1.38,-105.05 0.47,-4.23 2.57,-6.18 2.71,-10.16 0.48,-11.11 -10.7,-26.3 -4.09,-39.35 2.62,-5.08 8.47,-7.99 12.94,-8.12 20.33,-0.66 17.33,25.29 12.24,39.26 4.47,9.25 1.38,23.96 1.38,37.31 0,60.95 6.71,124.47 6.76,185.74 111.48,-19.84 185.4,-83.11 228.38,-173.54 -48.07,-14.77 -91.96,-35.6 -134.56,-56.93 -42.6,-21.36 -85.4,-41.43 -125.1,-66.46 -12.56,26.17 -25.84,49.91 -43.5,71.83 -51.22,63.75 -98.49,130.86 -156.37,189.17 -9.57,3.51 -22.37,30.23 -38.08,25.77 -17.57,-4.97 5.52,-39.54 8.85,-45.43 23.8,-42.15 55.51,-81.3 84.97,-116.58 42.17,-50.5 86.35,-96.65 131.23,-138.33 -15.37,-56.78 -20.75,-117.58 -28.56,-179.67 -7.61,-60.8 -21.56,-120.1 -24.46,-183.71 -75.4,-1.33 -133.19,21.75 -178.12,54.93 -5.66,4.18 -13.09,12.96 -21.14,12.19 -6.09,-0.61 -9.28,-5.64 -9.42,-9.54 -0.53,-7.64 10.37,-14.53 16.94,-18.94 7.95,-5.27 16.09,-9.5 22.42,-12.91 45.75,-24.64 97.86,-45.23 165.88,-46.72 2.86,-8.67 -2.52,-22.77 3.43,-27.15 12.09,-8.91 16.47,18.8 20.37,27.15l0.02 0z"/>
  <path class="fil1" d="M6875.4 5624.32c-29.23,-2.77 -161.46,-57.26 -191.02,-63.09 -14.28,-2.85 -29.66,-5.27 -45.55,-7.5 -15.38,-2.15 -32.04,-4.89 -48.22,-4.04 -53.89,2.98 -92.97,28.3 -139.33,43.38 -23.09,7.55 -45.74,15 -68.69,23.08 -22.7,7.98 -47.55,16.7 -74.06,14.2 1.23,-6.09 9.18,-7.17 13.56,-8.8 61.69,-22.73 123.86,-50.45 184.26,-75.24 22.95,-9.44 50.65,-16.99 78.16,-18.98 19,-1.38 36.66,3 54.32,6.08 29.94,5.27 241.85,79.08 236.57,90.91z"/>
  <path class="fil2" d="M5480.47 5655.46c-24.23,8.21 -61.83,1.99 -91.16,-1.38 -24.7,-2.79 -49.41,-5.02 -72.11,-9.49 -45.32,-8.83 -87.92,-23.59 -131.81,-30.48 -23.27,-3.64 -47.26,-8.11 -71.4,-10.16 -25.84,-2.23 -52.12,0.14 -77.49,2.72 -96.96,9.86 -167.17,48.56 -244.76,80.64 -38.08,15.82 -75.54,32.15 -112.15,50.17 -17.56,8.65 -37.65,15.81 -58.5,23.09 -40.41,14.09 -80.48,25.62 -130.52,31.84 -17.71,2.23 -38.22,4.94 -57.79,1.99 -4.23,-0.56 -11.23,-1.09 -12.94,-6.73 25.7,-4.04 53.5,-5.9 76.82,-12.15 -45.6,-6.52 -89.72,-12.82 -132.57,-22.42 -42.6,-9.58 -84.53,-19.5 -127.14,-27.1 -45.36,-8.17 -93.63,-13.76 -142.75,-10.87 -47.93,2.81 -87.97,13.91 -129.81,24.41 -42.6,10.68 -85.58,18.08 -127.84,27.09 -41.79,8.97 -82.87,20.61 -124.43,29.87 -62.45,13.96 -123.71,30.48 -190.35,41.35 -22.14,3.59 -45.41,9.29 -68.6,4.02 5.86,-5.69 16.76,-4.02 26.47,-5.4 61.07,-8.27 119.76,-26.2 178.12,-40.63 99.39,-24.65 198.69,-51.41 301.17,-73.96 34.94,-7.66 69.07,-18.09 104.01,-20.99 79.44,-6.55 155.51,6.7 222.34,25.11 34.08,9.3 66.21,19.33 99.91,25.06 34.99,5.93 69.83,14.1 106.77,16.95 22.32,1.7 37.65,0.32 55.07,-4.8 15.71,-4.56 30.37,-10.68 46.18,-16.24 32.32,-11.3 61.07,-22.31 89.72,-35.26 57.27,-25.83 118,-47.96 176.74,-73.2 29.23,-12.54 59.79,-23.56 91.81,-33.24 33.42,-10.05 72.6,-14.43 111.53,-16.27 39.46,-1.81 75.44,5.13 109.39,11.53 16.99,3.23 33.37,6.88 49.65,10.83 16.04,3.94 31.7,9.25 47.6,12.9 67.07,15.38 136.18,23.27 210.82,31.2z"/>
  <path class="fil1" d="M6547.09 5662.96c-74.4,27.52 -301.74,-11.17 -377.28,-41.41 -7.19,-2.85 -18.8,-6.02 -18.42,-12.23 0.57,-0.06 0.76,-0.67 1.38,-0.67 126.62,43.33 262.99,41.92 394.32,54.31z"/>
  <path class="fil1" d="M6483.84 5802.56c113.1,-20.08 231.91,-33.22 348.15,-52.21 101.05,-16.44 205.78,-24.69 307.26,-43.35 10.14,-1.88 35.22,-6.88 36.03,8.12 0.72,14.14 -21.37,14.67 -33.32,15.62 -47.31,3.47 -87.44,9.69 -130.52,15.56 -56.64,7.69 -116.33,15.67 -173.36,21.71 -121,12.76 -232.86,27.01 -354.24,34.55z"/>
  <path class="fil1" d="M5891.07 5963.29c1.19,-0.18 1.33,0.58 0.67,0.66 -13.81,22.22 -31.8,41.6 -48.27,61.68 -106.91,130.05 -221.91,254.67 -332.49,382.41 -4.09,4.79 -8.47,9.87 -12.85,14.86 -4.09,4.6 -8.62,11.1 -15.66,11.54 0.71,-6.75 7.04,-10.79 10.85,-15.58 12,-14.9 23.66,-30.9 36.03,-46.09 48.7,-59.95 100.77,-117.92 152.99,-176.26 59.5,-66.45 121.43,-135.24 181.49,-203.41 9.24,-10.48 18,-21.16 27.23,-29.81l0.01 0z"/>
  <path class="fil1" d="M5948.14 5965.95c0.77,0.24 0.48,1.43 1.34,1.43 -14.24,21.78 -33.61,39.63 -50.94,58.95 -51.79,57.59 -98.58,120.95 -149.6,180.34 -33.85,39.41 -65.93,80.94 -97.86,122.04 -27.8,35.66 -59.22,68.98 -88.4,104.35 -3.47,4.36 -7.93,12.71 -15.66,10.25 -5.33,-7.16 2,-13.87 5.48,-18.37 27.65,-35.6 58.06,-69.78 87.01,-105.06 32.66,-39.87 65.87,-80.46 99.96,-120.05 33.12,-38.44 65.07,-80.27 100.58,-119.27 16.95,-18.62 34.51,-38.4 52.36,-57.63 18.42,-19.79 37.51,-39.92 55.74,-56.97l-0.01 -0.01z"/>
  <path class="fil1" d="M6052.15 6007.34c-5,10.21 -13.28,18.32 -20.37,27.15 -50.27,62.01 -105.91,121.54 -157.04,183.71 -29.22,35.51 -60.21,69.89 -88.39,106.38 -24.57,32 -49.41,63.72 -74.11,96.33 -3.05,4.12 -6.05,11.72 -12.9,10.87 -4.05,-5.66 0.71,-12.39 3.42,-16.99 8.67,-14.86 19.9,-29.49 29.9,-43.4 13.56,-18.88 27.7,-37.64 42.84,-54.92 90.58,-103.58 185.31,-206.35 276.65,-309.13z"/>
  <path class="fil3" d="M4482.38 6135.47c119.72,-10.25 247.72,0.52 374.62,-5.41 62.78,-3 125.81,-2.7 187.64,-2.7 62.59,0 124.24,-3.24 183.55,-7.46 1.09,-0.1 1.57,-0.95 2.76,-0.66 8.99,1.88 -9.71,6.25 -11.57,6.73 -20.99,4.71 -43.65,5.85 -65.93,7.5 -28.85,2.1 -64.02,3.57 -93.86,4.04 -62.59,0.94 -129.57,4.08 -192.41,4.08 -131.66,0 -258.37,-4.27 -384.79,-6.12l-0.01 0z"/>
  <path class="fil3" d="M5222.05 6179.51c-48.7,1.91 -97.59,0 -146.14,2.05 -49.31,2.09 -98.44,-2.75 -147.51,-0.67 -97.58,4.09 -195.26,2.37 -292.32,6.79 -193.49,8.74 -386.79,11.96 -579.29,14.91 145.75,-11.73 297.36,-19.7 452.11,-25.11 77.73,-2.64 156.7,-3.37 235.24,-3.37 38.84,0 77.87,-2.05 116.95,-2.05 39.37,0 79.3,1.09 118.29,-0.66 36.7,-1.71 84,1.72 123.05,3.43 41.03,1.75 81.06,0.98 119.62,4.68z"/>
  <path class="fil3" d="M5178.54 6253.28c-11.09,6.89 -40.79,7.13 -61.79,8.12 -72.63,3.32 -156.22,5.23 -234.38,7.27 -107.01,2.75 -218.96,6.18 -323.87,6.21 -214.78,0.24 -438.83,6.14 -656.22,8.45 -433.55,4.76 -869.09,5.14 -1289.07,3.86 267.08,-9.07 542.49,-11.25 820.3,-16.33 205.11,-3.8 408.88,-7.79 619.99,-10.83 221.06,-3.13 454.05,-4.89 679.74,-7.36 118.19,-1.28 234.33,-4.84 347.29,-4.47 33.42,0.16 71.5,-2.23 98.01,5.08z"/>
  <path class="fil1" d="M7826.22 6291.41c-20.56,6.36 -48.27,6.36 -75.4,7.45 -165.36,6.65 -335.2,12.11 -504.9,17.61 -7.42,0.24 -76.35,4.89 -78.2,-2.71 -1.86,-7.31 56.97,-8.25 66.83,-8.78 182.25,-10.68 405.79,-9.35 591.67,-13.57z"/>
  <path class="fil1" d="M7020.95 6298.2c-3.57,6.54 -14.09,5.88 -21.8,6.78 -22.89,2.61 -54.31,7.32 -77.49,6.75 -6.14,-0.1 -13.38,-1.14 -12.85,-6.75 0.71,-7.74 18.47,-5.02 27.83,-5.4 28.47,-1.19 58.84,-3.29 84.3,-1.38l0.01 0z"/>
  <path class="fil3" d="M4590.48 6304.42c-19.28,9.44 -62.73,8.16 -95.86,9.15 -266.85,7.69 -564.36,9.49 -839.53,12.45 -326.16,3.56 -649.51,9.06 -956.73,13.75 509.81,-21.6 1074.63,-29.95 1632.21,-35.98 87.45,-0.89 175.27,-1.09 259.9,0.62l0.01 0.01z"/>
  <path class="fil1" d="M7016.87 6329.39c-8.66,5.65 -21.18,5.35 -33.32,6.74 -22.85,2.6 -45.7,6.11 -70.02,8.87 -8.52,0.94 -31.99,5.75 -31.94,-3.42 0.09,-7.5 14.85,-6.18 23.13,-6.73 36.75,-2.85 75.35,-8.6 112.15,-5.46z"/>
  <path class="fil1" d="M7830.41 6330.06c-24.22,5.54 -53.33,5.02 -80.97,6.07 -174.5,6.69 -350.24,11.86 -530.51,15.61 -14.28,0.34 -30.65,-0.14 -45.55,-0.67 -11.52,-0.47 -30.18,0.9 -34.14,-6.07 20.23,-6.59 47.41,-5.26 71.12,-6.13 152.17,-5.65 318.73,-6.74 476.38,-8.83 50.15,-0.65 95.5,-2.5 143.66,0l0 0.02 0.01 0z"/>
  <path class="fil3" d="M4653.04 6297.43c36.18,-3.8 44.47,13.4 19.18,16.09 -31.32,3.43 -53.55,-12.46 -19.18,-16.09z"/>
  <path class="fil1" d="M7526.04 6367.32c-12.42,6.64 -27.83,6.12 -42.79,6.83 -80.02,3.8 -157.94,7.21 -238.67,9.44 -23.23,0.66 -48.36,1.61 -71.35,-1.33 -5.86,-0.77 -14.47,-1.09 -16.95,-7.45 94.58,-7.37 197.07,-6.22 294.98,-10.88 24.75,-1.14 52.12,-0.34 74.78,3.38l0 0.01z"/>
  <path class="fil1" d="M6489.31 6433.81c17.75,1.06 34.66,2.95 53.7,2.66 29.41,-35.13 59.45,-69.58 87.68,-105.72 -17.01,-0.85 -33.99,-1.84 -50.94,-2.74 -30.65,34.74 -61.31,69.54 -90.44,105.8zm-63.88 -3.46c15.28,0.58 29.8,1.94 45.56,2.05 30.6,-34.47 61.26,-68.99 89.72,-105.72 -16.37,0 -31.22,-1.43 -47.6,-1.38 -28.99,35.27 -61.4,67.13 -87.68,105.05zm-165.92 -14.2c-1.1,1.33 -5.1,3.37 -3.38,6.14 48.88,1.79 96.15,5.35 145.51,6.73 26.9,-37.12 58.84,-69.17 86.3,-105.72 -48.84,-1.7 -95.48,-5.6 -144.8,-6.83 -27.89,31.81 -56.79,67.5 -83.63,99.68zm-84.98 2.7c18.95,1.43 39.13,1.71 58.5,2.76 30.32,-35.36 61.22,-70.07 90.4,-106.48 -21.19,-1.04 -41.7,-2.76 -63.93,-2.76 -28.75,35.05 -57.69,69.89 -84.97,106.48zm-31.27 -54.92c-12.09,15.85 -24.57,31.19 -36.04,46.15 -1.14,1.56 -4.52,3.32 -3.38,6.06 14.9,1.38 31.71,0.9 46.89,2.04 26.37,-29.94 52.84,-62.65 77.54,-93.61 3.38,-4.17 8.81,-7.73 9.47,-13.47 -17.85,-0.08 -34.32,-1.46 -51.64,-2.03 -14.09,16.76 -28.66,36.36 -42.84,54.87l0 -0.01zm-24.47 -57.62c-5,-0.18 -11.8,-0.48 -13.61,1.38 -7.38,7.55 -13.52,17.56 -20.38,26.39 -20.18,25.97 -43.74,54.26 -59.78,79.33 20.61,0 39.89,1.33 59.78,2.04 26.42,-29.81 54.32,-61.24 78.16,-92.91 3.34,-4.32 7.62,-8.78 8.91,-14.18 -18.28,-0.24 -37.37,-1.38 -53.08,-2.05zm-152.94 -2.71c-27.61,30.24 -53.64,65.42 -78.87,97.6 -1.19,1.52 -5.48,3.38 -3.43,6.12 41.7,1.62 83.35,3.29 124.43,5.41 26.89,-36.04 54.83,-70.97 81.58,-107.09 -39.88,-1.52 -86.25,-4.52 -123.71,-2.05l0 0.01zm664.84 -35.27c-13,14.58 -26.14,29.05 -38.04,44.77 16.76,1.14 34.32,1.48 52.41,1.32 11.81,-13.9 25.99,-29.09 34.61,-44.04 -16.71,-0.34 -31.61,-2.37 -48.98,-2.05zm-67.26 -2.66c-14.09,14.21 -26.71,29.82 -38.75,46.06 13.66,1.28 28.8,0 40.75,0.65 11.13,0.68 10.9,-2.93 17.04,-10.16 10.37,-12.19 21.27,-22.92 29.22,-34.5 -15.61,-1.19 -32.32,-1.28 -48.26,-2.05zm-172.69 -6.11c-0.81,0.32 -1.52,0.75 -2.04,1.33 -9.24,10.87 -19.62,23.59 -28.52,34.6 -3.19,3.8 -8.23,8.3 -7.47,11.54 48.6,1.18 96.63,2.93 145.42,4.07 13.22,-14.95 25.89,-30.27 37.4,-46.8 -49.03,-0.81 -95.86,-3.79 -144.8,-4.74l0.01 0zm-85.63 -3.38c-0.81,0.29 -1.52,0.72 -2.05,1.33 -9.66,11.01 -18.85,24.02 -27.89,35.23 -3,3.79 -8.14,7.06 -8.14,12.24 22.23,-0.42 42.32,1.15 63.88,1.33 13.8,-15.61 28.37,-30.48 40.84,-47.47 -22.13,-0.9 -43.79,-2.42 -66.64,-2.66zm-76.17 -2.05c-12.9,15.58 -26.28,30.71 -37.37,48.08 18.57,-0.19 35.18,1.53 53.7,1.38 13.61,-15.51 27.27,-31.14 39.46,-48.17 -19.09,0 -36.7,-1.43 -55.79,-1.29zm-46.22 -1.37c-8.71,-0.44 -32.08,-2.23 -34.65,0 -14.57,12.38 -24.28,33.04 -36.75,47.42 22.05,0.67 43.93,1.47 66.64,1.38 12.71,-15.39 27.32,-32.38 37.36,-48.18 -11.85,-0.43 -21.18,-0.11 -32.6,-0.62zm-170.66 -3.43c-13.28,16.86 -29.13,31.05 -40.75,49.52 41.61,-0.1 83.21,0.91 122.34,1.33 13.33,-15.39 25.89,-31.56 37.36,-48.8 -38.36,-1.48 -81.15,-2.18 -118.95,-2.05zm670.31 -41.34c-14.24,16.29 -28.37,32.75 -42.17,49.51 16.66,0.34 31.84,2.18 48.98,2.05 9.8,-11.59 19.18,-25.16 28.56,-36.66 3,-3.7 7.85,-7.21 8.14,-12.15 -14.85,-0.57 -29.47,-1.33 -43.51,-2.76l0 0.01zm-67.97 -4.08c-12.09,18.03 -29.9,33.94 -40.75,50.88 16.28,-0.24 33.85,1.81 48.27,1.38 11.8,-13.85 25.65,-29.86 37.36,-43.43 1.53,-1.75 4.29,-3.85 3.34,-6.08 -15.62,-1.37 -31.99,-1.95 -48.22,-2.75zm-167.93 -8.78c-1.19,-0.15 -2.38,0.56 -2.71,1.37 -7.66,7.12 -14.95,17.71 -22.42,26.4 -3.81,4.46 -8,8.7 -11.57,12.9 -3.52,4.23 -8.37,8.27 -9.52,13.53 50.08,-0.37 97.1,2.15 144.8,4.05 13.52,-13.47 27.47,-30.72 39.46,-45.39 1.19,-1.47 4.95,-3.75 3.38,-6.13 -43.03,-5.74 -97.86,-2.79 -141.42,-6.73zm-89.72 -3.42c-15.76,17.34 -30.14,35.99 -44.18,54.93 20.09,1 41.7,0.47 59.17,1.37 2.62,0.16 5.52,1.33 8.14,0.67 3.81,-0.99 8.66,-8.64 12.23,-12.87 12.19,-14.65 23.71,-27.39 33.99,-41.33 -22.9,-1.2 -45.89,-2.15 -69.35,-2.77zm-77.5 -2.05c-14.75,17.15 -30.51,36.94 -42.12,54.94 18.85,0.14 37.46,0.61 55.74,1.36 15.28,-17.93 30.65,-35.83 44.79,-54.92 -18.57,-1.28 -38.37,-1.46 -58.41,-1.38zm-80.24 -1.98c-11.33,16.1 -26.18,32.94 -38.08,48.13 -1.38,1.81 -4.52,4.42 -3.33,6.8 21.94,0.37 43.31,1.47 65.92,1.37 14.95,-17.7 30.04,-35.12 42.8,-54.92 -22.33,0.23 -46.94,-4.18 -67.31,-1.38zm166.6 -119.34c3.76,-4.5 8.04,-7.5 0,-6.78 -18.28,1.62 -38.18,-0.96 -59.12,0.71 -28.18,28.44 -52.93,60.43 -78.92,90.09 -8.86,10.21 -18.51,20.23 -24.42,32.63 22.94,-0.53 43.55,1.23 65.93,1.29 28.79,-34.61 65.73,-80.62 96.53,-117.93l0 -0.01zm17.66 -7.44c-34.46,41.11 -69.12,82.06 -101.34,125.37 20.27,1.41 36.7,1.99 58.55,2.12 34.74,-38.96 68.4,-82.74 101.91,-122.09 1.71,-1.95 5.76,-4.07 4.81,-7.45 -21.57,0.48 -42.8,1.24 -63.93,2.05zm78.83 -2.71c-35.13,42.87 -70.17,85.87 -103.3,130.88 21.23,0.77 40.84,-0.14 59.84,0.61 3.14,0.16 6.85,1.53 10.18,0.72 4.76,-1.14 10.14,-10.72 14.95,-16.28 33.8,-39.36 71.59,-79.52 101.96,-117.97 -27.99,0.52 -55.6,1.48 -83.63,2.04zm96.58 -2.05c-34.7,40.6 -69.26,85.31 -103.34,126.07 -1.86,2.23 -6.14,4.52 -4.81,8.17 47.12,0.81 98.91,0.15 144.85,4.09 37.84,-44.49 78.97,-90.53 116.95,-134.25 2.38,-2.76 6.95,-6.55 5.43,-8.83 -53.79,0.85 -106.63,2.6 -159.07,4.74l-0.01 0.01zm178.78 -6.07c-38.84,48.22 -77.82,96.35 -115.52,145.74 17.47,-0.19 33.22,1.22 50.98,0.7 43.12,-48.99 86.16,-97.98 127.76,-148.49 -21.33,0.43 -41.8,1.67 -63.22,2.05zm81.54 -3.41c-42.5,49.57 -85.49,98.65 -126.38,149.86 13.81,-3.09 34.8,5.66 47.61,-0.7 4.14,-2.05 10.99,-12.73 15.56,-18.33 36.18,-43.77 72.78,-90.95 107.48,-131.54 -15.47,-0.39 -29.32,0.67 -44.27,0.71zm-456.83 4.75c6.29,-0.42 14.24,0.37 18.38,-1.33 3.14,-1.38 7.47,-8.83 11.56,-13.58 10.38,-12.11 19.19,-22.22 29.23,-33.89 4.38,-5.08 6.66,-5.83 -0.71,-5.41 -56.32,2.89 -118.39,6.22 -175.36,8.79 -9.14,0.43 -20.09,-1.9 -26.57,0 -2.95,0.91 -9.56,8.92 -13.51,13.57 -61.79,71.83 -121.48,142.74 -180.89,214.28 -1.66,1.96 -4.37,4.52 -4.09,7.42 37.03,0 80.06,-0.3 117.67,1.37 8.38,-8.93 15.23,-19.03 23.04,-28.48 7.61,-9.17 17.28,-17.81 21.8,-29.86 10.42,-8.89 19.37,-19.76 28.56,-29.87 28.27,-30.98 53.31,-64.27 84.25,-92.13 -15.8,-1.67 -36.13,1.23 -49.6,-2.76 36.84,-3.99 76.97,-5.45 116.24,-8.11l0 -0.01zm75.5 -55.58c-15.52,17.31 -30.71,34.92 -44.89,53.52 22.05,-1.7 44.84,-2.79 67.31,-4.07 13.75,-17.62 29.32,-33.61 42.17,-52.18 -21.8,0.67 -43.17,1.71 -64.59,2.72l0 0.01zm76.82 -3.43c-14.51,16.72 -28.46,34.04 -41.46,52.23 29.28,-0.58 57.65,-2.19 86.3,-3.38 15.25,-17.37 31.04,-34.17 44.89,-52.92 -30.37,0.95 -59.17,3.41 -89.73,4.07zm121 -5.37c-6.61,0.29 -14.66,-0.65 -19.04,0.62 -4.14,1.28 -7.37,7.98 -11.56,12.87 -9.09,10.86 -14.62,16.79 -22.42,26.47 -3.62,4.47 -9.67,9.36 -8.81,13.59 51.17,-4.47 109.43,-2.05 160.41,-6.84 15.86,-16.89 30.71,-34.84 44.84,-53.54 -44.88,1.56 -97.34,4.32 -143.42,6.82l0 0.01zm223.68 -5.45c0.19,-0.24 7.23,-7.93 2.05,-6.84 -18,3.91 -43.18,1.09 -64.65,4.09 -11.99,11.87 -23.18,27.71 -33.93,40.72 -3.62,4.37 -10,8.59 -9.57,12.92 21.85,-0.23 41.31,-2.76 63.26,-2.76 13.95,-14.95 29.18,-32.47 42.84,-48.13zm21.75 -7.45c-8.14,8.36 -16.04,17.8 -23.8,27.11 -7.71,9.25 -16.28,18.08 -21.75,27.82 14.24,-1.23 30.13,-0.72 44.17,-2.05 16.09,-17.42 31.51,-35.5 46.22,-54.25 -15.85,-0.48 -29.89,0.9 -44.84,1.37zm-584.01 -34.55c-9.38,0.67 -20.27,0.47 -25.18,2.7 -4.57,2.1 -8.42,8.88 -12.85,14.2 -13.61,16.28 -25.31,28.9 -36.75,45.42 59.55,-2.55 125.67,-9.62 186.26,-13.56 9.52,-0.58 20.42,0.47 26.56,-2 4.81,-1.99 8.95,-9.02 13.52,-14.25 14.28,-16.14 26.47,-28.72 38.84,-45.43 -57.83,4.28 -129.37,8.46 -190.4,12.92zm197.88 -13.58c-14.19,16.38 -29.86,35.66 -43.51,52.18 -1.86,2.23 -5.14,4.5 -4.09,7.5 21.18,-1.47 42.74,-2.58 64.54,-3.43 17.42,-19.93 34.7,-39.97 50.98,-61.04 -22.99,1.23 -45.5,2.98 -67.92,4.79zm97.86 -7.44c-6.9,0.52 -17.23,0.12 -21.75,1.99 -3.62,1.51 -8.42,10.05 -12.23,14.94 -11.24,14.53 -20.23,25.74 -30.56,38.64 -1.72,2.15 -5,4.56 -4.14,7.46 23.37,-0.91 46.45,-1.88 68.68,-3.41 6.76,-0.48 17.28,0.03 22.42,-2.05 4.67,-1.88 9.05,-10.4 13.57,-15.56 14.57,-16.53 28.42,-30.63 40.84,-46.77 -24.13,1.19 -51.84,2.76 -76.83,4.76zm118.29 -7.5c-11.8,0.85 -27.7,-0.37 -34.7,2.75 -4.47,1.99 -8.52,9.54 -12.85,14.91 -13.76,17.08 -25.13,30.11 -37.42,46.81 54.65,-4.37 111.39,-6.47 165.88,-10.93 9.28,-9.02 17.71,-19.65 26.52,-29.81 8.71,-10.01 18.46,-19.5 25.13,-29.81 -42.65,1.38 -89.35,3.08 -132.57,6.08l0.01 0zm147.5 -6.09c-17.32,18.43 -33.79,37.7 -48.88,58.34 22.79,-1.65 45.7,-3.27 68.59,-4.79 9.33,-8.21 16.61,-18.9 25.18,-28.43 8.38,-9.41 18.42,-18 23.8,-28.53 -0.47,0 -0.9,0 -1.38,0 -21.94,1.65 -45.74,1.38 -67.31,3.41zm108.77 -4.73c-8.61,0.43 -18.8,-1.38 -25.8,1.33 -3.57,1.38 -8.8,9.44 -12.23,13.57 -10.62,12.92 -19.71,23.79 -29.28,35.28 -1.57,1.94 -4.95,3.83 -4.04,6.79 15.71,-0.3 29.89,-3.67 45.55,-2 16.09,-18.38 32.36,-36.46 47.6,-55.69 -7.8,-0.43 -14.71,0.43 -21.8,0.72zm-357.53 -32.58c-7.66,14.33 -21.8,28.05 -31.32,42.73 22.05,-0.9 50.79,-4.4 75.5,-6.79 16.23,-1.53 30.18,0.43 35.98,-10.82 1.86,2.5 -4.95,5.17 -2.71,8.12 48.65,-3.19 100.38,-5.94 149.56,-10.16 7.52,-0.67 16.09,0.37 21.09,-1.38 3.76,-1.22 9.76,-9.11 13.61,-13.57 29.61,-34.09 58.98,-66.8 90.4,-98.21 -26.99,39.97 -61.03,72.87 -89.73,111.12 18.8,0 35.41,-1.94 53.69,-3.37 5.71,-0.47 12.28,0.28 17.04,-1.37 6.57,-2.23 16.28,-16.76 21.76,-23.03 20.42,-23.69 41.84,-48.51 63.21,-69.17 -2.76,9.07 -9.81,16.33 -15.61,23.75 -17.66,22.07 -37.37,44.57 -55.12,67.12 16.66,-1.52 30.98,-5.32 50.31,-4.09 30.94,-32.42 59.45,-67.21 89.06,-100.96 -21.71,35.7 -54.12,66.68 -79.54,100.96 4.14,1.81 14.18,0.1 14.98,6.79 0.77,7.12 -8.71,7.31 -12.23,8.12 -5.71,1.29 -13.42,1.84 -17.04,3.41 -4.81,2 -8.81,9.89 -12.85,14.95 -11.19,13.64 -27.09,31.61 -36.75,44.68 3.81,1.7 15.37,-0.91 16.28,4.79 1,5.79 -8.47,5.5 -11.57,6.13 -1.81,0.28 -11.95,1.47 -14.9,2.66 -4.76,1.84 -8.9,8.78 -12.94,13.57 -10.67,12.63 -26.66,30.6 -36.04,42.72 6.57,2.86 20.57,0.66 19.71,9.46 -0.91,9.34 -26.09,6.73 -35.37,10.15 -4.81,1.85 -11.66,11.53 -16.94,17.62 -35.23,41 -73.36,91.61 -105.44,132.25 11.33,-3.91 21.94,0.37 22.47,8.83 1.09,17.42 -23.28,8.72 -36.75,9.49 -13.33,14.05 -24.94,29.76 -36.66,45.43 7.66,3.27 24.23,-1.91 25.85,6.11 1.61,8.31 -10.62,6.79 -14.28,6.75 -7.15,-0.04 -14.9,-2.09 -19.71,-0.66 -4.71,1.37 -12.66,14.47 -17.04,20.32 -6.62,8.78 -10.81,14.95 -15.62,21.68 8.91,4.46 33.9,-2.61 35.32,7.5 1.48,10.03 -30.75,10.93 -39.41,11.54 -3.09,0.19 -7.71,-0.18 -10.19,0 -28.6,34.09 -55.5,69.87 -83.63,104.33 16.52,5.8 51.6,-11.86 48.27,11.54 -2.19,15.1 -20.38,5.7 -32.61,4.09 -5.24,-0.66 -21.09,-2.94 -26.56,-1.33 -3.14,0.89 -8.33,8.63 -12.23,13.57 -8.86,11.01 -14.09,17.9 -22.42,29.09 -3.72,5.03 -12,17.71 -20.42,8.13 -2.62,-13.16 7.04,-21.19 12.94,-28.45 6.52,-8.01 13.24,-15.56 19.04,-23.72 -15.56,-1.63 -27.8,-0.82 -41.46,-1.38 -3.8,-0.12 -8.95,-1.94 -13.61,-0.66 -5.24,1.51 -12.95,13.19 -16.28,17.66 -4.76,6.12 -9.28,16.94 -16.37,16.89 -4.1,0 -7.29,-2.74 -7.44,-7.4 -0.52,-12.01 20.33,-17.6 22.42,-27.82 -14.9,-0.95 -33.27,-2.08 -46.93,-1.99 -14.43,12.29 -23.71,29.06 -37.42,42.68 -4.19,4.23 -8.61,10.67 -15.66,10.86 -4.9,-4.6 -0.28,-11.15 2.05,-15.62 7.61,-14.28 19.7,-27.2 28.61,-39.3 -34.7,-2.7 -74.17,-3.6 -113.48,-5.46 -11.19,-0.52 -25.33,-4.46 -33.37,-2.04 -3.1,0.95 -8.47,7.93 -11.57,11.54 -7.76,9.01 -12.76,14.81 -21.09,24.39 -4.14,4.86 -6.09,10.87 -10.85,11.54 -4.19,0.58 -9.04,-2.27 -9.52,-6.73 -0.76,-7.5 11.43,-16.62 15.61,-21.7 6.67,-8.22 11.43,-14.39 16.33,-20.41 -18.71,-1.61 -38.55,-2.15 -57.79,-3.32 -11.94,12.53 -23.37,25.54 -35.36,40.62 -3.29,4.19 -6.67,12.07 -12.85,12.2 -4.38,0.11 -8.76,-3.21 -8.91,-8.16 -0.19,-6.65 13.09,-18.22 17.05,-22.98 7.09,-8.78 12.04,-15.51 16.94,-22.39 -6.71,-1.91 -14.47,-1.47 -23.04,-2.05 -7.19,-0.48 -17.37,-3.22 -23.8,-1.33 -5.61,1.57 -14.8,17.85 -18.42,23.03 -6.33,9.15 -8.09,20.98 -14.95,25.72 -6.8,4.79 -17.23,3.56 -15.61,-9.39 1.05,-8.54 9.85,-14.1 14.9,-20.42 5.95,-7.26 9.96,-14.34 14.98,-19.65 -14.32,-1.61 -28.51,-1.85 -44.17,-2.7 -4.62,-0.24 -10.23,-2.23 -13.57,-1.38 -5.9,1.52 -13.51,14.81 -17.7,19.7 -6.33,7.27 -11.52,14.19 -20.38,16.23 -3.57,-8.26 4.81,-13.81 8.81,-18.93 4.67,-6.04 9.14,-11.87 12.95,-17.61 -41.6,-2.4 -83.02,-4.95 -125.14,-6.84 -13.05,13.28 -24.9,34.23 -40.13,50.22 -3.33,3.51 -14.66,16.19 -20.33,11.54 -5.57,-4.57 1.81,-15.77 4.05,-19.04 11.04,-16.23 24.66,-28.62 35.37,-44.05 -20.61,-3 -44.08,-3.08 -63.88,-6.8 -7.52,4.47 -11.38,13.96 -17.04,21.7 -10.86,14.86 -21.9,26.16 -35.37,40.69 -3.62,3.94 -13,19.07 -21.75,16.28 -9.81,-3.14 1.33,-17.56 6.8,-25.78 12.76,-19.09 26.28,-34.6 40.8,-50.85 19.08,-21.4 39.31,-43.95 57.12,-65.74 37.17,-45.57 77.35,-87.95 115.52,-129.49 69.69,-75.63 137.81,-147.59 208.06,-221.74 10.19,-10.67 18.85,-22.21 30.6,-30.48 -130.33,145.74 -267.32,284.83 -384.75,443.38 16.99,1.76 36.84,0 52.93,0.7 4.62,0.19 11.8,1.91 16.37,0.67 6.29,-1.71 18.76,-20.51 23.09,-25.78 21.9,-26.19 45.74,-54.35 66.64,-78.66 -12.99,-0.89 -26.89,-1.04 -38.03,-2.03 11.37,-4.14 31.6,1.18 40.74,-1.99 7.48,-2.66 18.04,-18.43 23.14,-24.41 7.9,-9.29 14.9,-17.37 21.75,-25.11 -2.57,-2.42 -8,-1.94 -10.9,-4.07 2.95,-4.33 9.85,-0.72 15.61,-2.66 3.38,-1.2 9.29,-9.26 13.62,-14.3 63.54,-73.09 128.52,-148.62 191.78,-220.31 -14.61,-1.9 -31.27,0.05 -46.27,0 6.62,-4.26 15.42,-2.93 23.8,-3.41 8.38,-0.48 18.76,0.66 25.85,-1.33 4.24,-1.23 10.42,-9.82 14.28,-14.28 13.42,-15.35 27.27,-30.72 39.41,-45.43 -6.38,-1.62 -13.85,-0.24 -19.04,0 7.09,-3.53 15.76,-1.72 21.76,-4.04 12.37,-4.84 16.89,-21.27 27.22,-27.82 -2.66,9.58 -16.23,17.71 -19.08,27.16 59.54,-3.04 128.47,-11.63 191.06,-17.01 9.1,-0.72 20.85,-0.19 27.14,-2.64 6.33,-2.43 18.42,-19.61 23.18,-25.12 7.76,-8.93 13.8,-17.57 22.42,-25.06 -11.19,17.53 -25.52,31.86 -37.37,48.8 11.04,0.24 22.23,-1.04 33.99,-2.04 11.04,-0.89 24.7,0.15 33.98,-3.33 6.76,-2.64 15.38,-15.9 20.38,-21.73 7.04,-8.16 12.42,-15.85 19.08,-22.41l0.05 -0.02z"/>
  <path class="fil0" d="M2043.91 6248.68c3.66,-3.93 13.32,-2.6 18.46,-2.71 187.12,-3.12 373.1,-4.65 562.78,-7.45 64.69,-0.99 129.81,-2.74 194.5,-3.41 260.08,-2.42 521.8,-9.49 784.41,-9.49 64.5,0 129.95,-1.57 195.54,-2.71 132.19,-2.29 262.47,-0.9 392.23,-4.71 65.4,-1.94 131.85,-2.04 196.64,-2.04 194.11,0 393.75,-4.79 592.09,-4.79 65.69,0 135.85,2.76 195.54,-3.37 17.28,-1.8 32.85,6.22 27.18,16.95 -3.24,6.18 -14.04,9.07 -34.79,7.5 -46.46,-3.61 -104.39,0.04 -146.66,1.37 -69.97,1.99 -135.62,1.99 -197.73,1.99 -139.38,0 -265.42,3.37 -397.66,3.37 -194.83,0 -397.88,3.43 -596.43,3.43 -328.68,0 -665.12,5.4 -997.37,5.4 -255.86,0 -510.71,2.72 -766.99,2.72 -6.28,0 -16.38,1.7 -21.75,-2.05l0.01 0z"/>
  <path class="fil4" d="M7791.03 6227.65c-0.47,4.22 -9.37,4.89 -13.99,5.74 -40.84,7.5 -97.68,7.31 -145.42,9.22 -144.8,5.89 -278.42,13.95 -440.54,9.88 -14.24,-0.37 -78.83,-0.91 -79.69,-10.83 -0.9,-10.3 55.6,-6.07 74.31,-5.56 18.61,0.48 59.12,0 80.82,-0.71 52.55,-1.65 106.25,-2.7 155.04,-5.51 52.79,-3.09 108.43,-2.37 158.32,-3.46 26.37,-0.61 52.6,-1.86 78.63,-2.13 43.89,-0.29 92.02,-2.34 132.52,3.36z"/>
  <path class="fil4" d="M7008.06 6244.32c-7.42,5.51 -21.37,4.84 -33.98,5.37 -6.1,0.32 -12.9,0.22 -19.09,0.56 -5.52,0.34 -12.85,3.03 -16.28,-1.94 2.38,-11.39 22.47,-5.38 32.61,-5.51 12.66,-0.15 26.03,-0.34 36.74,1.52z"/>
  <path class="fil4" d="M7390.82 6603.95c-54.46,9.92 -113.34,2 -171.36,1.37 -57.08,-0.62 -114.58,-4.89 -171.32,-7.45 -58.36,-2.71 -116.19,-3.89 -173.31,-6.07 -43.13,-1.8 -85.44,-4.09 -130.52,-4.09 -14.57,0 -29.47,1.71 -43.56,0.62 -5.8,-0.43 -11.85,-2.51 -19.7,-4.03 -11.43,-2.23 -25.28,-3.8 -15.62,-15.63 0.29,-13.14 8.91,-18.12 21,-18.27 29.13,-0.32 59.5,3.46 89.82,5.37 89.82,5.83 178.17,11.35 266.47,17.66 74.4,5.32 146.18,10.72 219.58,17.6 13.85,1.33 27.13,4.47 40.84,6.13 29.42,3.66 58.78,3.08 87.68,6.79z"/>
  <path class="fil4" d="M4250.57 6557.15c-5.14,2.37 -11.05,0.66 -15.61,2.74 -3.43,1.52 -3.72,5.14 -7.53,5.41 -0.66,-0.95 -1.76,-1.33 -2.66,-2.04 -0.76,-11.35 18.71,-8.73 25.8,-6.12l0 0.01z"/>
  <path class="fil4" d="M5254.09 6566.01c0.91,0.86 0.91,3.13 0,4.03 -0.95,0 -1.86,0 -2.76,0 -1.14,-2.18 -0.33,-4.31 2.76,-4.03z"/>
  <path class="fil4" d="M5723.8 6632.39c1.81,1.41 5.95,0.43 8.86,0.75 -1,-2.56 -8.71,-5.32 -8.86,-0.75zm116.25 -1.28c2.81,0.9 3.53,-3.67 2.05,-4.81 -0.52,1.72 -1.86,2.71 -2.05,4.81zm-176.07 -1.39c-0.72,-3.32 -4.81,-3.32 -8.18,-4.09 -0.24,4.09 5.9,8.93 8.18,4.09zm187.64 2.04c4.71,-2.28 14.8,-11.16 19.75,-2.7 7.24,-8.99 10.95,-36.41 27.85,-35.99 5.57,0.19 9.71,3.94 10.19,9.5 1.09,13.24 -14.66,21.64 -20.42,28.53 40.5,1.04 51.02,-27.78 83.63,-34.62 -8.09,14.34 -25.18,19.65 -35.37,31.86 11.9,1.85 20,-5.22 29.28,-10.16 6.23,-3.33 12.42,-7.21 18.32,-10.16 12.57,-6.31 25.85,-13.62 42.84,-12.91 -5.41,8.25 -15.66,12.11 -24.42,17.01 -8.99,4.88 -18.08,9.82 -26.56,14.85 23.52,1.67 38.27,-9.63 55.74,-17.56 11.43,-5.23 23.66,-13.24 38.13,-10.21 0.1,9.68 -11.42,13.47 -19.09,17.61 0.37,2.57 7.33,-0.86 9.52,1.38 -7.28,10.95 -24.22,9.49 -40.79,16.24 -15.04,6.18 -27.7,18.12 -40.75,21.68 -10.47,2.89 -18.46,-6.78 -11.56,-15.56 -16.9,-6.83 -30.66,22.21 -45.56,18.36 -7.56,-2.03 -5.71,-12 -0.71,-16.33 -11.38,1.25 -19.37,6.56 -30.56,7.47 -15.52,1.33 -26.99,-6.18 -43.51,-4.71 -2.15,3.08 -2.19,8.16 -4.76,10.77 -3.47,-1.03 -2.71,-6.3 -2.76,-10.77 -8.28,1.09 -14.75,-1.81 -21.75,0.61 -3.57,1.33 -5.05,5.43 -8.14,5.46 -3.62,0.05 -4.43,-3.07 -7.52,-4.79 -37.13,2.89 -74.97,2.61 -110.82,0 -6.04,-0.37 -17.8,-1.88 -23.8,0 -13.47,-2.79 -34.22,-1.76 -44.17,3.43 -30.56,-0.24 -68.16,14.94 -96.53,2.74 1.95,-1.95 6.9,-0.85 8.18,-3.41 2.81,-14.81 -11.99,-11.96 -19.04,-16.99 3.81,-21.84 36.28,1.65 23.14,16.99 7.66,1.76 15.71,-1.91 23.08,-2.76 -0.85,-8.11 -9.13,-8.92 -8.8,-18.27 0.95,-0.37 1.62,-1.04 2,-2.05 11.04,-0.85 7.33,13.06 11.56,19.04 12.67,-2.76 28.95,-1.88 41.51,-4.79 -4.67,-10.31 -21.04,-14.76 -24.51,-28.43 12.37,-14.3 21.56,23.25 31.27,25.72 9.28,-2.66 17.75,-6.27 29.89,-6.07 -2.71,-3.42 -6.09,-14.72 3.43,-16.29 16.52,-2.8 40.65,25.4 58.46,13.59 -3.62,-5.56 -14.48,-20.99 -0.67,-22.42 9.61,-0.99 14.28,12.2 21.75,13.59 4.43,0.85 8.9,-2.89 12.95,-2.72 5.85,0.29 8.47,1.52 8.81,7.42 -4.86,1.04 -10.67,-3.29 -15.62,0.7 4,9.44 17.47,5.66 29.9,6.13 8.14,-11.16 18.66,-23.4 35.36,-23.74 -2.19,10.69 -12.66,13.16 -17.04,21.7 17.01,2.42 36.75,2.98 47.6,-3.43 5.29,-3.08 8.33,-10.16 12.28,-15.56 5.86,-8.16 7.91,-16.48 16.33,-20.37 11.38,11.78 -5.81,27.82 -7.52,41.4l0 -0.01z"/>
  <path class="fil4" d="M6679.67 6599.2c1,7.98 -7,12.44 -11.57,16.94 -14.18,14.15 -28.89,29.78 -41.46,46.11 14.76,-7.36 28.7,-12.01 46.27,-13.58 1.09,-0.06 2.19,-0.37 3.33,-0.67 13.71,-2.76 27.7,-10.34 41.51,-15.61 13.99,-5.23 27.99,-11.44 43.5,-12.82 -2.04,6.22 -9.85,6.67 -14.94,8.78 -32.99,13.53 -69.36,30.34 -98.58,50.23 -6.71,4.5 -13.28,12.61 -23.14,8.78 -3.85,-1.57 -5.76,-6.84 -7.52,-11.54 -5.41,6.46 -19.61,5.88 -23.75,-1.33 -5.52,1.23 -12.19,1.33 -17.61,2.71 -3.29,3.46 -0.43,11.25 -2.76,14.18 -7.33,0.35 -8.24,-5.83 -8.18,-12.8 -17.61,0.42 -35.94,3.17 -54.36,1.98 -5.95,-0.37 -11.76,-1.98 -17.66,-1.98 -7.09,-0.1 -14.28,1.36 -21.09,1.28 -14.66,-0.11 -29.46,-3.29 -42.84,-4.71 -9.23,-1.04 -18.94,-3.56 -25.84,-8.82 30.03,2.33 51.21,-11.63 78.2,-13.54 28.47,-2.08 54.74,5.85 85.64,6.12 5.99,-6.36 -0.86,-43.81 10.94,-44.8 5.29,-0.44 7.72,6.79 8.14,10.16 1.38,12.3 -5.14,24.96 -6.14,34.63 3.91,1.96 10.67,1.11 14.95,2.66 12.95,-8.31 25.23,-20.35 38.03,-32.5 12.05,-11.41 25.52,-25.03 39.46,-30.54 1.24,-0.47 5.53,-2.04 7.48,0.67l-0.01 0.01z"/>
  <path class="fil4" d="M5010.7 6625.64c6.24,-3.52 6.09,-16.95 16.28,-17.61 5.66,-0.37 10.52,4.47 14.28,8.11 2.86,2.85 7.33,10.16 12.19,10.16 6.71,0.11 14.94,-15.37 20.42,-17.61 11.09,-4.4 24.46,1.86 36.03,2.05 18.47,0.37 39.13,-5.41 60.5,-5.41 17.47,-0.04 35.56,2.71 53.69,2.71 52.89,0 114.48,-2.6 161.84,4.71 -5.56,5.82 -14.56,4.4 -21.75,4.78 -24.42,1.23 -49.88,0.72 -76.11,1.33 -15.85,0.37 -31.89,2.8 -47.6,4.04 -16.95,1.38 -33.12,-0.61 -49.65,-0.61 -12.76,0.03 -25.89,3.51 -38.13,6.07 -20.09,4.28 -39.03,12.9 -61.12,4.79 -4.99,-1.84 -10.9,-9.21 -15.66,-9.5 -7.33,-0.51 -12.8,9.65 -23.08,8.75 -10.19,-0.82 -16.71,-12.63 -24.47,-12.15 -7.47,0.42 -9,11.09 -17.04,12.15 -7.62,0.98 -13.14,-4.09 -18.33,-8.75 -3.81,-3.41 -20.66,-19.79 -6.09,-21.06 10.7,-0.9 14.95,23.25 23.8,23.06l0 -0.01z"/>
  <path class="fil4" d="M7239.15 6619.57c-6.95,3.41 -18.8,2.04 -27.83,3.32 5.76,1.81 14.13,0.86 19.7,2.75 -6.28,3.37 -15.66,4.09 -23.8,4.09 -32.17,0.05 -67.11,-2.89 -101.29,-5.46 -33.84,-2.47 -67.88,-2.47 -97.2,-9.49 -1.48,-2.4 -2.19,-5.52 -3.43,-8.13 74.26,5.23 152.27,12.73 233.86,12.92l-0.01 0z"/>
  <path class="fil4" d="M4971.24 6647.38c-13.81,-4.42 -17.8,-18.48 -29.28,-25.11 -3.66,1.99 -4.42,6.87 -8.75,8.11 -2.67,-11.86 5.8,-27.34 16.28,-18.27 6.09,5.27 16.27,29.33 21.75,35.27z"/>
  <path class="fil4" d="M5498.13 6631.76c1.81,-3.37 6.19,-4.22 8.8,-6.83 -0.99,-1.72 -3.61,-1.77 -4.71,-3.33 -2.04,-8.74 6.71,-11.64 11.52,-7.5 4.95,11.2 -5.09,17.56 -15.61,17.66z"/>
  <path class="fil4" d="M4842.1 6626.97c7.52,-3.22 10.9,-10.95 19.71,-10.16 10.23,0.9 13.99,14.68 23.03,17.62 8.38,-2.47 8.95,-12.82 17.05,-14.19 10.7,-1.76 15.89,10.82 21.04,18.27 -7.37,-0.53 -11.61,-4.18 -17.66,-6.12 -14.42,13.33 -29.13,-1.44 -42.79,-6.09 -6.66,5.37 -10.66,12.39 -20.37,11.54 -8.38,-0.71 -12.19,-8.49 -19.09,-10.87 -4.43,5.23 -10.85,11.67 -21.09,8.83 -2.76,0.66 0.43,3.19 -2.04,4.09 -8.48,0.85 -14.28,-4.09 -11.57,-12.21 5.76,-5.02 11.52,-1.19 18.42,-4.04 6.81,-2.89 7.71,-9.25 14.9,-8.86 8.47,0.51 12.14,9.25 20.47,12.19l-0.01 0z"/>
  <path class="fil4" d="M6112.03 6618.19c-6.33,11.59 -23.66,12.1 -33.32,20.32 8.43,-2.71 19.85,-5.85 31.94,-10.83 10.24,-4.27 22.47,-12.1 31.32,-10.87 8.43,1.24 10.47,12.02 4.72,18.37 21.27,-1.7 39.6,5.93 60.5,8.12 16.61,1.7 31.41,4.36 42.79,11.53 -21.37,5.19 -49.46,2.75 -74.78,0.67 -3.33,-0.29 -7.57,-0.8 -10.86,-2.05 -3.23,-1.22 -5.61,-4.4 -8.85,-4.78 -13.37,-1.42 -37.79,19.79 -41.41,-2.72 -5.86,1.14 -13.62,5.08 -21.75,7.5 -12,3.62 -29.99,9.02 -31.33,-4.78 -10.04,1.7 -11.28,13.24 -21.75,12.9 -8.18,-0.24 -11.09,-10.86 -6.81,-16.98 4.24,-5.95 23.9,-11.96 32.66,-15.52 16.94,-6.89 29.84,-13.44 46.93,-10.88z"/>
  <path class="fil4" d="M6979.46 6624.94c-3.67,9.63 -15.71,11.86 -24.47,14.95 -47.55,16.89 -93.3,35.55 -137.28,57.63 -7.62,3.83 -16.23,8.16 -26.56,12.9 -4,1.76 -24.14,12.77 -26.52,1.28 -1.61,-7.77 11.29,-15.04 17.71,-18.94 22.99,-13.8 48.65,-22.93 74.78,-33.22 37.84,-14.87 70.21,-29.3 108.82,-35.89 2.81,-0.51 11.47,-1.99 13.52,1.3l0 -0.01z"/>
  <path class="fil4" d="M6897.24 6627.68c-5,7.88 -15.66,9.79 -23.8,12.87 -53.02,20.17 -101.1,44.2 -152.99,67.13 -4.09,1.84 -25.08,12.53 -25.8,0.7 -0.47,-6.88 10.85,-12.43 17.66,-17.01 20.9,-13.86 44.84,-22.02 70.02,-31.84 37.46,-14.62 66.17,-28.11 102.68,-33.9 2.99,-0.51 10.61,-1.37 12.23,2.04l0 0.01z"/>
  <path class="fil4" d="M5422.63 6638.51c-9.09,-0.85 -14.24,5.64 -21.08,0 -2.24,-15.85 15.85,-3.94 21.08,0z"/>
  <path class="fil4" d="M6818.99 6631.11c-6.85,9.77 -23.22,11.57 -36.66,16.28 -25.56,8.83 -52.45,21.04 -75.44,33.17 -11.7,6.18 -23.03,14.62 -36.03,18.32 -4.62,1.25 -21.23,3.67 -21.75,-4.79 -0.48,-6.36 11.42,-10.95 16.32,-13.53 19.33,-10.24 40.85,-17.61 61.85,-25.73 29.13,-11.38 55.83,-23.58 91.72,-23.72l-0.01 0z"/>
  <path class="fil4" d="M7037.29 6636.46c-0.86,5.71 -7.62,6.75 -11.57,8.13 -32.98,12 -65.97,24.07 -97.2,38.01 -26.75,11.87 -52.31,24.92 -79.59,36.6 -8.04,3.48 -18.75,10.4 -27.89,4.8 0.86,-9.78 11.33,-13.95 18.42,-18.37 21.95,-13.62 47.6,-24.3 73.4,-35.27 34.61,-14.52 71.64,-30.62 109.48,-35.18 3.14,-0.42 10.48,-1.99 14.95,1.28z"/>
  <path class="fil4" d="M7502.97 6672.41c-4.19,6.39 -12.86,4.5 -19.05,4.13 -21.42,-1.52 -45.55,-2.24 -68.68,-1.38 -30.9,1.09 -60.98,4.71 -90.4,2.71 -16.13,-1.14 -31.13,-1.62 -45.5,-2.71 -27.04,-2.09 -51.51,-12.52 -74.83,-20.32 -12.33,-4.22 -24.99,-8.11 -38.79,-8.88 -15.99,-0.75 -28.04,5 -40.08,2.05 -1.96,-5.03 0.14,-8.59 4.09,-8.78 14.38,-0.77 30.56,3.75 46.93,4.74 48.22,2.95 91.97,10.31 142.76,11.54 33.32,0.77 66.97,-2.52 98.58,-0.67 16.18,0.91 32.22,2.29 46.88,4.71 13.67,2.23 28.18,3.7 38.09,12.87l0 -0.01z"/>
  <path class="fil4" d="M5468.24 6644.59c10.04,-1.43 20.61,2.5 27.13,6.82 -11.52,0.2 -18.61,-4.02 -27.13,-6.82z"/>
  <path class="fil4" d="M6301 6656.11c-7.67,1.2 -20.42,1.38 -27.23,-0.61 7.95,-3.17 19.42,-1.7 27.23,0.61z"/>
  <path class="fil4" d="M6309.15 6658.16c13.8,0.18 28.79,-0.05 42.12,0 4.9,0.05 12,-0.19 15,4.09 -19.19,1.41 -40.89,-0.34 -57.12,-4.09z"/>
  <path class="fil4" d="M7065.18 6662.24c-2.89,8.11 -13.61,8.73 -20.42,10.86 -38.41,12.2 -74.3,27.73 -110.1,43.39 -6.14,2.62 -13.22,5.99 -21.8,8.79 -5.04,1.65 -20.89,5.93 -23.13,-0.67 -2.57,-7.6 7.76,-12.44 12.95,-15.58 17.94,-11.01 39.69,-16.65 61.11,-23.73 32.14,-10.53 58.08,-19.51 88.45,-25.1 2.95,-0.54 11.37,-1.91 12.94,2.04z"/>
  <path class="fil4" d="M6933.9 6740.23c-15.52,-13.57 11.47,-22.54 24.52,-27.15 23.37,-8.25 48.6,-17.13 72.73,-24.36 12.09,-3.7 25.18,-8.24 38.75,-9.49 1.85,-0.23 21.46,-1.66 21.75,5.41 0.29,5.98 -32.99,12.9 -38.75,14.9 -26.56,9.11 -52.6,19.51 -77.54,29.81 -12.18,5.13 -25.42,12.54 -41.46,10.87l0 0.01z"/>
  <path class="fil4" d="M5162.26 6696.85c-4.67,5.88 -17.14,3.41 -25.85,3.41 -16.85,-0.08 -37.98,2.37 -57.12,2.66 -7,0.15 -14.33,0.34 -15.66,-4.04 -3.14,-10.77 13.62,-11.95 21.8,-12.9 11.24,-1.33 28.9,-0.48 43.45,0.71 14.14,1.1 29.7,1.57 33.37,10.16l0.01 0z"/>
  <path class="fil4" d="M7145.38 6693.42c-1.52,5.8 -8.95,8.04 -14.28,10.16 -35.51,14.44 -73.69,24.79 -110.81,40.08 -8.48,3.46 -25.71,11.91 -26.52,-2.77 -0.71,-12.2 19.42,-14.46 29.18,-17.65 11.66,-3.66 24.94,-8.3 35.37,-11.54 26.18,-7.96 49.31,-16.04 74.16,-18.94 3.24,-0.37 10.7,-1.99 12.9,0.66z"/>
  <path class="fil4" d="M7176.65 6707.01c-2.89,7.74 -12.94,9.49 -21.08,12.19 -16.19,5.41 -28.75,12.26 -44.84,20.32 -5.76,2.89 -23.47,11.4 -25.85,-0.67 -2.67,-13.43 20.52,-19.12 31.23,-23.06 16.42,-5.98 30.03,-11.39 44.88,-12.21 6.57,-0.32 12.62,0.35 15.66,3.43z"/>
  <path class="fil4" d="M7343.22 6711.7c-2.72,8.55 -12.14,11.49 -19.71,14.96 -16.04,7.3 -30.37,13.2 -47.6,21.69 -8.42,4.14 -32.75,18.24 -33.99,-2.03 -1.04,-16.76 31.8,-21.22 45.56,-25.08 17.37,-4.84 30.94,-9.58 45.55,-10.82 3.95,-0.37 7.09,-2.08 10.19,1.28z"/>
  <path class="fil4" d="M7239.15 6719.2c-2.61,5.36 -10.66,6.69 -16.94,8.13 -13.28,3.12 -27.52,4.6 -42.13,7.5 -6.52,1.28 -13.99,5.35 -19.09,0 -1.57,-3.86 -0.52,-9.12 2.05,-10.83 25.56,0.62 52.5,-1.51 76.11,-4.8z"/>
  <path class="fil4" d="M5794.49 6130.68c-44.7,2.31 -90.81,-0.77 -136.71,1.41 -10.19,0.43 -21.42,-1.99 -28.51,0 -6.57,1.76 -18.71,17.1 -26.9,25.11 -27.41,26.64 -53.83,52.36 -79.49,78.61 -31.89,32.63 -67.69,64.71 -99.29,97.65 0,0 -6.24,4.56 -2.95,6.09 5.52,2.45 23.32,0 32.6,0 78.07,0 154.08,4.6 228.34,2.03 63.02,-68.69 128.38,-139.6 192.97,-206.11 1.48,-1.47 5.72,-2.95 4.33,-6.07 -29.94,0.85 -53.69,-0.2 -84.39,1.28zm284.36 -3.32c-50.45,0 -101.62,1.32 -151.65,1.32 -10.57,0 -22.94,-1.19 -29.94,0.72 -3.1,0.75 -8.71,7.72 -12.76,12.19 -59.45,64.75 -114.99,128.59 -171.41,193.87 -1.43,1.67 -5.28,3.89 -3.66,6.78 77.87,1.91 158.13,0.19 237.19,2 11.04,0.29 25.8,2.89 33.94,0.76 3.57,-1 8.33,-8.03 12.76,-12.95 60.97,-67.55 120.03,-133.16 179.78,-199.33 1.43,-1.57 4.67,-4.19 3.67,-6.75 -34.56,-0.48 -62.36,1.38 -97.92,1.38l0 0.01zm355.05 -5.42c-25.71,0 -52.13,1.33 -77.5,1.33 -38.93,0 -77.35,-0.27 -117,1.33 -12.42,0.53 -30.46,-1.94 -39.51,0.72 -3,0.85 -8.61,8.26 -12.75,12.87 -60.79,67.98 -116.91,134.2 -176.41,200.69 -1.38,1.53 -4.71,4.23 -3.67,6.75 110.86,2.56 226.11,6.65 337.54,8.88 8.18,0.12 17.13,2.08 22.32,0.66 3.86,-1.05 9.67,-9.44 14.28,-14.25 14.66,-15.43 28.8,-29.18 41.89,-43.37 54.17,-58.83 105.53,-113.09 159.51,-169.52 1.57,-1.67 4.9,-4.65 4.38,-7.45 -52.69,-0.77 -100.82,1.36 -153.08,1.36zm-562.78 -2.03c5.04,-0.2 12.32,1.42 17.66,0 5.37,-1.48 18.7,-18.08 23.42,-23.08 40.03,-42.25 72.67,-78.37 111.9,-121.32 11.48,-12.73 27.71,-28.48 39.18,-42.77 2.19,-2.81 4.81,-4.14 0.9,-5.41 -2.19,-0.75 -11.33,1.47 -16.47,2.05 -71.87,7.78 -136.7,15.52 -208.25,22.39 -11.14,1.06 -24.08,0.62 -32.08,3.33 -6.67,2.33 -15.71,13.91 -21.99,20.42 -47.84,49.6 -96.49,96.78 -144.04,144.4 -1.14,1.05 -4.62,2.22 -3.62,4.69 82.35,-1.88 154.94,-1.75 233.38,-4.69l0.01 -0.01zm243.62 -197.99c-10.33,1.12 -31.56,1.51 -38.99,4.73 -6.24,2.77 -15.37,16.63 -21.37,23.75 -46.41,54.77 -92.06,105.13 -138.57,157.31 -3.33,3.75 -9.66,7.4 -8.66,11.49 93.92,-2.05 188.35,-3.51 282.37,-5.41 65.16,-70.59 131.28,-144.49 195.4,-215.55 1.52,-1.71 6.33,-3.51 4.37,-6.84 -87.53,12.1 -183.4,20.69 -274.55,30.53l0 -0.01zm724.61 -80.05c-71.55,5.98 -143.66,14.73 -217.06,23.12 -63.64,7.17 -125.57,13.16 -189.88,20.94 -9.33,1.18 -20.09,1.14 -26.7,3.41 -6.33,2.23 -20.8,21.65 -25.66,27.15 -58.36,66.18 -112.91,130.4 -170.16,197.29 112.34,-2.08 228.29,-4.37 342.91,-6.07 7.24,-0.15 16.04,-0.72 24.52,-0.72 8.09,0 18.66,0.86 23.84,-0.66 3.24,-0.99 10.62,-10.1 14.86,-14.95 70.02,-77.81 137.28,-153.52 207.58,-229.8 -67.54,83.45 -140.37,161.45 -208.82,244.08 69.45,-2.55 144.61,-1.88 216.44,-6.06 9.61,-0.62 23.7,-2.89 28.56,0 7.14,4.13 5.47,16.09 -0.81,19.6 -4.48,2.47 -10.05,0.9 -15.71,0.71 -68.59,-2.76 -139.47,0 -211.39,0 -9.86,0 -22.42,-1.29 -29.28,0.67 -3.91,1.09 -9.04,9.15 -13.52,14.18 -65.45,74.3 -132.56,146.64 -195.63,221.03 78.3,1.61 166.6,8.16 248.42,9.54 12.95,0.19 31.23,-3.43 28.8,10.86 -1.67,9.27 -16.04,7.42 -29.51,6.75 -84.35,-3.99 -171.51,-0.34 -254.19,-3.42 -4.23,-0.14 -8.8,-1.37 -12.18,-0.67 -4.72,1.01 -11.62,9.92 -15.52,14.25 -23.28,25.59 -46.46,53.83 -68.07,81.32 -3.47,4.5 -9,10.38 -12.95,16.98 -4.33,7.23 -7.33,14.25 -13.61,16.29 -13.42,4.31 -23.33,-6.37 -22.42,-16.9 0.67,-6.97 6.19,-12.16 10.95,-16.37 12.33,-10.92 28.32,-29.25 39.74,-40.6 19.33,-19.18 34.47,-35.21 51.98,-54.97 -113.29,-3.83 -222.2,-4.84 -336.82,-8.83 -7.23,-0.19 -16.8,-1.75 -21.8,-0.66 -7.09,1.67 -19.9,21.37 -24.89,27.15 -17.23,19.65 -31.09,34.62 -48.6,55.6 -5.81,7.02 -15.81,25.24 -26.85,25.11 -5.09,-0.11 -11.09,-4.61 -11.09,-10.88 0,-8.77 13.52,-20.21 19.42,-26.43 21.8,-22.85 46.93,-47.66 64.88,-71.22 -76.11,-1.55 -152.23,-7.3 -230.72,-9.49 -10.23,-0.24 -24.18,-3.28 -32.61,-1.37 -6.28,1.47 -17.09,18.41 -23.42,25.11 -15.8,16.57 -29.79,33.89 -44.41,52.17 -6.71,8.41 -12.23,19.56 -22.18,25.78 -4.43,2.79 -16.61,7.07 -19.71,0 -5.04,-11.3 11.57,-24.3 16.24,-29.81 14.7,-17.15 28.22,-34.05 42.93,-50.85 7.28,-8.35 16.33,-15 21.37,-23.69 -70.97,-5.83 -146.94,-4.02 -221.86,-8.87 -9.76,-0.58 -23.23,-3.27 -31.23,-1.37 -7.52,1.85 -20.04,20.12 -25.56,25.76 -17.47,18.04 -33.27,34.14 -51.17,51.6 -5.62,5.41 -18.71,25.87 -28.7,19.66 -10.86,-6.84 6.47,-25.64 10.8,-29.9 23.09,-23.08 50.55,-43.25 70.88,-68.41 -29.23,-1.51 -60.79,-0.85 -87.53,-4.8 23.52,-1.66 52.03,-2.37 76.88,-1.33 4.76,0.2 10.14,1.85 14.94,0.68 7.44,-1.77 21.04,-20.42 26.95,-26.45 9.61,-9.82 18.94,-18.14 26.94,-25.72 54.17,-51.84 112.14,-102.55 163.6,-154.66 -26.66,0 -55.36,0 -82.92,0 -8.52,0 -18.09,1.71 -25.13,-2.04 5.47,-4.61 15.99,-2.15 26.7,-2.66 19.09,-0.96 38.51,-1.67 59.22,-2.05 9.04,-0.18 21.04,1.33 29.22,-0.66 6.71,-1.62 16.71,-14.39 23.28,-20.37 46.46,-42.11 89.63,-84.44 134.61,-127.45 7.24,-6.94 15,-13.47 20.66,-21.7 -24.46,1.62 -51.36,7.84 -76.4,4.09 5.57,-4.19 13.43,-3.24 20.61,-4.09 13.9,-1.65 28.33,-4.51 42.42,-6.07 7.8,-0.9 15.8,-0.15 21.85,-2.04 8.66,-2.76 11.66,-13.11 19.7,-15.58 -2.62,5.75 -8.33,8.32 -10.85,14.2 73.4,-7.79 153.84,-18.09 230.24,-27.1 10.57,-1.28 24.23,-0.3 32.85,-3.38 11.14,-4.04 19.66,-25.02 31.79,-29.15 -7.9,9.21 -16.32,17.96 -23.61,27.77 96.78,-10.82 200.07,-23.78 299.98,-35.93 6.67,-0.85 15.19,-1.04 19.14,-2.75 6.9,-2.89 13.52,-13.95 19.94,-20.98 19.76,-21.8 37.23,-41.91 59.65,-61.01 -20.62,28.25 -44.42,53.27 -66.6,80 133.71,-17.38 272.66,-32.63 410.7,-50.18 12.76,-1.62 26.23,-1.62 34.32,-7.45 -1.38,1.28 -0.86,3.6 1.95,2.66 52.55,-7.41 200.26,-31.76 249.47,-31.14 21.47,0.29 18.19,29.76 0.72,31.89 -57.45,6.75 -144.33,8.88 -206.68,14.2 -9.96,0.85 -21.33,1.57 -31.99,2.71 -10.7,1.18 -22.99,0.85 -31.42,3.41 -8.99,2.66 -12.8,15.15 -20.65,21.04 2.66,-6.03 10.99,-12.2 15.04,-19.04l-0.02 -0.01z"/>
  <path class="fil4" d="M6339.09 6568.06c4.61,1.94 18.37,1.91 21.75,0.61 -7.28,0.62 -16.9,-3.36 -21.75,-0.61zm-45.61 -4.09c-0.61,0 -0.76,0.52 -1.38,0.67 0,0.9 0.34,1.52 0.77,2.03 12.04,0.2 22.89,1.57 35.36,1.38 -7.42,-5.56 -24.08,-1.86 -34.75,-4.08zm-8.14 2.04c-2.62,-4.61 -9.48,-2.51 -14.28,-2.75 -12.86,-0.62 -28.42,-2.05 -40.8,-2.71 -0.43,0 -0.9,0 -1.33,0 16.52,4.09 37.75,3.46 56.41,5.46zm259.05 -6.84c-0.57,1.33 -1.15,2.52 -1.38,4.09 9.99,0.19 22.27,1.76 31.98,0 -8.9,-2.61 -19.75,-3.38 -30.6,-4.09zm-35.33 4.1c5.61,0 11.28,0 16.94,0 -0.33,-2.1 1.24,-2.37 0.72,-4.76 -6,-0.9 -18.51,-4.4 -17.66,4.76zm-331.83 -5.38c-0.28,0.9 -0.8,1.09 0,1.99 15.9,-0.71 31.75,2.23 46.27,0.67 -14.52,-1.38 -32.65,-2.66 -46.27,-2.66zm302.55 5.38c3.91,-0.48 9.52,0.9 12.24,-0.66 -2,-1.38 -1.38,-5.46 -2.72,-7.46 -2.66,0 -5.47,0 -8.14,0 -0.57,2.24 -0.04,5.22 -1.38,8.12zm-341.91 -5.38c9.57,0.1 23.51,3.08 31.94,0 -9.43,-2.47 -21.56,-2.04 -32.7,-2.75 -0.05,1.18 0.24,2.08 0.76,2.75zm292.93 -6.17c-1.14,3.42 -2,6.97 -2.71,10.88 12.33,-0.3 23.8,0.28 35.41,0.66 -1.04,-2.56 -0.09,-7.17 -1.42,-9.49 -11.14,0.08 -20.42,-1.71 -31.28,-2.05zm-333.12 0c-0.37,1.62 -1,3.14 -0.66,5.41 11.09,-1.38 23.75,2.98 32.6,-0.62 -6.76,-5.46 -22.03,-2.42 -31.94,-4.79zm99.25 0c-6.04,0.19 -10.33,-1.38 -16.28,-1.33 -0.81,0.1 -1.57,0.19 -1.33,1.33 5.57,-0.53 15.04,2.05 17.61,0zm191.07 10.2c9.09,-0.53 16.09,1.09 25.18,0.67 0.24,-4.67 -0.37,-8.27 -0.71,-12.21 -8.24,-0.37 -18.47,-2.42 -26.52,-0.71 2.62,2.94 1.29,9.01 2.05,12.25zm-47.55 -14.95c-0.96,3.17 -1.48,6.67 -1.38,10.91 9.9,1.38 21.23,1.38 31.27,2.66 -1.9,-4.12 -1.1,-8.45 0.67,-12.2 -9.57,-1.18 -19.85,-1.42 -30.56,-1.37zm-288.99 0c-0.71,3.56 -0.66,6.49 0.67,9.53 12.09,-0.27 26.85,0.34 36.75,0 0.33,-2.18 -1.24,-2.42 -0.67,-4.79 -11.37,-2.51 -24.27,-3.37 -36.75,-4.74zm85.64 0.65c0,0.48 0,0.94 0,1.37 10.42,0.15 24.51,3.48 33.37,0.67 -9.43,-1.42 -24.14,-4.8 -33.37,-2.04zm156.35 -2.64c-1.99,1.33 -1.14,5.55 -1.38,8.78 10.91,0.95 21.19,2.42 32.71,2.74 -0.77,-3.89 -2.62,-6.44 -3.43,-10.19 -8.09,-1.62 -19.71,0.27 -27.9,-1.33zm-195.78 0c0,0.9 0.34,1.46 0.72,1.99 8.76,-0.39 20.66,3.28 27.89,0 -6.38,-3.37 -20.32,-2.76 -28.61,-1.99zm-11.56 0c-5.71,-2.66 -18.95,-1.49 -25.85,-0.67 8.04,-0.1 19.53,3.46 25.85,0.67zm144.85 -1.39c0,1.61 -1.15,1.99 -0.72,4.03 16.04,2.08 32.61,3.75 49.65,4.8 -1.67,-2.89 -2.89,-6.18 -5.38,-8.12 -15.09,0.67 -30.23,-2.04 -43.55,-0.71zm-25.19 -1.33c-6.85,-0.34 -14.85,-1.2 -21.04,-0.72 -0.58,0.19 -0.86,0.58 -0.67,1.38 7.14,1.88 27.13,4.12 35.32,2.66 -0.91,-5.61 -8.76,-3.14 -13.62,-3.32l0.01 0zm-61.15 -1.38c8.42,-0.47 19.7,3.28 25.85,0.67 -7.05,-0.95 -20.81,-2.32 -25.85,-0.67zm-91.79 -4.08c0,0.67 0,1.37 0,2.03 4.24,1.19 10.43,0.67 16.33,0.67 5.57,0 12.52,1.61 14.9,-2.03 -10.19,-0.05 -22.37,-1.52 -31.23,-0.67zm-1005.5 -17.61c9.33,1.09 17.85,4.8 27.18,6.08l972.23 29.86c-1.33,-6.45 -0.71,-8.21 -6.19,-10.15 -4.14,-1.62 -11.52,0.94 -12.9,-4.1 2.72,-4.12 15.43,1.76 17.04,-3.41l-1027.26 -21.7c9.85,1.65 19.75,2.18 29.89,3.41l0.01 0.01zm1587.42 21.03c6.71,-10.29 16.04,-21.53 21.09,-31.19 -6.71,10.21 -16.57,20.98 -21.09,31.19zm-1649.31 -30.51c-1.43,-4.23 -2.47,-8.8 -4.04,-12.87 0.47,5.17 -0.29,11.49 4.04,12.87zm2065.39 -136.96c-0.67,-2.05 -0.29,-8.74 -1.34,-8.11 0.48,2.66 -1.19,7.45 1.34,8.11zm6.8 -241.34c0,-4.98 0,-9.97 0,-14.95 -0.71,0 -1.33,0 -2.04,0 0.23,5.45 0.23,11.06 2.04,14.95zm-391.61 363.38c57.27,-71.91 112.82,-150.66 173.41,-222.39 60.41,-71.5 117.91,-147.16 176.74,-220.29 58.17,-72.44 118,-145.32 177.41,-219.75 29.37,-36.7 60.12,-70.11 89.06,-109.79 20.04,-27.39 40.6,-57.87 64.64,-84.07 6.24,-6.8 19.47,-23.56 26.47,-21.69 5.85,1.56 7.57,9.2 4.81,14.89 -2.72,5.66 -9.1,8.95 -10.91,10.82 -7.04,7.66 -13.51,16.87 -19.7,24.45 -39.8,48.37 -75.64,100.07 -114.91,149.16 -52.88,66.07 -101.58,133.72 -154.37,197.95 4.62,9.25 2.05,19.51 2.05,29.15 0.09,10.21 0.86,19.28 2.76,29.86 3.62,19.89 -0.24,40.77 0.67,60.99 1.9,41.59 1.38,83.93 2.76,126.13 2.62,83.78 4.47,168.13 9.47,248.13 118.81,10.05 247.47,10.48 363.71,23.06 -14.51,3.51 -30.03,1.04 -44.88,0.66 -106.06,-2.74 -213.54,-11.14 -317.45,-16.27 -1.52,5.02 0.05,12.52 1.38,16.99 126.09,10.91 268.13,5.93 385.42,25.72 -34.6,1.2 -71.26,-4.13 -108.77,-5.4 -37.55,-1.33 -75.87,-1.23 -113.52,-2.71 47.17,5.61 104.24,1.38 148.23,10.16 -10.81,5.61 -24,4.75 -36.04,4.75 -76.87,0 -159.41,1.95 -234.57,-2.04 -12.62,-0.66 -25.71,-3.04 -37.42,-2.71 -3.66,0.1 -8.38,2.23 -12.23,2.05 -3.67,-0.3 -7.14,-3.23 -11.57,-4.1 -5.33,-1.04 -13.99,-2.8 -18.32,-1.99 -4.92,0.87 -6.95,8.18 -12.9,8.13 -7.14,-0.11 -7.67,-8.13 -12.28,-10.16 -5.34,-2.42 -19.04,-1.91 -27.14,-2.76 -53.69,-5.64 -104.96,-10.25 -156.36,-18.94 -7.33,-1.23 -16.24,-2.23 -21.09,-8.11 10.52,-0.53 18.99,0.9 29.23,0.61 -14.52,-3.08 -31.42,-3.93 -46.22,-6.73 75.01,-3.1 146.79,8.54 220.91,10.81 0.95,-3.79 -0.57,-10.54 0,-16.23 -77.3,-5.85 -162.75,-3.61 -239.94,-9.55 38.08,-5.83 79.54,-1.36 119.62,-1.36 40.55,0 81.2,2.61 120.33,3.41 -0.76,-68.64 2.71,-137.15 -1.33,-208.1 -3.24,-56.84 -5.43,-116.89 -5.43,-179.01 0,-8.7 -2.09,-19.33 -0.71,-25.12 1.19,-4.61 6.04,-3.56 7.47,-8.12 1,-3.09 -1.33,-5.75 -1.33,-10.16 -3.1,-1.14 -5.57,3.19 -6.81,4.76 -31.23,37.97 -60.22,79.93 -91.11,119.32 -89.96,114.55 -182.78,228.82 -273.27,344.41 -3.95,5.08 -7.52,11.25 -10.86,16.94 -6.33,10.5 -9.13,21.78 -23.8,23.74 -7.14,14.1 -16.08,25.11 -31.27,28.44 -12.95,2.89 -30.84,-1.1 -48.31,-2 -17.23,-0.85 -33.47,-1.67 -49.65,-2.05 -33.89,-0.8 -66.31,-4.97 -96.49,-6.78 -65.64,-3.85 -126.04,-13.19 -189.68,-16.94l-1134.69 -48.14c-16.52,-2.42 -33.42,-0.24 -48.22,-2.76 -4.95,-0.75 -7.05,-3.09 -10.95,-4.04 -10.95,-2.69 -33.99,-1.14 -42.75,-6.79 -3.23,-1.99 -4.38,-8.29 -6.85,-14.19 -2.81,-6.79 -7.19,-7.88 -6.76,-15.62 0.19,-4.46 3.85,-7.02 4.71,-12.9 1.14,-7.12 -0.33,-11.54 1.38,-15.53 3.43,-7.92 10.9,-13.72 19.71,-20.37 22.09,-16.76 45.55,-36.22 65.93,-53.59 29.27,-24.82 59.11,-48.56 87.01,-71.81 116.1,-96.66 224.1,-200.47 340.01,-295.65 43.51,-35.69 87.11,-71.48 129.14,-109.14 10.33,-9.29 20.61,-18.6 31.94,-27.77 2.95,-2.47 7.66,-7.5 12.23,-3.41 3.14,6.18 -3.81,8.83 -6.76,11.53 -23.42,21.17 -46.97,44.62 -70.73,66.46 -81.21,74.38 -167.41,144.4 -249.51,218.93 -54.51,49.57 -109.19,99.32 -165.18,147.17 -42.03,35.93 -82.44,73.34 -123.8,110.5 -6.61,5.98 -14.09,12.15 -20.32,18.94 -6.09,6.7 -13.52,13.91 -15.66,23.08 13.47,7.12 29.7,6.18 44.89,6.78l1448.76 36.59c16.33,1.68 32.56,2 48.94,2.72 15.94,0.8 31.65,-2.24 47.6,-2.05 35.36,-32.56 63.69,-72.1 90.39,-111.78 53.93,-80.32 110.86,-157.76 168.64,-235.26 28.61,-38.5 56.45,-77.95 86.3,-115.31 30.18,-37.69 57.5,-77.18 86.35,-115.93 85.77,-115.15 174.78,-228.98 262.42,-341.69 -262,39.02 -522.51,88.68 -784.54,130.16 -65.74,10.35 -131.33,21.14 -197.11,31.91 -178.78,29.09 -359,60.24 -540.5,88.77 -16.33,2.56 -32.94,6.97 -49.65,4.74 4.95,-6.73 14.52,-6.65 21.76,-8.11 57.16,-12.21 117.19,-22.08 176.12,-32.61 201.54,-35.89 404.69,-69.35 608.43,-107.09 66.68,-12.3 134.71,-24.41 202.58,-35.94 170.27,-28.91 338.4,-57.25 507.85,-88.16 24.9,-4.51 50.17,-9.3 74.78,-14.86 15.33,-3.46 26.85,-11.09 41.51,-1.36 7.28,4.84 15.38,11.25 15.61,22.39 0.2,9.5 -9.37,24.5 -15.61,33.91 -7.14,10.62 -17.71,17.08 -24.47,25 -16.18,18.86 -31.37,36.18 -45.55,53.64 -15.23,18.62 -28.32,38.36 -42.89,56.26 -44.69,55.12 -88.06,109.14 -132.56,164.72 -29.56,37.02 -55.79,76.62 -84.97,113.27 -29.28,36.69 -58.17,74.01 -87.01,111.16 -28.99,37.32 -58.84,73.73 -87.07,111.19 -28.32,37.69 -58.88,73.67 -87.68,110.51 -30.94,39.63 -59.78,80.55 -89.06,121.37l-0.05 -0.01z"/>
  <path class="fil4" d="M4954.2 6565.31c4.81,0 9.52,0 14.28,0 -0.91,-7.65 -11.28,-2.38 -14.28,0zm-180.84 -38.65c0.77,-1.91 3.62,-6.99 2.05,-5.41 -6.9,12.77 -12.8,26.54 -19.04,39.97 2.95,0 5.9,0 8.85,0 -3.71,-13.24 4.29,-24.25 8.14,-34.55l0 -0.01zm-10.9 -94.88c4.14,4.64 -0.85,10.91 -2.66,14.85 -15.14,33.37 -29.86,71.35 -36.04,113.93 3.96,1.04 8.76,1.19 13.62,1.38 2,-15.72 9.8,-26.4 18.32,-39.31 6.24,-9.49 12.43,-19.47 18.33,-25.1 3.91,-3.67 9.62,-7.17 13.61,-4.76 9.52,5.74 -2.28,24.46 -2.04,33.9 19.75,-15.28 38.79,-42.39 63.26,-56.96 4.57,-2.76 10.52,-4.04 11.57,0 0.76,3.17 -7.53,8.25 -9.52,10.16 -9.96,9.44 -19.14,18.94 -27.9,29.18 -16.23,18.85 -23.47,38.26 -40.08,52.89 11.66,4.12 27.09,4.55 41.46,6.12 1.52,-2.66 -2.81,-4.28 -1.38,-8.88 3.48,-5.88 9.71,-6.87 15,-10.16 5.9,-3.75 10.85,-9.77 16.94,-14.95 14.38,-12.2 36.8,-32.36 59.17,-35.18 4.38,-0.61 9.47,-0.46 14.28,1.33 -2,5.6 -9.62,6.61 -14.95,8.83 -16.71,6.8 -31.37,18.29 -42.84,30.48 5.33,1.33 11.76,1.43 12.24,7.46 -19.33,-1.72 -31.37,9.34 -39.47,21.07 0.58,0.19 8.1,1.81 11.57,0.61 2.89,-0.9 4.14,-5.08 6.86,-7.45 4.99,-4.36 15.75,-8.59 25.08,-12.2 13.71,-5.17 42.6,-17.42 36.03,7.5 16.43,-4.26 46.18,-19.41 56.46,0 12.37,-8.01 30.7,0.1 44.89,1.38 8.9,0.72 18.94,-0.48 29.18,0 30.46,1.28 58.16,3.32 88.44,1.99 17.47,-0.75 33.84,0.3 48.22,4.76 -26.8,6.36 -54.36,3.46 -82.21,3.41 -7.71,-0.09 -14.61,1.24 -21.8,0 -4,-0.72 -7.86,-2.98 -12.23,-3.41 -16.9,-1.91 -34.47,4.37 -51.7,2.69 -7.95,-0.8 -16.76,-5.4 -25.08,0 30.75,6.33 66.64,7.66 101.91,9.5 -52.17,9.68 -109.43,-4.26 -163.13,0.62 -0.43,4.79 9.05,9.01 6.76,15.61 -9.99,-0.66 -18.09,-9.02 -25.8,-14.2 -30.65,-2.71 -58.31,7.6 -86.3,6.79 -11.33,-0.32 -22.89,-3.09 -33.98,-4.8 -10.67,-1.61 -21.71,-7.5 -31.33,-7.44 -5.71,0.05 -11.47,3.85 -17.66,4.04 -5.28,0.27 -10.37,-1.06 -15.66,-0.62 -14.47,1.09 -29.03,6.08 -42.12,-1.37 -5.52,9.31 -22.99,7.11 -22.47,-6.13 -12.9,-5.94 -18.28,-4.88 -31.94,0.71 -5.38,2.23 -11.47,4.13 -14.95,6.12 -3.71,2.04 -6.23,7.12 -10.18,7.47 -3.95,0.27 -5.86,-2.81 -9.52,-3.43 -6.24,-0.95 -11,2.42 -17.71,1.38 -1.48,10.63 -18.66,15.76 -18.33,0 -36.66,3.21 -52.88,-17.66 -78.2,-27.82 1.04,5.87 11.56,9.68 8.9,18.32 -1.1,3.17 -3.62,6.03 -7.52,6.78 -21.95,4.18 -43.32,-24.58 -55.74,-29.86 4.09,5.13 4.95,18.32 -5.48,20.32 -11.56,2.28 -26.65,-6.69 -35.98,-11.44 -10.29,-5.32 -20.81,-11.86 -34.7,-12.9 -38.66,-3 -66.22,7.39 -95.21,14.18 -1.57,-3.47 3.43,-5.35 5.48,-6.73 8.18,-5.8 20.42,-8.75 33.32,-11.55 18.85,-4.12 39.32,-9.58 60.45,-8.11 24.09,1.57 38.18,15.8 56.46,20.99 1.66,-9.79 -18.66,-19.37 -14.95,-33.19 3.28,-12.24 20.61,-1.04 27.18,4.09 16.33,12.63 34.03,34.31 51.69,40.63 -1.14,-5.47 -5.66,-10.39 -10.18,-16.29 -3.38,-4.31 -16.33,-19.41 -4.1,-23.06 11.09,-3.33 29.71,11.81 36.66,15.61 13.09,7.07 25.46,13.58 35.36,16.94 -3.81,-35.5 -19.7,-68.4 -24.42,-103 12.57,12.15 17.66,31.14 23.8,49.46 6.1,18.43 10.7,38.51 16.28,56.97 4.19,0.8 8.76,1.19 13.62,1.33 3.42,-44.15 -6.52,-86.59 -11.57,-126.8 7.85,6.13 8.76,17.34 10.9,27.15 6.62,30.24 12.57,64.94 15.57,98.32 5.66,1.7 13.75,0.1 18.42,-1.38 1.19,-9.31 2.76,-19.79 4.71,-29.82 1.81,-8.96 1.19,-20.98 9.57,-24.43 0.24,12.57 5.19,31.14 5.41,48.18 2.72,0.19 3.43,-1.57 6.14,-1.38 1.96,-14.71 -4.57,-26.67 -6.85,-39.36 7.19,2.61 8.66,10.82 12.28,16.99 4.24,-13.24 4.81,-30.28 8.81,-46.14 1,-3.94 2.52,-10.67 7.52,-10.19 7.76,0.89 4.71,23.68 4.71,33.27 0,14.29 0,25.01 0,37.32 5.52,1.46 14.14,-0.11 19.09,1.99 8.28,-26.73 16.28,-57.01 28.51,-81.32 3.76,-7.45 7.28,-16.62 15.66,-19.04 -6.85,34.09 -21.75,66.03 -25.18,105.82 2.76,2.89 8,3.32 11.57,5.45 9.18,-34.31 24.23,-69.44 40.08,-99.07 5.66,-10.4 10.56,-21.89 19.04,-27.05 0.28,0 0.47,0 0.66,0l0.01 0.01z"/>
  <path class="fil1" d="M4427.12 5871.73c-8.52,4.97 -20.71,4.46 -30.37,4.78 -34.65,0.96 -69.02,-2.12 -101.68,-4.78 -43.31,-3.57 -85.96,-8.03 -126.8,-12.87 -82.59,-9.82 -161.08,-28.57 -241.48,-35.94 -88.54,-8.11 -182.25,-12.46 -271.09,-8.83 -89.63,3.75 -162.93,21.41 -233.67,42.02 -68.06,19.89 -135.75,43.33 -205.82,63.8 -69.64,20.22 -137.85,43.21 -212.01,58.91 -72.88,15.51 -154.51,32 -244.05,33.94 -45.74,0.99 -91.63,4.4 -138.14,3.37 -44.5,-0.95 -89.49,2.89 -132.95,-5.37 118.86,-5.26 233.06,-5.08 331.92,-21.73 99.11,-16.77 191.12,-36.85 277.94,-63.76 87.68,-27.16 172.46,-52.83 260.6,-77.29 67.93,-18.78 132.91,-35.35 211.97,-44.72 88.06,-10.48 201.87,-6.7 293.65,-0.71 65.78,4.33 127.76,13.47 187.59,23.08 120.81,19.26 239.53,37.5 374.38,46.09l0.01 0.01zm1574.09 -299.63c-37.94,0.66 -75.73,-6.12 -113.86,-7.45 -204.64,-7.55 -380.62,57.2 -553.3,133.48 -37.46,16.62 -75.97,31.43 -112.91,48.85 -36.66,17.34 -75.06,33 -113.86,48.14 -37.7,14.81 -80.06,27.57 -123.28,40.69 -42.04,12.71 -87.16,26.09 -132.05,33.89 -48.03,8.4 -100.77,11.16 -155.51,15.62 -52.5,4.27 -106.62,6.98 -160.75,-1.37 34.18,-2.71 67.17,-2.18 99.06,-5.41 93.39,-9.5 184.12,-19.55 265.85,-40.67 106.01,-27.39 200.3,-61.77 291.89,-102.41 68.35,-30.32 132.56,-61.56 203.25,-89.47 174.03,-68.83 316.5,-112.79 513.37,-92.23 17.14,1.84 34.65,3.6 50.36,6.12 15.33,2.47 30.66,5.56 41.75,12.24l-0.01 -0.02z"/>
  <path class="fil3" d="M4810.3 6297.43c182.93,-3.8 225.01,13.4 97.01,16.09 -158.37,3.43 -270.85,-12.46 -97.01,-16.09z"/>
 </g>
</svg>
