<?xml version="1.0" standalone="no"?>
<!DOCTYPE svg PUBLIC "-//W3C//DTD SVG 20010904//EN"
 "http://www.w3.org/TR/2001/REC-SVG-20010904/DTD/svg10.dtd">
<svg version="1.0" xmlns="http://www.w3.org/2000/svg"
 width="799.000000pt" height="423.000000pt" viewBox="0 0 799.000000 423.000000"
 preserveAspectRatio="xMidYMid meet">

<g transform="translate(0.000000,423.000000) scale(0.100000,-0.100000)"
fill="#000000" stroke="none">
<path d="M7278 1925 c-2 -3 -222 -43 -489 -89 -1539 -270 -1842 -325 -1634
-302 33 4 508 81 1055 172 547 90 1000 163 1007 162 9 -2 -24 -52 -83 -129
-81 -105 -100 -125 -114 -117 -11 7 -106 -2 -325 -31 -405 -54 -619 -79 -624
-75 -3 3 7 17 20 32 55 61 58 73 5 18 l-57 -58 -197 -24 c-237 -29 -226 -28
-217 -6 5 14 3 13 -13 -4 -16 -17 -45 -23 -178 -38 -212 -24 -221 -25 -279
-35 l-50 -9 48 -1 48 -1 -113 -110 c-112 -108 -114 -109 -163 -111 -27 -1 -63
-5 -80 -9 -24 -6 -16 -8 35 -9 l65 -2 -140 -134 c-135 -129 -142 -134 -183
-135 -26 0 -41 -4 -37 -10 3 -6 18 -10 33 -10 25 0 24 -2 -26 -53 -48 -48 -64
-77 -44 -77 4 0 37 30 72 66 l65 65 165 -6 c91 -4 167 -9 169 -11 2 -1 -20
-29 -48 -62 -28 -32 -51 -64 -51 -70 0 -29 32 -7 88 61 l60 73 108 -4 c60 -2
140 -7 178 -10 l68 -7 -51 -55 c-28 -30 -51 -60 -51 -67 0 -31 23 -16 81 53
l64 75 110 -5 c61 -2 170 -5 243 -5 l134 -1 -67 -75 c-43 -48 -65 -80 -61 -90
3 -8 9 -15 14 -15 7 0 108 115 150 170 2 3 96 3 208 1 182 -3 204 -1 204 13 0
13 -13 16 -67 17 -38 1 -121 4 -185 8 l-117 6 137 157 137 157 177 0 c162 1
205 7 185 27 -3 3 -78 5 -167 5 l-162 -2 24 30 c12 16 59 71 103 123 107 125
70 94 -56 -48 l-101 -113 -261 -3 c-144 -2 -263 -3 -265 -2 -1 0 56 68 127
151 l130 149 343 38 c279 30 543 54 615 56 7 0 -92 -141 -221 -312 -128 -172
-273 -371 -323 -443 -50 -71 -106 -147 -125 -168 l-33 -37 -1050 25 c-577 15
-1065 28 -1082 31 -18 3 -33 9 -33 14 0 5 136 130 302 277 535 475 571 508
576 522 4 11 -2 9 -20 -5 -46 -35 -269 -226 -473 -404 -110 -96 -252 -217
-315 -269 -63 -52 -118 -100 -122 -105 -13 -18 -9 -64 7 -79 21 -22 51 -24
968 -62 456 -19 832 -37 835 -39 4 -2 92 -10 195 -17 183 -12 188 -13 183 -33
-3 -12 -6 -25 -6 -30 0 -5 -24 -6 -53 -3 -60 6 -185 -15 -152 -26 11 -4 62 -8
112 -9 54 -2 93 -7 93 -13 0 -5 4 -4 9 4 7 10 20 12 49 7 35 -5 51 0 124 39
85 46 97 57 30 30 -45 -19 -112 -35 -112 -27 0 3 14 21 32 39 44 46 20 41 -38
-7 -58 -48 -71 -50 -70 -10 1 20 6 30 16 30 9 0 31 17 49 38 35 41 340 427
465 590 44 56 79 102 80 102 1 0 3 -131 5 -290 l3 -290 -153 -2 -154 -1 147
-7 c81 -3 151 -9 155 -14 4 -4 -59 -5 -142 -2 -183 8 -179 -7 8 -30 67 -9 129
-18 137 -20 29 -10 392 -16 497 -8 102 7 105 8 58 15 -27 5 -142 13 -254 19
-112 5 -206 12 -209 15 -14 14 17 15 164 5 87 -5 191 -9 229 -9 l70 2 -85 7
c-47 4 -151 11 -232 15 l-146 7 -6 32 c-3 17 -8 159 -11 316 -3 157 -8 294
-10 305 -3 14 56 98 200 283 113 145 205 268 205 273 0 20 -21 7 -54 -33 -18
-24 -109 -137 -201 -253 -167 -209 -262 -319 -169 -195 78 104 323 412 359
450 39 42 51 75 35 95 -12 14 -51 20 -62 10z m-1310 -494 c-24 -27 -83 -94
-133 -149 l-90 -101 -189 -1 c-179 0 -188 1 -174 18 9 9 59 67 112 127 l95
110 183 21 c101 12 196 22 211 23 l29 1 -44 -49z m-509 -123 c-81 -88 -122
-125 -144 -130 -16 -3 -95 -7 -175 -7 l-145 -1 112 112 113 113 137 16 c76 9
155 17 176 18 l39 1 -113 -122z m1441 -12 c0 -2 -8 -10 -17 -17 -16 -13 -17
-12 -4 4 13 16 21 21 21 13z m-40 -50 c0 -2 -8 -10 -17 -17 -16 -13 -17 -12
-4 4 13 16 21 21 21 13z m-598 -101 c-12 -15 -78 -86 -147 -158 l-126 -132
-162 3 c-89 1 -199 5 -244 8 l-82 6 125 142 125 141 77 5 c42 3 162 6 265 8
l189 3 -20 -26z m-952 9 c0 -3 -59 -68 -132 -145 l-132 -139 -175 0 -176 0
140 140 139 139 91 3 c211 7 245 7 245 2z m378 -33 c-18 -21 -76 -86 -128
-145 l-95 -105 -188 -1 -189 0 73 83 c40 45 98 110 128 144 l56 63 188 0 189
0 -34 -39z m-1380 -498 c-21 -2 -55 -2 -75 0 -21 2 -4 4 37 4 41 0 58 -2 38
-4z m777 -14 c241 -6 446 -15 455 -20 9 -6 -55 -7 -175 -3 -104 4 -361 12
-570 19 -209 7 -328 13 -265 14 63 0 313 -4 555 -10z m838 -26 c-7 -2 -19 -2
-25 0 -7 3 -2 5 12 5 14 0 19 -2 13 -5z m67 -3 c0 -13 -11 -13 -30 0 -12 8
-11 10 8 10 12 0 22 -4 22 -10z m57 -6 c-3 -3 -12 -4 -19 -1 -8 3 -5 6 6 6 11
1 17 -2 13 -5z m66 -1 c-7 -2 -21 -2 -30 0 -10 3 -4 5 12 5 17 0 24 -2 18 -5z"/>
<path d="M6565 1480 c-16 -17 -16 -20 -3 -15 9 4 19 13 22 21 7 19 2 18 -19
-6z"/>
<path d="M7240 1023 c-209 -3 -253 -8 -215 -23 48 -20 857 -1 894 20 15 9
-158 10 -679 3z"/>
<path d="M6770 1000 c0 -13 60 -13 80 0 11 7 2 10 -32 10 -27 0 -48 -4 -48
-10z"/>
<path d="M3778 728 c-8 -13 -26 -51 -39 -85 -36 -93 -53 -83 -24 13 17 58 18
67 5 59 -5 -3 -19 -33 -31 -65 -12 -33 -26 -60 -30 -60 -5 0 -9 20 -9 44 0 56
-17 69 -26 21 -5 -26 -10 -33 -17 -26 -18 18 -26 13 -29 -21 -6 -59 -26 -42
-38 34 -7 40 -17 80 -22 88 -8 13 -9 12 -4 -1 2 -10 8 -49 12 -88 8 -90 -8
-95 -32 -11 -9 33 -21 63 -25 66 -13 8 -11 -14 6 -68 8 -27 12 -48 10 -48 -3
0 -25 10 -50 22 -50 24 -62 21 -44 -14 10 -19 7 -18 -25 10 -43 38 -71 43 -61
10 6 -18 4 -20 -11 -13 -50 21 -164 10 -181 -18 -4 -7 0 -8 13 -3 44 17 120
18 152 2 36 -19 72 -21 72 -4 0 7 6 6 18 -4 27 -24 52 -29 58 -13 5 13 10 12
36 -1 38 -19 106 -21 147 -4 17 7 39 9 48 5 10 -4 61 -9 113 -11 52 -1 134 -4
183 -6 48 -2 87 0 87 5 0 4 46 5 103 3 65 -3 89 -2 67 3 -27 6 -11 9 70 11
l105 3 -169 12 c-94 7 -175 11 -182 8 -7 -2 -15 0 -19 6 -3 6 -17 8 -30 5 -38
-9 -39 14 -1 33 31 14 48 33 31 33 -19 0 -76 -34 -109 -65 -30 -28 -43 -35
-58 -28 -17 7 -14 14 32 71 56 70 54 79 -9 26 -23 -20 -40 -31 -39 -24 2 7 -3
15 -9 17 -7 2 -27 -17 -44 -44 l-31 -48 6 42 c3 23 15 63 26 89 22 51 21 68
-2 32z m172 -143 c0 -2 -10 -9 -22 -15 -22 -11 -22 -10 -4 4 21 17 26 19 26
11z"/>
<path d="M6406 575 c-38 -38 -19 -42 264 -50 107 -3 302 -10 432 -16 145 -6
244 -7 254 -1 11 6 -9 11 -68 15 -45 4 -130 11 -188 16 -58 6 -211 17 -340 26
-129 8 -258 17 -286 20 -40 5 -55 2 -68 -10z"/>
<path d="M3060 570 c0 -5 7 -7 15 -4 8 4 15 8 15 10 0 2 -7 4 -15 4 -8 0 -15
-4 -15 -10z"/>
<path d="M5274 505 c-11 -17 -25 -25 -46 -25 -17 0 -27 4 -23 10 8 14 -11 13
-34 -1 -14 -9 -25 -8 -51 5 -40 20 -40 20 -40 0 0 -17 -22 -16 -62 1 -13 5
-18 3 -18 -9 0 -21 -46 -22 -54 -1 -3 8 -11 15 -18 15 -9 0 -9 -3 0 -12 7 -7
12 -16 12 -20 0 -13 -48 -9 -53 5 -3 7 -6 5 -6 -5 -1 -21 -21 -25 -21 -4 0 8
-7 16 -15 20 -17 6 -21 -9 -5 -19 6 -4 8 -10 6 -14 -6 -8 561 -4 576 5 6 4 14
1 18 -6 6 -10 21 -8 64 11 58 23 84 44 72 56 -3 4 -22 -1 -41 -10 -44 -21 -57
-21 -31 -2 20 15 20 15 0 15 -10 0 -34 -9 -52 -20 -41 -25 -55 -25 -22 0 33
26 14 26 -25 0 -40 -27 -53 -25 -47 5 2 14 0 25 -7 25 -6 0 -18 -11 -27 -25
-9 -14 -20 -25 -25 -25 -5 0 -7 11 -3 25 3 14 4 25 0 25 -3 0 -13 -11 -22 -25z"/>
<path d="M4107 488 c17 -17 25 -19 36 -10 8 7 17 9 21 5 3 -4 28 -8 54 -10 60
-4 39 -5 247 10 225 16 197 28 -60 26 -143 -1 -187 -4 -196 -15 -9 -12 -14
-11 -32 1 -16 11 -24 12 -35 2 -12 -9 -16 -9 -19 1 -3 6 -12 12 -21 12 -14 0
-13 -4 5 -22z"/>
<path d="M6866 500 c13 -13 273 -30 293 -20 16 8 -43 15 -209 25 -65 3 -91 2
-84 -5z"/>
<path d="M3853 488 c-37 -18 -26 -27 25 -22 52 6 53 6 100 1 31 -4 42 5 22 18
-6 4 -17 2 -25 -5 -10 -8 -15 -8 -20 0 -4 7 -18 10 -31 7 -14 -2 -27 0 -30 4
-6 11 -13 11 -41 -3z"/>
<path d="M4030 493 c0 -5 12 -16 25 -26 l25 -18 -12 26 c-10 23 -38 36 -38 18z"/>
<path d="M4806 485 c-3 -8 -1 -15 4 -15 6 0 10 7 10 15 0 8 -2 15 -4 15 -2 0
-6 -7 -10 -15z"/>
<path d="M5563 474 c-18 -8 -33 -21 -33 -29 0 -16 15 -21 24 -7 2 4 64 6 138
5 132 -2 155 8 51 22 -29 4 -53 11 -53 15 0 13 -92 9 -127 -6z"/>
<path d="M6779 479 c-44 -10 -183 -64 -221 -87 -29 -17 -37 -32 -16 -32 11 0
269 108 277 116 10 9 -6 10 -40 3z"/>
<path d="M6645 470 c-11 -4 -36 -6 -55 -3 -43 6 -220 -57 -220 -79 0 -13 44
-9 65 6 30 21 145 68 157 64 6 -2 -21 -16 -60 -32 -67 -26 -101 -50 -90 -62 6
-5 253 98 265 110 9 9 -39 6 -62 -4z"/>
<path d="M6800 447 c-68 -24 -168 -72 -184 -88 -26 -24 11 -16 100 24 55 24
116 50 136 56 21 7 40 17 43 22 10 15 -27 10 -95 -14z"/>
<path d="M7075 450 c33 -5 82 -16 109 -24 64 -21 368 -24 348 -4 -8 8 -65 15
-165 19 -84 4 -197 9 -252 12 -79 5 -87 4 -40 -3z"/>
<path d="M5943 433 c9 -2 23 -2 30 0 6 3 -1 5 -18 5 -16 0 -22 -2 -12 -5z"/>
<path d="M6864 420 c-91 -25 -164 -56 -164 -71 0 -10 19 -10 60 3 8 3 12 3 8
1 -9 -5 -11 -33 -2 -33 13 0 200 72 209 81 15 15 -29 10 -96 -11 -84 -26 -87
-19 -4 11 36 12 65 26 65 31 0 4 -1 8 -2 7 -2 0 -35 -9 -74 -19z"/>
<path d="M4213 388 c2 -7 13 -13 25 -12 86 3 103 5 97 14 -10 15 -128 13 -122
-2z"/>
<path d="M6963 375 c-84 -23 -128 -44 -116 -56 7 -7 31 -2 78 16 71 26 92 31
63 14 -22 -12 -23 -29 -3 -29 20 0 105 42 105 52 0 5 -12 5 -26 2 -19 -5 -25
-4 -20 5 9 15 -15 13 -81 -4z"/>
<path d="M7250 353 c-63 -17 -79 -28 -63 -44 8 -8 28 -4 72 16 34 15 61 32 61
36 0 11 -2 11 -70 -8z"/>
<path d="M7070 340 c0 -12 44 -12 80 0 20 6 14 8 -27 9 -29 1 -53 -3 -53 -9z"/>
</g>
</svg>
